<svg xmlns="http://www.w3.org/2000/svg" width="1920" height="1080" viewBox="0 0 508 285.75" id="svg1165"><g id="layer1" transform="translate(0 -11.25)"><g id="g1750" class="buttons hidden" fill="#0095ff" stroke-width=".384"><rect ry="1.8" y="131.159" x="129.379" height="15.098" width="15.098" id="rect1664" paint-order="stroke fill markers"/><rect id="rect1666" width="15.098" height="15.098" x="164.174" y="131.159" ry="1.8" paint-order="stroke fill markers"/><rect ry="1.8" y="131.159" x="146.776" height="15.098" width="15.098" id="rect1670" paint-order="stroke fill markers"/></g><g id="g1758" class="buttons hidden" fill="#0095ff" stroke-width=".384"><rect id="rect1677" width="15.098" height="15.098" x="129.379" y="112.579" ry="1.8" paint-order="stroke fill markers"/><rect ry="1.8" y="112.579" x="164.174" height="15.098" width="15.098" id="rect1679" paint-order="stroke fill markers"/><rect id="rect1681" width="15.098" height="15.098" x="146.776" y="112.579" ry="1.8" paint-order="stroke fill markers"/></g><g id="g1766" class="buttons hidden" fill="#0095ff" stroke-width=".384"><rect ry="1.8" y="94.833" x="129.379" height="15.098" width="15.098" id="rect1701" paint-order="stroke fill markers"/><rect id="rect1703" width="15.098" height="15.098" x="164.174" y="94.833" ry="1.8" paint-order="stroke fill markers"/><rect ry="1.8" y="94.833" x="146.776" height="15.098" width="15.098" id="rect1705" paint-order="stroke fill markers"/></g><g transform="translate(4.812 90.302) scale(.25743)" id="g3345"><g id="g2508" transform="translate(-113.637 -2.076)"><path d="M324.186 147.222H175.819c-13.78 0-24.946 11.171-24.946 24.94 0 13.78 11.166 24.951 24.946 24.951h148.367c13.774 0 24.951-11.171 24.951-24.951.001-13.769-11.176-24.94-24.951-24.94zm-3.282 33.474a8.535 8.535 0 0 1-8.534-8.534c0-4.71 3.824-8.529 8.534-8.529a8.53 8.53 0 0 1 8.533 8.529 8.53 8.53 0 0 1-8.533 8.534z" id="path2502"/><path d="M324.186 202.696H175.819c-13.78 0-24.946 11.165-24.946 24.946 0 13.781 11.166 24.946 24.946 24.946h148.367c13.774 0 24.951-11.165 24.951-24.946 0-13.781-11.176-24.946-24.951-24.946zm-3.282 33.486c-4.71 0-8.534-3.83-8.534-8.54 0-4.71 3.824-8.534 8.534-8.534 4.714 0 8.533 3.825 8.533 8.534 0 4.709-3.819 8.54-8.533 8.54z" id="path2504"/><path d="M324.186 258.171H175.819c-13.78 0-24.946 11.165-24.946 24.945 0 13.78 11.166 24.951 24.946 24.951h148.367c13.774 0 24.951-11.171 24.951-24.951 0-13.78-11.176-24.945-24.951-24.945zm-3.282 33.474c-4.71 0-8.534-3.813-8.534-8.528a8.535 8.535 0 0 1 8.534-8.534 8.531 8.531 0 0 1 8.533 8.534c.001 4.714-3.819 8.528-8.533 8.528z" id="path2506"/></g><g id="g2514" transform="translate(-113.638 -2.076)" fill="#ff931e"><path d="M207.769 333.724h84.473v19.054h-84.473z" id="rect2510"/><path d="M244.282 314.03h11.437v28.58h-11.437z" id="rect2512"/></g><g id="g2520" transform="translate(-113.632 -2.076)" fill="#ff931e"><path d="M134.814 339.681h67.719v6.288h-67.719z" id="rect2516"/><path d="M297.472 339.681h67.714v6.288h-67.714z" id="rect2518"/></g></g><g id="g1835" class="cv-view hidden"><path d="M73.617 138.487h22.114v31.276H73.617z" id="rect3128" fill="#fffdfd" stroke-width=".544" stroke-linejoin="bevel" paint-order="stroke fill markers"/><path d="M74.721 139.451h3.423v3.422H74.72z" id="rect3132" fill="#5f5b5b" stroke-width=".544" stroke-linejoin="bevel" paint-order="stroke fill markers"/><path d="M73.54 144.118h22.244v1.244H73.54z" id="rect3134" fill="#2b90e1" stroke-width=".544" stroke-linejoin="bevel" paint-order="stroke fill markers"/><path d="M79.575 140.104h8.323v.934h-8.323z" id="rect3136" fill="#e1872b" stroke-width=".544" stroke-linejoin="bevel" paint-order="stroke fill markers"/><path d="M79.575 142.104h11.667v.598H79.575z" id="rect3138" fill="#e1942b" stroke-width=".419" stroke-linejoin="bevel" paint-order="stroke fill markers"/><path d="M74.2 146.197h4.868v4.345H74.2z" id="rect3140" fill="#c4c4c4" stroke-width=".544" stroke-linejoin="bevel" paint-order="stroke fill markers"/><path d="M79.812 146.142h8.195v11.027h-8.195z" id="rect3142" fill="#c4c4c4" stroke-width=".544" stroke-linejoin="bevel" paint-order="stroke fill markers"/><path d="M88.75 146.197h6.517v8.25H88.75z" id="rect3144" fill="#c4c4c4" stroke-width=".544" stroke-linejoin="bevel" paint-order="stroke fill markers"/><rect ry=".129" y="146.356" x="77.863" height="1.083" width="1.083" id="rect1721-3" class="button hidden" fill="#0095ff"/><rect id="rect1785" width="1.083" height="1.083" x="76.707" y="146.356" ry=".129" class="button hidden" fill="#0095ff"/><rect ry=".129" y="146.356" x="75.552" height="1.083" width="1.083" id="rect1787" class="button hidden" fill="#0095ff"/><rect id="rect1789" width="1.083" height="1.083" x="86.762" y="146.246" ry=".129" class="button hidden" fill="#0095ff"/><rect ry=".129" y="146.246" x="85.607" height="1.083" width="1.083" id="rect1791" class="button hidden" fill="#0095ff"/><rect id="rect1793" width="1.083" height="1.083" x="84.451" y="146.246" ry=".129" class="button hidden" fill="#0095ff"/><rect ry=".129" y="146.246" x="94.062" height="1.083" width="1.083" id="rect1795" class="button hidden" fill="#0095ff"/><rect id="rect1797" width="1.083" height="1.083" x="92.907" y="146.246" ry=".129" class="button hidden" fill="#0095ff"/><rect ry=".129" y="146.246" x="91.751" height="1.083" width="1.083" id="rect1799" class="button hidden" fill="#0095ff"/></g></g></svg>