<svg
   xmlns:dc="http://purl.org/dc/elements/1.1/"
   xmlns:cc="http://creativecommons.org/ns#"
   xmlns:rdf="http://www.w3.org/1999/02/22-rdf-syntax-ns#"
   xmlns:svg="http://www.w3.org/2000/svg"
   xmlns="http://www.w3.org/2000/svg"
   xmlns:sodipodi="http://sodipodi.sourceforge.net/DTD/sodipodi-0.dtd"
   xmlns:inkscape="http://www.inkscape.org/namespaces/inkscape"
   width="1052.3622"
   height="744.09448"
   viewBox="0 0 1052.3622 744.09448"
   version="1.1"
   sodipodi:docname="function-of-time.svg">
  <defs
 />
  <sodipodi:namedview
     pagecolor="#ffffff"
     bordercolor="#666666"
     borderopacity="1.0"
     showgrid="false"
     units="px"
     />
  <metadata
>
    <rdf:RDF>
      <cc:Work
         rdf:about="">
        <dc:format>image/svg+xml</dc:format>
        <dc:type
           rdf:resource="http://purl.org/dc/dcmitype/StillImage" />
        <dc:title />
      </cc:Work>
    </rdf:RDF>
  </metadata>
  <g
     transform="translate(0,-308.26772)">
    <path
       style="fill:none;fill-rule:evenodd;stroke:#000000;stroke-width:3.90042138;stroke-linecap:round;stroke-linejoin:round;stroke-miterlimit:4;stroke-dasharray:none;stroke-opacity:1;opacity:0"
       d="m -25.149184,444.92857 -0.1154,13.80999 13.985073,-13.16905 m 9.3293003,12.50696 c 0,12.73005 -10.3197383,23.04979 -23.0497773,23.04979 -12.730055,10e-6 -23.049801,-10.31973 -23.049801,-23.04979 0,-12.73005 10.319746,-23.04979 23.049801,-23.04978 12.730039,0 23.0497773,10.31974 23.0497773,23.04978 z"
       sodipodi:nodetypes="cccsssss"
       class="time-user negative" />
    <path
       style="fill:#000000;fill-rule:evenodd;stroke:none;stroke-width:1"
       d="m 165.96687,477.94272 0,-6.25 -1.5625,0 0,6.25 1.5625,0 0,0 z m -10.00392,-4.02635 4.85717,-3.93325 -0.98332,-1.21429 -4.85716,3.93325 0.98331,1.21429 0,0 z m -3.1327,-10.52431 6.08982,1.40594 0.35148,-1.52245 -6.08981,-1.40595 -0.35149,1.52246 0,0 z m 24.35926,-1.52246 -6.08982,1.40595 0.35149,1.52245 6.08981,-1.40594 -0.35148,-1.52246 0,0 z m -1.79791,10.83248 -4.85716,-3.93325 -0.98331,1.21429 4.85716,3.93325 0.98331,-1.21429 0,0 z m -19.57901,-43.19686 c -6.47317,0 -11.72072,5.60191 -11.72072,11.71875 0,0 0,-3.61444 0,0 l 0,5.86068 0,3.5117 c 0,1.29587 1.04031,2.34637 2.34375,2.34637 1.29442,0 2.34375,-1.04873 2.34375,-2.34637 l 0,-0.77863 1.5625,0 0,3.89619 c 0,1.29997 1.04031,2.35381 2.34375,2.35381 1.29442,0 2.34375,-1.04928 2.34375,-2.35381 l 0,-2.33369 1.5625,0 0,3.89619 c 0,1.29997 1.04031,2.35381 2.34375,2.35381 1.29442,0 2.34375,-1.04928 2.34375,-2.35381 l 0,-5.45869 1.5625,0 0,16.39806 c 0,1.29894 1.04031,2.35194 2.34375,2.35194 1.29442,0 2.34375,-1.04239 2.34375,-2.35194 l 0,-17.64804 c 3.21625,3.43816 7.45058,7.2201 9.18589,5.47543 1.6987,-1.70788 -2.67864,-6.41408 -8.79116,-16.69903 -2.7541,-4.63406 -6.23892,-7.8382 -12.11151,-7.83892 l 0,0 z m -13.28322,11.71875 c 0,-7.33503 5.94622,-13.28125 13.28125,-13.28125 4.86393,0 9.99718,2.26955 13.52997,8.7059 5.0992,9.29017 11.62026,15.38284 8.51517,18.48793 -2.22133,2.22133 -5.70895,0.0903 -8.76389,-2.76693 l 0,0 0,13.84121 c 0,2.17655 -1.74889,3.91939 -3.90625,3.91939 -2.1724,0 -3.90625,-1.75477 -3.90625,-3.91939 l 0,-7.79681 c -0.65286,0.48916 -1.46437,0.7787 -2.34375,0.7787 -1.69143,0 -3.117,-1.05854 -3.66534,-2.54394 -0.68871,0.60958 -1.59358,0.98144 -2.58466,0.98144 -2.1724,0 -3.90625,-1.74723 -3.90625,-3.90254 l 0,-0.021 c -0.65286,0.48839 -1.46437,0.7764 -2.34375,0.7764 -2.1724,0 -3.90625,-1.74898 -3.90625,-3.90645 l 0,-9.35263 0,0 z"
       class="input-user negative-fill" />
    <path
       style="opacity:0;fill:none;fill-rule:evenodd;stroke:#000000;stroke-width:3.90042138;stroke-linecap:round;stroke-linejoin:round;stroke-miterlimit:4;stroke-dasharray:none;stroke-opacity:1"
       d="m -25.149181,864.09174 -0.1154,13.80999 13.98507,-13.16905 m 9.3293003,12.50696 c 0,12.73005 -10.3197403,23.04979 -23.0497803,23.04979 -12.73005,10e-6 -23.049796,-10.31973 -23.049796,-23.04979 0,-12.73005 10.319746,-23.04979 23.049796,-23.04978 12.73004,0 23.0497803,10.31974 23.0497803,23.04978 z"
       sodipodi:nodetypes="cccsssss"
       class="time-device negative" />
    <path
       d="m 163.15667,837.00363 -11.808,29.20926 9.63283,-3.10738 -6.68083,23.46061 15.38146,-32.3166 -10.09894,4.19493 z"
       class="input-device"
       style="fill:#fdf400;fill-opacity:1;fill-rule:evenodd;stroke:#fdf400;stroke-width:1.08757842;stroke-linecap:butt;stroke-linejoin:miter;stroke-miterlimit:4;stroke-dasharray:none;stroke-opacity:1" />
    <rect
       class="positive"
       style="opacity:1;fill:#ffffff;fill-opacity:1;fill-rule:nonzero;stroke:none;stroke-width:50;stroke-linecap:round;stroke-linejoin:round;stroke-miterlimit:4;stroke-dasharray:none;stroke-opacity:1"
       width="98.571434"
       height="154.28572"
       x="111.30961"
       y="375.21933" />
    <g
       transform="matrix(7.3086451,0,0,7.3086451,67.83947,355.18352)"
       class="negative-fill"
>
      <circle
         r="3.4252815"
         cy="7.5403247"
         cx="12.691252" />
      <path
         d="m 12.691252,12.678247 c -5.2235548,0 -6.8505636,3.425282 -6.8505636,3.425282 l 0,3.781428 13.7011266,0 0,-3.781428 c 0,0 -1.627009,-3.425282 -6.850563,-3.425282 z"
         sodipodi:nodetypes="sccccs" />
    </g>
    <g
       class="input-server"
       transform="matrix(0.56273582,0,0,0.56273582,50.668846,445.67842)">
      <circle
         r="44.425819"
         cy="376.43896"
         cx="195.34296"
         style="opacity:1;fill:#39ff00;fill-opacity:1;fill-rule:nonzero;stroke:none;stroke-width:5;stroke-linecap:round;stroke-linejoin:round;stroke-miterlimit:4;stroke-dasharray:none;stroke-opacity:1" />
      <text
         sodipodi:linespacing="125%"
         y="387.44214"
         x="166.37749"
         style="font-style:normal;font-weight:normal;font-size:30.22740173px;line-height:125%;font-family:sans-serif;letter-spacing:0px;word-spacing:0px;fill:#000000;fill-opacity:1;stroke:none;stroke-width:1px;stroke-linecap:butt;stroke-linejoin:miter;stroke-opacity:1"
         xml:space="preserve"><tspan
           style="fill:#ffffff;fill-opacity:1"
           y="387.44214"
           x="166.37749"
           sodipodi:role="line">200</tspan></text>
    </g>
    <path
       style="opacity:0;fill:none;fill-rule:evenodd;stroke:#000000;stroke-width:3.90042138;stroke-linecap:round;stroke-linejoin:round;stroke-miterlimit:4;stroke-dasharray:none;stroke-opacity:1"
       d="m -25.149191,635.73958 -0.1154,13.80999 13.98508,-13.16905 m 9.3293003,12.50696 c 0,12.73005 -10.3197403,23.04979 -23.0497803,23.04979 -12.73006,10e-6 -23.0498,-10.31973 -23.0498,-23.04979 0,-12.73005 10.31974,-23.04979 23.0498,-23.04978 12.73004,0 23.0497803,10.31974 23.0497803,23.04978 z"
       sodipodi:nodetypes="cccsssss"
       class="time-server negative" />
    <rect
       class="positive"
       style="opacity:1;fill:#ffffff;fill-opacity:1;fill-rule:nonzero;stroke:none;stroke-width:50;stroke-linecap:round;stroke-linejoin:round;stroke-miterlimit:4;stroke-dasharray:none;stroke-opacity:1"
       width="111.42857"
       height="161.42859"
       x="104.88103"
       y="589.50507" />
    <g
       transform="matrix(0.56377297,0,0,0.56377297,19.652089,524.82493)"
>
      <g
>
        <path
           style="fill:#675f58"
           d="m 324.186,147.222 -148.367,0 c -13.78,0 -24.946,11.171 -24.946,24.94 0,13.78 11.166,24.951 24.946,24.951 l 148.367,0 c 13.774,0 24.951,-11.171 24.951,-24.951 10e-4,-13.769 -11.176,-24.94 -24.951,-24.94 z m -3.282,33.474 c -4.71,0 -8.534,-3.819 -8.534,-8.534 0,-4.71 3.824,-8.529 8.534,-8.529 4.714,0 8.533,3.819 8.533,8.529 10e-4,4.715 -3.819,8.534 -8.533,8.534 z" />
        <path
           style="fill:#675f58"
           d="m 324.186,202.696 -148.367,0 c -13.78,0 -24.946,11.165 -24.946,24.946 0,13.781 11.166,24.946 24.946,24.946 l 148.367,0 c 13.774,0 24.951,-11.165 24.951,-24.946 0,-13.781 -11.176,-24.946 -24.951,-24.946 z m -3.282,33.486 c -4.71,0 -8.534,-3.83 -8.534,-8.54 0,-4.71 3.824,-8.534 8.534,-8.534 4.714,0 8.533,3.825 8.533,8.534 0,4.709 -3.819,8.54 -8.533,8.54 z" />
        <path
           style="fill:#675f58"
           d="m 324.186,258.171 -148.367,0 c -13.78,0 -24.946,11.165 -24.946,24.945 0,13.78 11.166,24.951 24.946,24.951 l 148.367,0 c 13.774,0 24.951,-11.171 24.951,-24.951 0,-13.78 -11.176,-24.945 -24.951,-24.945 z m -3.282,33.474 c -4.71,0 -8.534,-3.813 -8.534,-8.528 0,-4.715 3.824,-8.534 8.534,-8.534 4.714,0 8.533,3.819 8.533,8.534 10e-4,4.714 -3.819,8.528 -8.533,8.528 z" />
      </g>
      <g
>
        <rect
           y="333.724"
           x="207.769"
           width="84.473"
           style="fill:#ff931e"
           height="19.054001" />
        <rect
           y="314.03"
           x="244.282"
           width="11.437"
           style="fill:#ff931e"
           height="28.58" />
      </g>
      <g
>
        <rect
           y="339.681"
           x="134.814"
           width="67.719002"
           style="fill:#ff931e"
           height="6.2880001" />
        <rect
           y="339.681"
           x="297.47198"
           width="67.713997"
           style="fill:#ff931e"
           height="6.2880001" />
      </g>
    </g>
    <path
       class="function function-user"
       d="m 440.43863,401.38371 -1.53313,0 c -1.25073,0 -2.29972,-1.07924 -2.29972,-2.36021 0,-0.64553 0.27233,-1.23055 0.75648,-1.66427 l 0.98846,-0.96829 c 0.97838,-0.96829 0.97838,-2.55186 0,-3.52016 l -2.24926,-2.22911 c -0.44377,-0.44379 -1.09942,-0.70604 -1.76512,-0.70604 -0.66569,0 -1.31126,0.26225 -1.7651,0.70604 l -0.94814,0.94814 c -0.45391,0.50432 -1.05907,0.77665 -1.71471,0.77665 -1.29102,0 -2.37032,-1.04898 -2.37032,-2.28962 l 0,-1.54323 c 0,-1.36166 -1.09941,-2.53167 -2.47116,-2.53167 l -3.06626,0 c -1.37177,0 -2.46112,1.15993 -2.46112,2.53167 l 0,1.53315 c 0,1.24062 -1.07922,2.28962 -2.37027,2.28962 -0.64552,0 -1.24062,-0.27233 -1.67433,-0.7464 l -0.9784,-0.96831 c -0.44382,-0.45389 -1.0994,-0.70604 -1.76511,-0.70604 -0.66574,0 -1.31126,0.26225 -1.76515,0.70604 l -2.26944,2.21903 c -0.96828,0.96829 -0.96828,2.55185 0,3.51007 l 0.9481,0.94812 c 0.50437,0.45389 0.78677,1.05908 0.78677,1.70461 0,1.29105 -1.04898,2.36021 -2.29972,2.36021 l -1.53313,0 c -1.38183,0 -2.54177,1.07926 -2.54177,2.45101 l 0,1.53314 0,1.53312 c 0,1.36167 1.15994,2.451 2.54177,2.451 l 1.53313,0 c 1.25074,0 2.29972,1.07925 2.29972,2.36024 0,0.64553 -0.2824,1.25071 -0.78677,1.70459 l -0.9481,0.93803 c -0.96828,0.96831 -0.96828,2.55187 0,3.51009 l 2.24926,2.23918 c 0.44383,0.45389 1.09945,0.70606 1.76516,0.70606 0.66569,0 1.31122,-0.26225 1.76511,-0.70606 l 0.97839,-0.96829 c 0.42361,-0.47407 1.02882,-0.7464 1.67434,-0.7464 1.29103,0 2.37031,1.04898 2.37031,2.28962 l 0,1.53313 c 0,1.36166 1.08931,2.53169 2.47118,2.53169 l 3.06625,0 c 1.37177,0 2.46106,-1.15993 2.46106,-2.53169 l 0,-1.53313 c 0,-1.24064 1.07928,-2.28962 2.37033,-2.28962 0.64552,0 1.25073,0.28243 1.71468,0.77665 l 0.94816,0.94813 c 0.45389,0.4438 1.09942,0.70605 1.76511,0.70605 0.6657,0 1.31122,-0.26225 1.76512,-0.70605 l 2.24929,-2.23919 c 0.96828,-0.9683 0.96828,-2.55186 0,-3.52017 l -0.98851,-0.96829 c -0.48413,-0.43371 -0.75648,-1.0288 -0.75648,-1.66425 0,-1.29107 1.04901,-2.36024 2.29973,-2.36024 l 1.53313,0 c 1.37176,0 2.35015,-1.07923 2.35015,-2.451 l 0,-1.5432 0,-1.53314 c 0.0201,-1.37175 -0.95821,-2.45101 -2.32997,-2.45101 z m -8.84578,3.98415 0,0 c 0,4.44809 -3.60088,8.06912 -8.06914,8.06912 -4.4683,0 -8.06914,-3.62103 -8.06914,-8.06912 l 0,0 0,0 c 0,-4.44812 3.60084,-8.06915 8.06914,-8.06915 4.46826,0 8.06914,3.62103 8.06914,8.06915 l 0,0 z"
       />
    <path
       class="function function-server"
       d="m 440.43863,601.3837 -1.53313,0 c -1.25073,0 -2.29972,-1.07924 -2.29972,-2.36021 0,-0.64553 0.27233,-1.23055 0.75648,-1.66427 l 0.98846,-0.96829 c 0.97838,-0.96829 0.97838,-2.55186 0,-3.52016 l -2.24926,-2.22911 c -0.44377,-0.44379 -1.09942,-0.70604 -1.76512,-0.70604 -0.66569,0 -1.31126,0.26225 -1.7651,0.70604 l -0.94814,0.94814 c -0.45391,0.50432 -1.05907,0.77665 -1.71471,0.77665 -1.29102,0 -2.37032,-1.04898 -2.37032,-2.28962 l 0,-1.54323 c 0,-1.36166 -1.09941,-2.53167 -2.47116,-2.53167 l -3.06626,0 c -1.37177,0 -2.46112,1.15993 -2.46112,2.53167 l 0,1.53315 c 0,1.24062 -1.07922,2.28962 -2.37027,2.28962 -0.64552,0 -1.24062,-0.27233 -1.67433,-0.7464 l -0.9784,-0.96831 c -0.44382,-0.45389 -1.0994,-0.70604 -1.76511,-0.70604 -0.66574,0 -1.31126,0.26225 -1.76515,0.70604 l -2.26944,2.21903 c -0.96828,0.96829 -0.96828,2.55185 0,3.51007 l 0.9481,0.94812 c 0.50437,0.45389 0.78677,1.05908 0.78677,1.70461 0,1.29105 -1.04898,2.36021 -2.29972,2.36021 l -1.53313,0 c -1.38183,0 -2.54177,1.07926 -2.54177,2.45101 l 0,1.53314 0,1.53312 c 0,1.36167 1.15994,2.451 2.54177,2.451 l 1.53313,0 c 1.25074,0 2.29972,1.07925 2.29972,2.36024 0,0.64553 -0.2824,1.25071 -0.78677,1.70459 l -0.9481,0.93803 c -0.96828,0.96831 -0.96828,2.55187 0,3.51009 l 2.24926,2.23918 c 0.44383,0.45389 1.09945,0.70606 1.76516,0.70606 0.66569,0 1.31122,-0.26225 1.76511,-0.70606 l 0.97839,-0.96829 c 0.42361,-0.47407 1.02882,-0.7464 1.67434,-0.7464 1.29103,0 2.37031,1.04898 2.37031,2.28962 l 0,1.53313 c 0,1.36166 1.08931,2.53169 2.47118,2.53169 l 3.06625,0 c 1.37177,0 2.46106,-1.15993 2.46106,-2.53169 l 0,-1.53313 c 0,-1.24064 1.07928,-2.28962 2.37033,-2.28962 0.64552,0 1.25073,0.28243 1.71468,0.77665 l 0.94816,0.94813 c 0.45389,0.4438 1.09942,0.70605 1.76511,0.70605 0.6657,0 1.31122,-0.26225 1.76512,-0.70605 l 2.24929,-2.23919 c 0.96828,-0.9683 0.96828,-2.55186 0,-3.52017 l -0.98851,-0.96829 c -0.48413,-0.43371 -0.75648,-1.0288 -0.75648,-1.66425 0,-1.29107 1.04901,-2.36024 2.29973,-2.36024 l 1.53313,0 c 1.37176,0 2.35015,-1.07923 2.35015,-2.451 l 0,-1.5432 0,-1.53314 c 0.0201,-1.37175 -0.95821,-2.45101 -2.32997,-2.45101 z m -8.84578,3.98415 0,0 c 0,4.44809 -3.60088,8.06912 -8.06914,8.06912 -4.4683,0 -8.06914,-3.62103 -8.06914,-8.06912 l 0,0 0,0 c 0,-4.44812 3.60084,-8.06915 8.06914,-8.06915 4.46826,0 8.06914,3.62103 8.06914,8.06915 l 0,0 z"
       />
    <path
       class="function function-device"
       d="m 440.43863,804.24085 -1.53313,0 c -1.25073,0 -2.29972,-1.07924 -2.29972,-2.36021 0,-0.64553 0.27233,-1.23055 0.75648,-1.66427 l 0.98846,-0.96829 c 0.97838,-0.96829 0.97838,-2.55186 0,-3.52016 l -2.24926,-2.22911 c -0.44377,-0.44379 -1.09942,-0.70604 -1.76512,-0.70604 -0.66569,0 -1.31126,0.26225 -1.7651,0.70604 l -0.94814,0.94814 c -0.45391,0.50432 -1.05907,0.77665 -1.71471,0.77665 -1.29102,0 -2.37032,-1.04898 -2.37032,-2.28962 l 0,-1.54323 c 0,-1.36166 -1.09941,-2.53167 -2.47116,-2.53167 l -3.06626,0 c -1.37177,0 -2.46112,1.15993 -2.46112,2.53167 l 0,1.53315 c 0,1.24062 -1.07922,2.28962 -2.37027,2.28962 -0.64552,0 -1.24062,-0.27233 -1.67433,-0.7464 l -0.9784,-0.96831 c -0.44382,-0.45389 -1.0994,-0.70604 -1.76511,-0.70604 -0.66574,0 -1.31126,0.26225 -1.76515,0.70604 l -2.26944,2.21903 c -0.96828,0.96829 -0.96828,2.55185 0,3.51007 l 0.9481,0.94812 c 0.50437,0.45389 0.78677,1.05908 0.78677,1.70461 0,1.29105 -1.04898,2.36021 -2.29972,2.36021 l -1.53313,0 c -1.38183,0 -2.54177,1.07926 -2.54177,2.45101 l 0,1.53314 0,1.53312 c 0,1.36167 1.15994,2.451 2.54177,2.451 l 1.53313,0 c 1.25074,0 2.29972,1.07925 2.29972,2.36024 0,0.64553 -0.2824,1.25071 -0.78677,1.70459 l -0.9481,0.93803 c -0.96828,0.96831 -0.96828,2.55187 0,3.51009 l 2.24926,2.23918 c 0.44383,0.45389 1.09945,0.70606 1.76516,0.70606 0.66569,0 1.31122,-0.26225 1.76511,-0.70606 l 0.97839,-0.96829 c 0.42361,-0.47407 1.02882,-0.7464 1.67434,-0.7464 1.29103,0 2.37031,1.04898 2.37031,2.28962 l 0,1.53313 c 0,1.36166 1.08931,2.53169 2.47118,2.53169 l 3.06625,0 c 1.37177,0 2.46106,-1.15993 2.46106,-2.53169 l 0,-1.53313 c 0,-1.24064 1.07928,-2.28962 2.37033,-2.28962 0.64552,0 1.25073,0.28243 1.71468,0.77665 l 0.94816,0.94813 c 0.45389,0.4438 1.09942,0.70605 1.76511,0.70605 0.6657,0 1.31122,-0.26225 1.76512,-0.70605 l 2.24929,-2.23919 c 0.96828,-0.9683 0.96828,-2.55186 0,-3.52017 l -0.98851,-0.96829 c -0.48413,-0.43371 -0.75648,-1.0288 -0.75648,-1.66425 0,-1.29107 1.04901,-2.36024 2.29973,-2.36024 l 1.53313,0 c 1.37176,0 2.35015,-1.07923 2.35015,-2.451 l 0,-1.5432 0,-1.53314 c 0.0201,-1.37175 -0.95821,-2.45101 -2.32997,-2.45101 z m -8.84578,3.98415 0,0 c 0,4.44809 -3.60088,8.06912 -8.06914,8.06912 -4.4683,0 -8.06914,-3.62103 -8.06914,-8.06912 l 0,0 0,0 c 0,-4.44812 3.60084,-8.06915 8.06914,-8.06915 4.46826,0 8.06914,3.62103 8.06914,8.06915 l 0,0 z"
       />
    <path
       class="function function-user function-server function-device"
       d="m 644.15292,598.52656 -1.53313,0 c -1.25073,0 -2.29972,-1.07924 -2.29972,-2.36021 0,-0.64553 0.27233,-1.23055 0.75648,-1.66427 l 0.98846,-0.96829 c 0.97838,-0.96829 0.97838,-2.55186 0,-3.52016 l -2.24926,-2.22911 c -0.44377,-0.44379 -1.09942,-0.70604 -1.76512,-0.70604 -0.66569,0 -1.31126,0.26225 -1.7651,0.70604 l -0.94814,0.94814 c -0.45391,0.50432 -1.05907,0.77665 -1.71471,0.77665 -1.29102,0 -2.37032,-1.04898 -2.37032,-2.28962 l 0,-1.54323 c 0,-1.36166 -1.09941,-2.53167 -2.47116,-2.53167 l -3.06626,0 c -1.37177,0 -2.46112,1.15993 -2.46112,2.53167 l 0,1.53315 c 0,1.24062 -1.07922,2.28962 -2.37027,2.28962 -0.64552,0 -1.24062,-0.27233 -1.67433,-0.7464 l -0.9784,-0.96831 c -0.44382,-0.45389 -1.0994,-0.70604 -1.76511,-0.70604 -0.66574,0 -1.31126,0.26225 -1.76515,0.70604 l -2.26944,2.21903 c -0.96828,0.96829 -0.96828,2.55185 0,3.51007 l 0.9481,0.94812 c 0.50437,0.45389 0.78677,1.05908 0.78677,1.70461 0,1.29105 -1.04898,2.36021 -2.29972,2.36021 l -1.53313,0 c -1.38183,0 -2.54177,1.07926 -2.54177,2.45101 l 0,1.53314 0,1.53312 c 0,1.36167 1.15994,2.451 2.54177,2.451 l 1.53313,0 c 1.25074,0 2.29972,1.07925 2.29972,2.36024 0,0.64553 -0.2824,1.25071 -0.78677,1.70459 l -0.9481,0.93803 c -0.96828,0.96831 -0.96828,2.55187 0,3.51009 l 2.24926,2.23918 c 0.44383,0.45389 1.09945,0.70606 1.76516,0.70606 0.66569,0 1.31122,-0.26225 1.76511,-0.70606 l 0.97839,-0.96829 c 0.42361,-0.47407 1.02882,-0.7464 1.67434,-0.7464 1.29103,0 2.37031,1.04898 2.37031,2.28962 l 0,1.53313 c 0,1.36166 1.08931,2.53169 2.47118,2.53169 l 3.06625,0 c 1.37177,0 2.46106,-1.15993 2.46106,-2.53169 l 0,-1.53313 c 0,-1.24064 1.07928,-2.28962 2.37033,-2.28962 0.64552,0 1.25073,0.28243 1.71468,0.77665 l 0.94816,0.94813 c 0.45389,0.4438 1.09942,0.70605 1.76511,0.70605 0.6657,0 1.31122,-0.26225 1.76512,-0.70605 l 2.24929,-2.23919 c 0.96828,-0.9683 0.96828,-2.55186 0,-3.52017 l -0.98851,-0.96829 c -0.48413,-0.43371 -0.75648,-1.0288 -0.75648,-1.66425 0,-1.29107 1.04901,-2.36024 2.29973,-2.36024 l 1.53313,0 c 1.37176,0 2.35015,-1.07923 2.35015,-2.451 l 0,-1.5432 0,-1.53314 c 0.0201,-1.37175 -0.95821,-2.45101 -2.32997,-2.45101 z m -8.84578,3.98415 0,0 c 0,4.44809 -3.60088,8.06912 -8.06914,8.06912 -4.4683,0 -8.06914,-3.62103 -8.06914,-8.06912 l 0,0 0,0 c 0,-4.44812 3.60084,-8.06915 8.06914,-8.06915 4.46826,0 8.06914,3.62103 8.06914,8.06915 l 0,0 z"
       />
    <path
       class="function function-user function-server function-device"
       d="m 794.15293,508.52656 -1.53313,0 c -1.25073,0 -2.29972,-1.07924 -2.29972,-2.36021 0,-0.64553 0.27233,-1.23055 0.75648,-1.66427 l 0.98846,-0.96829 c 0.97838,-0.96829 0.97838,-2.55186 0,-3.52016 l -2.24926,-2.22911 c -0.44377,-0.44379 -1.09942,-0.70604 -1.76512,-0.70604 -0.66569,0 -1.31126,0.26225 -1.7651,0.70604 l -0.94814,0.94814 c -0.45391,0.50432 -1.05907,0.77665 -1.71471,0.77665 -1.29102,0 -2.37032,-1.04898 -2.37032,-2.28962 l 0,-1.54323 c 0,-1.36166 -1.09941,-2.53167 -2.47116,-2.53167 l -3.06626,0 c -1.37177,0 -2.46112,1.15993 -2.46112,2.53167 l 0,1.53315 c 0,1.24062 -1.07922,2.28962 -2.37027,2.28962 -0.64552,0 -1.24062,-0.27233 -1.67433,-0.7464 l -0.9784,-0.96831 c -0.44382,-0.45389 -1.0994,-0.70604 -1.76511,-0.70604 -0.66574,0 -1.31126,0.26225 -1.76515,0.70604 l -2.26944,2.21903 c -0.96828,0.96829 -0.96828,2.55185 0,3.51007 l 0.9481,0.94812 c 0.50437,0.45389 0.78677,1.05908 0.78677,1.70461 0,1.29105 -1.04898,2.36021 -2.29972,2.36021 l -1.53313,0 c -1.38183,0 -2.54177,1.07926 -2.54177,2.45101 l 0,1.53314 0,1.53312 c 0,1.36167 1.15994,2.451 2.54177,2.451 l 1.53313,0 c 1.25074,0 2.29972,1.07925 2.29972,2.36024 0,0.64553 -0.2824,1.25071 -0.78677,1.70459 l -0.9481,0.93803 c -0.96828,0.96831 -0.96828,2.55187 0,3.51009 l 2.24926,2.23918 c 0.44383,0.45389 1.09945,0.70606 1.76516,0.70606 0.66569,0 1.31122,-0.26225 1.76511,-0.70606 l 0.97839,-0.96829 c 0.42361,-0.47407 1.02882,-0.7464 1.67434,-0.7464 1.29103,0 2.37031,1.04898 2.37031,2.28962 l 0,1.53313 c 0,1.36166 1.08931,2.53169 2.47118,2.53169 l 3.06625,0 c 1.37177,0 2.46106,-1.15993 2.46106,-2.53169 l 0,-1.53313 c 0,-1.24064 1.07928,-2.28962 2.37033,-2.28962 0.64552,0 1.25073,0.28243 1.71468,0.77665 l 0.94816,0.94813 c 0.45389,0.4438 1.09942,0.70605 1.76511,0.70605 0.6657,0 1.31122,-0.26225 1.76512,-0.70605 l 2.24929,-2.23919 c 0.96828,-0.9683 0.96828,-2.55186 0,-3.52017 l -0.98851,-0.96829 c -0.48413,-0.43371 -0.75648,-1.0288 -0.75648,-1.66425 0,-1.29107 1.04901,-2.36024 2.29973,-2.36024 l 1.53313,0 c 1.37176,0 2.35015,-1.07923 2.35015,-2.451 l 0,-1.5432 0,-1.53314 c 0.0201,-1.37175 -0.95821,-2.45101 -2.32997,-2.45101 z m -8.84578,3.98415 0,0 c 0,4.44809 -3.60088,8.06912 -8.06914,8.06912 -4.4683,0 -8.06914,-3.62103 -8.06914,-8.06912 l 0,0 0,0 c 0,-4.44812 3.60084,-8.06915 8.06914,-8.06915 4.46826,0 8.06914,3.62103 8.06914,8.06915 l 0,0 z"
       />
    <path
       d="m 796.95324,577.23409 -17.59921,-9.1586 0,-4.00703 17.59921,-9.19609 0,5.18437 -12.30779,6.07657 12.30779,5.9125 0,5.18828 z m 13.34844,-27.27812 -7.46795,32.81246 -4.35782,0 7.46796,-32.81246 4.35781,0 z m 13.76252,16.17734 -12.30938,-6.07578 0,-5.18437 17.59921,9.1953 0,4.00703 -17.59921,9.1586 0,-5.18828 12.30938,-5.9125 z"
       class="output-device output-user output-server"
       style="fill:#16dc00;fill-opacity:1" />
    <path
       class="function function-user function-device"
       d="m 794.15293,689.95513 -1.53313,0 c -1.25073,0 -2.29972,-1.07924 -2.29972,-2.36021 0,-0.64553 0.27233,-1.23055 0.75648,-1.66427 l 0.98846,-0.96829 c 0.97838,-0.96829 0.97838,-2.55186 0,-3.52016 l -2.24926,-2.22911 c -0.44377,-0.44379 -1.09942,-0.70604 -1.76512,-0.70604 -0.66569,0 -1.31126,0.26225 -1.7651,0.70604 l -0.94814,0.94814 c -0.45391,0.50432 -1.05907,0.77665 -1.71471,0.77665 -1.29102,0 -2.37032,-1.04898 -2.37032,-2.28962 l 0,-1.54323 c 0,-1.36166 -1.09941,-2.53167 -2.47116,-2.53167 l -3.06626,0 c -1.37177,0 -2.46112,1.15993 -2.46112,2.53167 l 0,1.53315 c 0,1.24062 -1.07922,2.28962 -2.37027,2.28962 -0.64552,0 -1.24062,-0.27233 -1.67433,-0.7464 l -0.9784,-0.96831 c -0.44382,-0.45389 -1.0994,-0.70604 -1.76511,-0.70604 -0.66574,0 -1.31126,0.26225 -1.76515,0.70604 l -2.26944,2.21903 c -0.96828,0.96829 -0.96828,2.55185 0,3.51007 l 0.9481,0.94812 c 0.50437,0.45389 0.78677,1.05908 0.78677,1.70461 0,1.29105 -1.04898,2.36021 -2.29972,2.36021 l -1.53313,0 c -1.38183,0 -2.54177,1.07926 -2.54177,2.45101 l 0,1.53314 0,1.53312 c 0,1.36167 1.15994,2.451 2.54177,2.451 l 1.53313,0 c 1.25074,0 2.29972,1.07925 2.29972,2.36024 0,0.64553 -0.2824,1.25071 -0.78677,1.70459 l -0.9481,0.93803 c -0.96828,0.96831 -0.96828,2.55187 0,3.51009 l 2.24926,2.23918 c 0.44383,0.45389 1.09945,0.70606 1.76516,0.70606 0.66569,0 1.31122,-0.26225 1.76511,-0.70606 l 0.97839,-0.96829 c 0.42361,-0.47407 1.02882,-0.7464 1.67434,-0.7464 1.29103,0 2.37031,1.04898 2.37031,2.28962 l 0,1.53313 c 0,1.36166 1.08931,2.53169 2.47118,2.53169 l 3.06625,0 c 1.37177,0 2.46106,-1.15993 2.46106,-2.53169 l 0,-1.53313 c 0,-1.24064 1.07928,-2.28962 2.37033,-2.28962 0.64552,0 1.25073,0.28243 1.71468,0.77665 l 0.94816,0.94813 c 0.45389,0.4438 1.09942,0.70605 1.76511,0.70605 0.6657,0 1.31122,-0.26225 1.76512,-0.70605 l 2.24929,-2.23919 c 0.96828,-0.9683 0.96828,-2.55186 0,-3.52017 l -0.98851,-0.96829 c -0.48413,-0.43371 -0.75648,-1.0288 -0.75648,-1.66425 0,-1.29107 1.04901,-2.36024 2.29973,-2.36024 l 1.53313,0 c 1.37176,0 2.35015,-1.07923 2.35015,-2.451 l 0,-1.5432 0,-1.53314 c 0.0201,-1.37175 -0.95821,-2.45101 -2.32997,-2.45101 z m -8.84578,3.98415 0,0 c 0,4.44809 -3.60088,8.06912 -8.06914,8.06912 -4.4683,0 -8.06914,-3.62103 -8.06914,-8.06912 l 0,0 0,0 c 0,-4.44812 3.60084,-8.06915 8.06914,-8.06915 4.46826,0 8.06914,3.62103 8.06914,8.06915 l 0,0 z"
       />
    <g
       transform="matrix(0.44417829,0,0,0.44417829,-513.86884,1102.2405)">
      <g
>
        <path
           sodipodi:nodetypes="sssssssss"
           style="fill:#ffffff;fill-opacity:1;stroke:#020202;stroke-width:10;stroke-miterlimit:4;stroke-dasharray:none;stroke-opacity:1"
           d="m 1579.5121,-657.58212 -122.1168,0 c -15.328,1e-5 -27.7538,12.42581 -27.7538,27.75381 l 0,233.13204 c 0,15.328 12.4258,27.7538 27.7538,27.75381 l 122.1168,0 c 15.328,-1e-5 27.7538,-12.42581 27.7538,-27.75381 l 0,-233.13204 c 0,-15.328 -12.4258,-27.7538 -27.7538,-27.75381 z"
           />
        <path
           sodipodi:nodetypes="ccccc"
           d="m 1451.8446,-424.45009 133.2183,0 0,-188.72593 -133.2183,0 z"
           />
        <circle
           r="11.101525"
           cy="-402.24692"
           cx="1518.4532" />
        <rect
           y="-635.37897"
           x="1496.2501"
           width="44.406101"
           height="11.101525" />
      </g>
    </g>
    <text
       xml:space="preserve"
       style="font-style:normal;font-weight:normal;font-size:34.78482437px;line-height:125%;font-family:sans-serif;letter-spacing:0px;word-spacing:0px;fill:#000000;fill-opacity:1;stroke:none;stroke-width:1px;stroke-linecap:butt;stroke-linejoin:miter;stroke-opacity:1"
       x="756.71173"
       y="761.41736"
       sodipodi:linespacing="125%"
       class="output-device output-user negative-fill"><tspan
         sodipodi:role="line"
         x="756.71173"
         y="761.41736">POST</tspan></text>
    <path
       style="fill:none;fill-rule:evenodd;stroke:#5cb5da;stroke-width:50;stroke-linecap:butt;stroke-linejoin:round;stroke-opacity:1;stroke-miterlimit:4;stroke-dasharray:none"
       d="m 824.28571,565.35442 18.94036,-18.94036 0,37.1231 z m 1.00892,182.74941 18.94036,-18.94036 0,37.1231 z m -450.35686,113.25473 -18.94036,-18.94036 0,37.1231 z m 0.77652,-204.71064 -18.94036,-18.94036 0,37.1231 z m 0.56753,-201.28587 -18.94036,-18.94036 0,37.1231 z m 0.0845,0 101.92199,0 116.21245,201.28587 -118.18975,204.71064 -101.37328,0 0,0 0,0 m 319.34794,-204.71064 52.80209,91.45591 78.20683,0 m -449.58034,-91.45591 318.57142,0 52.70833,-91.2935 77.29167,0" />
  </g>
</svg>
