<svg
   xmlns:dc="http://purl.org/dc/elements/1.1/"
   xmlns:cc="http://creativecommons.org/ns#"
   xmlns:rdf="http://www.w3.org/1999/02/22-rdf-syntax-ns#"
   xmlns:svg="http://www.w3.org/2000/svg"
   xmlns="http://www.w3.org/2000/svg"
   xmlns:sodipodi="http://sodipodi.sourceforge.net/DTD/sodipodi-0.dtd"
   xmlns:inkscape="http://www.inkscape.org/namespaces/inkscape"
   width="1052.3622"
   height="744.09448"
   viewBox="0 0 1052.3622 744.09448"
   version="1.1"
   sodipodi:docname="time.svg">
  <defs
 />
  <sodipodi:namedview
     pagecolor="#ffffff"
     bordercolor="#666666"
     borderopacity="1.0"
     showgrid="false"
     units="px"
     />
  <metadata
>
    <rdf:RDF>
      <cc:Work
         rdf:about="">
        <dc:format>image/svg+xml</dc:format>
        <dc:type
           rdf:resource="http://purl.org/dc/dcmitype/StillImage" />
        <dc:title />
      </cc:Work>
    </rdf:RDF>
  </metadata>
  <g
     transform="translate(0,-308.26772)">
    <path
       style="fill:#000000;fill-rule:evenodd;stroke:none;stroke-width:1"
       d="m 862.56757,773.31496 0,-8.75 -2.1875,0 0,8.75 2.1875,0 0,0 z m -14.00549,-5.63689 6.80004,-5.50655 -1.37665,-1.70001 -6.80002,5.50655 1.37663,1.70001 0,0 z m -4.38578,-14.73403 8.52575,1.96831 0.49207,-2.13143 -8.52573,-1.96833 -0.49209,2.13145 0,0 z m 34.10297,-2.13145 -8.52575,1.96833 0.49209,2.13143 8.52573,-1.96831 -0.49207,-2.13145 0,0 z m -2.51708,15.16547 -6.80002,-5.50655 -1.37663,1.70001 6.80002,5.50655 1.37663,-1.70001 0,0 z m -27.41061,-60.4756 c -9.06244,0 -16.40901,7.84267 -16.40901,16.40625 0,0 0,-5.06022 0,0 l 0,8.20495 0,4.91638 c 0,1.81422 1.45644,3.28492 3.28125,3.28492 1.81219,0 3.28125,-1.46822 3.28125,-3.28492 l 0,-1.09008 2.1875,0 0,5.45467 c 0,1.81995 1.45644,3.29533 3.28125,3.29533 1.81219,0 3.28125,-1.46899 3.28125,-3.29533 l 0,-3.26717 2.1875,0 0,5.45467 c 0,1.81995 1.45644,3.29533 3.28125,3.29533 1.81219,0 3.28125,-1.46899 3.28125,-3.29533 l 0,-7.64217 2.1875,0 0,22.95728 c 0,1.81852 1.45644,3.29272 3.28125,3.29272 1.81219,0 3.28125,-1.45935 3.28125,-3.29272 l 0,-24.70725 c 4.50275,4.81342 10.43081,10.10814 12.86025,7.6656 2.37818,-2.39103 -3.7501,-8.97971 -12.30763,-23.37864 -3.85574,-6.48769 -8.73448,-10.97348 -16.95611,-10.97449 l 0,0 z m -18.59651,16.40625 c 0,-10.26904 8.32471,-18.59375 18.59375,-18.59375 6.8095,0 13.99605,3.17737 18.94196,12.18826 7.13888,13.00624 16.26836,21.53598 11.92124,25.8831 -3.10986,3.10986 -7.99253,0.12642 -12.26945,-3.8737 l 0,0 0,19.37769 c 0,3.04717 -2.44844,5.48715 -5.46875,5.48715 -3.04136,0 -5.46875,-2.45668 -5.46875,-5.48715 l 0,-10.91553 c -0.914,0.68482 -2.05012,1.09018 -3.28125,1.09018 -2.368,0 -4.3638,-1.48196 -5.13147,-3.56152 -0.9642,0.85342 -2.23102,1.37402 -3.61853,1.37402 -3.04136,0 -5.46875,-2.44612 -5.46875,-5.46356 l 0,-0.0294 c -0.914,0.68375 -2.05012,1.08696 -3.28125,1.08696 -3.04136,0 -5.46875,-2.44857 -5.46875,-5.46903 l 0,-13.09368 0,0 z"
       class="output-user negative-fill" />
    <path
       style="opacity:0;fill:none;fill-rule:evenodd;stroke:#000000;stroke-width:5.46059036;stroke-linecap:round;stroke-linejoin:round;stroke-miterlimit:4;stroke-dasharray:none;stroke-opacity:1"
       d="m 195.87907,339.50497 -0.16156,19.334 19.57911,-18.43668 m 13.06102,17.50974 c 0,17.82208 -14.44764,32.26972 -32.26969,32.26972 -17.82208,10e-6 -32.26972,-14.44762 -32.26972,-32.26972 0,-17.82207 14.44764,-32.2697 32.26972,-32.26969 17.82205,0 32.26969,14.44764 32.26969,32.26969 z"
       sodipodi:nodetypes="cccsssss"
       class="time-speaker negative" />
    <path
       style="opacity:0;fill:none;fill-rule:evenodd;stroke:#000000;stroke-width:5.46059036;stroke-linecap:round;stroke-linejoin:round;stroke-miterlimit:4;stroke-dasharray:none;stroke-opacity:1"
       d="m 856.06539,339.50497 -0.16156,19.334 19.57911,-18.43668 m 13.06102,17.50974 c 0,17.82208 -14.44764,32.26972 -32.26969,32.26972 -17.82208,10e-6 -32.26972,-14.44762 -32.26972,-32.26972 0,-17.82207 14.44764,-32.2697 32.26972,-32.26969 17.82205,0 32.26969,14.44764 32.26969,32.26969 z"
       sodipodi:nodetypes="cccsssss"
       class="time-user negative" />
    <path
       class="time-server negative"
       sodipodi:nodetypes="cccsssss"
       d="m 525.97222,339.50497 -0.16156,19.334 19.57911,-18.43668 m 13.06102,17.50974 c 0,17.82208 -14.44764,32.26972 -32.26969,32.26972 -17.82208,10e-6 -32.26972,-14.44762 -32.26972,-32.26972 0,-17.82207 14.44764,-32.2697 32.26972,-32.26969 17.82205,0 32.26969,14.44764 32.26969,32.26969 z"
       style="opacity:0;fill:none;fill-rule:evenodd;stroke:#000000;stroke-width:5.46059036;stroke-linecap:round;stroke-linejoin:round;stroke-miterlimit:4;stroke-dasharray:none;stroke-opacity:1"
 />
    <g
       class="output-server">
      <circle
         r="35"
         cy="738.31494"
         cx="528.1438"
         style="opacity:1;fill:#39ff00;fill-opacity:1;fill-rule:nonzero;stroke:none;stroke-width:5;stroke-linecap:round;stroke-linejoin:round;stroke-miterlimit:4;stroke-dasharray:none;stroke-opacity:1" />
      <text
         sodipodi:linespacing="125%"
         y="746.98358"
         x="505.32391"
         style="font-style:normal;font-weight:normal;font-size:23.8140583px;line-height:125%;font-family:sans-serif;letter-spacing:0px;word-spacing:0px;fill:#000000;fill-opacity:1;stroke:none;stroke-width:1px;stroke-linecap:butt;stroke-linejoin:miter;stroke-opacity:1"
         xml:space="preserve"><tspan
           style="fill:#ffffff;fill-opacity:1"
           y="746.98358"
           x="505.32391"
           sodipodi:role="line">200</tspan></text>
    </g>
    <g
       class="output-speaker negative">
      <path
         sodipodi:nodetypes="ccc"
         d="m 176.40649,751.2929 c 11.42344,11.31045 26.84399,17.66344 42.91948,17.68207 14.92467,-0.0279 29.32306,-5.5173 40.47823,-15.43239"
         style="opacity:1;fill:none;fill-opacity:0.94117647;fill-rule:nonzero;stroke:#000000;stroke-width:8.679986;stroke-linecap:round;stroke-linejoin:round;stroke-miterlimit:4;stroke-dasharray:none;stroke-opacity:1" />
      <path
         style="opacity:1;fill:none;fill-opacity:0.94117647;fill-rule:nonzero;stroke:#000000;stroke-width:8.679986;stroke-linecap:round;stroke-linejoin:round;stroke-miterlimit:4;stroke-dasharray:none;stroke-opacity:1"
         d="m 187.31148,729.49574 c 8.56759,8.48284 20.133,13.24758 32.18962,13.26154 11.19351,-0.0209 21.99229,-4.13796 30.35867,-11.5743"
         sodipodi:nodetypes="ccc" />
      <path
         sodipodi:nodetypes="ccc"
         d="m 197.25636,707.69857 c 5.71173,5.65522 13.422,8.83171 21.45975,8.84104 7.46233,-0.0139 14.66153,-2.75866 20.23911,-7.7162"
         style="opacity:1;fill:none;fill-opacity:0.94117647;fill-rule:nonzero;stroke:#000000;stroke-width:8.679986;stroke-linecap:round;stroke-linejoin:round;stroke-miterlimit:4;stroke-dasharray:none;stroke-opacity:1" />
    </g>
    <rect
       class="positive"
       style="opacity:1;fill:#ffffff;fill-opacity:1;fill-rule:nonzero;stroke:none;stroke-width:50;stroke-linecap:round;stroke-linejoin:round;stroke-miterlimit:4;stroke-dasharray:none;stroke-opacity:1"
       width="111.42857"
       height="188.46208"
       x="797.97498"
       y="583.93073" />
    <g
       transform="matrix(12.682377,0,0,12.682377,691.73596,528.12644)"
       class="negative-fill"
>
      <circle
         r="3.4252815"
         cy="7.5403247"
         cx="12.691252" />
      <path
         d="m 12.691252,12.678247 c -5.2235548,0 -6.8505636,3.425282 -6.8505636,3.425282 l 0,3.781428 13.7011266,0 0,-3.781428 c 0,0 -1.627009,-3.425282 -6.850563,-3.425282 z"
         sodipodi:nodetypes="sccccs" />
    </g>
    <rect
       class="positive"
       style="opacity:1;fill:#ffffff;fill-opacity:1;fill-rule:nonzero;stroke:none;stroke-width:50;stroke-linecap:round;stroke-linejoin:round;stroke-miterlimit:4;stroke-dasharray:none;stroke-opacity:1"
       width="111.42857"
       height="181.34801"
       x="486.72159"
       y="583.68121" />
    <g
       transform="matrix(0.97297087,0,0,0.97297087,292.24037,437.07224)"
>
      <g
>
        <path
           style="fill:#675f58"
           d="m 324.186,147.222 -148.367,0 c -13.78,0 -24.946,11.171 -24.946,24.94 0,13.78 11.166,24.951 24.946,24.951 l 148.367,0 c 13.774,0 24.951,-11.171 24.951,-24.951 10e-4,-13.769 -11.176,-24.94 -24.951,-24.94 z m -3.282,33.474 c -4.71,0 -8.534,-3.819 -8.534,-8.534 0,-4.71 3.824,-8.529 8.534,-8.529 4.714,0 8.533,3.819 8.533,8.529 10e-4,4.715 -3.819,8.534 -8.533,8.534 z" />
        <path
           style="fill:#675f58"
           d="m 324.186,202.696 -148.367,0 c -13.78,0 -24.946,11.165 -24.946,24.946 0,13.781 11.166,24.946 24.946,24.946 l 148.367,0 c 13.774,0 24.951,-11.165 24.951,-24.946 0,-13.781 -11.176,-24.946 -24.951,-24.946 z m -3.282,33.486 c -4.71,0 -8.534,-3.83 -8.534,-8.54 0,-4.71 3.824,-8.534 8.534,-8.534 4.714,0 8.533,3.825 8.533,8.534 0,4.709 -3.819,8.54 -8.533,8.54 z" />
        <path
           style="fill:#675f58"
           d="m 324.186,258.171 -148.367,0 c -13.78,0 -24.946,11.165 -24.946,24.945 0,13.78 11.166,24.951 24.946,24.951 l 148.367,0 c 13.774,0 24.951,-11.171 24.951,-24.951 0,-13.78 -11.176,-24.945 -24.951,-24.945 z m -3.282,33.474 c -4.71,0 -8.534,-3.813 -8.534,-8.528 0,-4.715 3.824,-8.534 8.534,-8.534 4.714,0 8.533,3.819 8.533,8.534 10e-4,4.714 -3.819,8.528 -8.533,8.528 z" />
      </g>
      <g
>
        <rect
           y="333.724"
           x="207.769"
           width="84.473"
           style="fill:#ff931e"
           height="19.054001" />
        <rect
           y="314.03"
           x="244.282"
           width="11.437"
           style="fill:#ff931e"
           height="28.58" />
      </g>
      <g
>
        <rect
           y="339.681"
           x="134.814"
           width="67.719002"
           style="fill:#ff931e"
           height="6.2880001" />
        <rect
           y="339.681"
           x="297.47198"
           width="67.713997"
           style="fill:#ff931e"
           height="6.2880001" />
      </g>
    </g>
    <g
       transform="matrix(0.44213939,0,0,0.44213939,462.08959,384.95756)"
>
      <circle
         r="182.82866"
         cy="711.14722"
         cx="-542.61981"
         style="opacity:1;fill:#ead2a9;fill-opacity:1;fill-rule:nonzero;stroke:#000000;stroke-width:10;stroke-linecap:round;stroke-linejoin:round;stroke-miterlimit:4;stroke-dasharray:none;stroke-opacity:1" />
      <path
         sodipodi:nodetypes="cccccccccccc"
         d="m -605.40735,468.75181 c -7.29459,2.91784 -79.66869,38.40355 -102.52592,135.09889 0,0 -21.02768,1.71156 -22.07001,-21.24519 0,0 -34.22457,66.16204 7.98303,162.26074 l -3.42897,-26.8734 c 2.9e-4,-100.97383 82.34527,-188.20808 183.3191,-188.2073 48.6995,9.07507 49.83124,30.94362 78.82852,72.55609 0,0 -15.75026,-73.97188 74.92965,-91.79133 -0.0354,-0.0708 -48.73198,-20.35866 -94.23318,-14.57042 0,0 -24.43076,-23.45179 34.97701,-44.33559 -0.47813,0.12582 -78.55065,-1.02632 -139.34062,48.58568 0,0 -42.89735,11.06904 -18.43861,-31.47817 z"
         style="fill:#93710c;fill-opacity:1;fill-rule:evenodd;stroke:#000000;stroke-width:10;stroke-linecap:butt;stroke-linejoin:miter;stroke-miterlimit:4;stroke-dasharray:none;stroke-opacity:1" />
      <ellipse
         ry="56.706215"
         rx="29.330801"
         cy="686.7049"
         cx="-535.77588"
         style="opacity:1;fill:#f5f5f5;fill-opacity:1;fill-rule:nonzero;stroke:#000000;stroke-width:10;stroke-linecap:round;stroke-linejoin:round;stroke-miterlimit:4;stroke-dasharray:none;stroke-opacity:1" />
      <ellipse
         style="opacity:1;fill:#f5f5f5;fill-opacity:1;fill-rule:nonzero;stroke:#000000;stroke-width:10;stroke-linecap:round;stroke-linejoin:round;stroke-miterlimit:4;stroke-dasharray:none;stroke-opacity:1"
         cx="-428.22964"
         cy="686.7049"
         rx="29.330801"
         ry="56.706215" />
      <path
         d="m -569.87565,782.35911 c 0,0 35.05531,25.2398 78.52386,25.2398 43.46857,0 86.93713,-23.83759 86.93713,-23.83759 0,0 -40.66412,75.71943 -93.94816,77.12162 -53.28403,1.40221 -71.51283,-78.52383 -71.51283,-78.52383 z"
         style="fill:#f5f5f5;fill-opacity:1;fill-rule:evenodd;stroke:#000000;stroke-width:10;stroke-linecap:butt;stroke-linejoin:miter;stroke-miterlimit:4;stroke-dasharray:none;stroke-opacity:1" />
    </g>
  </g>
</svg>
