<svg
   xmlns:dc="http://purl.org/dc/elements/1.1/"
   xmlns:cc="http://creativecommons.org/ns#"
   xmlns:rdf="http://www.w3.org/1999/02/22-rdf-syntax-ns#"
   xmlns:svg="http://www.w3.org/2000/svg"
   xmlns="http://www.w3.org/2000/svg"
   xmlns:sodipodi="http://sodipodi.sourceforge.net/DTD/sodipodi-0.dtd"
   xmlns:inkscape="http://www.inkscape.org/namespaces/inkscape"
   width="297mm"
   height="210mm"
   viewBox="0 0 1052.3622 744.09448"
   version="1.1"
   sodipodi:docname="you-interface.svg">
  <defs
 />
  <sodipodi:namedview
     pagecolor="#ffffff"
     bordercolor="#666666"
     borderopacity="1.0"
     showgrid="false"
     />
  <metadata
>
    <rdf:RDF>
      <cc:Work
         rdf:about="">
        <dc:format>image/svg+xml</dc:format>
        <dc:type
           rdf:resource="http://purl.org/dc/dcmitype/StillImage" />
        <dc:title />
      </cc:Work>
    </rdf:RDF>
  </metadata>
  <g
     transform="translate(0,-308.26772)">
    <g
       class="input-speaker negative"
       transform="translate(0,-2.4085007)">
      <path
         sodipodi:nodetypes="ccc"
         d="m 488.74974,463.36075 c 11.00657,10.8977 25.86436,17.01884 41.35319,17.03679 14.38002,-0.0269 28.25296,-5.31595 39.00104,-14.86921"
         style="opacity:1;fill:none;fill-opacity:0.94117647;fill-rule:nonzero;stroke:#000000;stroke-width:8.36322212;stroke-linecap:round;stroke-linejoin:round;stroke-miterlimit:4;stroke-dasharray:none;stroke-opacity:1" />
      <path
         style="opacity:1;fill:none;fill-opacity:0.94117647;fill-rule:nonzero;stroke:#000000;stroke-width:8.36322212;stroke-linecap:round;stroke-linejoin:round;stroke-miterlimit:4;stroke-dasharray:none;stroke-opacity:1"
         d="m 499.25678,442.35905 c 8.25492,8.17327 19.39827,12.76413 31.01489,12.77758 10.78502,-0.0202 21.18972,-3.98695 29.25078,-11.15191"
         sodipodi:nodetypes="ccc" />
      <path
         sodipodi:nodetypes="ccc"
         d="m 508.83873,421.35734 c 5.50328,5.44884 12.93218,8.50941 20.6766,8.5184 7.19001,-0.0134 14.12648,-2.65799 19.50051,-7.43461"
         style="opacity:1;fill:none;fill-opacity:0.94117647;fill-rule:nonzero;stroke:#000000;stroke-width:8.36322212;stroke-linecap:round;stroke-linejoin:round;stroke-miterlimit:4;stroke-dasharray:none;stroke-opacity:1" />
    </g>
    <g
       class="input-slides"
       transform="translate(0,5.5843215)">
      <path
         d="m 218.50751,426.78735 -16.93952,16.93952"
         style="fill:none;fill-rule:evenodd;stroke:#ff7511;stroke-width:5.83195066;stroke-linecap:round;stroke-linejoin:miter;stroke-miterlimit:4;stroke-dasharray:none;stroke-opacity:1" />
      <path
         d="m 218.93962,409.47329 -34.68568,34.68569"
         style="fill:none;fill-rule:evenodd;stroke:#ff11e7;stroke-width:5.83195066;stroke-linecap:round;stroke-linejoin:miter;stroke-miterlimit:4;stroke-dasharray:none;stroke-opacity:1" />
      <path
         d="m 222.19502,389.33601 -58.07836,58.07836"
         style="fill:none;fill-rule:evenodd;stroke:#11ffef;stroke-width:5.83195066;stroke-linecap:round;stroke-linejoin:miter;stroke-miterlimit:4;stroke-dasharray:none;stroke-opacity:1" />
      <path
         d="m 198.02451,396.62462 -26.61924,26.61925"
         style="fill:none;fill-rule:evenodd;stroke:#1139ff;stroke-width:5.83195066;stroke-linecap:round;stroke-linejoin:miter;stroke-miterlimit:4;stroke-dasharray:none;stroke-opacity:1" />
      <path
         d="m 205.31312,372.45412 -58.07836,58.07835"
         style="fill:none;fill-rule:evenodd;stroke:#fff811;stroke-width:5.83195066;stroke-linecap:round;stroke-linejoin:miter;stroke-miterlimit:4;stroke-dasharray:none;stroke-opacity:1" />
      <path
         d="m 182.7559,378.12944 -29.84582,29.84582"
         style="fill:none;fill-rule:evenodd;stroke:#7cff11;stroke-width:5.83195066;stroke-linecap:round;stroke-linejoin:miter;stroke-miterlimit:4;stroke-dasharray:none;stroke-opacity:1" />
      <path
         d="m 179.55814,364.4453 -40.33219,40.33219"
         style="fill:none;fill-rule:evenodd;stroke:#ff1111;stroke-width:5.83195066;stroke-linecap:round;stroke-linejoin:miter;stroke-miterlimit:4;stroke-dasharray:none;stroke-opacity:1" />
    </g>
    <g
       transform="matrix(0.37692946,0,0,0.37692946,-38.981173,860.30343)"
>
      <rect
         style="opacity:1;fill:#ffffff;fill-opacity:1;fill-rule:nonzero;stroke:#000000;stroke-width:10;stroke-linecap:round;stroke-linejoin:round;stroke-miterlimit:4;stroke-dasharray:none;stroke-opacity:1"
         width="368.57144"
         height="360"
         x="340.22345"
         y="-1353.4391"
         ry="65.714287" />
      <rect
         style="opacity:1;fill:none;fill-opacity:1;fill-rule:nonzero;stroke:#000000;stroke-width:10;stroke-linecap:round;stroke-linejoin:round;stroke-miterlimit:4;stroke-dasharray:none;stroke-opacity:1"
         width="271.42856"
         height="205.71429"
         x="388.79489"
         y="-1276.2963" />
      <path
         style="fill:#000000;fill-opacity:1;fill-rule:evenodd;stroke:none;stroke-width:1px;stroke-linecap:butt;stroke-linejoin:miter;stroke-opacity:1"
         d="m 485.73367,-1232.0107 -2.65307,104.2858 92.85715,-45.4285 z"
         sodipodi:nodetypes="cccc" />
      <rect
         ry="65.714287"
         y="-1262.5254"
         x="406.89352"
         height="360"
         width="368.57144"
         style="opacity:1;fill:#ffffff;fill-opacity:1;fill-rule:nonzero;stroke:#000000;stroke-width:10;stroke-linecap:round;stroke-linejoin:round;stroke-miterlimit:4;stroke-dasharray:none;stroke-opacity:1" />
      <rect
         y="-1185.3826"
         x="455.46497"
         height="205.71429"
         width="271.42856"
         style="opacity:1;fill:none;fill-opacity:1;fill-rule:nonzero;stroke:#000000;stroke-width:10;stroke-linecap:round;stroke-linejoin:round;stroke-miterlimit:4;stroke-dasharray:none;stroke-opacity:1" />
      <path
         sodipodi:nodetypes="cccc"
         d="m 552.40374,-1141.097 -2.65307,104.2858 92.85715,-45.4285 z"
         style="fill:#000000;fill-opacity:1;fill-rule:evenodd;stroke:none;stroke-width:1px;stroke-linecap:butt;stroke-linejoin:miter;stroke-opacity:1" />
      <rect
         style="opacity:1;fill:#ffffff;fill-opacity:1;fill-rule:nonzero;stroke:#000000;stroke-width:10;stroke-linecap:round;stroke-linejoin:round;stroke-miterlimit:4;stroke-dasharray:none;stroke-opacity:1"
         width="368.57144"
         height="360"
         x="473.5636"
         y="-1171.6117"
         ry="65.714287" />
      <rect
         style="opacity:1;fill:none;fill-opacity:1;fill-rule:nonzero;stroke:#000000;stroke-width:10;stroke-linecap:round;stroke-linejoin:round;stroke-miterlimit:4;stroke-dasharray:none;stroke-opacity:1"
         width="271.42856"
         height="205.71429"
         x="522.13501"
         y="-1094.4689" />
      <path
         style="fill:#000000;fill-opacity:1;fill-rule:evenodd;stroke:none;stroke-width:1px;stroke-linecap:butt;stroke-linejoin:miter;stroke-opacity:1"
         d="m 619.07381,-1050.1833 -2.65307,104.28583 92.85715,-45.4285 z"
         sodipodi:nodetypes="cccc" />
    </g>
    <path
       class="input-notif negative"
       sodipodi:nodetypes="cscccccsccccccsccccsccs"
       style="fill:none;fill-opacity:1;stroke:#000000;stroke-width:5;stroke-miterlimit:4;stroke-dasharray:none;stroke-opacity:1"
       d="m 875.63849,406.59025 c -8.95581,4.23856 -14.74364,13.37452 -14.74364,23.27996 l -10e-6,17.30171 -7.35251,12.25763 c -0.47873,0.79519 -0.48893,1.78348 -0.0334,2.5941 0.45548,0.80552 1.31245,1.30221 2.23894,1.30219 l 20.9535,2e-5 c 1.15038,4.429 5.14703,7.72054 9.92862,7.72053 4.78413,0 8.77823,-3.29153 9.92859,-7.72052 l 20.95355,-1e-5 c 0.92645,-10e-6 1.78083,-0.49668 2.23894,-1.30479 0.4581,-0.80806 0.44522,-1.79887 -0.0335,-2.59408 l -5e-5,8e-5 -7.35253,-12.25506 -1e-5,-17.30171 c 1e-5,-13.32307 -10.17567,-24.30938 -23.16161,-25.60386 l 1e-5,-2.70476 c -1e-5,-1.42058 1.11991,-9.51832 -4.08873,-9.39203 -5.84,-10e-6 -3.83619,8.09772 -3.83591,9.51842 m 5.35142,64.2115 c -1.89668,1e-5 -3.53857,-1.04227 -4.4316,-2.5735 l 8.86061,-1e-5 c -0.89032,1.53128 -2.53233,2.5735 -4.42901,2.57351 z" />
    <g
       transform="matrix(0.69380304,0,0,0.69649155,-153.6072,809.75057)"
>
      <path
         sodipodi:nodetypes="sssssssss"
         style="fill:#ffffff;fill-opacity:1;stroke:#000000;stroke-width:10;stroke-miterlimit:4;stroke-dasharray:none;stroke-opacity:1"
         d="m 1579.5121,-657.58212 -122.1168,0 c -15.328,1e-5 -27.7538,12.42581 -27.7538,27.75381 l 0,233.13204 c 0,15.328 12.4258,27.7538 27.7538,27.75381 l 122.1168,0 c 15.328,-1e-5 27.7538,-12.42581 27.7538,-27.75381 l 0,-233.13204 c 0,-15.328 -12.4258,-27.7538 -27.7538,-27.75381 z"
         />
      <path
         sodipodi:nodetypes="ccccc"
         d="m 1451.8446,-424.45009 133.2183,0 0,-188.72593 -133.2183,0 z"
         />
      <circle
         r="11.101525"
         cy="-402.24692"
         cx="1518.4532" />
      <rect
         y="-635.37897"
         x="1496.2501"
         width="44.406101"
         height="11.101525" />
    </g>
    <path
       d="m 717.06791,803.37291 -2.77802,0 c -2.26632,0 -4.16707,-1.9556 -4.16707,-4.2767 0,-1.1697 0.49346,-2.2298 1.37074,-3.0157 l 1.79106,-1.7545 c 1.77283,-1.7546 1.77283,-4.624 0,-6.3785 l -4.07562,-4.0391 c -0.80413,-0.8042 -1.99214,-1.2794 -3.19839,-1.2794 -1.20623,0 -2.37599,0.4752 -3.19837,1.2794 l -1.71802,1.718 c -0.82247,0.9138 -1.91902,1.4073 -3.10703,1.4073 -2.33934,0 -4.29501,-1.9008 -4.29501,-4.1488 l 0,-2.7963 c 0,-2.4673 -1.99211,-4.5874 -4.47773,-4.5874 l -5.55604,0 c -2.48562,0 -4.45951,2.1018 -4.45951,4.5874 l 0,2.778 c 0,2.248 -1.95555,4.1488 -4.29491,4.1488 -1.16969,0 -2.248,-0.4935 -3.03388,-1.3525 l -1.77286,-1.7545 c -0.8042,-0.8225 -1.99211,-1.2794 -3.19836,-1.2794 -1.20633,0 -2.37599,0.4752 -3.19846,1.2794 l -4.11219,4.0208 c -1.75452,1.7546 -1.75452,4.624 0,6.3602 l 1.71795,1.718 c 0.9139,0.8225 1.42561,1.9191 1.42561,3.0888 0,2.3394 -1.90075,4.2767 -4.16707,4.2767 l -2.77802,0 c -2.50386,0 -4.60567,1.9556 -4.60567,4.4412 l 0,2.77801 0,2.778 c 0,2.4674 2.10181,4.4412 4.60567,4.4412 l 2.77802,0 c 2.26632,0 4.16707,1.9556 4.16707,4.2767 0,1.1697 -0.51171,2.2663 -1.42561,3.0888 l -1.71795,1.6997 c -1.75452,1.7545 -1.75452,4.6239 0,6.3602 l 4.07563,4.0574 c 0.80423,0.8225 1.9922,1.2793 3.19846,1.2793 1.20622,0 2.37592,-0.4751 3.19836,-1.2793 l 1.77286,-1.7545 c 0.76756,-0.859 1.86419,-1.3525 3.03388,-1.3525 2.33934,0 4.29499,1.9008 4.29499,4.1488 l 0,2.778 c 0,2.4673 1.97381,4.5874 4.47775,4.5874 l 5.55604,0 c 2.48562,0 4.45941,-2.1018 4.45941,-4.5874 l 0,-2.778 c 0,-2.248 1.95566,-4.1488 4.29501,-4.1488 1.16969,0 2.26632,0.5117 3.107,1.4073 l 1.71806,1.7179 c 0.82244,0.8043 1.99214,1.2794 3.19836,1.2794 1.20625,0 2.37592,-0.4751 3.19839,-1.2794 l 4.0757,-4.0573 c 1.75451,-1.7546 1.75451,-4.624 0,-6.3785 l -1.79117,-1.7546 c -0.87725,-0.7858 -1.37073,-1.8642 -1.37073,-3.0156 0,-2.3394 1.90077,-4.2767 4.16709,-4.2767 l 2.77802,0 c 2.48562,0 4.25845,-1.9556 4.25845,-4.4412 l 0,-2.7963 0,-2.77801 c 0.0363,-2.4856 -1.73627,-4.4412 -4.22189,-4.4412 z m -16.0285,7.21921 0,0 c 0,8.0599 -6.52476,14.6212 -14.62122,14.6212 -8.09653,0 -14.62122,-6.5613 -14.62122,-14.6212 l 0,0 0,0 c 0,-8.06001 6.52469,-14.62121 14.62122,-14.62121 8.09646,0 14.62122,6.5612 14.62122,14.62121 l 0,0 z"
       class="function"
       />
    <g
       transform="matrix(0.45982497,0,0,0.45982497,785.32092,142.89617)"
>
      <circle
         r="182.82866"
         cy="711.14722"
         cx="-542.61981"
         style="opacity:1;fill:#ead2a9;fill-opacity:1;fill-rule:nonzero;stroke:#000000;stroke-width:10;stroke-linecap:round;stroke-linejoin:round;stroke-miterlimit:4;stroke-dasharray:none;stroke-opacity:1" />
      <path
         sodipodi:nodetypes="cccccccccccc"
         d="m -605.40735,468.75181 c -7.29459,2.91784 -79.66869,38.40355 -102.52592,135.09889 0,0 -21.02768,1.71156 -22.07001,-21.24519 0,0 -34.22457,66.16204 7.98303,162.26074 l -3.42897,-26.8734 c 2.9e-4,-100.97383 82.34527,-188.20808 183.3191,-188.2073 48.6995,9.07507 49.83124,30.94362 78.82852,72.55609 0,0 -15.75026,-73.97188 74.92965,-91.79133 -0.0354,-0.0708 -48.73198,-20.35866 -94.23318,-14.57042 0,0 -24.43076,-23.45179 34.97701,-44.33559 -0.47813,0.12582 -78.55065,-1.02632 -139.34062,48.58568 0,0 -42.89735,11.06904 -18.43861,-31.47817 z"
         style="fill:#93710c;fill-opacity:1;fill-rule:evenodd;stroke:#000000;stroke-width:10;stroke-linecap:butt;stroke-linejoin:miter;stroke-miterlimit:4;stroke-dasharray:none;stroke-opacity:1" />
      <ellipse
         ry="56.706215"
         rx="29.330801"
         cy="686.7049"
         cx="-535.77588"
         style="opacity:1;fill:#f5f5f5;fill-opacity:1;fill-rule:nonzero;stroke:#000000;stroke-width:10;stroke-linecap:round;stroke-linejoin:round;stroke-miterlimit:4;stroke-dasharray:none;stroke-opacity:1" />
      <ellipse
         style="opacity:1;fill:#f5f5f5;fill-opacity:1;fill-rule:nonzero;stroke:#000000;stroke-width:10;stroke-linecap:round;stroke-linejoin:round;stroke-miterlimit:4;stroke-dasharray:none;stroke-opacity:1"
         cx="-428.22964"
         cy="686.7049"
         rx="29.330801"
         ry="56.706215" />
      <path
         d="m -569.87565,782.35911 c 0,0 35.05531,25.2398 78.52386,25.2398 43.46857,0 86.93713,-23.83759 86.93713,-23.83759 0,0 -40.66412,75.71943 -93.94816,77.12162 -53.28403,1.40221 -71.51283,-78.52383 -71.51283,-78.52383 z"
         style="fill:#f5f5f5;fill-opacity:1;fill-rule:evenodd;stroke:#000000;stroke-width:10;stroke-linecap:butt;stroke-linejoin:miter;stroke-miterlimit:4;stroke-dasharray:none;stroke-opacity:1" />
    </g>
    <g
       transform="matrix(0.54498239,0,0,0.54498239,1148.405,618.92132)"
>
      <circle
         transform="scale(-1,1)"
         style="opacity:1;fill:#ead2a9;fill-opacity:1;fill-rule:nonzero;stroke:#000000;stroke-width:10;stroke-linecap:round;stroke-linejoin:round;stroke-miterlimit:4;stroke-dasharray:none;stroke-opacity:1"
         cx="1115.7418"
         cy="534.10455"
         r="182.82866" />
      <ellipse
         transform="scale(-1,1)"
         style="opacity:1;fill:#f5f5f5;fill-opacity:1;fill-rule:nonzero;stroke:#000000;stroke-width:10;stroke-linecap:round;stroke-linejoin:round;stroke-miterlimit:4;stroke-dasharray:none;stroke-opacity:1"
         cx="1122.5857"
         cy="509.6622"
         rx="29.330801"
         ry="56.706215" />
      <ellipse
         transform="scale(-1,1)"
         ry="56.706215"
         rx="29.330801"
         cy="509.6622"
         cx="1230.132"
         style="opacity:1;fill:#f5f5f5;fill-opacity:1;fill-rule:nonzero;stroke:#000000;stroke-width:10;stroke-linecap:round;stroke-linejoin:round;stroke-miterlimit:4;stroke-dasharray:none;stroke-opacity:1" />
      <path
         d="m -1233.3894,638.02221 c 0,0 44.0115,18.58261 77.2646,17.60458 33.253,-0.97803 67.4841,-31.29702 67.4841,-31.29702"
         style="fill:none;fill-rule:evenodd;stroke:#000000;stroke-width:10;stroke-linecap:butt;stroke-linejoin:miter;stroke-miterlimit:4;stroke-dasharray:none;stroke-opacity:1"
         sodipodi:nodetypes="csc" />
      <path
         sodipodi:nodetypes="csccccscsc"
         d="m -1017.9953,568.26116 c 0,0 11.9195,-143.81866 -39.6774,-156.53278 -116.1035,-28.60934 -229.1514,67.39782 -302.475,-102.15621 0,0 68.1677,42.51927 111.2011,40.56321 0,0 -28.363,-38.89414 -36.1873,-59.43281 0,0 44.0116,47.69643 159.4194,27.15775 0,0 65.528,-16.62653 118.3418,14.67048 65.48278,38.80463 90.9569,101.71531 89.97887,158.44115 0,0 -0.97803,89.0009 -19.56064,98.78122 -18.5826,9.78031 -81.04083,-21.49201 -81.04083,-21.49201 z"
         style="fill:#f1d60c;fill-opacity:1;fill-rule:evenodd;stroke:#000000;stroke-width:10;stroke-linecap:butt;stroke-linejoin:miter;stroke-miterlimit:4;stroke-dasharray:none;stroke-opacity:1" />
    </g>
  </g>
</svg>
