<svg
   xmlns:dc="http://purl.org/dc/elements/1.1/"
   xmlns:cc="http://creativecommons.org/ns#"
   xmlns:rdf="http://www.w3.org/1999/02/22-rdf-syntax-ns#"
   xmlns:svg="http://www.w3.org/2000/svg"
   xmlns="http://www.w3.org/2000/svg"
   xmlns:sodipodi="http://sodipodi.sourceforge.net/DTD/sodipodi-0.dtd"
   xmlns:inkscape="http://www.inkscape.org/namespaces/inkscape"
   width="1052.3622"
   height="744.09448"
   viewBox="0 0 1052.3622 744.09448"
   version="1.1"
   sodipodi:docname="me.svg"
  >
  <defs
 />
  <sodipodi:namedview
     pagecolor="#ffffff"
     bordercolor="#666666"
     borderopacity="1.0"
     showgrid="false"
     units="px"
     />
  <metadata
>
    <rdf:RDF>
      <cc:Work
         rdf:about="">
        <dc:format>image/svg+xml</dc:format>
        <dc:type
           rdf:resource="http://purl.org/dc/dcmitype/StillImage" />
        <dc:title />
      </cc:Work>
    </rdf:RDF>
  </metadata>
  <g
     transform="translate(0,-248.31495)"
>
    <path
       style="opacity:0;fill:none;fill-rule:evenodd;stroke:#000000;stroke-width:10.61361885;stroke-linecap:round;stroke-linejoin:round;stroke-miterlimit:4;stroke-dasharray:none;stroke-opacity:1"
       d="m -85.640409,644.53862 -0.31397,37.57791 38.05431,-35.83387 m 25.38568,34.03231 c 0,34.63931 -28.08072,62.72002 -62.72001,62.72004 -34.639361,2e-5 -62.720081,-28.0807 -62.720081,-62.72004 0,-34.63934 28.08072,-62.72006 62.720081,-62.72005 34.63929,2e-5 62.72001,28.08073 62.72001,62.72005 z"
       sodipodi:nodetypes="cccsssss"
       class="input-stream negative"
       />
    <g
       class="output-stream negative"
       transform="matrix(0.91948244,0,0,0.91948244,48.1048,20.227178)"
>
      <path
         style="opacity:1;fill:none;fill-rule:nonzero;stroke:#000000;stroke-width:13.48582649;stroke-linecap:round;stroke-linejoin:round;stroke-miterlimit:4;stroke-dasharray:none;stroke-opacity:1"
         d="m 559.48335,849.93224 c 17.5727,-17.74825 27.44314,-41.70668 27.47208,-66.68267 -0.0433,-23.18801 -8.57205,-45.55834 -23.97683,-62.88978"
         sodipodi:nodetypes="ccc"
         />
      <path
         sodipodi:nodetypes="ccc"
         d="m 525.61777,832.98948 c 13.17953,-13.31119 20.58236,-31.28002 20.60405,-50.012 -0.0325,-17.39101 -6.42902,-34.16876 -17.98262,-47.16734"
         style="opacity:1;fill:none;fill-rule:nonzero;stroke:#000000;stroke-width:13.48582649;stroke-linecap:round;stroke-linejoin:round;stroke-miterlimit:4;stroke-dasharray:none;stroke-opacity:1"
         />
      <path
         style="opacity:1;fill:none;fill-rule:nonzero;stroke:#000000;stroke-width:13.48582649;stroke-linecap:round;stroke-linejoin:round;stroke-miterlimit:4;stroke-dasharray:none;stroke-opacity:1"
         d="m 491.75219,817.53843 c 8.78634,-8.87413 13.72156,-20.85334 13.73604,-33.34134 -0.0216,-11.594 -4.28604,-22.77917 -11.98842,-31.44489"
         sodipodi:nodetypes="ccc"
         />
    </g>
    <g
       class="output-stream"
       transform="translate(0,-22.121478)"
>
      <path
         d="m 590.23496,616.13786 0,30.92851"
         style="fill:none;fill-rule:evenodd;stroke:#ff7511;stroke-width:7.5293355;stroke-linecap:round;stroke-linejoin:miter;stroke-miterlimit:4;stroke-dasharray:none;stroke-opacity:1"
         />
      <path
         d="m 574.82327,599.93722 0,63.32979"
         style="fill:none;fill-rule:evenodd;stroke:#ff11e7;stroke-width:7.5293355;stroke-linecap:round;stroke-linejoin:miter;stroke-miterlimit:4;stroke-dasharray:none;stroke-opacity:1"
         />
      <path
         d="m 559.41163,578.58182 0,106.04058"
         style="fill:none;fill-rule:evenodd;stroke:#11ffef;stroke-width:7.5293355;stroke-linecap:round;stroke-linejoin:miter;stroke-miterlimit:4;stroke-dasharray:none;stroke-opacity:1"
         />
      <path
         d="m 543.99998,607.30115 0,48.60193"
         style="fill:none;fill-rule:evenodd;stroke:#1139ff;stroke-width:7.5293355;stroke-linecap:round;stroke-linejoin:miter;stroke-miterlimit:4;stroke-dasharray:none;stroke-opacity:1"
         />
      <path
         d="m 528.58834,578.58183 0,106.04057"
         style="fill:none;fill-rule:evenodd;stroke:#fff811;stroke-width:7.5293355;stroke-linecap:round;stroke-linejoin:miter;stroke-miterlimit:4;stroke-dasharray:none;stroke-opacity:1"
         />
      <path
         d="m 513.17669,604.35557 0,54.49308"
         style="fill:none;fill-rule:evenodd;stroke:#7cff11;stroke-width:7.5293355;stroke-linecap:round;stroke-linejoin:miter;stroke-miterlimit:4;stroke-dasharray:none;stroke-opacity:1"
         />
      <path
         d="m 497.76504,594.78246 0,73.6393"
         style="fill:none;fill-rule:evenodd;stroke:#ff1111;stroke-width:7.5293355;stroke-linecap:round;stroke-linejoin:miter;stroke-miterlimit:4;stroke-dasharray:none;stroke-opacity:1"
         />
    </g>
    <path
       d="m 834.13868,437.40742 -4.5894,0 c -3.74406,0 -6.88418,-3.23073 -6.88418,-7.06532 0,-1.93238 0.81522,-3.68361 2.26451,-4.98193 l 2.95892,-2.89861 c 2.92879,-2.89857 2.92879,-7.63895 0,-10.53753 l -6.73311,-6.67279 c -1.32845,-1.32854 -3.2911,-2.11355 -5.28388,-2.11355 -1.99273,0 -3.92523,0.78501 -5.28383,2.11355 l -2.83825,2.83821 c -1.35875,1.50968 -3.1703,2.3249 -5.13294,2.3249 -3.86469,0 -7.09554,-3.14016 -7.09554,-6.85395 l 0,-4.61963 c 0,-4.07613 -3.29106,-7.57858 -7.39741,-7.57858 l -9.17881,0 c -4.10636,0 -7.36731,3.47227 -7.36731,7.57858 l 0,4.58943 c 0,3.71382 -3.23066,6.85393 -7.09538,6.85393 -1.93238,0 -3.71379,-0.81521 -5.0121,-2.23432 l -2.92883,-2.89857 c -1.32858,-1.35872 -3.29106,-2.11355 -5.28384,-2.11355 -1.9929,0 -3.92524,0.78501 -5.28399,2.11355 l -6.79352,6.64258 c -2.89853,2.89861 -2.89853,7.63899 0,10.50738 l 2.83814,2.83822 c 1.5098,1.35871 2.35516,3.1703 2.35516,5.10268 0,3.86481 -3.14012,7.06532 -6.88417,7.06532 l -4.58941,0 c -4.13649,0 -7.60877,3.2307 -7.60877,7.33706 l 0,4.5894 0,4.58945 c 0,4.07613 3.47228,7.33705 7.60877,7.33705 l 4.58941,0 c 3.74405,0 6.88417,3.23069 6.88417,7.06528 0,1.93238 -0.84536,3.74401 -2.35516,5.10272 l -2.83814,2.808 c -2.89853,2.89857 -2.89853,7.63899 0,10.50738 l 6.73312,6.70298 c 1.32862,1.35871 3.29121,2.11353 5.28399,2.11353 1.99274,0 3.92513,-0.78504 5.28384,-2.11353 l 2.92883,-2.89861 c 1.26805,-1.41907 3.07972,-2.23429 5.01211,-2.23429 3.86468,0 7.0955,3.14013 7.0955,6.85392 l 0,4.58944 c 0,4.07614 3.26083,7.5786 7.39744,7.5786 l 9.17881,0 c 4.10636,0 7.36715,-3.47228 7.36715,-7.5786 l 0,-4.58944 c 0,-3.71379 3.23082,-6.85392 7.09554,-6.85392 1.93238,0 3.74405,0.8454 5.1329,2.3249 l 2.8383,2.83818 c 1.35871,1.32853 3.2911,2.11357 5.28383,2.11357 1.99278,0 3.92512,-0.78504 5.28387,-2.11357 l 6.73324,-6.70298 c 2.89853,-2.89857 2.89853,-7.63899 0,-10.53756 l -2.95909,-2.89858 c -1.44925,-1.29831 -2.2645,-3.07976 -2.2645,-4.98192 0,-3.86481 3.14015,-7.06533 6.88421,-7.06533 l 4.5894,0 c 4.10636,0 7.03515,-3.23074 7.03515,-7.33704 l 0,-4.61963 0,-4.5894 c 0.06,-4.10636 -2.8684,-7.33706 -6.97475,-7.33706 z m -26.47976,11.92646 0,0 c 0,13.31539 -10.77919,24.15489 -24.15489,24.15489 -13.37582,0 -24.15489,-10.8395 -24.15489,-24.15489 l 0,0 0,0 c 0,-13.31539 10.77907,-24.15486 24.15489,-24.15486 13.3757,0 24.15489,10.83947 24.15489,24.15486 l 0,0 z"
       class="function"
       />
    <g
       transform="matrix(1.0124992,0,0,1.0124992,1084.5165,-60.85017)"
>
      <circle
         r="182.82866"
         cy="711.14722"
         cx="-542.61981"
         style="opacity:1;fill:#ead2a9;fill-opacity:1;fill-rule:nonzero;stroke:#000000;stroke-width:10;stroke-linecap:round;stroke-linejoin:round;stroke-miterlimit:4;stroke-dasharray:none;stroke-opacity:1"
 />
      <path
         sodipodi:nodetypes="cccccccccccc"
         d="m -605.40735,468.75181 c -7.29459,2.91784 -79.66869,38.40355 -102.52592,135.09889 0,0 -21.02768,1.71156 -22.07001,-21.24519 0,0 -34.22457,66.16204 7.98303,162.26074 l -3.42897,-26.8734 c 2.9e-4,-100.97383 82.34527,-188.20808 183.3191,-188.2073 48.6995,9.07507 49.83124,30.94362 78.82852,72.55609 0,0 -15.75026,-73.97188 74.92965,-91.79133 -0.0354,-0.0708 -48.73198,-20.35866 -94.23318,-14.57042 0,0 -24.43076,-23.45179 34.97701,-44.33559 -0.47813,0.12582 -78.55065,-1.02632 -139.34062,48.58568 0,0 -42.89735,11.06904 -18.43861,-31.47817 z"
         style="fill:#93710c;fill-opacity:1;fill-rule:evenodd;stroke:#000000;stroke-width:10;stroke-linecap:butt;stroke-linejoin:miter;stroke-miterlimit:4;stroke-dasharray:none;stroke-opacity:1"
         />
      <ellipse
         ry="56.706215"
         rx="29.330801"
         cy="686.7049"
         cx="-535.77588"
         style="opacity:1;fill:#f5f5f5;fill-opacity:1;fill-rule:nonzero;stroke:#000000;stroke-width:10;stroke-linecap:round;stroke-linejoin:round;stroke-miterlimit:4;stroke-dasharray:none;stroke-opacity:1"
 />
      <ellipse
         style="opacity:1;fill:#f5f5f5;fill-opacity:1;fill-rule:nonzero;stroke:#000000;stroke-width:10;stroke-linecap:round;stroke-linejoin:round;stroke-miterlimit:4;stroke-dasharray:none;stroke-opacity:1"
         cx="-428.22964"
         cy="686.7049"
         rx="29.330801"
         ry="56.706215"
 />
      <path
         d="m -569.87565,782.35911 c 0,0 35.05531,25.2398 78.52386,25.2398 43.46857,0 86.93713,-23.83759 86.93713,-23.83759 0,0 -40.66412,75.71943 -93.94816,77.12162 -53.28403,1.40221 -71.51283,-78.52383 -71.51283,-78.52383 z"
         style="fill:#f5f5f5;fill-opacity:1;fill-rule:evenodd;stroke:#000000;stroke-width:10;stroke-linecap:butt;stroke-linejoin:miter;stroke-miterlimit:4;stroke-dasharray:none;stroke-opacity:1"
         />
    </g>
  </g>
</svg>
