<?xml version="1.0" encoding="UTF-8" standalone="no"?>
<svg
   xmlns:dc="http://purl.org/dc/elements/1.1/"
   xmlns:cc="http://creativecommons.org/ns#"
   xmlns:rdf="http://www.w3.org/1999/02/22-rdf-syntax-ns#"
   xmlns:svg="http://www.w3.org/2000/svg"
   xmlns="http://www.w3.org/2000/svg"
   xmlns:xlink="http://www.w3.org/1999/xlink"
   xmlns:sodipodi="http://sodipodi.sourceforge.net/DTD/sodipodi-0.dtd"
   xmlns:inkscape="http://www.inkscape.org/namespaces/inkscape"
   width="121.1769mm"
   height="120.95238mm"
   viewBox="0 0 121.1769 120.95238"
   version="1.1"
   id="svg8"
   sodipodi:docname="favicon.svg"
   inkscape:version="1.0.2 (e86c8708, 2021-01-15)">
  <sodipodi:namedview
     pagecolor="#ffffff"
     bordercolor="#666666"
     borderopacity="1"
     objecttolerance="10"
     gridtolerance="10"
     guidetolerance="10"
     inkscape:pageopacity="0"
     inkscape:pageshadow="2"
     inkscape:window-width="1737"
     inkscape:window-height="921"
     id="namedview894"
     showgrid="false"
     inkscape:zoom="0.97440738"
     inkscape:cx="-37.84086"
     inkscape:cy="201.84676"
     inkscape:window-x="57"
     inkscape:window-y="64"
     inkscape:window-maximized="0"
     inkscape:current-layer="layer1"
     inkscape:document-rotation="0"
     inkscape:snap-bbox="false"
     inkscape:snap-nodes="true"
     inkscape:snap-global="true"
     inkscape:snap-page="false"
     inkscape:lockguides="false" />
  <defs
     id="defs2">
    <linearGradient
       inkscape:collect="always"
       id="linearGradient862">
      <stop
         style="stop-color:#57ccb6;stop-opacity:1"
         offset="0"
         id="stop858" />
      <stop
         style="stop-color:#2eedeb;stop-opacity:1"
         offset="1"
         id="stop860" />
    </linearGradient>
    <linearGradient
       inkscape:collect="always"
       xlink:href="#linearGradient862"
       id="linearGradient864"
       x1="119.85423"
       y1="184.78859"
       x2="120.32986"
       y2="121.52151"
       gradientUnits="userSpaceOnUse" />
  </defs>
  <metadata
     id="metadata5">
    <rdf:RDF>
      <cc:Work
         rdf:about="">
        <dc:format>image/svg+xml</dc:format>
        <dc:type
           rdf:resource="http://purl.org/dc/dcmitype/StillImage" />
        <dc:title />
      </cc:Work>
    </rdf:RDF>
  </metadata>
  <g
     id="layer1"
     transform="translate(-54.428558,-89.958336)"
     style="display:inline">
    <path
       id="path842"
       style="mix-blend-mode:normal;fill:url(#linearGradient864);fill-opacity:1;stroke-width:0.650875;stroke-miterlimit:4;stroke-dasharray:none"
       d="m 146.64258,123.64988 a 24.34088,24.34088 0 0 0 -31.27064,13.24249 l -0.0131,-0.006 a 24.34088,24.34088 0 0 1 -0.19859,0.52535 24.34088,24.34088 0 0 1 -31.56721,13.7303 24.34088,24.34088 0 0 1 -14.197956,-30.27136 48.678906,48.678906 0 0 0 28.082247,61.45564 48.678906,48.678906 0 0 0 62.575169,-26.11335 24.34088,24.34088 0 0 0 0.40352,-0.96499 24.34088,24.34088 0 0 0 0.0573,-0.14816 48.678906,48.678906 0 0 0 0.0921,-0.2325 48.678906,48.678906 0 0 0 0.0557,-0.14218 l -0.008,-0.004 a 24.34088,24.34088 0 0 0 -13.92905,-31.0409 24.34088,24.34088 0 0 0 -0.0838,-0.0335 z" />
    <path
       id="path10"
       style="fill:#000000;fill-opacity:1;fill-rule:evenodd;stroke-width:2.64583327;stroke-miterlimit:4;stroke-dasharray:none;stroke:none;stroke-opacity:1"
       d="m 63.411824,118.81398 a 60.47619,60.47619 0 0 0 19.811298,83.09865 60.47619,60.47619 0 0 0 83.217418,-19.73807 60.47619,60.47619 0 0 0 -19.73763,-83.217145 60.47619,60.47619 0 0 0 -0.4751,-0.289899 51.824111,51.824111 0 0 1 12.90906,68.575664 51.824111,51.824111 0 0 1 -71.31212,16.91397 51.824111,51.824111 0 0 1 -16.91397,-71.31212 51.824111,51.824111 0 0 1 13.394418,-14.539034 60.47619,60.47619 0 0 0 -20.819875,20.388774 60.47619,60.47619 0 0 0 -0.0735,0.11921 z" />
  </g>
</svg>
