<svg xmlns="http://www.w3.org/2000/svg" width="32" height="32"><style>path{fill:#000}@media (prefers-color-scheme:dark){path{fill:#fff}}</style><path d="M24.534 8.213a6.44 6.394 0 0 0-8.275 3.479 6.44 6.394 0 0 1-.057.136 6.44 6.394 0 0 1-8.351 3.608 6.44 6.394 0 0 1-3.757-7.95 12.878 12.784 0 0 0 7.429 16.138 12.878 12.784 0 0 0 16.558-6.86 6.44 6.394 0 0 0 .107-.253 6.44 6.394 0 0 0 .015-.038 12.878 12.784 0 0 0 .023-.06 12.878 12.784 0 0 0 .015-.038 6.44 6.394 0 0 0-3.688-8.155 6.44 6.394 0 0 0-.023-.007z" style="fill:#61dec7"/><path d="M2.362 6.599a16.001 15.885 0 0 0 5.243 21.828A16.001 15.885 0 0 0 29.62 23.24 16.001 15.885 0 0 0 24.4 1.386a16.001 15.885 0 0 0-.126-.076 13.713 13.613 0 0 1 3.416 18.009 13.713 13.613 0 0 1-18.868 4.444A13.713 13.613 0 0 1 4.349 5.03a13.713 13.613 0 0 1 3.542-3.82 16.001 15.885 0 0 0-5.51 5.357 16.001 15.885 0 0 0-.02.03z"/></svg>