<?xml version="1.0" encoding="UTF-8" standalone="no"?>
<svg
   xmlns:dc="http://purl.org/dc/elements/1.1/"
   xmlns:cc="http://creativecommons.org/ns#"
   xmlns:rdf="http://www.w3.org/1999/02/22-rdf-syntax-ns#"
   xmlns:svg="http://www.w3.org/2000/svg"
   xmlns="http://www.w3.org/2000/svg"
   xmlns:sodipodi="http://sodipodi.sourceforge.net/DTD/sodipodi-0.dtd"
   xmlns:inkscape="http://www.inkscape.org/namespaces/inkscape"
   width="32"
   height="32"
   viewBox="0 0 8.4666656 8.4666662"
   version="1.1"
   id="svg8"
   sodipodi:docname="favicon.svg"
   inkscape:version="1.0.2 (e86c8708, 2021-01-15)">
  <sodipodi:namedview
     pagecolor="#ffffff"
     bordercolor="#666666"
     borderopacity="1"
     objecttolerance="10"
     gridtolerance="10"
     guidetolerance="10"
     inkscape:pageopacity="0"
     inkscape:pageshadow="2"
     inkscape:window-width="1737"
     inkscape:window-height="921"
     id="namedview894"
     showgrid="false"
     inkscape:zoom="11.065878"
     inkscape:cx="7.1441313"
     inkscape:cy="23.343668"
     inkscape:window-x="57"
     inkscape:window-y="42"
     inkscape:window-maximized="0"
     inkscape:current-layer="layer1"
     inkscape:document-rotation="0"
     inkscape:snap-bbox="false"
     inkscape:snap-nodes="true"
     inkscape:snap-global="true"
     inkscape:snap-page="false"
     inkscape:lockguides="false"
     units="px" />
  <defs
     id="defs2" />
       <style>
             path { fill: #000000; }
             @media (prefers-color-scheme: dark) {
               path { fill: #ffffff; }
             }
       </style>
  <metadata
     id="metadata5">
    <rdf:RDF>
      <cc:Work
         rdf:about="">
        <dc:format>image/svg+xml</dc:format>
        <dc:type
           rdf:resource="http://purl.org/dc/dcmitype/StillImage" />
        <dc:title></dc:title>
      </cc:Work>
    </rdf:RDF>
  </metadata>
  <g
     id="layer1"
     transform="translate(-54.428558,-89.958336)"
     style="display:inline">
    <path
       id="path842"
       style="mix-blend-mode:normal;fill:#61dec7;fill-opacity:1;stroke-width:0.0451582;stroke-miterlimit:4;stroke-dasharray:none"
       d="m 60.899575,92.135166 a 1.6887894,1.6887894 0 0 0 -2.169582,0.918775 l -9.09e-4,-4.17e-4 a 1.6887894,1.6887894 0 0 1 -0.01378,0.03644 1.6887894,1.6887894 0 0 1 -2.190158,0.952619 1.6887894,1.6887894 0 0 1 -0.985065,-2.10025 3.3773808,3.3773808 0 0 0 1.948368,4.26384 3.3773808,3.3773808 0 0 0 4.341514,-1.811764 1.6887894,1.6887894 0 0 0 0.028,-0.06696 1.6887894,1.6887894 0 0 0 0.004,-0.01028 3.3773808,3.3773808 0 0 0 0.0064,-0.01613 3.3773808,3.3773808 0 0 0 0.0039,-0.0099 l -5.56e-4,-2.78e-4 a 1.6887894,1.6887894 0 0 0 -0.966408,-2.153643 1.6887894,1.6887894 0 0 0 -0.0058,-0.0024 z" />
    <path
       id="path10"
       style="fill-opacity:1;fill-rule:evenodd;stroke:none;stroke-width:0.183567;stroke-miterlimit:4;stroke-dasharray:none;stroke-opacity:1"
       d="m 55.085249,91.708214 a 4.1958855,4.1958855 0 0 0 1.374523,5.765449 4.1958855,4.1958855 0 0 0 5.77369,-1.369442 4.1958855,4.1958855 0 0 0 -1.369413,-5.773671 4.1958855,4.1958855 0 0 0 -0.03296,-0.02011 3.5955976,3.5955976 0 0 1 0.895641,4.757834 3.5955976,3.5955976 0 0 1 -4.947691,1.173505 3.5955976,3.5955976 0 0 1 -1.173505,-4.94769 3.5955976,3.5955976 0 0 1 0.929315,-1.008731 4.1958855,4.1958855 0 0 0 -1.444499,1.414589 4.1958855,4.1958855 0 0 0 -0.0051,0.0083 z" />
  </g>
</svg>
