<svg xmlns="http://www.w3.org/2000/svg" width="1700" height="1000" viewBox="0 0 449.79166 264.58334" id="svg4515"><g transform="translate(0 -32.417)" id="g4513"><path d="M61.25 142.155h39.137" class="stream" id="path4511" fill="none" stroke="#fff" stroke-width="5.292" stroke-linecap="round" stroke-dasharray="5.29166669,10.58333339000000173"/><path d="M82.268 167.767l17.323-10.002v70.746c0 .733.59 1.323 1.323 1.323h247.964a1.32 1.32 0 0 0 1.323-1.323V55.801a1.32 1.32 0 0 0-1.323-1.324H100.914a1.32 1.32 0 0 0-1.323 1.323v73.465l-17.323-10.001" id="rect4493" fill="none" stroke="#edaf1f" stroke-width="5.292"/><text style="line-height:6.61458302px" x="200.406" y="69.08" font-weight="400" font-size="10.583" font-family="sans-serif" letter-spacing="0" word-spacing="0" stroke-width=".265" id="text4497"><tspan x="200.406" y="69.08" fill="#fff" id="tspan4495">App Land</tspan></text><g transform="translate(-160.545 -54.558) scale(1.41199)" stroke="#fff" stroke-width="3.969" stroke-linecap="round" id="g4505"><circle cy="140.045" cx="138.416" id="circle4499" r="14.159" fill="none" stroke-width="2.59" paint-order="stroke fill markers"/><path class="time-min" d="M138.416 140.045l6.8-7.547" id="path4501" fill="none" stroke-width="2.59"/><path class="time-hour" d="M138.634 140.045l-5.183-4.467" id="path4503" fill="none" stroke-width="2.59"/></g><path id="path6605" d="M-39.314 58.663l-21.003 12.125-21.002 12.126V34.41l21.002 12.126z" fill="#287df2" stroke-width="2.528" stroke-linecap="round" paint-order="stroke fill markers"/></g></svg>