<?xml version="1.0" encoding="UTF-8" standalone="no"?>
<svg
   xmlns:dc="http://purl.org/dc/elements/1.1/"
   xmlns:cc="http://creativecommons.org/ns#"
   xmlns:rdf="http://www.w3.org/1999/02/22-rdf-syntax-ns#"
   xmlns:svg="http://www.w3.org/2000/svg"
   xmlns="http://www.w3.org/2000/svg"
   xmlns:xlink="http://www.w3.org/1999/xlink"
   xmlns:sodipodi="http://sodipodi.sourceforge.net/DTD/sodipodi-0.dtd"
   xmlns:inkscape="http://www.inkscape.org/namespaces/inkscape"
   width="1920"
   height="1080"
   viewBox="0 0 508.00001 285.74999"
   version="1.1"
   id="svg8"
   inkscape:version="0.92.1 r"
   sodipodi:docname="cyclearch-ext.svg">
  <sodipodi:namedview
     id="base"
     pagecolor="#ffffff"
     bordercolor="#666666"
     borderopacity="1.0"
     inkscape:pageopacity="0.0"
     inkscape:pageshadow="2"
     inkscape:zoom="0.87816468"
     inkscape:cx="960.35183"
     inkscape:cy="632.63639"
     inkscape:document-units="px"
     inkscape:current-layer="svg8"
     showgrid="false"
     units="px"
     showguides="false"
     inkscape:window-width="1916"
     inkscape:window-height="1058"
     inkscape:window-x="0"
     inkscape:window-y="20"
     inkscape:window-maximized="0"
     inkscape:measure-start="491.704,592.421"
     inkscape:measure-end="491.704,667.577"
     inkscape:object-nodes="false" />
  <style
     id="style4586">.appland {
  stroke-width:1;
  fill:#287df2;
  fill-opacity:1;
}
.fwland {
  stroke-opacity:1;
  fill-opacity:1;
  stroke:none;
  fill:#dedede;
}
.component {
 stroke-dasharray:7, 7;
  stroke-dashoffset:0;
  stroke-width:1.5;
  stroke-linecap:butt;
    stroke:#001e47;
    fill:#a3caff;
}</style>
  <defs
     id="defs2" />
  <metadata
     id="metadata5">
    <rdf:RDF>
      <cc:Work
         rdf:about="">
        <dc:format>image/svg+xml</dc:format>
        <dc:type
           rdf:resource="http://purl.org/dc/dcmitype/StillImage" />
        <dc:title />
      </cc:Work>
    </rdf:RDF>
  </metadata>
  <rect
     ry="1.3229166"
     y="-0.85218036"
     x="28.045835"
     height="238.125"
     width="451.90833"
     id="rect6122"
     class="fwland"
     style="fill:#dedede;fill-opacity:1;stroke:none;stroke-width:1.32291663;stroke-miterlimit:4;stroke-dasharray:none;stroke-opacity:1" />
  <path
     id="path6186"
     style="fill:#fdf400;fill-opacity:1;fill-rule:evenodd;stroke:#20201c;stroke-width:0.4750905;stroke-opacity:1"
     class="hidden in-ev"
     d="m 72.824691,51.316915 -5.74699,15.40436 4.68833,-1.63877 -3.25159,12.372667 7.48619,-17.043127 -4.91516,2.21233 z"
     inkscape:connector-curvature="0" />
  <g
     id="g9665"
     class="hidden in-http">
    <circle
       style="fill:#37ff00;fill-opacity:1;fill-rule:nonzero;stroke:none;stroke-width:14.11111069;stroke-linecap:butt;stroke-linejoin:round;stroke-miterlimit:4;stroke-dasharray:none;stroke-dashoffset:0;stroke-opacity:1;paint-order:normal"
       id="path6190"
       cx="71.572403"
       cy="125.45322"
       r="11.078343" />
    <text
       xml:space="preserve"
       style="font-style:normal;font-weight:normal;font-size:7.05555534px;line-height:4.40972185px;font-family:sans-serif;letter-spacing:0px;word-spacing:0px;fill:#000000;fill-opacity:1;stroke:none;stroke-width:0.17638887px;stroke-linecap:butt;stroke-linejoin:miter;stroke-opacity:1"
       x="64.811356"
       y="128.02155"
       id="text6194"><tspan
         sodipodi:role="line"
         id="tspan6192"
         x="64.811356"
         y="128.02155"
         style="stroke-width:0.17638887px">200</tspan></text>
  </g>
  <text
     xml:space="preserve"
     style="font-style:normal;font-weight:normal;font-size:10.58333302px;line-height:6.61458302px;font-family:sans-serif;letter-spacing:0px;word-spacing:0px;fill:#ff0066;fill-opacity:1;stroke:none;stroke-width:0.26458332px;stroke-linecap:butt;stroke-linejoin:miter;stroke-opacity:1"
     x="219.34479"
     y="14.915102"
     id="text6126"><tspan
       sodipodi:role="line"
       id="tspan6124"
       x="219.34479"
       y="14.915102"
       style="font-size:12.69999981px;fill:#ff0066;fill-opacity:1;stroke-width:0.26458332px">Cycle Land</tspan></text>
  <rect
     class="appland"
     id="rect6128"
     width="250.60974"
     height="175.35661"
     x="128.69511"
     y="31.384188"
     ry="1.3229166"
     style="fill:#287df2;fill-opacity:1;stroke-width:1" />
  <text
     xml:space="preserve"
     style="font-style:normal;font-weight:normal;font-size:10.58333302px;line-height:6.61458302px;font-family:sans-serif;letter-spacing:0px;word-spacing:0px;fill:#ffffff;fill-opacity:1;stroke:none;stroke-width:0.26458332px;stroke-linecap:butt;stroke-linejoin:miter;stroke-opacity:1"
     x="225.89087"
     y="47.765293"
     id="text6132"><tspan
       sodipodi:role="line"
       id="tspan6130"
       x="225.89087"
       y="47.765293"
       style="font-size:12.69999981px;fill:#ffffff;stroke-width:0.26458332px">App Land</tspan></text>
  <g
     id="g9649"
     class="out-http out-ev  out-ws">
    <rect
       style="fill:#287df2;fill-opacity:1;fill-rule:nonzero;stroke:none;stroke-width:1.32291663;stroke-linecap:square;stroke-linejoin:round;stroke-miterlimit:4;stroke-dasharray:none;stroke-dashoffset:0;stroke-opacity:1;paint-order:stroke fill markers"
       id="rect6176"
       width="47.604019"
       height="21.69297"
       x="345.3396"
       y="115.37355"
       ry="1.3229166"
       class="side-effect" />
    <text
       id="text6180"
       y="129.81567"
       x="354.25983"
       style="font-style:normal;font-weight:normal;font-size:10.58333302px;line-height:6.61458302px;font-family:sans-serif;letter-spacing:0px;word-spacing:0px;fill:#ffffff;fill-opacity:1;stroke:none;stroke-width:1.32291663;stroke-linecap:square;stroke-linejoin:miter;stroke-miterlimit:4;stroke-dasharray:none;stroke-opacity:1;paint-order:stroke fill markers"
       xml:space="preserve"><tspan
         style="font-size:9.87777805px;line-height:1.71979165px;fill:#ffffff;stroke:none;stroke-width:1.32291663;stroke-linecap:square;stroke-miterlimit:4;stroke-dasharray:none;stroke-opacity:1;paint-order:stroke fill markers"
         y="129.81567"
         x="354.25983"
         id="tspan6178"
         sodipodi:role="line">VDOM</tspan></text>
  </g>
  <g
     id="g9641"
     class="out-ev">
    <rect
       class="side-effect"
       ry="1.3229166"
       y="54.236446"
       x="345.33963"
       height="21.69297"
       width="47.604019"
       id="rect6156"
       style="fill:#287df2;fill-opacity:1;fill-rule:nonzero;stroke:none;stroke-width:1.32291663;stroke-linecap:square;stroke-linejoin:round;stroke-miterlimit:4;stroke-dasharray:none;stroke-dashoffset:0;stroke-opacity:1;paint-order:stroke fill markers" />
    <text
       xml:space="preserve"
       style="font-style:normal;font-weight:normal;font-size:10.58333302px;line-height:6.61458302px;font-family:sans-serif;letter-spacing:0px;word-spacing:0px;fill:#ffffff;fill-opacity:1;stroke:none;stroke-width:1.32291663;stroke-linecap:square;stroke-linejoin:miter;stroke-miterlimit:4;stroke-dasharray:none;stroke-opacity:1;paint-order:stroke fill markers"
       x="356.18188"
       y="68.678574"
       id="text6160"><tspan
         sodipodi:role="line"
         id="tspan6158"
         x="356.18188"
         y="68.678574"
         style="font-size:9.87777805px;line-height:1.71979165px;fill:#ffffff;stroke:none;stroke-width:1.32291663;stroke-linecap:square;stroke-miterlimit:4;stroke-dasharray:none;stroke-opacity:1;paint-order:stroke fill markers">HTTP</tspan></text>
  </g>
  <g
     id="g9657"
     class="out-ev">
    <rect
       style="fill:#287df2;fill-opacity:1;fill-rule:nonzero;stroke:none;stroke-width:1.32291663;stroke-linecap:square;stroke-linejoin:round;stroke-miterlimit:4;stroke-dasharray:none;stroke-dashoffset:0;stroke-opacity:1;paint-order:stroke fill markers"
       id="rect6166"
       width="47.604019"
       height="21.69297"
       x="345.33963"
       y="176.51056"
       ry="1.3229166"
       class="side-effect" />
    <text
       id="text6170"
       y="190.95268"
       x="361.23651"
       style="font-style:normal;font-weight:normal;font-size:10.58333302px;line-height:6.61458302px;font-family:sans-serif;letter-spacing:0px;word-spacing:0px;fill:#ffffff;fill-opacity:1;stroke:none;stroke-width:1.32291663;stroke-linecap:square;stroke-linejoin:miter;stroke-miterlimit:4;stroke-dasharray:none;stroke-opacity:1;paint-order:stroke fill markers"
       xml:space="preserve"><tspan
         style="font-size:9.87777805px;line-height:1.71979165px;fill:#ffffff;stroke:none;stroke-width:1.32291663;stroke-linecap:square;stroke-miterlimit:4;stroke-dasharray:none;stroke-opacity:1;paint-order:stroke fill markers"
         y="190.95268"
         x="361.23651"
         id="tspan6168"
         sodipodi:role="line">WS</tspan></text>
  </g>
  <g
     id="g9673"
     class="hidden in-ws">
    <circle
       r="11.078343"
       cy="186.74606"
       cx="71.572411"
       id="circle6196"
       style="fill:#ff8b00;fill-opacity:1;fill-rule:nonzero;stroke:none;stroke-width:14.11111069;stroke-linecap:butt;stroke-linejoin:round;stroke-miterlimit:4;stroke-dasharray:none;stroke-dashoffset:0;stroke-opacity:1;paint-order:normal" />
    <text
       xml:space="preserve"
       style="font-style:normal;font-weight:normal;font-size:10.58333302px;line-height:6.61458302px;font-family:sans-serif;letter-spacing:0px;word-spacing:0px;fill:#000000;fill-opacity:1;stroke:none;stroke-width:0.26458332px;stroke-linecap:butt;stroke-linejoin:miter;stroke-opacity:1"
       x="65.925926"
       y="189.31438"
       id="text6200"><tspan
         sodipodi:role="line"
         id="tspan6198"
         x="65.925926"
         y="189.31438"
         style="font-size:7.05555534px;stroke-width:0.26458332px">WS</tspan></text>
  </g>
  <path
     sodipodi:nodetypes="sscccccccccsssssssscccccsssssssscccccsssssssscccccccccsssssssscccccsssssssscccccsssssss"
     inkscape:connector-curvature="0"
     id="path6090"
     d="m 385.97489,46.018985 c -3.32949,0 -6.66184,2.74492 -6.00998,6.00997 v 2.65048 h -57.57994 c -4.07955,2.4e-4 -7.79584,2.345 -9.55239,6.02702 L 281.5668,115.67779 H 254.10387 226.64094 L 195.37515,60.706455 c -1.75655,-3.68201 -5.47283,-6.02678 -9.55238,-6.02702 h -57.78716 v -2.01848 c 0,-3.32949 -2.68049,-6.00997 -6.00998,-6.00997 h -1.61539 c -3.32949,0 -6.00998,2.68048 -6.00998,6.00997 v 25.050157 c 0,3.3295 2.68049,6.00997 6.00998,6.00997 h 1.61539 c 3.32949,0 6.00998,-2.68047 6.00998,-6.00997 v -1.866037 h 51.10902 l 24.04504,39.832715 h -17.3669 -57.78716 v -2.07532 c 0,-3.32949 -2.68049,-6.00997 -6.00998,-6.00997 h -1.61539 c -3.32949,0 -6.00998,2.68048 -6.00998,6.00997 v 25.05015 c 0,3.32949 2.68049,6.00999 6.00998,6.00999 h 1.61539 c 3.32949,0 6.00998,-2.68049 6.00998,-6.00999 v -1.80868 h 57.78716 17.3669 l -24.04504,39.83481 H 128.03561 V 174.544 c 0,-3.32949 -2.68049,-6.00997 -6.00998,-6.00997 h -1.61539 c -3.32949,0 -6.00998,2.68048 -6.00998,6.00997 v 25.05015 c 0,3.32949 2.68049,6.00945 6.00998,6.00945 h 1.61539 c 3.32949,0 6.97404,-2.82259 6.00998,-6.00945 v -1.74925 h 57.78716 c 4.07967,-3.3e-4 7.79598,-2.34532 9.55238,-6.02754 l 31.26579,-54.97342 h 27.46293 27.46293 l 31.26578,54.97342 c 1.7564,3.68223 5.47272,6.02721 9.55239,6.02754 h 57.57994 v 2.49804 c 0,3.32949 2.68049,6.00997 6.00998,6.00997 h 1.61489 c 3.32949,0 6.00996,-2.68048 6.00996,-6.00997 v -25.05015 c 0,-3.32949 -2.68047,-6.00945 -6.00996,-6.00945 h -1.61489 c -3.32949,0 -6.00998,2.67996 -6.00998,6.00945 v 1.38596 H 329.0626 l -24.04454,-39.83481 h 17.36691 57.57994 v 1.86707 c 0,3.3295 2.68049,6.00999 6.00998,6.00999 h 1.61489 c 3.32949,0 6.00996,-2.68049 6.00996,-6.00999 v -25.05015 c 0,-3.32949 -2.68047,-6.00997 -6.00996,-6.00997 h -1.61489 c -3.32949,0 -6.85491,2.78948 -6.00998,6.00997 v 2.01693 H 322.38497 305.01806 L 329.0626,75.845075 h 50.90231 v 1.234027 c 0,3.3295 2.68049,6.00947 6.00998,6.00947 h 1.61489 c 3.32949,0 6.00996,-2.67997 6.00996,-6.00947 V 52.028955 c 0,-3.32949 -2.68047,-6.00997 -6.00996,-6.00997 z"
     style="fill:#a3caff;stroke:#001e47;stroke-width:1.5;stroke-linecap:butt;stroke-dasharray:6.99999997, 6.99999997;stroke-dashoffset:0" />
  <style
     id="style4585" />
  <path
     inkscape:connector-curvature="0"
     style="fill:#ffffff;fill-opacity:1;stroke:#d9d20d;stroke-width:0.12872143;stroke-opacity:1"
     id="use9611"
     d="m 96.461598,-31.519946 h -0.59076 c -0.48194,0 -0.88614,-0.41587 -0.88614,-0.90946 0,-0.24874 0.10494,-0.47416 0.29149,-0.64128 l 0.38088,-0.37312 c 0.37699,-0.3731 0.37699,-0.98329 0,-1.3564 l -0.86669,-0.85893 c -0.17101,-0.17101 -0.42365,-0.27206 -0.68016,-0.27206 -0.2565,0 -0.50526,0.10105 -0.68014,0.27206 l -0.36534,0.36533 c -0.17491,0.19434 -0.40809,0.29927 -0.66071,0.29927 -0.49748,0 -0.91335,-0.4042 -0.91335,-0.88225 v -0.59466 c 0,-0.52468 -0.42364,-0.97552 -0.95222,-0.97552 h -1.18149 c -0.52859,0 -0.94835,0.44696 -0.94835,0.97552 v 0.59078 c 0,0.47804 -0.41584,0.88223 -0.91332,0.88223 -0.24874,0 -0.47805,-0.10493 -0.64517,-0.2876 l -0.37699,-0.3731 c -0.17102,-0.1749 -0.42363,-0.27206 -0.68015,-0.27206 -0.25652,0 -0.50527,0.10105 -0.68017,0.27206 l -0.87446,0.85504 c -0.37311,0.37312 -0.37311,0.9833 0,1.35253 l 0.36533,0.36534 c 0.19434,0.17489 0.30315,0.40808 0.30315,0.65682 0,0.49748 -0.4042,0.90946 -0.88613,0.90946 h -0.59077 c -0.53244,0 -0.97942,0.41586 -0.97942,0.94443 v 0.59076 0.59076 c 0,0.52468 0.44698,0.94443 0.97942,0.94443 h 0.59077 c 0.48193,0 0.88613,0.41587 0.88613,0.90946 0,0.24874 -0.10881,0.48194 -0.30315,0.65682 l -0.36533,0.36145 c -0.37311,0.37311 -0.37311,0.98331 0,1.35253 l 0.86669,0.86282 c 0.17103,0.17489 0.42364,0.27206 0.68017,0.27206 0.25651,0 0.50525,-0.10106 0.68014,-0.27206 l 0.377,-0.37311 c 0.16323,-0.18267 0.39642,-0.2876 0.64516,-0.2876 0.49747,0 0.91336,0.4042 0.91336,0.88224 v 0.59076 c 0,0.52469 0.41972,0.97553 0.9522,0.97553 h 1.18151 c 0.52857,0 0.94831,-0.44696 0.94831,-0.97553 v -0.59076 c 0,-0.47804 0.41588,-0.88224 0.91334,-0.88224 0.24874,0 0.48194,0.10881 0.66073,0.29926 l 0.36534,0.36534 c 0.17489,0.171 0.42363,0.27205 0.68014,0.27205 0.25652,0 0.50524,-0.10105 0.68016,-0.27205 l 0.8667,-0.86283 c 0.3731,-0.3731 0.3731,-0.9833 0,-1.35641 l -0.38091,-0.3731 c -0.18653,-0.16712 -0.29148,-0.39643 -0.29148,-0.64129 0,-0.49747 0.4042,-0.90945 0.88616,-0.90945 h 0.59074 c 0.52858,0 0.90557,-0.41587 0.90557,-0.94443 v -0.59465 -0.59076 c 0.008,-0.52857 -0.36922,-0.94443 -0.89779,-0.94443 z m -3.40852,1.53519 v 0 c 0,1.71397 -1.38751,3.10925 -3.10925,3.10925 -1.72176,0 -3.10925,-1.39528 -3.10925,-3.10925 v 0 0 c 0,-1.71398 1.38749,-3.10925 3.10925,-3.10925 1.72174,0 3.10925,1.39527 3.10925,3.10925 z" />
  <use
     x="0"
     y="0"
     xlink:href="#use9611"
     id="use9619"
     transform="translate(67.954491,95.018107)"
     width="100%"
     height="100%"
     class="function-ev-1 hidden" />
  <use
     height="100%"
     width="100%"
     transform="translate(66.896157,156.37509)"
     id="use9621"
     xlink:href="#use9611"
     y="0"
     x="0"
     class="function-http-1 hidden" />
  <use
     x="0"
     y="0"
     xlink:href="#use9611"
     id="use9623"
     transform="translate(67.954491,217.2029)"
     width="100%"
     height="100%"
     class="function-ws-1 hidden" />
  <use
     class="function-http-2 function-ev-2 function-ws-2 hidden"
     x="0"
     y="0"
     xlink:href="#use9611"
     id="use9625"
     transform="translate(126.73213,156.37509)"
     width="100%"
     height="100%" />
  <use
     height="100%"
     width="100%"
     transform="translate(202.44317,156.37509)"
     id="use9627"
     xlink:href="#use9611"
     y="0"
     x="0"
     class="function-http-3 function-ev-3 function-ws-3 hidden" />
  <use
     class="function-http-4 function-ev-4  function-ws-4 hidden"
     x="0"
     y="0"
     xlink:href="#use9611"
     id="use9629"
     transform="translate(267.4011,156.37509)"
     width="100%"
     height="100%" />
  <use
     height="100%"
     width="100%"
     transform="translate(267.4011,95.018107)"
     id="use9631"
     xlink:href="#use9611"
     y="0"
     x="0"
     class="function-ev-4 hidden" />
  <use
     class="function-ev-4 hidden"
     x="0"
     y="0"
     xlink:href="#use9611"
     id="use9633"
     transform="translate(267.4011,217.2029)"
     width="100%"
     height="100%" />
</svg>
