<?xml version="1.0" encoding="UTF-8" standalone="no"?>
<svg
   xmlns:dc="http://purl.org/dc/elements/1.1/"
   xmlns:cc="http://creativecommons.org/ns#"
   xmlns:rdf="http://www.w3.org/1999/02/22-rdf-syntax-ns#"
   xmlns:svg="http://www.w3.org/2000/svg"
   xmlns="http://www.w3.org/2000/svg"
   xmlns:sodipodi="http://sodipodi.sourceforge.net/DTD/sodipodi-0.dtd"
   xmlns:inkscape="http://www.inkscape.org/namespaces/inkscape"
   id="svg8"
   version="1.1"
   viewBox="0 0 508.00001 285.74999"
   height="1080"
   width="1920"
   sodipodi:docname="cyclearch.svg"
   inkscape:version="0.92.1 r">
  <sodipodi:namedview
     pagecolor="#ffffff"
     bordercolor="#666666"
     borderopacity="1"
     objecttolerance="10"
     gridtolerance="10"
     guidetolerance="10"
     inkscape:pageopacity="0"
     inkscape:pageshadow="2"
     inkscape:window-width="1916"
     inkscape:window-height="1058"
     id="namedview7776"
     showgrid="false"
     inkscape:zoom="0.41354167"
     inkscape:cx="240.71026"
     inkscape:cy="705.70676"
     inkscape:window-x="0"
     inkscape:window-y="20"
     inkscape:window-maximized="0"
     inkscape:current-layer="svg8" />
  <style
     id="style4586">.appland {
  stroke-width:1;
  fill:#287df2;
  fill-opacity:1;
}
.fwland {
  stroke-opacity:1;
  fill-opacity:1;
  stroke:none;
  fill:#dedede;
}
.component {
 stroke-dasharray:7, 7;
  stroke-dashoffset:0;
  stroke-width:1.5;
  stroke-linecap:butt;
    stroke:#001e47;
    fill:#a3caff;
}</style>
  <defs
     id="defs2" />
  <metadata
     id="metadata5">
    <rdf:RDF>
      <cc:Work
         rdf:about="">
        <dc:format>image/svg+xml</dc:format>
        <dc:type
           rdf:resource="http://purl.org/dc/dcmitype/StillImage" />
        <dc:title />
      </cc:Work>
    </rdf:RDF>
  </metadata>
  <rect
     ry="1.3229166"
     y="-4.6325684e-07"
     x="28.045835"
     height="238.125"
     width="451.90833"
     id="rect5013"
     class="fwland"
     style="fill:#dedede;fill-opacity:1;stroke:none;stroke-width:1.32291663;stroke-miterlimit:4;stroke-dasharray:none;stroke-opacity:1" />
  <text
     xml:space="preserve"
     style="font-style:normal;font-weight:normal;font-size:10.58333302px;line-height:6.61458302px;font-family:sans-serif;letter-spacing:0px;word-spacing:0px;fill:#ff0066;fill-opacity:1;stroke:none;stroke-width:0.26458332px;stroke-linecap:butt;stroke-linejoin:miter;stroke-opacity:1"
     x="219.34476"
     y="14.9151"
     id="text5017"><tspan
       id="tspan5015"
       x="219.34476"
       y="14.9151"
       style="font-size:12.69999981px;fill:#ff0066;fill-opacity:1;stroke-width:0.26458332px">Cycle Land</tspan></text>
  <rect
     class="appland"
     id="rect5021"
     width="250.60974"
     height="175.35661"
     x="128.69513"
     y="31.384193"
     ry="1.3229166"
     style="fill:#287df2;fill-opacity:1;stroke-width:1" />
  <text
     xml:space="preserve"
     style="font-style:normal;font-weight:normal;font-size:10.58333302px;line-height:6.61458302px;font-family:sans-serif;letter-spacing:0px;word-spacing:0px;fill:#ffffff;fill-opacity:1;stroke:none;stroke-width:0.26458332px;stroke-linecap:butt;stroke-linejoin:miter;stroke-opacity:1"
     x="229.60976"
     y="104.2804"
     id="text4853"><tspan
       id="tspan4851"
       x="229.60976"
       y="104.2804"
       style="fill:#ffffff;fill-opacity:1;stroke-width:0.26458332px">DataFlow</tspan></text>
  <text
     xml:space="preserve"
     style="font-style:normal;font-weight:normal;font-size:10.58333302px;line-height:6.61458302px;font-family:sans-serif;letter-spacing:0px;word-spacing:0px;fill:#ffffff;fill-opacity:1;stroke:none;stroke-width:0.26458332px;stroke-linecap:butt;stroke-linejoin:miter;stroke-opacity:1"
     x="225.89087"
     y="47.765289"
     id="text5025"><tspan
       id="tspan5023"
       x="225.89087"
       y="47.765289"
       style="font-size:12.69999981px;fill:#ffffff;stroke-width:0.26458332px">App Land</tspan></text>
  <path
     id="path5027"
     style="fill:#fdf400;fill-opacity:1;fill-rule:evenodd;stroke:#20201c;stroke-width:0.4750905;stroke-opacity:1"
     class="event hidden"
     d="m 70.693395,109.21752 -5.74699,15.40436 4.68833,-1.63877 -3.25159,12.37267 7.48619,-17.04313 -4.91516,2.21233 z"
     inkscape:connector-curvature="0" />
  <g
     id="g8433"
     class="output-vdom">
    <rect
       class="side-effect"
       ry="1.3229166"
       y="109.05136"
       x="341.2692"
       height="21.69297"
       width="47.604019"
       id="rect5870-6"
       style="fill:#287df2;fill-opacity:1;fill-rule:nonzero;stroke:none;stroke-width:1.32291663;stroke-linecap:square;stroke-linejoin:round;stroke-miterlimit:4;stroke-dasharray:none;stroke-dashoffset:0;stroke-opacity:1;paint-order:stroke fill markers" />
    <text
       xml:space="preserve"
       style="font-style:normal;font-weight:normal;font-size:10.58333302px;line-height:6.61458302px;font-family:sans-serif;letter-spacing:0px;word-spacing:0px;fill:#ffffff;fill-opacity:1;stroke:none;stroke-width:1.32291663;stroke-linecap:square;stroke-linejoin:miter;stroke-miterlimit:4;stroke-dasharray:none;stroke-opacity:1;paint-order:stroke fill markers"
       x="350.18942"
       y="123.49349"
       id="text5864"><tspan
         id="tspan5862"
         x="350.18942"
         y="123.49349"
         style="font-size:9.87777805px;line-height:1.71979165px;fill:#ffffff;stroke:none;stroke-width:1.32291663;stroke-linecap:square;stroke-miterlimit:4;stroke-dasharray:none;stroke-opacity:1;paint-order:stroke fill markers">VDOM</tspan></text>
  </g>
  <path
     id="path6969"
     d="m 128.03561,108.58354 v -2.07532 c 0,-3.32949 -2.68049,-6.00997 -6.00998,-6.00997 h -1.61539 c -3.32949,0 -6.00998,2.68048 -6.00998,6.00997 v 25.05015 c 0,3.32949 2.68049,6.00999 6.00998,6.00999 h 1.61539 c 3.32949,0 6.00998,-2.68049 6.00998,-6.00999 v -1.80868 h 251.9293 v 1.86707 c 0,0 2.68049,6.00999 6.00998,6.00999 h 1.61489 c 3.32949,0 6.00996,-2.68049 6.00996,-6.00999 v -25.05015 c 0,-3.32949 -2.68047,-6.00997 -6.00996,-6.00997 h -1.61489 c -3.32949,0 -6.85491,2.78948 -6.00998,6.00997 v 2.01693 z"
     style="fill:#a3caff;stroke:#001e47;stroke-width:1.5;stroke-linecap:butt;stroke-dasharray:6.99999997, 6.99999997;stroke-dashoffset:0" />
  <path
     d="m 187.9082,117.34798 h -0.59075 c -0.48194,0 -0.88615,-0.41587 -0.88615,-0.90946 0,-0.24874 0.10494,-0.47416 0.2915,-0.64128 l 0.38087,-0.37312 c 0.377,-0.3731 0.377,-0.98329 0,-1.3564 l -0.86669,-0.85893 c -0.171,-0.17101 -0.42364,-0.27206 -0.68015,-0.27206 -0.2565,0 -0.50526,0.10105 -0.68014,0.27206 l -0.36535,0.36533 c -0.1749,0.19434 -0.40808,0.29927 -0.66071,0.29927 -0.49747,0 -0.91335,-0.4042 -0.91335,-0.88225 v -0.59466 c 0,-0.52468 -0.42363,-0.97552 -0.95221,-0.97552 h -1.1815 c -0.52858,0 -0.94834,0.44696 -0.94834,0.97552 v 0.59078 c 0,0.47804 -0.41585,0.88223 -0.91333,0.88223 -0.24874,0 -0.47804,-0.10493 -0.64516,-0.2876 l -0.377,-0.3731 c -0.17102,-0.1749 -0.42363,-0.27206 -0.68015,-0.27206 -0.25652,0 -0.50526,0.10105 -0.68017,0.27206 l -0.87446,0.85504 c -0.37311,0.37312 -0.37311,0.9833 0,1.35253 l 0.36533,0.36534 c 0.19434,0.17489 0.30316,0.40808 0.30316,0.65682 0,0.49748 -0.40421,0.90946 -0.88614,0.90946 h -0.59076 c -0.53245,0 -0.97942,0.41586 -0.97942,0.94443 v 0.59076 0.59076 c 0,0.52468 0.44697,0.94443 0.97942,0.94443 h 0.59076 c 0.48193,0 0.88614,0.41587 0.88614,0.90946 0,0.24874 -0.10882,0.48194 -0.30316,0.65682 l -0.36533,0.36145 c -0.37311,0.37311 -0.37311,0.98331 0,1.35253 l 0.86669,0.86282 c 0.17103,0.17489 0.42365,0.27206 0.68017,0.27206 0.25651,0 0.50525,-0.10106 0.68014,-0.27206 l 0.377,-0.37311 c 0.16323,-0.18267 0.39643,-0.2876 0.64517,-0.2876 0.49747,0 0.91335,0.4042 0.91335,0.88224 v 0.59076 c 0,0.52469 0.41973,0.97553 0.9522,0.97553 h 1.18151 c 0.52858,0 0.94831,-0.44696 0.94831,-0.97553 v -0.59076 c 0,-0.47804 0.41588,-0.88224 0.91335,-0.88224 0.24874,0 0.48194,0.10881 0.66072,0.29926 l 0.36534,0.36534 c 0.1749,0.171 0.42364,0.27205 0.68015,0.27205 0.25651,0 0.50524,-0.10105 0.68015,-0.27205 l 0.86671,-0.86283 c 0.3731,-0.3731 0.3731,-0.9833 0,-1.35641 l -0.38091,-0.3731 c -0.18654,-0.16712 -0.29148,-0.39643 -0.29148,-0.64129 0,-0.49747 0.4042,-0.90945 0.88615,-0.90945 h 0.59075 c 0.52858,0 0.90557,-0.41587 0.90557,-0.94443 v -0.59465 -0.59076 c 0.008,-0.52857 -0.36922,-0.94443 -0.8978,-0.94443 z m -3.40851,1.53519 v 0 c 0,1.71397 -1.38751,3.10925 -3.10925,3.10925 -1.72176,0 -3.10925,-1.39528 -3.10925,-3.10925 v 0 0 c 0,-1.71398 1.38749,-3.10925 3.10925,-3.10925 1.72174,0 3.10925,1.39527 3.10925,3.10925 z"
     class="function-1 hidden"
     id="path6074"
     style="fill:#ffffff;fill-opacity:1;stroke:#d9d20d;stroke-width:0.12872143;stroke-opacity:1"
     inkscape:connector-curvature="0" />
  <path
     d="m 262.26093,117.34798 h -0.59075 c -0.48194,0 -0.88615,-0.41587 -0.88615,-0.90946 0,-0.24874 0.10494,-0.47416 0.2915,-0.64128 l 0.38087,-0.37312 c 0.377,-0.3731 0.377,-0.98329 0,-1.3564 l -0.86669,-0.85893 c -0.171,-0.17101 -0.42364,-0.27206 -0.68015,-0.27206 -0.2565,0 -0.50526,0.10105 -0.68014,0.27206 l -0.36535,0.36533 c -0.1749,0.19434 -0.40808,0.29927 -0.66071,0.29927 -0.49747,0 -0.91335,-0.4042 -0.91335,-0.88225 v -0.59466 c 0,-0.52468 -0.42363,-0.97552 -0.95221,-0.97552 h -1.1815 c -0.52858,0 -0.94834,0.44696 -0.94834,0.97552 v 0.59078 c 0,0.47804 -0.41585,0.88223 -0.91333,0.88223 -0.24874,0 -0.47804,-0.10493 -0.64516,-0.2876 l -0.377,-0.3731 c -0.17102,-0.1749 -0.42363,-0.27206 -0.68015,-0.27206 -0.25652,0 -0.50526,0.10105 -0.68017,0.27206 l -0.87446,0.85504 c -0.37311,0.37312 -0.37311,0.9833 0,1.35253 l 0.36533,0.36534 c 0.19434,0.17489 0.30316,0.40808 0.30316,0.65682 0,0.49748 -0.40421,0.90946 -0.88614,0.90946 h -0.59076 c -0.53245,0 -0.97942,0.41586 -0.97942,0.94443 v 0.59076 0.59076 c 0,0.52468 0.44697,0.94443 0.97942,0.94443 h 0.59076 c 0.48193,0 0.88614,0.41587 0.88614,0.90946 0,0.24874 -0.10882,0.48194 -0.30316,0.65682 l -0.36533,0.36145 c -0.37311,0.37311 -0.37311,0.98331 0,1.35253 l 0.86669,0.86282 c 0.17103,0.17489 0.42365,0.27206 0.68017,0.27206 0.25651,0 0.50525,-0.10106 0.68014,-0.27206 l 0.377,-0.37311 c 0.16323,-0.18267 0.39643,-0.2876 0.64517,-0.2876 0.49747,0 0.91335,0.4042 0.91335,0.88224 v 0.59076 c 0,0.52469 0.41973,0.97553 0.9522,0.97553 h 1.18151 c 0.52858,0 0.94831,-0.44696 0.94831,-0.97553 v -0.59076 c 0,-0.47804 0.41588,-0.88224 0.91335,-0.88224 0.24874,0 0.48194,0.10881 0.66072,0.29926 l 0.36534,0.36534 c 0.1749,0.171 0.42364,0.27205 0.68015,0.27205 0.25651,0 0.50524,-0.10105 0.68015,-0.27205 l 0.86671,-0.86283 c 0.3731,-0.3731 0.3731,-0.9833 0,-1.35641 l -0.38091,-0.3731 c -0.18654,-0.16712 -0.29148,-0.39643 -0.29148,-0.64129 0,-0.49747 0.4042,-0.90945 0.88615,-0.90945 h 0.59075 c 0.52858,0 0.90557,-0.41587 0.90557,-0.94443 v -0.59465 -0.59076 c 0.008,-0.52857 -0.36922,-0.94443 -0.8978,-0.94443 z m -3.40851,1.53519 v 0 c 0,1.71397 -1.38751,3.10925 -3.10925,3.10925 -1.72176,0 -3.10925,-1.39528 -3.10925,-3.10925 v 0 0 c 0,-1.71398 1.38749,-3.10925 3.10925,-3.10925 1.72174,0 3.10925,1.39527 3.10925,3.10925 z"
     class="function-2 hidden"
     id="path6076"
     style="fill:#ffffff;fill-opacity:1;stroke:#d9d20d;stroke-width:0.12872143;stroke-opacity:1"
     inkscape:connector-curvature="0" />
  <path
     style="fill:#ffffff;fill-opacity:1;stroke:#d9d20d;stroke-width:0.12872143;stroke-opacity:1"
     id="path5035"
     class="function-3 hidden"
     d="m 336.61366,117.34798 h -0.59075 c -0.48194,0 -0.88615,-0.41587 -0.88615,-0.90946 0,-0.24874 0.10494,-0.47416 0.2915,-0.64128 l 0.38087,-0.37312 c 0.377,-0.3731 0.377,-0.98329 0,-1.3564 l -0.86669,-0.85893 c -0.171,-0.17101 -0.42364,-0.27206 -0.68015,-0.27206 -0.2565,0 -0.50526,0.10105 -0.68014,0.27206 l -0.36535,0.36533 c -0.1749,0.19434 -0.40808,0.29927 -0.66071,0.29927 -0.49747,0 -0.91335,-0.4042 -0.91335,-0.88225 v -0.59466 c 0,-0.52468 -0.42363,-0.97552 -0.95221,-0.97552 h -1.1815 c -0.52858,0 -0.94834,0.44696 -0.94834,0.97552 v 0.59078 c 0,0.47804 -0.41585,0.88223 -0.91333,0.88223 -0.24874,0 -0.47804,-0.10493 -0.64516,-0.2876 l -0.377,-0.3731 c -0.17102,-0.1749 -0.42363,-0.27206 -0.68015,-0.27206 -0.25652,0 -0.50526,0.10105 -0.68017,0.27206 l -0.87446,0.85504 c -0.37311,0.37312 -0.37311,0.9833 0,1.35253 l 0.36533,0.36534 c 0.19434,0.17489 0.30316,0.40808 0.30316,0.65682 0,0.49748 -0.40421,0.90946 -0.88614,0.90946 h -0.59076 c -0.53245,0 -0.97942,0.41586 -0.97942,0.94443 v 0.59076 0.59076 c 0,0.52468 0.44697,0.94443 0.97942,0.94443 h 0.59076 c 0.48193,0 0.88614,0.41587 0.88614,0.90946 0,0.24874 -0.10882,0.48194 -0.30316,0.65682 l -0.36533,0.36145 c -0.37311,0.37311 -0.37311,0.98331 0,1.35253 l 0.86669,0.86282 c 0.17103,0.17489 0.42365,0.27206 0.68017,0.27206 0.25651,0 0.50525,-0.10106 0.68014,-0.27206 l 0.377,-0.37311 c 0.16323,-0.18267 0.39643,-0.2876 0.64517,-0.2876 0.49747,0 0.91335,0.4042 0.91335,0.88224 v 0.59076 c 0,0.52469 0.41973,0.97553 0.9522,0.97553 h 1.18151 c 0.52858,0 0.94831,-0.44696 0.94831,-0.97553 v -0.59076 c 0,-0.47804 0.41588,-0.88224 0.91335,-0.88224 0.24874,0 0.48194,0.10881 0.66072,0.29926 l 0.36534,0.36534 c 0.1749,0.171 0.42364,0.27205 0.68015,0.27205 0.25651,0 0.50524,-0.10105 0.68015,-0.27205 l 0.86671,-0.86283 c 0.3731,-0.3731 0.3731,-0.9833 0,-1.35641 l -0.38091,-0.3731 c -0.18654,-0.16712 -0.29148,-0.39643 -0.29148,-0.64129 0,-0.49747 0.4042,-0.90945 0.88615,-0.90945 h 0.59075 c 0.52858,0 0.90557,-0.41587 0.90557,-0.94443 v -0.59465 -0.59076 c 0.008,-0.52857 -0.36922,-0.94443 -0.8978,-0.94443 z m -3.40851,1.53519 v 0 c 0,1.71397 -1.38751,3.10925 -3.10925,3.10925 -1.72176,0 -3.10925,-1.39528 -3.10925,-3.10925 v 0 0 c 0,-1.71398 1.38749,-3.10925 3.10925,-3.10925 1.72174,0 3.10925,1.39527 3.10925,3.10925 z"
     inkscape:connector-curvature="0" />
</svg>
