<svg xmlns="http://www.w3.org/2000/svg" width="1920" height="1080" viewBox="0 0 508.00001 285.74999" id="svg8"><style id="style4586">.appland{stroke-width:1;fill:#287df2;fill-opacity:1}.fwland{stroke-opacity:1;fill-opacity:1;stroke:none;fill:#dedede}.component{stroke-dasharray:7,7;stroke-dashoffset:0;stroke-width:1.5;stroke-linecap:butt;stroke:#001e47;fill:#a3caff}</style><rect ry="1.323" y="-.852" x="28.046" height="238.125" width="451.908" id="rect6122" class="fwland" stroke-width="1.323" fill="#dedede"/><text style="line-height:6.61458302px" x="219.345" y="14.915" id="text6126" font-weight="400" font-size="10.583" font-family="sans-serif" letter-spacing="0" word-spacing="0" fill="#f06" stroke-width=".265"><tspan id="tspan6124" x="219.345" y="14.915" font-size="12.7">Cycle Land</tspan></text><rect class="appland" id="rect6128" width="175.754" height="175.357" x="166.123" y="31.384" ry="1.323" fill="#287df2" stroke-width=".837"/><text style="line-height:6.61458302px" x="225.891" y="47.765" id="text6132" font-weight="400" font-size="10.583" font-family="sans-serif" letter-spacing="0" word-spacing="0" fill="#fff" stroke-width=".265"><tspan id="tspan6130" x="225.891" y="47.765" font-size="12.7">App Land</tspan></text><style id="style4585"/><path id="use9611" d="M96.462-31.52h-.591c-.482 0-.886-.416-.886-.91a.85.85 0 0 1 .291-.64l.381-.374a.955.955 0 0 0 0-1.356l-.867-.86a.974.974 0 0 0-.68-.271.981.981 0 0 0-.68.272l-.365.365a.878.878 0 0 1-.661.3c-.497 0-.913-.405-.913-.883v-.594c0-.525-.424-.976-.953-.976h-1.181c-.529 0-.948.447-.948.976v.59c0 .478-.416.883-.914.883a.869.869 0 0 1-.645-.288l-.377-.373a.958.958 0 0 0-.68-.272.981.981 0 0 0-.68.272l-.875.855a.957.957 0 0 0 0 1.352l.366.366a.88.88 0 0 1 .303.657c0 .497-.404.91-.886.91h-.591c-.533 0-.98.415-.98.943v1.182c0 .525.447.944.98.944h.59c.483 0 .887.416.887.91a.88.88 0 0 1-.303.657l-.366.361a.957.957 0 0 0 0 1.353l.867.863a.958.958 0 0 0 .68.272.981.981 0 0 0 .68-.272l.377-.374a.863.863 0 0 1 .646-.287c.497 0 .913.404.913.882v.59c0 .525.42.976.952.976h1.182c.528 0 .948-.447.948-.975v-.591c0-.478.416-.882.913-.882.249 0 .482.109.661.3l.365.364a.981.981 0 0 0 .68.272.981.981 0 0 0 .68-.272l.867-.862a.962.962 0 0 0 0-1.357l-.38-.373a.857.857 0 0 1-.292-.641c0-.498.404-.91.886-.91h.59c.53 0 .906-.416.906-.944v-1.185c.008-.53-.369-.945-.897-.945zm-3.409 1.535a3.108 3.108 0 1 1-6.218 0 3.108 3.108 0 1 1 6.218 0z" fill="#fff" stroke="#d9d20d" stroke-width=".129"/><path class="stream lf" id="path8268" d="M55.982 113.324l.399-34.832 106.448-.357" fill="none" fill-rule="evenodd" stroke="#ff7f2a" stroke-width=".265"/><path class="stream lf" id="path8270" d="M71.657 129.64h91.172" fill="none" fill-rule="evenodd" stroke="#ff7f2a" stroke-width=".265"/><path class="stream lf" id="path8274" d="M347.09 77.656h85.454" fill="none" fill-rule="evenodd" stroke="#287df2" stroke-width=".265"/><path class="stream vlf" id="path8276" d="M347.09 127.88h85.454" fill="none" fill-rule="evenodd" stroke="#287df2" stroke-width=".265"/><path d="M347.09 178.104h85.454" id="path8260" class="stream" fill="none" fill-rule="evenodd" stroke="#287df2" stroke-width=".265"/><path d="M56.61 144.264l-.506 34.833 107.353.357" id="path9455" class="stream" fill="none" fill-rule="evenodd" stroke="#ff7f2a" stroke-width=".265"/><g transform="matrix(.513 0 0 .513 -15.163 58.171)" id="g4505" stroke="#161f2b" stroke-width="3.969" stroke-linecap="round"><circle r="21.694" cy="139.316" cx="139.935" id="circle4499" fill="none" paint-order="stroke fill markers"/><path class="time-min" d="M139.935 139.316l10.419-11.564" id="path4501" fill="none"/><path class="time-hour" d="M140.269 139.316l-7.941-6.844" id="path4503" fill="none"/></g><path d="M137.086 63.26a1.32 1.32 0 0 0-1.323 1.323v26.145c0 .733.59 1.323 1.323 1.323h16.112l5.388-4.684h14.71V67.945h-14.71l-5.388-4.685z" id="rect7706" fill="#287df2" stroke="#287df2" stroke-width="1.323" stroke-linecap="round" stroke-linejoin="round" paint-order="stroke fill markers"/><text style="line-height:6.61458302px" x="138.55" y="81.508" id="text8228" font-weight="400" font-size="10.583" letter-spacing="0" word-spacing="0" font-family="sans-serif" fill="#fff" stroke-width=".265"><tspan id="tspan8226" x="138.55" y="81.508">DOM</tspan></text><path id="path8314" d="M137.086 113.484a1.32 1.32 0 0 0-1.323 1.323v26.145c0 .733.59 1.323 1.323 1.323h16.112l5.388-4.684h14.71v-19.423h-14.71l-5.388-4.684z" fill="#287df2" stroke="#287df2" stroke-width="1.323" stroke-linecap="round" stroke-linejoin="round" paint-order="stroke fill markers"/><text style="line-height:6.61458302px" x="137.47" y="131.737" id="text8236" font-weight="400" font-size="10.583" letter-spacing="0" word-spacing="0" font-family="sans-serif" fill="#fff" stroke-width=".265"><tspan id="tspan8234" x="137.47" y="131.737">HTTP</tspan></text><path d="M137.086 163.703a1.32 1.32 0 0 0-1.323 1.323v26.145c0 .733.59 1.323 1.323 1.323h16.112l5.388-4.684h14.71v-19.423h-14.71l-5.388-4.684z" id="path8316" fill="#287df2" stroke="#287df2" stroke-width="1.323" stroke-linecap="round" stroke-linejoin="round" paint-order="stroke fill markers"/><text id="text8240" y="181.956" x="141.02" style="line-height:6.61458302px" font-weight="400" font-size="10.583" letter-spacing="0" word-spacing="0" font-family="sans-serif" fill="#fff" stroke-width=".265"><tspan y="181.956" x="141.02" id="tspan8238">RAF</tspan></text><path id="path8318" d="M371.469 63.26c.733 0 1.323.59 1.323 1.323v26.145a1.32 1.32 0 0 1-1.323 1.323h-16.112l-5.388-4.684h-14.71V67.945h14.71l5.388-4.685z" fill="#287df2" stroke="#287df2" stroke-width="1.323" stroke-linecap="round" stroke-linejoin="round" paint-order="stroke fill markers"/><path d="M371.469 113.484c.733 0 1.323.59 1.323 1.323v26.145a1.32 1.32 0 0 1-1.323 1.323h-16.112l-5.388-4.684h-14.71v-19.423h14.71l5.388-4.684z" id="path8320" fill="#287df2" stroke="#287df2" stroke-width="1.323" stroke-linecap="round" stroke-linejoin="round" paint-order="stroke fill markers"/><path id="path8322" d="M371.469 163.703c.733 0 1.323.59 1.323 1.323v26.145a1.32 1.32 0 0 1-1.323 1.323h-16.112l-5.388-4.684h-14.71v-19.423h14.71l5.388-4.684z" fill="#287df2" stroke="#287df2" stroke-width="1.323" stroke-linecap="round" stroke-linejoin="round" paint-order="stroke fill markers"/><text id="text8246" y="81.508" x="344.395" style="line-height:6.61458302px" font-weight="400" font-size="10.583" letter-spacing="0" word-spacing="0" font-family="sans-serif" fill="#fff" stroke-width=".265"><tspan y="81.508" x="344.395" id="tspan8244">DOM</tspan></text><text id="text8254" y="131.737" x="344.458" style="line-height:6.61458302px" font-weight="400" font-size="10.583" letter-spacing="0" word-spacing="0" font-family="sans-serif" fill="#fff" stroke-width=".265"><tspan y="131.737" x="344.458" id="tspan8252">HTTP</tspan></text><text style="line-height:6.61458302px" x="348.731" y="181.956" id="text8258" font-weight="400" font-size="10.583" letter-spacing="0" word-spacing="0" font-family="sans-serif" fill="#fff" stroke-width=".265"><tspan id="tspan8256" x="348.731" y="181.956">WS</tspan></text></svg>