<?xml version="1.0" encoding="UTF-8" standalone="no"?>
<svg
   xmlns:dc="http://purl.org/dc/elements/1.1/"
   xmlns:cc="http://creativecommons.org/ns#"
   xmlns:rdf="http://www.w3.org/1999/02/22-rdf-syntax-ns#"
   xmlns:svg="http://www.w3.org/2000/svg"
   xmlns="http://www.w3.org/2000/svg"
   xmlns:xlink="http://www.w3.org/1999/xlink"
   xmlns:sodipodi="http://sodipodi.sourceforge.net/DTD/sodipodi-0.dtd"
   xmlns:inkscape="http://www.inkscape.org/namespaces/inkscape"
   id="svg8"
   viewBox="0 0 508.00001 285.74999"
   height="1080"
   width="1920"
   version="1.1"
   sodipodi:docname="cyclearch.svg"
   inkscape:version="0.92.1 r">
  <metadata
     id="metadata6986">
    <rdf:RDF>
      <cc:Work
         rdf:about="">
        <dc:format>image/svg+xml</dc:format>
        <dc:type
           rdf:resource="http://purl.org/dc/dcmitype/StillImage" />
      </cc:Work>
    </rdf:RDF>
  </metadata>
  <defs
     id="defs6984">
    <linearGradient
       inkscape:collect="always"
       id="linearGradient7561">
      <stop
         style="stop-color:#ff6600;stop-opacity:1"
         offset="0"
         id="stop7557" />
      <stop
         id="stop7577"
         offset="0.31679389"
         style="stop-color:#fb6605;stop-opacity:1" />
      <stop
         style="stop-color:#b46d52;stop-opacity:1"
         offset="0.33015269"
         id="stop7579" />
      <stop
         id="stop7581"
         offset="0.52480918"
         style="stop-color:#b16d55;stop-opacity:1" />
      <stop
         style="stop-color:#887182;stop-opacity:1;"
         offset="0.54389316"
         id="stop7583" />
      <stop
         id="stop7585"
         offset="0.7395038"
         style="stop-color:#867184;stop-opacity:1" />
      <stop
         style="stop-color:#5976b7;stop-opacity:1;"
         offset="0.76240456"
         id="stop7587" />
      <stop
         style="stop-color:#287df2;stop-opacity:1"
         offset="1"
         id="stop7559" />
    </linearGradient>
    <linearGradient
       inkscape:collect="always"
       xlink:href="#linearGradient7561"
       id="linearGradient7563"
       x1="69.364116"
       y1="119.0625"
       x2="420.54089"
       y2="119.0625"
       gradientUnits="userSpaceOnUse" />
  </defs>
  <sodipodi:namedview
     pagecolor="#ffffff"
     bordercolor="#666666"
     borderopacity="1"
     objecttolerance="10"
     gridtolerance="10"
     guidetolerance="10"
     inkscape:pageopacity="0"
     inkscape:pageshadow="2"
     inkscape:window-width="1916"
     inkscape:window-height="1058"
     id="namedview6982"
     showgrid="false"
     inkscape:zoom="0.78958333"
     inkscape:cx="799.24197"
     inkscape:cy="776.7236"
     inkscape:window-x="0"
     inkscape:window-y="20"
     inkscape:window-maximized="0"
     inkscape:current-layer="svg8" />
  <style
     id="style4586">.appland{stroke-width:1;fill:#287df2;fill-opacity:1}.fwland{stroke-opacity:1;fill-opacity:1;stroke:none;fill:#dedede}.component{stroke-dasharray:7,7;stroke-dashoffset:0;stroke-width:1.5;stroke-linecap:butt;stroke:#001e47;fill:#a3caff}</style>
  <rect
     ry="1.323"
     x="28.046"
     height="238.125"
     width="451.908"
     id="rect5013"
     class="fwland"
     fill="#dedede"
     stroke-width="1.323" />
  <text
     style="line-height:6.61458302px"
     x="219.345"
     y="14.915"
     id="text5017"
     font-weight="400"
     font-size="10.583"
     font-family="sans-serif"
     letter-spacing="0"
     word-spacing="0"
     fill="#f06"
     stroke-width=".265">
    <tspan
       id="tspan5015"
       x="219.345"
       y="14.915"
       font-size="12.7">Cycle Land</tspan>
  </text>
  <rect
     class="appland"
     id="rect5021"
     width="250.61"
     height="175.357"
     x="128.695"
     y="31.384"
     ry="1.323"
     fill="#287df2" />
  <text
     style="font-weight:400;font-size:10.58300018px;line-height:6.61458302px;font-family:sans-serif;letter-spacing:0;word-spacing:0;fill:#ffffff;stroke-width:0.26499999"
     x="229.61"
     y="141.32164"
     id="text4853"
     font-weight="400"
     font-size="10.583"
     letter-spacing="0"
     word-spacing="0">
    <tspan
       id="tspan4851"
       x="229.61"
       y="141.32164">DataFlow</tspan>
  </text>
  <text
     style="line-height:6.61458302px"
     x="225.891"
     y="47.765"
     id="text5025"
     font-weight="400"
     font-size="10.583"
     font-family="sans-serif"
     letter-spacing="0"
     word-spacing="0"
     fill="#fff"
     stroke-width=".265">
    <tspan
       id="tspan5023"
       x="225.891"
       y="47.765"
       font-size="12.7">App Land</tspan>
  </text>
  <g
     id="g8433"
     class="output-vdom"
     transform="translate(83.07917)">
    <rect
       class="side-effect"
       ry="1.323"
       y="109.051"
       x="341.26901"
       height="21.693001"
       width="47.604"
       id="rect5870-6"
       style="fill:#287df2;stroke-width:1.32299995;stroke-linecap:square;stroke-linejoin:round;paint-order:stroke fill markers" />
    <text
       style="font-weight:400;font-size:10.58300018px;line-height:6.61458302px;font-family:sans-serif;letter-spacing:0;word-spacing:0;fill:#ffffff;stroke-width:1.32299995;stroke-linecap:square;paint-order:stroke fill markers"
       x="350.189"
       y="123.493"
       id="text5864"
       font-weight="400"
       font-size="10.583"
       letter-spacing="0"
       word-spacing="0">
      <tspan
         id="tspan5862"
         x="350.189"
         y="123.493"
         style="font-size:9.87800026px;line-height:1.71979165px;paint-order:stroke fill markers"
         font-size="9.878">VDOM</tspan>
    </text>
  </g>
  <path
     id="path6969"
     d="m 127.50683,108.584 v -2.076 c 0,-3.33 -2.68,-6.01 -6.01,-6.01 h -1.616 c -3.33,0 -6.01,2.68 -6.01,6.01 v 25.05 c 0,3.33 2.68,6.01 6.01,6.01 h 1.616 c 3.33,0 6.01,-2.68 6.01,-6.01 v -1.808 h 251.929 v 1.867 c 0,0 2.68,6.01 6.01,6.01 h 1.615 c 3.33,0 6.01,-2.68 6.01,-6.01 v -25.05 c 0,-3.33 -2.68,-6.01 -6.01,-6.01 h -1.615 c -3.33,0 -6.855,2.79 -6.01,6.01 v 2.017 z"
     inkscape:connector-curvature="0"
     style="fill:#a3caff;stroke:#001e47;stroke-width:1.5;stroke-dasharray:6.99999997, 6.99999997" />
  <path
     d="m 187.908,96.181295 h -0.59 c -0.482,0 -0.887,-0.415997 -0.887,-0.909997 a 0.85,0.85 0 0 1 0.292,-0.64 l 0.38,-0.374 a 0.955,0.955 0 0 0 0,-1.355994 l -0.866,-0.86 a 0.974,0.974 0 0 0 -0.68,-0.271 0.981,0.981 0 0 0 -0.68,0.272 l -0.366,0.365 a 0.878,0.878 0 0 1 -0.66,0.3 c -0.498,0 -0.914,-0.405 -0.914,-0.883 v -0.595 c 0,-0.523997 -0.423,-0.974997 -0.952,-0.974997 h -1.181 c -0.529,0 -0.949,0.447 -0.949,0.974997 v 0.591 c 0,0.478 -0.416,0.882 -0.913,0.882 a 0.869,0.869 0 0 1 -0.645,-0.287 l -0.377,-0.373 a 0.958,0.958 0 0 0 -0.68,-0.272 0.981,0.981 0 0 0 -0.68,0.272 l -0.875,0.855 a 0.957,0.957 0 0 0 0,1.351994 l 0.365,0.366 a 0.88,0.88 0 0 1 0.303,0.657 c 0,0.496997 -0.404,0.908997 -0.886,0.908997 h -0.59 c -0.533,0 -0.98,0.416 -0.98,0.944003 v 1.180994 c 0,0.525997 0.447,0.944994 0.98,0.944994 h 0.59 c 0.482,0 0.886,0.415997 0.886,0.909994 a 0.88,0.88 0 0 1 -0.303,0.657 l -0.365,0.361 a 0.957,0.957 0 0 0 0,1.353 l 0.867,0.862 a 0.958,0.958 0 0 0 0.68,0.273 0.981,0.981 0 0 0 0.68,-0.273 l 0.377,-0.373 a 0.863,0.863 0 0 1 0.645,-0.287 c 0.498,0 0.913,0.404 0.913,0.882 v 0.59 c 0,0.525 0.42,0.976 0.953,0.976 h 1.181 c 0.529,0 0.949,-0.447 0.949,-0.975 v -0.591 c 0,-0.478 0.415,-0.882 0.913,-0.882 0.249,0 0.482,0.109 0.66,0.299 l 0.366,0.365 a 0.981,0.981 0 0 0 0.68,0.272 0.981,0.981 0 0 0 0.68,-0.272 l 0.867,-0.862 a 0.962,0.962 0 0 0 0,-1.357 l -0.381,-0.373 a 0.857,0.857 0 0 1 -0.291,-0.641 c 0,-0.497997 0.404,-0.909994 0.886,-0.909994 h 0.59 c 0.529,0 0.906,-0.415997 0.906,-0.943994 v -1.184994 c 0.008,-0.530003 -0.37,-0.945003 -0.898,-0.945003 z m -3.408,1.535 a 3.1095,3.1095 0 1 1 -6.219,0 3.1095,3.1095 0 1 1 6.219,0 z"
     class="function"
     id="path6074"
     inkscape:connector-curvature="0"
     style="fill:#ffffff;stroke:#d9d20d;stroke-width:0.12899999" />
  <path
     d="m 262.26,96.181295 h -0.59 c -0.482,0 -0.886,-0.415997 -0.886,-0.909997 a 0.85,0.85 0 0 1 0.292,-0.64 l 0.38,-0.374 a 0.955,0.955 0 0 0 0,-1.355994 l -0.866,-0.86 a 0.974,0.974 0 0 0 -0.68,-0.271 0.981,0.981 0 0 0 -0.68,0.272 l -0.366,0.365 a 0.878,0.878 0 0 1 -0.66,0.3 c -0.498,0 -0.914,-0.405 -0.914,-0.883 v -0.595 c 0,-0.523997 -0.424,-0.974997 -0.952,-0.974997 h -1.182 c -0.528,0 -0.948,0.447 -0.948,0.974997 v 0.591 c 0,0.478 -0.416,0.882 -0.913,0.882 a 0.869,0.869 0 0 1 -0.646,-0.287 l -0.377,-0.373 a 0.958,0.958 0 0 0 -0.68,-0.272 0.981,0.981 0 0 0 -0.68,0.272 l -0.874,0.855 a 0.957,0.957 0 0 0 0,1.351994 l 0.365,0.366 a 0.88,0.88 0 0 1 0.303,0.657 c 0,0.496997 -0.404,0.908997 -0.886,0.908997 h -0.59 c -0.533,0 -0.98,0.416 -0.98,0.944003 v 1.180994 c 0,0.525997 0.447,0.944994 0.98,0.944994 h 0.59 c 0.482,0 0.886,0.415997 0.886,0.909994 a 0.88,0.88 0 0 1 -0.303,0.657 l -0.365,0.361 a 0.957,0.957 0 0 0 0,1.353 l 0.866,0.862 a 0.958,0.958 0 0 0 0.68,0.273 0.981,0.981 0 0 0 0.68,-0.273 l 0.378,-0.373 a 0.863,0.863 0 0 1 0.645,-0.287 c 0.497,0 0.913,0.404 0.913,0.882 v 0.59 c 0,0.525 0.42,0.976 0.952,0.976 h 1.182 c 0.529,0 0.948,-0.447 0.948,-0.975 v -0.591 c 0,-0.478 0.416,-0.882 0.914,-0.882 0.248,0 0.482,0.109 0.66,0.299 l 0.366,0.365 a 0.981,0.981 0 0 0 0.68,0.272 0.981,0.981 0 0 0 0.68,-0.272 l 0.867,-0.862 a 0.962,0.962 0 0 0 0,-1.357 l -0.381,-0.373 a 0.857,0.857 0 0 1 -0.292,-0.641 c 0,-0.497997 0.404,-0.909994 0.886,-0.909994 h 0.591 c 0.529,0 0.906,-0.415997 0.906,-0.943994 v -1.184994 c 0.008,-0.530003 -0.37,-0.945003 -0.898,-0.945003 z m -3.408,1.535 a 3.109,3.109 0 1 1 -6.218,0 3.109,3.109 0 1 1 6.218,0 z"
     class="function"
     id="path6076"
     inkscape:connector-curvature="0"
     style="fill:#ffffff;stroke:#d9d20d;stroke-width:0.12899999" />
  <path
     id="path5035"
     class="function"
     d="m 336.614,96.181295 h -0.591 c -0.482,0 -0.886,-0.415997 -0.886,-0.909997 a 0.85,0.85 0 0 1 0.291,-0.64 l 0.381,-0.374 a 0.955,0.955 0 0 0 0,-1.355994 l -0.867,-0.86 a 0.974,0.974 0 0 0 -0.68,-0.271 0.981,0.981 0 0 0 -0.68,0.272 l -0.365,0.365 a 0.878,0.878 0 0 1 -0.66,0.3 c -0.498,0 -0.914,-0.405 -0.914,-0.883 v -0.595 c 0,-0.523997 -0.424,-0.974997 -0.952,-0.974997 h -1.182 c -0.529,0 -0.948,0.447 -0.948,0.974997 v 0.591 c 0,0.478 -0.416,0.882 -0.914,0.882 a 0.869,0.869 0 0 1 -0.645,-0.287 l -0.377,-0.373 a 0.958,0.958 0 0 0 -0.68,-0.272 0.981,0.981 0 0 0 -0.68,0.272 l -0.875,0.855 a 0.957,0.957 0 0 0 0,1.351994 l 0.366,0.366 a 0.88,0.88 0 0 1 0.303,0.657 c 0,0.496997 -0.404,0.908997 -0.886,0.908997 h -0.591 c -0.532,0 -0.98,0.416 -0.98,0.944003 v 1.180994 c 0,0.525997 0.448,0.944994 0.98,0.944994 h 0.59 c 0.483,0 0.887,0.415997 0.887,0.909994 a 0.88,0.88 0 0 1 -0.303,0.657 l -0.366,0.361 a 0.957,0.957 0 0 0 0,1.353 l 0.867,0.862 a 0.958,0.958 0 0 0 0.68,0.273 0.981,0.981 0 0 0 0.68,-0.273 l 0.377,-0.373 a 0.863,0.863 0 0 1 0.646,-0.287 c 0.497,0 0.913,0.404 0.913,0.882 v 0.59 c 0,0.525 0.42,0.976 0.952,0.976 h 1.182 c 0.528,0 0.948,-0.447 0.948,-0.975 v -0.591 c 0,-0.478 0.416,-0.882 0.913,-0.882 0.25,0 0.482,0.109 0.661,0.299 l 0.365,0.365 a 0.981,0.981 0 0 0 0.68,0.272 0.981,0.981 0 0 0 0.68,-0.272 l 0.867,-0.862 a 0.962,0.962 0 0 0 0,-1.357 l -0.38,-0.373 a 0.857,0.857 0 0 1 -0.292,-0.641 c 0,-0.497997 0.404,-0.909994 0.886,-0.909994 h 0.59 c 0.53,0 0.906,-0.415997 0.906,-0.943994 v -1.184994 c 0.008,-0.530003 -0.369,-0.945003 -0.897,-0.945003 z m -3.409,1.535 a 3.109,3.109 0 1 1 -6.218,0 3.109,3.109 0 1 1 6.218,0 z"
     inkscape:connector-curvature="0"
     style="fill:#ffffff;stroke:#d9d20d;stroke-width:0.12899999" />
  <g
     style="stroke:#161f2b;stroke-width:3.9690001;stroke-linecap:round;stroke-opacity:1"
     transform="matrix(0.51299168,0,0,0.51299168,-20.851453,47.594554)"
     id="g4505">
    <circle
       style="fill:none;stroke:#161f2b;stroke-opacity:1;paint-order:stroke fill markers"
       r="21.694"
       cy="139.31599"
       cx="139.935"
       id="circle4499" />
    <path
       style="fill:none;stroke:#161f2b;stroke-opacity:1"
       inkscape:connector-curvature="0"
       class="time-min"
       d="m 139.935,139.316 10.419,-11.564"
       id="path4501" />
    <path
       style="fill:none;stroke:#161f2b;stroke-opacity:1"
       inkscape:connector-curvature="0"
       class="time-hour"
       d="m 140.269,139.316 -7.941,-6.844"
       id="path4503" />
  </g>
  <path
     style="fill:none;fill-rule:evenodd;stroke:url(#linearGradient7563);stroke-width:2.64583331;stroke-linecap:butt;stroke-linejoin:miter;stroke-opacity:1;stroke-miterlimit:4;stroke-dasharray:none"
     d="M 69.364116,119.0625 H 420.54089"
     id="path7555"
     inkscape:connector-curvature="0"
     sodipodi:nodetypes="cc"
     class="stream" />
</svg>
