<svg xmlns="http://www.w3.org/2000/svg" id="svg8" viewBox="0 0 508.00001 285.74999" height="1080" width="1920"><style id="style4586">.appland{stroke-width:1;fill:#287df2;fill-opacity:1}.fwland{stroke-opacity:1;fill-opacity:1;stroke:none;fill:#dedede}.component{stroke-dasharray:7,7;stroke-dashoffset:0;stroke-width:1.5;stroke-linecap:butt;stroke:#001e47;fill:#a3caff}</style><rect ry="1.323" x="28.046" height="238.125" width="451.908" id="rect5013" class="fwland" fill="#dedede" stroke-width="1.323"/><text style="line-height:6.61458302px" x="219.345" y="14.915" id="text5017" font-weight="400" font-size="10.583" font-family="sans-serif" letter-spacing="0" word-spacing="0" fill="#f06" stroke-width=".265"><tspan id="tspan5015" x="219.345" y="14.915" font-size="12.7">Cycle Land</tspan></text><rect class="appland" id="rect5021" width="250.61" height="175.357" x="128.695" y="31.384" ry="1.323" fill="#287df2"/><text style="line-height:6.61458302px" x="229.61" y="104.28" id="text4853" font-weight="400" font-size="10.583" font-family="sans-serif" letter-spacing="0" word-spacing="0" fill="#fff" stroke-width=".265"><tspan id="tspan4851" x="229.61" y="104.28">DataFlow</tspan></text><text style="line-height:6.61458302px" x="225.891" y="47.765" id="text5025" font-weight="400" font-size="10.583" font-family="sans-serif" letter-spacing="0" word-spacing="0" fill="#fff" stroke-width=".265"><tspan id="tspan5023" x="225.891" y="47.765" font-size="12.7">App Land</tspan></text><path id="path5027" class="event hidden" d="M70.693 109.218l-5.747 15.404 4.689-1.639-3.252 12.373 7.486-17.043-4.915 2.212z" fill="#fdf400" fill-rule="evenodd" stroke="#20201c" stroke-width=".475"/><g id="g8433" class="output-vdom"><rect class="side-effect" ry="1.323" y="109.051" x="341.269" height="21.693" width="47.604" id="rect5870-6" fill="#287df2" stroke-width="1.323" stroke-linecap="square" stroke-linejoin="round" paint-order="stroke fill markers"/><text style="line-height:6.61458302px" x="350.189" y="123.493" id="text5864" font-weight="400" font-size="10.583" font-family="sans-serif" letter-spacing="0" word-spacing="0" fill="#fff" stroke-width="1.323" stroke-linecap="square" paint-order="stroke fill markers"><tspan id="tspan5862" x="350.189" y="123.493" style="line-height:1.71979165px" font-size="9.878" paint-order="stroke fill markers">VDOM</tspan></text></g><path id="path6969" d="M128.036 108.584v-2.076c0-3.33-2.68-6.01-6.01-6.01h-1.616c-3.33 0-6.01 2.68-6.01 6.01v25.05c0 3.33 2.68 6.01 6.01 6.01h1.616c3.33 0 6.01-2.68 6.01-6.01v-1.808h251.929v1.867s2.68 6.01 6.01 6.01h1.615c3.33 0 6.01-2.68 6.01-6.01v-25.05c0-3.33-2.68-6.01-6.01-6.01h-1.615c-3.33 0-6.855 2.79-6.01 6.01v2.017z" fill="#a3caff" stroke="#001e47" stroke-width="1.5" stroke-dasharray="6.99999997,6.99999997"/><path d="M187.908 117.348h-.59c-.482 0-.887-.416-.887-.91a.85.85 0 0 1 .292-.64l.38-.374a.955.955 0 0 0 0-1.356l-.866-.86a.974.974 0 0 0-.68-.271.981.981 0 0 0-.68.272l-.366.365a.878.878 0 0 1-.66.3c-.498 0-.914-.405-.914-.883v-.595c0-.524-.423-.975-.952-.975h-1.181c-.529 0-.949.447-.949.975v.591c0 .478-.416.882-.913.882a.869.869 0 0 1-.645-.287l-.377-.373a.958.958 0 0 0-.68-.272.981.981 0 0 0-.68.272l-.875.855a.957.957 0 0 0 0 1.352l.365.366a.88.88 0 0 1 .303.657c0 .497-.404.909-.886.909h-.59c-.533 0-.98.416-.98.944v1.181c0 .526.447.945.98.945h.59c.482 0 .886.416.886.91a.88.88 0 0 1-.303.657l-.365.361a.957.957 0 0 0 0 1.353l.867.862a.958.958 0 0 0 .68.273.981.981 0 0 0 .68-.273l.377-.373a.863.863 0 0 1 .645-.287c.498 0 .913.404.913.882v.59c0 .525.42.976.953.976h1.181c.529 0 .949-.447.949-.975v-.591c0-.478.415-.882.913-.882.249 0 .482.109.66.299l.366.365a.981.981 0 0 0 .68.272.981.981 0 0 0 .68-.272l.867-.862a.962.962 0 0 0 0-1.357l-.381-.373a.857.857 0 0 1-.291-.641c0-.498.404-.91.886-.91h.59c.529 0 .906-.416.906-.944v-1.185c.008-.53-.37-.945-.898-.945zm-3.408 1.535a3.108 3.108 0 1 1-6.219 0 3.108 3.108 0 1 1 6.219 0z" class="function-1 hidden" id="path6074" fill="#fff" stroke="#d9d20d" stroke-width=".129"/><path d="M262.26 117.348h-.59c-.482 0-.886-.416-.886-.91a.85.85 0 0 1 .292-.64l.38-.374a.955.955 0 0 0 0-1.356l-.866-.86a.974.974 0 0 0-.68-.271.981.981 0 0 0-.68.272l-.366.365a.878.878 0 0 1-.66.3c-.498 0-.914-.405-.914-.883v-.595c0-.524-.424-.975-.952-.975h-1.182c-.528 0-.948.447-.948.975v.591c0 .478-.416.882-.913.882a.869.869 0 0 1-.646-.287l-.377-.373a.958.958 0 0 0-.68-.272.981.981 0 0 0-.68.272l-.874.855a.957.957 0 0 0 0 1.352l.365.366a.88.88 0 0 1 .303.657c0 .497-.404.909-.886.909h-.59c-.533 0-.98.416-.98.944v1.181c0 .526.447.945.98.945h.59c.482 0 .886.416.886.91a.88.88 0 0 1-.303.657l-.365.361a.957.957 0 0 0 0 1.353l.866.862a.958.958 0 0 0 .68.273.981.981 0 0 0 .68-.273l.378-.373a.863.863 0 0 1 .645-.287c.497 0 .913.404.913.882v.59c0 .525.42.976.952.976h1.182c.529 0 .948-.447.948-.975v-.591c0-.478.416-.882.914-.882.248 0 .482.109.66.299l.366.365a.981.981 0 0 0 .68.272.981.981 0 0 0 .68-.272l.867-.862a.962.962 0 0 0 0-1.357l-.381-.373a.857.857 0 0 1-.292-.641c0-.498.404-.91.886-.91h.591c.529 0 .906-.416.906-.944v-1.185c.008-.53-.37-.945-.898-.945zm-3.408 1.535a3.108 3.108 0 1 1-6.218 0 3.108 3.108 0 1 1 6.218 0z" class="function-2 hidden" id="path6076" fill="#fff" stroke="#d9d20d" stroke-width=".129"/><path id="path5035" class="function-3 hidden" d="M336.614 117.348h-.591c-.482 0-.886-.416-.886-.91a.85.85 0 0 1 .291-.64l.381-.374a.955.955 0 0 0 0-1.356l-.867-.86a.974.974 0 0 0-.68-.271.981.981 0 0 0-.68.272l-.365.365a.878.878 0 0 1-.66.3c-.498 0-.914-.405-.914-.883v-.595c0-.524-.424-.975-.952-.975h-1.182c-.529 0-.948.447-.948.975v.591c0 .478-.416.882-.914.882a.869.869 0 0 1-.645-.287l-.377-.373a.958.958 0 0 0-.68-.272.981.981 0 0 0-.68.272l-.875.855a.957.957 0 0 0 0 1.352l.366.366a.88.88 0 0 1 .303.657c0 .497-.404.909-.886.909h-.591c-.532 0-.98.416-.98.944v1.181c0 .526.448.945.98.945h.59c.483 0 .887.416.887.91a.88.88 0 0 1-.303.657l-.366.361a.957.957 0 0 0 0 1.353l.867.862a.958.958 0 0 0 .68.273.981.981 0 0 0 .68-.273l.377-.373a.863.863 0 0 1 .646-.287c.497 0 .913.404.913.882v.59c0 .525.42.976.952.976h1.182c.528 0 .948-.447.948-.975v-.591c0-.478.416-.882.913-.882.25 0 .482.109.661.299l.365.365a.981.981 0 0 0 .68.272.981.981 0 0 0 .68-.272l.867-.862a.962.962 0 0 0 0-1.357l-.38-.373a.857.857 0 0 1-.292-.641c0-.498.404-.91.886-.91h.59c.53 0 .906-.416.906-.944v-1.185c.008-.53-.369-.945-.897-.945zm-3.409 1.535a3.108 3.108 0 1 1-6.218 0 3.108 3.108 0 1 1 6.218 0z" fill="#fff" stroke="#d9d20d" stroke-width=".129"/></svg>