<svg xmlns="http://www.w3.org/2000/svg" width="1920" height="1080" viewBox="0 0 508.00001 285.74999" id="svg8"><defs id="defs4523"><marker orient="auto" id="marker28434" overflow="visible"><path id="path28432" d="M-5.231-2.42L1.324-.01-5.23 2.401c1.047-1.423 1.041-3.37 0-4.821z" fill-rule="evenodd" stroke-width=".375" stroke-linejoin="round" stroke="#fff" fill="#fff"/></marker><marker id="marker27100" orient="auto" overflow="visible"><path d="M-5.231-2.42L1.324-.01-5.23 2.401c1.047-1.423 1.041-3.37 0-4.821z" id="path27098" fill-rule="evenodd" stroke-width=".375" stroke-linejoin="round" stroke="#fff" fill="#fff"/></marker><marker orient="auto" id="marker25932" overflow="visible"><path id="path25930" d="M-5.231-2.42L1.324-.01-5.23 2.401c1.047-1.423 1.041-3.37 0-4.821z" fill-rule="evenodd" stroke-width=".375" stroke-linejoin="round" stroke="#fff" fill="#fff"/></marker><marker id="marker24266" orient="auto" overflow="visible"><path d="M-5.231-2.42L1.324-.01-5.23 2.401c1.047-1.423 1.041-3.37 0-4.821z" id="path24264" fill-rule="evenodd" stroke-width=".375" stroke-linejoin="round" stroke="#fff" fill="#fff"/></marker><marker orient="auto" id="marker23762" overflow="visible"><path id="path23760" d="M-5.231-2.42L1.324-.01-5.23 2.401c1.047-1.423 1.041-3.37 0-4.821z" fill-rule="evenodd" stroke-width=".375" stroke-linejoin="round" stroke="#fff" fill="#fff"/></marker><marker orient="auto" id="Arrow1Mend" overflow="visible"><path id="path4542" d="M-4 0l-2 2 7-2-7-2 2 2z" fill-rule="evenodd" stroke="#fff" stroke-width=".4pt" fill="#fff"/></marker><marker orient="auto" id="Arrow1Lend" overflow="visible"><path id="path4536" d="M-10 0l-4 4L0 0l-14-4 4 4z" fill-rule="evenodd" stroke="#fff" stroke-width=".8pt" fill="#fff"/></marker></defs><rect class="appland" id="rect6128" width="115.613" height="153.458" x="196.194" y="32.584" ry="1.158" stroke-width=".917"/><text style="line-height:6.61458302px" x="241.895" y="47.765" id="text6132" font-weight="400" font-size="10.583" letter-spacing="0" word-spacing="0" font-family="sans-serif" fill="#fff" stroke-width=".265"><tspan id="tspan6130" x="241.895" y="47.765" font-size="12.7">App</tspan></text><style id="style4585"/><path id="use9611" d="M96.462-31.52h-.591c-.482 0-.886-.416-.886-.91a.85.85 0 0 1 .291-.64l.381-.374a.955.955 0 0 0 0-1.356l-.867-.86a.974.974 0 0 0-.68-.271.981.981 0 0 0-.68.272l-.365.365a.878.878 0 0 1-.661.3c-.497 0-.913-.405-.913-.883v-.594c0-.525-.424-.976-.953-.976h-1.181c-.529 0-.948.447-.948.976v.59c0 .478-.416.883-.914.883a.869.869 0 0 1-.645-.288l-.377-.373a.958.958 0 0 0-.68-.272.981.981 0 0 0-.68.272l-.875.855a.957.957 0 0 0 0 1.352l.366.366a.88.88 0 0 1 .303.657c0 .497-.404.91-.886.91h-.591c-.533 0-.98.415-.98.943v1.182c0 .525.447.944.98.944h.59c.483 0 .887.416.887.91a.88.88 0 0 1-.303.657l-.366.361a.957.957 0 0 0 0 1.353l.867.863a.958.958 0 0 0 .68.272.981.981 0 0 0 .68-.272l.377-.374a.863.863 0 0 1 .646-.287c.497 0 .913.404.913.882v.59c0 .525.42.976.952.976h1.182c.528 0 .948-.447.948-.975v-.591c0-.478.416-.882.913-.882.249 0 .482.109.661.3l.365.364a.981.981 0 0 0 .68.272.981.981 0 0 0 .68-.272l.867-.862a.962.962 0 0 0 0-1.357l-.38-.373a.857.857 0 0 1-.292-.641c0-.498.404-.91.886-.91h.59c.53 0 .906-.416.906-.944v-1.185c.008-.53-.369-.945-.897-.945zm-3.409 1.535a3.108 3.108 0 1 1-6.218 0 3.108 3.108 0 1 1 6.218 0z" fill="#fff" stroke="#d9d20d" stroke-width=".129"/><path class="stream lf" id="path8268" d="M48.69 72.652l137.14-.357" fill="none" fill-rule="evenodd" stroke="#ff7f2a" stroke-width=".265"/><path class="stream lf" id="path8270" d="M79.863 115.72l93.02.038" fill="none" fill-rule="evenodd" stroke="#ff7f2a" stroke-width=".265"/><path class="stream lf" id="path8274" d="M331.341 93.543h98.684" fill="none" fill-rule="evenodd" stroke="#f7f9fc" stroke-width=".265"/><path class="stream vlf" id="path8276" d="M332.803 142.697h99.741" fill="none" fill-rule="evenodd" stroke="#f7f9fc" stroke-width=".265"/><path d="M84.15 163.222l86.715.357" id="path9455" class="stream" fill="none" fill-rule="evenodd" stroke="#ff7f2a" stroke-width=".265"/><path d="M174.127 57.968a1.32 1.32 0 0 0-1.323 1.323v26.145c0 .733.59 1.323 1.323 1.323h16.112l5.388-4.684h14.71V62.653h-14.71l-5.388-4.685z" id="rect7706" class="appland"/><text style="line-height:6.61458302px" x="202.05" y="76.216" id="text8228" font-weight="400" font-size="10.583" letter-spacing="0" word-spacing="0" font-family="sans-serif" fill="#fff" stroke-width=".265"><tspan id="tspan8226" x="202.05" y="76.216">DOM</tspan></text><path id="path8314" d="M174.127 101.842a1.32 1.32 0 0 0-1.323 1.323v26.145c0 .733.59 1.323 1.323 1.323h16.112l5.388-4.684h14.71v-19.423h-14.71l-5.388-4.684z" class="appland"/><text style="line-height:6.61458302px" x="200.97" y="120.095" id="text8236" font-weight="400" font-size="10.583" letter-spacing="0" word-spacing="0" font-family="sans-serif" fill="#fff" stroke-width=".265"><tspan id="tspan8234" x="200.97" y="120.095">HTTP</tspan></text><path d="M174.127 149.415a1.32 1.32 0 0 0-1.323 1.323v26.145c0 .733.59 1.323 1.323 1.323h16.112l5.388-4.684h14.71V154.1h-14.71l-5.388-4.684z" id="path8316" class="appland"/><text id="text8240" y="167.669" x="204.52" style="line-height:6.61458302px" font-weight="400" font-size="10.583" letter-spacing="0" word-spacing="0" font-family="sans-serif" fill="#fff" stroke-width=".265"><tspan y="167.669" x="204.52" id="tspan8238">RAF</tspan></text><path id="path8318" d="M333.897 79.135c.734 0 1.324.59 1.324 1.323v26.145a1.32 1.32 0 0 1-1.323 1.323h-16.112l-5.388-4.684h-14.71V83.82h14.71l5.387-4.685z" class="appland"/><path d="M333.897 128.83c.734 0 1.324.59 1.324 1.323v26.145a1.32 1.32 0 0 1-1.323 1.323h-16.112l-5.388-4.684h-14.71v-19.423h14.71l5.387-4.684z" id="path8320" class="appland"/><text id="text8246" y="97.383" x="280.895" style="line-height:6.61458302px" font-weight="400" font-size="10.583" letter-spacing="0" word-spacing="0" font-family="sans-serif" fill="#fff" stroke-width=".265"><tspan y="97.383" x="280.895" id="tspan8244">DOM</tspan></text><text id="text8254" y="147.083" x="280.958" style="line-height:6.61458302px" font-weight="400" font-size="10.583" letter-spacing="0" word-spacing="0" font-family="sans-serif" fill="#fff" stroke-width=".265"><tspan y="147.083" x="280.958" id="tspan8252">HTTP</tspan></text><path d="M7.07 33.71h83.07c.755 0 1.364.517 1.364 1.157v150.975c0 .64-.609 1.157-1.364 1.157H7.07c-.756 0-6.029.267-5.597-.26l8.466-10.333-8.466-9.436 8.466-9.436-8.466-9.436 8.466-9.436-8.466-9.435 8.466-9.436-8.466-9.436 8.466-9.436-8.466-9.436 8.466-9.436-8.466-9.436 8.466-9.436-8.466-9.436 8.466-9.436-8.353-10.395c-.426-.53 4.728-.197 5.484-.197z" id="rect9392" class="appland" stroke-width="1.49"/><g transform="matrix(.513 0 0 .513 -21.394 49.63)" id="g4505" stroke="#fff" stroke-width="3.969" stroke-linecap="round"><circle r="21.694" cy="139.316" cx="139.935" id="circle4499" fill="none" paint-order="stroke fill markers"/><path class="time-min" d="M139.935 139.316l10.419-11.564" id="path4501" fill="none"/><path class="time-hour" d="M140.269 139.316l-7.941-6.844" id="path4503" fill="none"/></g><text word-spacing="0" letter-spacing="0" font-size="10.583" font-weight="400" id="text9396" y="97.948" x="13.698" style="line-height:6.61458302px" font-family="sans-serif" fill="#fff" stroke-width=".265"><tspan font-size="12.7" y="97.948" x="13.698" id="tspan9394">Cycle Land</tspan></text><path id="path9982" d="M503.922 32.687h-83.068c-.755 0-1.364.516-1.364 1.156v150.975c0 .64.609 1.157 1.364 1.157h83.068c.756 0 6.028.267 5.597-.26l-8.466-10.333 8.466-9.436-8.466-9.436 8.466-9.436-8.466-9.436 8.466-9.435-8.466-9.436 8.466-9.436-8.466-9.436 8.466-9.436-8.466-9.436 8.466-9.436-8.466-9.436 8.466-9.436-8.466-9.436 8.353-10.395c.426-.53-4.728-.197-5.484-.197z" class="appland" stroke-width="1.49"/><text style="line-height:6.61458302px" x="427.008" y="114.099" id="text10002" font-weight="400" font-size="10.583" letter-spacing="0" word-spacing="0" font-family="sans-serif" fill="#fff" stroke-width=".265"><tspan id="tspan10000" x="427.008" y="114.099" font-size="12.7">Cycle Land</tspan></text><path d="M175.315 72.376h15.75" id="path4527" fill="none" fill-rule="evenodd" stroke="#fff" stroke-width="1.323" marker-end="url(#marker23762)"/><path d="M175.315 116.25h15.75" id="path25762" fill="none" fill-rule="evenodd" stroke="#fff" stroke-width="1.323" marker-end="url(#marker24266)"/><path d="M175.315 163.823h15.75" id="path26930" fill="none" fill-rule="evenodd" stroke="#fff" stroke-width="1.323" marker-end="url(#marker25932)"/><path d="M315.592 93.543h15.75" id="path28264" fill="none" fill-rule="evenodd" stroke="#fff" stroke-width="1.323" marker-end="url(#marker27100)"/><path id="path24096" d="M315.592 143.238h15.75" fill="none" fill-rule="evenodd" stroke="#fff" stroke-width="1.323" marker-end="url(#marker28434)"/></svg>