<svg xmlns="http://www.w3.org/2000/svg" xmlns:xlink="http://www.w3.org/1999/xlink" width="1920" height="1080" viewBox="0 0 508.00001 285.74999" id="svg8"><defs id="defs4523"><linearGradient id="linearGradient4781"><stop offset="0" id="stop4777" stop-color="#f7f9fc" stop-opacity="0"/><stop offset="1" id="stop4779" stop-color="#fff"/></linearGradient><linearGradient id="linearGradient4757"><stop offset="0" id="stop4753" stop-color="#ff7f2a"/><stop offset="1" id="stop4755" stop-color="#ff7f2a" stop-opacity="0"/></linearGradient><marker orient="auto" id="marker28434" overflow="visible"><path id="path28432" d="M-5.231-2.42L1.324-.01-5.23 2.401c1.047-1.423 1.041-3.37 0-4.821z" fill-rule="evenodd" stroke-width=".375" stroke-linejoin="round" stroke="#fff" fill="#fff"/></marker><marker id="marker27100" orient="auto" overflow="visible"><path d="M-5.231-2.42L1.324-.01-5.23 2.401c1.047-1.423 1.041-3.37 0-4.821z" id="path27098" fill-rule="evenodd" stroke-width=".375" stroke-linejoin="round" stroke="#fff" fill="#fff"/></marker><marker orient="auto" id="marker25932" overflow="visible"><path id="path25930" d="M-5.231-2.42L1.324-.01-5.23 2.401c1.047-1.423 1.041-3.37 0-4.821z" fill-rule="evenodd" stroke-width=".375" stroke-linejoin="round" stroke="#fff" fill="#fff"/></marker><marker id="marker24266" orient="auto" overflow="visible"><path d="M-5.231-2.42L1.324-.01-5.23 2.401c1.047-1.423 1.041-3.37 0-4.821z" id="path24264" fill-rule="evenodd" stroke-width=".375" stroke-linejoin="round" stroke="#fff" fill="#fff"/></marker><marker orient="auto" id="marker23762" overflow="visible"><path id="path23760" d="M-5.231-2.42L1.324-.01-5.23 2.401c1.047-1.423 1.041-3.37 0-4.821z" fill-rule="evenodd" stroke-width=".375" stroke-linejoin="round" stroke="#fff" fill="#fff"/></marker><marker orient="auto" id="Arrow1Mend" overflow="visible"><path id="path4542" d="M-4 0l-2 2 7-2-7-2 2 2z" fill-rule="evenodd" stroke="#fff" stroke-width=".4pt" fill="#fff"/></marker><marker orient="auto" id="Arrow1Lend" overflow="visible"><path id="path4536" d="M-10 0l-4 4L0 0l-14-4 4 4z" fill-rule="evenodd" stroke="#fff" stroke-width=".8pt" fill="#fff"/></marker><linearGradient xlink:href="#linearGradient5275" id="linearGradient4697" gradientUnits="userSpaceOnUse" x1="186.763" y1="637.383" x2="553.446" y2="2.269"/><linearGradient xlink:href="#felix-3" id="linearGradient4699" gradientUnits="userSpaceOnUse" x1="534.386" y1="527.969" x2="631.412" y2="359.915"/><linearGradient xlink:href="#thelast-7" id="linearGradient4719" gradientUnits="userSpaceOnUse" x1="186.763" y1="637.383" x2="553.446" y2="2.269"/><linearGradient xlink:href="#felix-3" id="linearGradient4721" gradientUnits="userSpaceOnUse" x1="534.386" y1="527.969" x2="631.412" y2="359.915"/><linearGradient xlink:href="#linearGradient4757" id="linearGradient4759" x1="174.195" y1="89.822" x2="189.003" y2="89.456" gradientUnits="userSpaceOnUse"/><linearGradient xlink:href="#linearGradient4757" id="linearGradient4767" x1="175.293" y1="127.295" x2="188.82" y2="128.027" gradientUnits="userSpaceOnUse"/><linearGradient xlink:href="#linearGradient4757" id="linearGradient4775" x1="174.744" y1="160.922" x2="189.003" y2="160.555" gradientUnits="userSpaceOnUse"/><linearGradient xlink:href="#linearGradient4781" id="linearGradient4785" gradientUnits="userSpaceOnUse" x1="319.008" y1="98.837" x2="333.03" y2="98.654"/><linearGradient xlink:href="#linearGradient4781" id="linearGradient4793" x1="318.715" y1="140.776" x2="333.052" y2="141.142" gradientUnits="userSpaceOnUse"/><linearGradient xlink:href="#thelast-7" id="linearGradient5289" gradientUnits="userSpaceOnUse" x1="186.763" y1="637.383" x2="553.446" y2="2.269"/><linearGradient xlink:href="#felix-3" id="linearGradient5291" gradientUnits="userSpaceOnUse" x1="534.386" y1="527.969" x2="631.412" y2="359.915"/><linearGradient xlink:href="#thelast-7" id="linearGradient5461" gradientUnits="userSpaceOnUse" x1="186.763" y1="637.383" x2="553.446" y2="2.269"/><linearGradient xlink:href="#felix-3" id="linearGradient5463" gradientUnits="userSpaceOnUse" x1="534.386" y1="527.969" x2="631.412" y2="359.915"/></defs><path d="M176.346 93.067l10.207-5.894v28.637l-10.207-5.893m0 29.187l10.207-5.893v29.695l-10.207-5.893m0 29.187l10.207-5.893v12.307a.84.84 0 0 0 .842.841h132.976a.84.84 0 0 0 .84-.841v-33.265l10.763 6.214m0-29.187l-10.762 6.213v-42.507l10.762 6.214m0-29.187l-10.762 6.214V54.592a.84.84 0 0 0-.841-.841H187.395a.84.84 0 0 0-.842.841v15.181l-10.207-5.893" id="rect6128" fill="none" stroke="#edaf1f" stroke-width="5.292"/><text style="line-height:6.61458302px" x="241.778" y="68.932" id="text6132" font-weight="400" font-size="10.583" letter-spacing="0" word-spacing="0" font-family="sans-serif" fill="#fff" stroke-width=".265"><tspan id="tspan6130" x="241.778" y="68.932" font-size="12.7">App</tspan></text><style id="style4585"/><path id="use9611" d="M96.462-31.52h-.591c-.482 0-.886-.416-.886-.91a.85.85 0 0 1 .291-.64l.381-.374a.955.955 0 0 0 0-1.356l-.867-.86a.974.974 0 0 0-.68-.271.981.981 0 0 0-.68.272l-.365.365a.878.878 0 0 1-.661.3c-.497 0-.913-.405-.913-.883v-.594c0-.525-.424-.976-.953-.976h-1.181c-.529 0-.948.447-.948.976v.59c0 .478-.416.883-.914.883a.869.869 0 0 1-.645-.288l-.377-.373a.958.958 0 0 0-.68-.272.981.981 0 0 0-.68.272l-.875.855a.957.957 0 0 0 0 1.352l.366.366a.88.88 0 0 1 .303.657c0 .497-.404.91-.886.91h-.591c-.533 0-.98.415-.98.943v1.182c0 .525.447.944.98.944h.59c.483 0 .887.416.887.91a.88.88 0 0 1-.303.657l-.366.361a.957.957 0 0 0 0 1.353l.867.863a.958.958 0 0 0 .68.272.981.981 0 0 0 .68-.272l.377-.374a.863.863 0 0 1 .646-.287c.497 0 .913.404.913.882v.59c0 .525.42.976.952.976h1.182c.528 0 .948-.447.948-.975v-.591c0-.478.416-.882.913-.882.249 0 .482.109.661.3l.365.364a.981.981 0 0 0 .68.272.981.981 0 0 0 .68-.272l.867-.862a.962.962 0 0 0 0-1.357l-.38-.373a.857.857 0 0 1-.292-.641c0-.498.404-.91.886-.91h.59c.53 0 .906-.416.906-.944v-1.185c.008-.53-.369-.945-.897-.945zm-3.409 1.535a3.108 3.108 0 1 1-6.218 0 3.108 3.108 0 1 1 6.218 0z" fill="#fff" stroke="#d9d20d" stroke-width=".129"/><path class="stream hf" id="path8268" d="M66.63 104.895V78.382l136.107.1" fill="none" fill-rule="evenodd" stroke="url(#linearGradient4759)" stroke-width=".265"/><path class="stream hf" id="path8270" d="M83.363 124.712l119.374.038" fill="none" fill-rule="evenodd" stroke="url(#linearGradient4767)" stroke-width=".265"/><path class="stream hf" id="path8274" d="M297.582 91.516h145.743v17.457" stroke-width=".265" stroke="url(#linearGradient4785)" fill-rule="evenodd" fill="none"/><path class="stream hf" id="path8276" d="M290.33 150.544h153.298v-12.557" fill="none" fill-rule="evenodd" stroke="url(#linearGradient4793)" stroke-width=".265"/><text style="line-height:6.61458302px" x="133.687" y="71.756" id="text8228" font-weight="400" font-size="10.583" letter-spacing="0" word-spacing="0" font-family="sans-serif" fill="#fff" stroke-width=".265"><tspan id="tspan8226" x="133.687" y="71.756">DOM</tspan></text><text style="line-height:6.61458302px" x="133.091" y="118.18" id="text8236" font-weight="400" font-size="10.583" letter-spacing="0" word-spacing="0" font-family="sans-serif" fill="#fff" stroke-width=".265"><tspan id="tspan8234" x="133.091" y="118.18">HTTP</tspan></text><text id="text8240" y="165.895" x="137.559" style="line-height:6.61458302px" font-weight="400" font-size="10.583" letter-spacing="0" word-spacing="0" font-family="sans-serif" fill="#fff" stroke-width=".265"><tspan y="165.895" x="137.559" id="tspan8238">RAF</tspan></text><text id="text8246" y="85.74" x="344.311" style="line-height:6.61458302px" font-weight="400" font-size="10.583" letter-spacing="0" word-spacing="0" font-family="sans-serif" fill="#fff" stroke-width=".265"><tspan y="85.74" x="344.311" id="tspan8244">DOM</tspan></text><text id="text8254" y="144.266" x="343.856" style="line-height:6.61458302px" font-weight="400" font-size="10.583" letter-spacing="0" word-spacing="0" font-family="sans-serif" fill="#fff" stroke-width=".265"><tspan y="144.266" x="343.856" id="tspan8252">HTTP</tspan></text><g id="g4657" transform="translate(45.387 104.72) scale(.05901)"><linearGradient y2="2.269" x2="553.446" y1="637.383" x1="186.763" gradientUnits="userSpaceOnUse" id="thelast-7"><stop id="stop4643" offset=".415" stop-color="#51d3d9"/><stop id="stop4645" offset="1" stop-color="#c8ff8c"/></linearGradient><path id="path4648" d="M639.9 495.8c-.3 6.5-2.1 12.9-5.4 18.7l-60.6 105c-7.3 12.7-20.8 20.5-35.4 20.5H202.2c-14.6 0-28.1-7.8-35.4-20.4L5.5 340.5C1.8 334.1 0 327.1 0 320s1.4-14.5 5.7-21.7L166.9 20.4C174.2 7.8 187.7 0 202.2 0h336.3c14.6 0 28.1 7.8 35.4 20.4 0 0 58.3 95.5 62.5 102.3 4.2 6.8 3.5 15.4 3.5 22.4 0 6-1.7 14.2-3.3 20.7-1.6 6.5-50.4 204.3-50.4 204.3L479.7 143.6H261.4L159.2 320l102.2 176.4h218.2z" fill="url(#linearGradient4697)"/><linearGradient y2="359.915" x2="631.412" y1="527.969" x1="534.386" gradientUnits="userSpaceOnUse" id="felix-3"><stop id="stop4650" offset=".415" stop-color="#51d3d9"/><stop id="stop4652" offset="1" stop-color="#5a919b"/></linearGradient><path id="path4655" d="M562.1 319.9l74 156.9c5.7 12.1 5.1 26.2-1.6 37.8l-154.8-18.1z" fill="url(#linearGradient4699)"/></g><path d="M66.372 141.977v29.103l136.365.266" id="path4723" class="stream hf" fill="none" fill-rule="evenodd" stroke="url(#linearGradient4775)" stroke-width=".265"/><g id="g5459" transform="translate(45.387 104.72) scale(.05901)"><linearGradient y2="2.269" x2="553.446" y1="637.383" x1="186.763" gradientUnits="userSpaceOnUse" id="linearGradient5447"><stop id="stop5443" offset=".415" stop-color="#51d3d9"/><stop id="stop5445" offset="1" stop-color="#c8ff8c"/></linearGradient><path id="path5449" d="M639.9 495.8c-.3 6.5-2.1 12.9-5.4 18.7l-60.6 105c-7.3 12.7-20.8 20.5-35.4 20.5H202.2c-14.6 0-28.1-7.8-35.4-20.4L5.5 340.5C1.8 334.1 0 327.1 0 320s1.4-14.5 5.7-21.7L166.9 20.4C174.2 7.8 187.7 0 202.2 0h336.3c14.6 0 28.1 7.8 35.4 20.4 0 0 58.3 95.5 62.5 102.3 4.2 6.8 3.5 15.4 3.5 22.4 0 6-1.7 14.2-3.3 20.7-1.6 6.5-50.4 204.3-50.4 204.3L479.7 143.6H261.4L159.2 320l102.2 176.4h218.2z" fill="url(#linearGradient5461)"/><linearGradient y2="359.915" x2="631.412" y1="527.969" x1="534.386" gradientUnits="userSpaceOnUse" id="linearGradient5455"><stop id="stop5451" offset=".415" stop-color="#51d3d9"/><stop id="stop5453" offset="1" stop-color="#5a919b"/></linearGradient><path id="path5457" d="M562.1 319.9l74 156.9c5.7 12.1 5.1 26.2-1.6 37.8l-154.8-18.1z" fill="url(#linearGradient5463)"/></g><path class="time-min" d="M66.826 124.254l9.602-10.656" id="path4501" fill="none" stroke="#fff" stroke-width="3.657" stroke-linecap="round"/><path class="time-hour" d="M66.826 124.254l-7.318-6.307" id="path4503" fill="none" stroke="#fff" stroke-width="3.657" stroke-linecap="round"/><g transform="translate(421.095 104.72) scale(.05901)" id="g5287"><linearGradient id="linearGradient5275" gradientUnits="userSpaceOnUse" x1="186.763" y1="637.383" x2="553.446" y2="2.269"><stop stop-color="#51d3d9" offset=".415" id="stop5271"/><stop stop-color="#c8ff8c" offset="1" id="stop5273"/></linearGradient><path d="M639.9 495.8c-.3 6.5-2.1 12.9-5.4 18.7l-60.6 105c-7.3 12.7-20.8 20.5-35.4 20.5H202.2c-14.6 0-28.1-7.8-35.4-20.4L5.5 340.5C1.8 334.1 0 327.1 0 320s1.4-14.5 5.7-21.7L166.9 20.4C174.2 7.8 187.7 0 202.2 0h336.3c14.6 0 28.1 7.8 35.4 20.4 0 0 58.3 95.5 62.5 102.3 4.2 6.8 3.5 15.4 3.5 22.4 0 6-1.7 14.2-3.3 20.7-1.6 6.5-50.4 204.3-50.4 204.3L479.7 143.6H261.4L159.2 320l102.2 176.4h218.2z" id="path5277" fill="url(#linearGradient5289)"/><linearGradient id="linearGradient5283" gradientUnits="userSpaceOnUse" x1="534.386" y1="527.969" x2="631.412" y2="359.915"><stop stop-color="#51d3d9" offset=".415" id="stop5279"/><stop stop-color="#5a919b" offset="1" id="stop5281"/></linearGradient><path d="M562.1 319.9l74 156.9c5.7 12.1 5.1 26.2-1.6 37.8l-154.8-18.1z" id="path5285" fill="url(#linearGradient5291)"/></g></svg>