<?xml version="1.0" encoding="UTF-8" standalone="no"?>
<svg
   xmlns:dc="http://purl.org/dc/elements/1.1/"
   xmlns:cc="http://creativecommons.org/ns#"
   xmlns:rdf="http://www.w3.org/1999/02/22-rdf-syntax-ns#"
   xmlns:svg="http://www.w3.org/2000/svg"
   xmlns="http://www.w3.org/2000/svg"
   xmlns:sodipodi="http://sodipodi.sourceforge.net/DTD/sodipodi-0.dtd"
   xmlns:inkscape="http://www.inkscape.org/namespaces/inkscape"
   width="1920"
   height="1080"
   viewBox="0 0 508.00001 285.74999"
   id="svg8"
   version="1.1"
   sodipodi:docname="cyclearch-ext.svg"
   inkscape:version="0.92.1 r">
  <metadata
     id="metadata7633">
    <rdf:RDF>
      <cc:Work
         rdf:about="">
        <dc:format>image/svg+xml</dc:format>
        <dc:type
           rdf:resource="http://purl.org/dc/dcmitype/StillImage" />
      </cc:Work>
    </rdf:RDF>
  </metadata>
  <defs
     id="defs7631" />
  <sodipodi:namedview
     pagecolor="#ffffff"
     bordercolor="#666666"
     borderopacity="1"
     objecttolerance="10"
     gridtolerance="10"
     guidetolerance="10"
     inkscape:pageopacity="0"
     inkscape:pageshadow="2"
     inkscape:window-width="1916"
     inkscape:window-height="1058"
     id="namedview7629"
     showgrid="false"
     inkscape:zoom="0.82708333"
     inkscape:cx="942.42254"
     inkscape:cy="637.08707"
     inkscape:window-x="0"
     inkscape:window-y="20"
     inkscape:window-maximized="0"
     inkscape:current-layer="svg8" />
  <style
     id="style4586">.appland{stroke-width:1;fill:#287df2;fill-opacity:1}.fwland{stroke-opacity:1;fill-opacity:1;stroke:none;fill:#dedede}.component{stroke-dasharray:7,7;stroke-dashoffset:0;stroke-width:1.5;stroke-linecap:butt;stroke:#001e47;fill:#a3caff}</style>
  <rect
     ry="1.323"
     y="-.852"
     x="28.046"
     height="238.125"
     width="451.908"
     id="rect6122"
     class="fwland"
     stroke-width="1.323"
     fill="#dedede" />
  <text
     style="line-height:6.61458302px"
     x="219.345"
     y="14.915"
     id="text6126"
     font-weight="400"
     font-size="10.583"
     font-family="sans-serif"
     letter-spacing="0"
     word-spacing="0"
     fill="#f06"
     stroke-width=".265">
    <tspan
       id="tspan6124"
       x="219.345"
       y="14.915"
       font-size="12.7">Cycle Land</tspan>
  </text>
  <rect
     class="appland"
     id="rect6128"
     width="175.75357"
     height="175.35699"
     x="166.12321"
     y="31.384001"
     ry="1.323"
     style="fill:#287df2;stroke-width:0.8374384" />
  <text
     style="line-height:6.61458302px"
     x="225.891"
     y="47.765"
     id="text6132"
     font-weight="400"
     font-size="10.583"
     font-family="sans-serif"
     letter-spacing="0"
     word-spacing="0"
     fill="#fff"
     stroke-width=".265">
    <tspan
       id="tspan6130"
       x="225.891"
       y="47.765"
       font-size="12.7">App Land</tspan>
  </text>
  <style
     id="style4585" />
  <path
     id="use9611"
     d="M96.462-31.52h-.591c-.482 0-.886-.416-.886-.91a.85.85 0 0 1 .291-.64l.381-.374a.955.955 0 0 0 0-1.356l-.867-.86a.974.974 0 0 0-.68-.271.981.981 0 0 0-.68.272l-.365.365a.878.878 0 0 1-.661.3c-.497 0-.913-.405-.913-.883v-.594c0-.525-.424-.976-.953-.976h-1.181c-.529 0-.948.447-.948.976v.59c0 .478-.416.883-.914.883a.869.869 0 0 1-.645-.288l-.377-.373a.958.958 0 0 0-.68-.272.981.981 0 0 0-.68.272l-.875.855a.957.957 0 0 0 0 1.352l.366.366a.88.88 0 0 1 .303.657c0 .497-.404.91-.886.91h-.591c-.533 0-.98.415-.98.943v1.182c0 .525.447.944.98.944h.59c.483 0 .887.416.887.91a.88.88 0 0 1-.303.657l-.366.361a.957.957 0 0 0 0 1.353l.867.863a.958.958 0 0 0 .68.272.981.981 0 0 0 .68-.272l.377-.374a.863.863 0 0 1 .646-.287c.497 0 .913.404.913.882v.59c0 .525.42.976.952.976h1.182c.528 0 .948-.447.948-.975v-.591c0-.478.416-.882.913-.882.249 0 .482.109.661.3l.365.364a.981.981 0 0 0 .68.272.981.981 0 0 0 .68-.272l.867-.862a.962.962 0 0 0 0-1.357l-.38-.373a.857.857 0 0 1-.292-.641c0-.498.404-.91.886-.91h.59c.53 0 .906-.416.906-.944v-1.185c.008-.53-.369-.945-.897-.945zm-3.409 1.535a3.108 3.108 0 1 1-6.218 0 3.108 3.108 0 1 1 6.218 0z"
     fill="#fff"
     stroke="#d9d20d"
     stroke-width=".129" />
  <text
     xml:space="preserve"
     style="font-style:normal;font-weight:normal;font-size:10.58333302px;line-height:6.61458302px;font-family:sans-serif;letter-spacing:0px;word-spacing:0px;fill:#ffffff;fill-opacity:1;stroke:none;stroke-width:0.26458332px;stroke-linecap:butt;stroke-linejoin:miter;stroke-opacity:1"
     x="170.50685"
     y="81.508018"
     id="text8228"><tspan
       sodipodi:role="line"
       id="tspan8226"
       x="170.50685"
       y="81.508018"
       style="fill:#ffffff;stroke-width:0.26458332px">DOM</tspan></text>
  <text
     xml:space="preserve"
     style="font-style:normal;font-weight:normal;font-size:10.58333302px;line-height:6.61458302px;font-family:sans-serif;letter-spacing:0px;word-spacing:0px;fill:#ffffff;fill-opacity:1;stroke:none;stroke-width:0.26458332px;stroke-linecap:butt;stroke-linejoin:miter;stroke-opacity:1"
     x="170.50685"
     y="131.73737"
     id="text8236"><tspan
       sodipodi:role="line"
       id="tspan8234"
       x="170.50685"
       y="131.73737"
       style="fill:#ffffff;stroke-width:0.26458332px">HTTP</tspan></text>
  <text
     id="text8240"
     y="181.95639"
     x="171.19415"
     style="font-style:normal;font-weight:normal;font-size:10.58333302px;line-height:6.61458302px;font-family:sans-serif;letter-spacing:0px;word-spacing:0px;fill:#ffffff;fill-opacity:1;stroke:none;stroke-width:0.26458332px;stroke-linecap:butt;stroke-linejoin:miter;stroke-opacity:1"
     xml:space="preserve"><tspan
       style="fill:#ffffff;stroke-width:0.26458332px"
       y="181.95639"
       x="171.19415"
       id="tspan8238"
       sodipodi:role="line">RAF</tspan></text>
  <text
     id="text8246"
     y="81.508018"
     x="312.2222"
     style="font-style:normal;font-weight:normal;font-size:10.58333302px;line-height:6.61458302px;font-family:sans-serif;letter-spacing:0px;word-spacing:0px;fill:#ffffff;fill-opacity:1;stroke:none;stroke-width:0.26458332px;stroke-linecap:butt;stroke-linejoin:miter;stroke-opacity:1"
     xml:space="preserve"><tspan
       style="fill:#ffffff;stroke-width:0.26458332px"
       y="81.508018"
       x="312.2222"
       id="tspan8244"
       sodipodi:role="line">DOM</tspan></text>
  <text
     id="text8254"
     y="131.73737"
     x="310.06213"
     style="font-style:normal;font-weight:normal;font-size:10.58333302px;line-height:6.61458302px;font-family:sans-serif;letter-spacing:0px;word-spacing:0px;fill:#ffffff;fill-opacity:1;stroke:none;stroke-width:0.26458332px;stroke-linecap:butt;stroke-linejoin:miter;stroke-opacity:1"
     xml:space="preserve"><tspan
       style="fill:#ffffff;stroke-width:0.26458332px"
       y="131.73737"
       x="310.06213"
       id="tspan8252"
       sodipodi:role="line">HTTP</tspan></text>
  <text
     xml:space="preserve"
     style="font-style:normal;font-weight:normal;font-size:10.58333302px;line-height:6.61458302px;font-family:sans-serif;letter-spacing:0px;word-spacing:0px;fill:#ffffff;fill-opacity:1;stroke:none;stroke-width:0.26458332px;stroke-linecap:butt;stroke-linejoin:miter;stroke-opacity:1"
     x="320.20621"
     y="181.95639"
     id="text8258"><tspan
       sodipodi:role="line"
       id="tspan8256"
       x="320.20621"
       y="181.95639"
       style="fill:#ffffff;stroke-width:0.26458332px">WS</tspan></text>
  <path
     class="stream lf"
     inkscape:connector-curvature="0"
     id="path8268"
     d="m 55.982364,113.3243 c 0,0 1.564011,-11.68698 19.399476,-23.069061 30.04326,-19.172744 87.44687,-12.119851 87.44687,-12.119851"
     style="fill:none;fill-rule:evenodd;stroke:#ff7f2a;stroke-width:0.26458332;stroke-linecap:butt;stroke-linejoin:miter;stroke-miterlimit:4;stroke-dasharray:none;stroke-opacity:1"
     sodipodi:nodetypes="csc" />
  <path
     class="stream lf"
     inkscape:connector-curvature="0"
     id="path8270"
     d="m 71.657427,129.63917 91.171283,0"
     style="fill:none;fill-rule:evenodd;stroke:#ff7f2a;stroke-width:0.26458333;stroke-linecap:butt;stroke-linejoin:miter;stroke-opacity:1;stroke-miterlimit:4;stroke-dasharray:none"
     sodipodi:nodetypes="cc" />
  <path
     class="stream lf"
     inkscape:connector-curvature="0"
     id="path8274"
     d="m 347.09068,77.655543 h 62.70025"
     style="fill:none;fill-rule:evenodd;stroke:#287df2;stroke-width:0.26458332px;stroke-linecap:butt;stroke-linejoin:miter;stroke-opacity:1" />
  <path
     class="stream vlf"
     inkscape:connector-curvature="0"
     id="path8276"
     d="m 347.09068,127.87973 h 62.70025"
     style="fill:none;fill-rule:evenodd;stroke:#287df2;stroke-width:0.26458332px;stroke-linecap:butt;stroke-linejoin:miter;stroke-opacity:1" />
  <path
     style="fill:none;fill-rule:evenodd;stroke:#287df2;stroke-width:0.26458332px;stroke-linecap:butt;stroke-linejoin:miter;stroke-opacity:1"
     d="m 347.09068,178.10391 h 62.70025"
     id="path8260"
     inkscape:connector-curvature="0"
     class="stream" />
  <rect
     style="fill:#287df2;fill-opacity:1;fill-rule:nonzero;stroke:none;stroke-width:2.13944077;stroke-linecap:round;stroke-linejoin:round;stroke-miterlimit:4;stroke-dasharray:none;stroke-dashoffset:0;stroke-opacity:1;paint-order:stroke fill markers"
     id="rect8224"
     width="10.876574"
     height="29.750631"
     x="157.07053"
     y="62.780228"
     ry="7.037786" />
  <rect
     ry="7.037786"
     y="113.00441"
     x="157.07053"
     height="29.750631"
     width="10.876574"
     id="rect8230"
     style="fill:#287df2;fill-opacity:1;fill-rule:nonzero;stroke:none;stroke-width:2.13944077;stroke-linecap:round;stroke-linejoin:round;stroke-miterlimit:4;stroke-dasharray:none;stroke-dashoffset:0;stroke-opacity:1;paint-order:stroke fill markers" />
  <path
     sodipodi:nodetypes="csc"
     style="fill:none;fill-rule:evenodd;stroke:#ff7f2a;stroke-width:0.26458332;stroke-linecap:butt;stroke-linejoin:miter;stroke-miterlimit:4;stroke-dasharray:none;stroke-opacity:1"
     d="m 56.610167,144.26422 c 0,0 1.56401,11.68698 19.39948,23.06906 30.043263,19.17274 87.446873,12.11985 87.446873,12.11985"
     id="path9455"
     inkscape:connector-curvature="0"
     class="stream" />
  <rect
     style="fill:#287df2;fill-opacity:1;fill-rule:nonzero;stroke:none;stroke-width:2.13944077;stroke-linecap:round;stroke-linejoin:round;stroke-miterlimit:4;stroke-dasharray:none;stroke-dashoffset:0;stroke-opacity:1;paint-order:stroke fill markers"
     id="rect8232"
     width="10.876574"
     height="29.750631"
     x="157.07053"
     y="163.22859"
     ry="7.037786" />
  <rect
     ry="7.037786"
     y="62.780228"
     x="340.69269"
     height="29.750631"
     width="10.876574"
     id="rect8242"
     style="fill:#287df2;fill-opacity:1;fill-rule:nonzero;stroke:none;stroke-width:2.13944077;stroke-linecap:round;stroke-linejoin:round;stroke-miterlimit:4;stroke-dasharray:none;stroke-dashoffset:0;stroke-opacity:1;paint-order:stroke fill markers" />
  <rect
     style="fill:#287df2;fill-opacity:1;fill-rule:nonzero;stroke:none;stroke-width:2.13944077;stroke-linecap:round;stroke-linejoin:round;stroke-miterlimit:4;stroke-dasharray:none;stroke-dashoffset:0;stroke-opacity:1;paint-order:stroke fill markers"
     id="rect8248"
     width="10.876574"
     height="29.750631"
     x="340.69269"
     y="113.00441"
     ry="7.037786" />
  <rect
     ry="7.037786"
     y="163.22859"
     x="340.69269"
     height="29.750631"
     width="10.876574"
     id="rect8250"
     style="fill:#287df2;fill-opacity:1;fill-rule:nonzero;stroke:none;stroke-width:2.13944077;stroke-linecap:round;stroke-linejoin:round;stroke-miterlimit:4;stroke-dasharray:none;stroke-dashoffset:0;stroke-opacity:1;paint-order:stroke fill markers" />
  <g
     style="stroke:#161f2b;stroke-width:3.9690001;stroke-linecap:round;stroke-opacity:1"
     transform="matrix(0.51299168,0,0,0.51299168,-15.163324,58.171224)"
     id="g4505">
    <circle
       style="fill:none;stroke:#161f2b;stroke-opacity:1;paint-order:stroke fill markers"
       r="21.694"
       cy="139.31599"
       cx="139.935"
       id="circle4499" />
    <path
       style="fill:none;stroke:#161f2b;stroke-opacity:1"
       inkscape:connector-curvature="0"
       class="time-min"
       d="m 139.935,139.316 10.419,-11.564"
       id="path4501" />
    <path
       style="fill:none;stroke:#161f2b;stroke-opacity:1"
       inkscape:connector-curvature="0"
       class="time-hour"
       d="m 140.269,139.316 -7.941,-6.844"
       id="path4503" />
  </g>
</svg>
