<svg xmlns="http://www.w3.org/2000/svg" xmlns:xlink="http://www.w3.org/1999/xlink" id="svg8" viewBox="0 0 508.00001 285.74999" height="1080" width="1920"><defs id="defs6984"><linearGradient id="linearGradient7561"><stop offset="0" id="stop7557" stop-color="#f60"/><stop id="stop7577" offset=".317" stop-color="#fb6605"/><stop offset=".33" id="stop7579" stop-color="#b46d52"/><stop id="stop7581" offset=".525" stop-color="#b16d55"/><stop offset=".544" id="stop7583" stop-color="#887182"/><stop id="stop7585" offset=".74" stop-color="#867184"/><stop offset=".762" id="stop7587" stop-color="#5976b7"/><stop offset="1" id="stop7559" stop-color="#287df2"/></linearGradient><linearGradient xlink:href="#linearGradient7561" id="linearGradient7563" x1="69.364" y1="119.063" x2="420.541" y2="119.063" gradientUnits="userSpaceOnUse"/></defs><style id="style4586">.appland{stroke-width:1;fill:#287df2;fill-opacity:1}.fwland{stroke-opacity:1;fill-opacity:1;stroke:none;fill:#dedede}.component{stroke-dasharray:7,7;stroke-dashoffset:0;stroke-width:1.5;stroke-linecap:butt;stroke:#001e47;fill:#a3caff}</style><rect ry="1.323" x="28.046" height="238.125" width="451.908" id="rect5013" class="fwland" fill="#dedede" stroke-width="1.323"/><text style="line-height:6.61458302px" x="219.345" y="14.915" id="text5017" font-weight="400" font-size="10.583" font-family="sans-serif" letter-spacing="0" word-spacing="0" fill="#f06" stroke-width=".265"><tspan id="tspan5015" x="219.345" y="14.915" font-size="12.7">Cycle Land</tspan></text><rect class="appland" id="rect5021" width="250.61" height="175.357" x="128.695" y="31.384" ry="1.323" fill="#287df2"/><text style="line-height:6.61458302px" x="229.61" y="141.322" id="text4853" font-weight="400" font-size="10.583" letter-spacing="0" word-spacing="0" font-family="sans-serif" fill="#fff" stroke-width=".265"><tspan id="tspan4851" x="229.61" y="141.322">DataFlow</tspan></text><text style="line-height:6.61458302px" x="225.891" y="47.765" id="text5025" font-weight="400" font-size="10.583" font-family="sans-serif" letter-spacing="0" word-spacing="0" fill="#fff" stroke-width=".265"><tspan id="tspan5023" x="225.891" y="47.765" font-size="12.7">App Land</tspan></text><g id="g8433" class="output-vdom" transform="translate(83.08)"><rect class="side-effect" ry="1.323" y="109.051" x="341.269" height="21.693" width="47.604" id="rect5870-6" fill="#287df2" stroke-width="1.323" stroke-linecap="square" stroke-linejoin="round" paint-order="stroke fill markers"/><text style="line-height:6.61458302px" x="350.189" y="123.493" id="text5864" font-weight="400" font-size="10.583" letter-spacing="0" word-spacing="0" font-family="sans-serif" fill="#fff" stroke-width="1.323" stroke-linecap="square" paint-order="stroke fill markers"><tspan id="tspan5862" x="350.189" y="123.493" style="line-height:1.71979165px" font-size="9.878" paint-order="stroke fill markers">VDOM</tspan></text></g><path id="path6969" d="M127.507 108.584v-2.076c0-3.33-2.68-6.01-6.01-6.01h-1.616c-3.33 0-6.01 2.68-6.01 6.01v25.05c0 3.33 2.68 6.01 6.01 6.01h1.616c3.33 0 6.01-2.68 6.01-6.01v-1.808h251.929v1.867s2.68 6.01 6.01 6.01h1.615c3.33 0 6.01-2.68 6.01-6.01v-25.05c0-3.33-2.68-6.01-6.01-6.01h-1.615c-3.33 0-6.855 2.79-6.01 6.01v2.017z" fill="#a3caff" stroke="#001e47" stroke-width="1.5" stroke-dasharray="6.99999997,6.99999997"/><path d="M187.908 96.181h-.59c-.482 0-.887-.416-.887-.91a.85.85 0 0 1 .292-.64l.38-.374a.955.955 0 0 0 0-1.356l-.866-.86a.974.974 0 0 0-.68-.27.981.981 0 0 0-.68.271l-.366.365a.878.878 0 0 1-.66.3c-.498 0-.914-.405-.914-.883v-.595c0-.524-.423-.975-.952-.975h-1.181c-.529 0-.949.447-.949.975v.591c0 .478-.416.882-.913.882a.869.869 0 0 1-.645-.287l-.377-.373a.958.958 0 0 0-.68-.272.981.981 0 0 0-.68.272l-.875.855a.957.957 0 0 0 0 1.352l.365.366a.88.88 0 0 1 .303.657c0 .497-.404.91-.886.91h-.59c-.533 0-.98.415-.98.943v1.181c0 .526.447.945.98.945h.59c.482 0 .886.416.886.91a.88.88 0 0 1-.303.657l-.365.361a.957.957 0 0 0 0 1.353l.867.862a.958.958 0 0 0 .68.273.981.981 0 0 0 .68-.273l.377-.373a.863.863 0 0 1 .645-.287c.498 0 .913.404.913.882v.59c0 .525.42.976.953.976h1.181c.529 0 .949-.447.949-.975v-.59c0-.479.415-.883.913-.883.249 0 .482.11.66.3l.366.364a.981.981 0 0 0 .68.272.981.981 0 0 0 .68-.272l.867-.862a.962.962 0 0 0 0-1.357l-.381-.373a.857.857 0 0 1-.291-.64c0-.499.404-.91.886-.91h.59c.529 0 .906-.417.906-.945v-1.185c.008-.53-.37-.945-.898-.945zm-3.408 1.535a3.11 3.11 0 1 1-6.219 0 3.11 3.11 0 1 1 6.219 0z" class="function" id="path6074" fill="#fff" stroke="#d9d20d" stroke-width=".129"/><path d="M262.26 96.181h-.59c-.482 0-.886-.416-.886-.91a.85.85 0 0 1 .292-.64l.38-.374a.955.955 0 0 0 0-1.356l-.866-.86a.974.974 0 0 0-.68-.27.981.981 0 0 0-.68.271l-.366.365a.878.878 0 0 1-.66.3c-.498 0-.914-.405-.914-.883v-.595c0-.524-.424-.975-.952-.975h-1.182c-.528 0-.948.447-.948.975v.591c0 .478-.416.882-.913.882a.869.869 0 0 1-.646-.287l-.377-.373a.958.958 0 0 0-.68-.272.981.981 0 0 0-.68.272l-.874.855a.957.957 0 0 0 0 1.352l.365.366a.88.88 0 0 1 .303.657c0 .497-.404.91-.886.91h-.59c-.533 0-.98.415-.98.943v1.181c0 .526.447.945.98.945h.59c.482 0 .886.416.886.91a.88.88 0 0 1-.303.657l-.365.361a.957.957 0 0 0 0 1.353l.866.862a.958.958 0 0 0 .68.273.981.981 0 0 0 .68-.273l.378-.373a.863.863 0 0 1 .645-.287c.497 0 .913.404.913.882v.59c0 .525.42.976.952.976h1.182c.529 0 .948-.447.948-.975v-.59c0-.479.416-.883.914-.883.248 0 .482.11.66.3l.366.364a.981.981 0 0 0 .68.272.981.981 0 0 0 .68-.272l.867-.862a.962.962 0 0 0 0-1.357l-.381-.373a.857.857 0 0 1-.292-.64c0-.499.404-.91.886-.91h.591c.529 0 .906-.417.906-.945v-1.185c.008-.53-.37-.945-.898-.945zm-3.408 1.535a3.109 3.109 0 1 1-6.218 0 3.109 3.109 0 1 1 6.218 0z" class="function" id="path6076" fill="#fff" stroke="#d9d20d" stroke-width=".129"/><path id="path5035" class="function" d="M336.614 96.181h-.591c-.482 0-.886-.416-.886-.91a.85.85 0 0 1 .291-.64l.381-.374a.955.955 0 0 0 0-1.356l-.867-.86a.974.974 0 0 0-.68-.27.981.981 0 0 0-.68.271l-.365.365a.878.878 0 0 1-.66.3c-.498 0-.914-.405-.914-.883v-.595c0-.524-.424-.975-.952-.975h-1.182c-.529 0-.948.447-.948.975v.591c0 .478-.416.882-.914.882a.869.869 0 0 1-.645-.287l-.377-.373a.958.958 0 0 0-.68-.272.981.981 0 0 0-.68.272l-.875.855a.957.957 0 0 0 0 1.352l.366.366a.88.88 0 0 1 .303.657c0 .497-.404.91-.886.91h-.591c-.532 0-.98.415-.98.943v1.181c0 .526.448.945.98.945h.59c.483 0 .887.416.887.91a.88.88 0 0 1-.303.657l-.366.361a.957.957 0 0 0 0 1.353l.867.862a.958.958 0 0 0 .68.273.981.981 0 0 0 .68-.273l.377-.373a.863.863 0 0 1 .646-.287c.497 0 .913.404.913.882v.59c0 .525.42.976.952.976h1.182c.528 0 .948-.447.948-.975v-.59c0-.479.416-.883.913-.883.25 0 .482.11.661.3l.365.364a.981.981 0 0 0 .68.272.981.981 0 0 0 .68-.272l.867-.862a.962.962 0 0 0 0-1.357l-.38-.373a.857.857 0 0 1-.292-.64c0-.499.404-.91.886-.91h.59c.53 0 .906-.417.906-.945v-1.185c.008-.53-.369-.945-.897-.945zm-3.409 1.535a3.109 3.109 0 1 1-6.218 0 3.109 3.109 0 1 1 6.218 0z" fill="#fff" stroke="#d9d20d" stroke-width=".129"/><g transform="matrix(.513 0 0 .513 -20.851 47.595)" id="g4505" stroke="#161f2b" stroke-width="3.969" stroke-linecap="round"><circle r="21.694" cy="139.316" cx="139.935" id="circle4499" fill="none" paint-order="stroke fill markers"/><path class="time-min" d="M139.935 139.316l10.419-11.564" id="path4501" fill="none"/><path class="time-hour" d="M140.269 139.316l-7.941-6.844" id="path4503" fill="none"/></g><path d="M69.364 119.063h351.177" id="path7555" class="stream" fill="none" fill-rule="evenodd" stroke="url(#linearGradient7563)" stroke-width="2.646"/></svg>