<svg xmlns="http://www.w3.org/2000/svg" xmlns:xlink="http://www.w3.org/1999/xlink" id="svg8" viewBox="0 0 508.00001 285.74999" height="1080" width="1920"><defs id="defs6984"><linearGradient id="linearGradient7561"><stop offset="0" id="stop7557" stop-color="#f60"/><stop stop-color="#ff954f" id="stop8730" offset=".312"/><stop offset=".32" id="stop8732" stop-color="#ffb98a"/><stop stop-color="#ffb686" id="stop8734" offset=".528"/><stop offset=".536" id="stop8736" stop-color="#ffd6ba"/><stop stop-color="#ffd7bc" id="stop8738" offset=".742"/><stop offset=".747" id="stop8740" stop-color="#fff"/><stop offset="1" id="stop7559" stop-color="#fff"/></linearGradient><linearGradient xlink:href="#linearGradient7561" id="linearGradient7563" x1="69.364" y1="119.063" x2="420.541" y2="119.063" gradientUnits="userSpaceOnUse" gradientTransform="translate(0 -33.91)"/></defs><rect class="appland" id="rect5021" width="250.61" height="107.538" x="128.695" y="31.384" ry=".811"/><text style="line-height:6.61458302px" x="229.61" y="109.572" id="text4853" font-weight="400" font-size="10.583" letter-spacing="0" word-spacing="0" font-family="sans-serif" fill="#fff" stroke-width=".265"><tspan id="tspan4851" x="229.61" y="109.572">DataFlow</tspan></text><text style="line-height:6.61458302px" x="241.895" y="47.765" id="text5025" font-weight="400" font-size="10.583" letter-spacing="0" word-spacing="0" font-family="sans-serif" fill="#fff" stroke-width=".265"><tspan id="tspan5023" x="241.895" y="47.765" font-size="12.7">App</tspan></text><path d="M187.908 64.431h-.59c-.482 0-.887-.416-.887-.91a.85.85 0 0 1 .292-.64l.38-.374a.955.955 0 0 0 0-1.356l-.866-.86a.974.974 0 0 0-.68-.27.981.981 0 0 0-.68.271l-.366.365a.878.878 0 0 1-.66.3c-.498 0-.914-.405-.914-.883v-.595c0-.524-.423-.975-.952-.975h-1.181c-.529 0-.949.447-.949.975v.591c0 .478-.416.882-.913.882a.869.869 0 0 1-.645-.287l-.377-.373a.958.958 0 0 0-.68-.272.981.981 0 0 0-.68.272l-.875.855a.957.957 0 0 0 0 1.352l.365.366a.88.88 0 0 1 .303.657c0 .497-.404.91-.886.91h-.59c-.533 0-.98.415-.98.943v1.181c0 .526.447.945.98.945h.59c.482 0 .886.416.886.91a.88.88 0 0 1-.303.657l-.365.361a.957.957 0 0 0 0 1.353l.867.862a.958.958 0 0 0 .68.273.981.981 0 0 0 .68-.273l.377-.373a.863.863 0 0 1 .645-.287c.498 0 .913.404.913.882v.59c0 .525.42.976.953.976h1.181c.529 0 .949-.447.949-.975v-.59c0-.479.415-.883.913-.883.249 0 .482.11.66.3l.366.364a.981.981 0 0 0 .68.272.981.981 0 0 0 .68-.272l.867-.862a.962.962 0 0 0 0-1.357l-.381-.373a.857.857 0 0 1-.291-.64c0-.499.404-.91.886-.91h.59c.529 0 .906-.417.906-.945v-1.185c.008-.53-.37-.945-.898-.945zm-3.408 1.535a3.11 3.11 0 1 1-6.219 0 3.11 3.11 0 1 1 6.219 0z" class="function" id="path6074" fill="#fff" stroke="#d9d20d" stroke-width=".129"/><path d="M262.26 64.431h-.59c-.482 0-.886-.416-.886-.91a.85.85 0 0 1 .292-.64l.38-.374a.955.955 0 0 0 0-1.356l-.866-.86a.974.974 0 0 0-.68-.27.981.981 0 0 0-.68.271l-.366.365a.878.878 0 0 1-.66.3c-.498 0-.914-.405-.914-.883v-.595c0-.524-.424-.975-.952-.975h-1.182c-.528 0-.948.447-.948.975v.591c0 .478-.416.882-.913.882a.869.869 0 0 1-.646-.287l-.377-.373a.958.958 0 0 0-.68-.272.981.981 0 0 0-.68.272l-.874.855a.957.957 0 0 0 0 1.352l.365.366a.88.88 0 0 1 .303.657c0 .497-.404.91-.886.91h-.59c-.533 0-.98.415-.98.943v1.181c0 .526.447.945.98.945h.59c.482 0 .886.416.886.91a.88.88 0 0 1-.303.657l-.365.361a.957.957 0 0 0 0 1.353l.866.862a.958.958 0 0 0 .68.273.981.981 0 0 0 .68-.273l.378-.373a.863.863 0 0 1 .645-.287c.497 0 .913.404.913.882v.59c0 .525.42.976.952.976h1.182c.529 0 .948-.447.948-.975v-.59c0-.479.416-.883.914-.883.248 0 .482.11.66.3l.366.364a.981.981 0 0 0 .68.272.981.981 0 0 0 .68-.272l.867-.862a.962.962 0 0 0 0-1.357l-.381-.373a.857.857 0 0 1-.292-.64c0-.499.404-.91.886-.91h.591c.529 0 .906-.417.906-.945v-1.185c.008-.53-.37-.945-.898-.945zm-3.408 1.535a3.109 3.109 0 1 1-6.218 0 3.109 3.109 0 1 1 6.218 0z" class="function" id="path6076" fill="#fff" stroke="#d9d20d" stroke-width=".129"/><path id="path5035" class="function" d="M336.614 64.431h-.591c-.482 0-.886-.416-.886-.91a.85.85 0 0 1 .291-.64l.381-.374a.955.955 0 0 0 0-1.356l-.867-.86a.974.974 0 0 0-.68-.27.981.981 0 0 0-.68.271l-.365.365a.878.878 0 0 1-.66.3c-.498 0-.914-.405-.914-.883v-.595c0-.524-.424-.975-.952-.975h-1.182c-.529 0-.948.447-.948.975v.591c0 .478-.416.882-.914.882a.869.869 0 0 1-.645-.287l-.377-.373a.958.958 0 0 0-.68-.272.981.981 0 0 0-.68.272l-.875.855a.957.957 0 0 0 0 1.352l.366.366a.88.88 0 0 1 .303.657c0 .497-.404.91-.886.91h-.591c-.532 0-.98.415-.98.943v1.181c0 .526.448.945.98.945h.59c.483 0 .887.416.887.91a.88.88 0 0 1-.303.657l-.366.361a.957.957 0 0 0 0 1.353l.867.862a.958.958 0 0 0 .68.273.981.981 0 0 0 .68-.273l.377-.373a.863.863 0 0 1 .646-.287c.497 0 .913.404.913.882v.59c0 .525.42.976.952.976h1.182c.528 0 .948-.447.948-.975v-.59c0-.479.416-.883.913-.883.25 0 .482.11.661.3l.365.364a.981.981 0 0 0 .68.272.981.981 0 0 0 .68-.272l.867-.862a.962.962 0 0 0 0-1.357l-.38-.373a.857.857 0 0 1-.292-.64c0-.499.404-.91.886-.91h.59c.53 0 .906-.417.906-.945v-1.185c.008-.53-.369-.945-.897-.945zm-3.409 1.535a3.109 3.109 0 1 1-6.218 0 3.109 3.109 0 1 1 6.218 0z" fill="#fff" stroke="#d9d20d" stroke-width=".129"/><path d="M96.44 70.758a1.32 1.32 0 0 0-1.323 1.323v26.145c0 .733.59 1.323 1.323 1.323h16.112l5.388-4.684h268.18l5.388 4.684h16.112a1.32 1.32 0 0 0 1.323-1.323V72.08a1.32 1.32 0 0 0-1.323-1.323h-16.112l-5.387 4.684H117.94l-5.388-4.684z" id="rect7706" fill="#a3caff" stroke="#edaf1f" stroke-width="1.323" stroke-linecap="round" stroke-linejoin="round" paint-order="stroke fill markers"/><path d="M128.545 191.68H67.82V85.153l263.917.235 91.81.082v106.21h-42.992" id="path7555" class="stream" fill="none" fill-rule="evenodd" stroke="url(#linearGradient7563)" stroke-width="2.646"/><rect ry=".45" y="158.064" x="128.695" height="59.583" width="250.61" id="rect8146" class="appland"/><g transform="matrix(.513 0 0 .513 183.26 125.327)" id="g4505" stroke="#fff" stroke-width="3.969" stroke-linecap="round"><circle r="21.694" cy="139.316" cx="139.935" id="circle4499" fill="none" paint-order="stroke fill markers"/><path class="time-min" d="M139.935 139.316l10.419-11.564" id="path4501" fill="none"/><path class="time-hour" d="M140.269 139.316l-7.941-6.844" id="path4503" fill="none"/></g><text word-spacing="0" letter-spacing="0" font-size="10.583" font-weight="400" id="text8150" y="175.922" x="219.345" style="line-height:6.61458302px" font-family="sans-serif" fill="#fff" stroke-width=".265"><tspan font-size="12.7" y="175.922" x="219.345" id="tspan8148">Cycle Land</tspan></text></svg>