<svg xmlns="http://www.w3.org/2000/svg" xmlns:xlink="http://www.w3.org/1999/xlink" width="1920" height="1080" viewBox="0 0 508.00001 285.74999" id="svg8"><style id="style4586">.appland{stroke-width:1;fill:#287df2;fill-opacity:1}.fwland{stroke-opacity:1;fill-opacity:1;stroke:none;fill:#dedede}.component{stroke-dasharray:7,7;stroke-dashoffset:0;stroke-width:1.5;stroke-linecap:butt;stroke:#001e47;fill:#a3caff}</style><rect ry="1.323" y="-.852" x="28.046" height="238.125" width="451.908" id="rect6122" class="fwland" fill="#dedede" stroke-width="1.323"/><path id="path6186" class="hidden in-ev" d="M72.825 51.317L67.078 66.72l4.688-1.638-3.252 12.372 7.487-17.043-4.916 2.212z" fill="#fdf400" fill-rule="evenodd" stroke="#20201c" stroke-width=".475"/><g id="g9665" class="hidden in-http"><circle id="path6190" cx="71.572" cy="125.453" r="11.078" fill="#37ff00" stroke-width="14.111" stroke-linejoin="round"/><text style="line-height:4.40972185px" x="64.811" y="128.022" id="text6194" font-weight="400" font-size="7.056" font-family="sans-serif" letter-spacing="0" word-spacing="0" stroke-width=".176"><tspan id="tspan6192" x="64.811" y="128.022">200</tspan></text></g><text style="line-height:6.61458302px" x="219.345" y="14.915" id="text6126" font-weight="400" font-size="10.583" font-family="sans-serif" letter-spacing="0" word-spacing="0" fill="#f06" stroke-width=".265"><tspan id="tspan6124" x="219.345" y="14.915" font-size="12.7">Cycle Land</tspan></text><rect class="appland" id="rect6128" width="250.61" height="175.357" x="128.695" y="31.384" ry="1.323" fill="#287df2"/><text style="line-height:6.61458302px" x="225.891" y="47.765" id="text6132" font-weight="400" font-size="10.583" font-family="sans-serif" letter-spacing="0" word-spacing="0" fill="#fff" stroke-width=".265"><tspan id="tspan6130" x="225.891" y="47.765" font-size="12.7">App Land</tspan></text><g id="g9649" class="out-http out-ev out-ws"><rect id="rect6176" width="47.604" height="21.693" x="345.34" y="115.374" ry="1.323" class="side-effect" fill="#287df2" stroke-width="1.323" stroke-linecap="square" stroke-linejoin="round" paint-order="stroke fill markers"/><text id="text6180" y="129.816" x="354.26" style="line-height:6.61458302px" font-weight="400" font-size="10.583" font-family="sans-serif" letter-spacing="0" word-spacing="0" fill="#fff" stroke-width="1.323" stroke-linecap="square" paint-order="stroke fill markers"><tspan style="line-height:1.71979165px" y="129.816" x="354.26" id="tspan6178" font-size="9.878" paint-order="stroke fill markers">VDOM</tspan></text></g><g id="g9641" class="out-ev"><rect class="side-effect" ry="1.323" y="54.236" x="345.34" height="21.693" width="47.604" id="rect6156" fill="#287df2" stroke-width="1.323" stroke-linecap="square" stroke-linejoin="round" paint-order="stroke fill markers"/><text style="line-height:6.61458302px" x="356.182" y="68.679" id="text6160" font-weight="400" font-size="10.583" font-family="sans-serif" letter-spacing="0" word-spacing="0" fill="#fff" stroke-width="1.323" stroke-linecap="square" paint-order="stroke fill markers"><tspan id="tspan6158" x="356.182" y="68.679" style="line-height:1.71979165px" font-size="9.878" paint-order="stroke fill markers">HTTP</tspan></text></g><g id="g9657" class="out-ev"><rect id="rect6166" width="47.604" height="21.693" x="345.34" y="176.511" ry="1.323" class="side-effect" fill="#287df2" stroke-width="1.323" stroke-linecap="square" stroke-linejoin="round" paint-order="stroke fill markers"/><text id="text6170" y="190.953" x="361.237" style="line-height:6.61458302px" font-weight="400" font-size="10.583" font-family="sans-serif" letter-spacing="0" word-spacing="0" fill="#fff" stroke-width="1.323" stroke-linecap="square" paint-order="stroke fill markers"><tspan style="line-height:1.71979165px" y="190.953" x="361.237" id="tspan6168" font-size="9.878" paint-order="stroke fill markers">WS</tspan></text></g><g id="g9673" class="hidden in-ws"><circle r="11.078" cy="186.746" cx="71.572" id="circle6196" fill="#ff8b00" stroke-width="14.111" stroke-linejoin="round"/><text style="line-height:6.61458302px" x="65.926" y="189.314" id="text6200" font-weight="400" font-size="10.583" font-family="sans-serif" letter-spacing="0" word-spacing="0" stroke-width=".265"><tspan id="tspan6198" x="65.926" y="189.314" font-size="7.056">WS</tspan></text></g><path id="path6090" d="M385.975 46.019c-3.33 0-6.662 2.745-6.01 6.01v2.65h-57.58c-4.08 0-7.796 2.345-9.552 6.027l-31.266 54.972H226.64l-31.266-54.972a10.584 10.584 0 0 0-9.552-6.027h-57.787v-2.018c0-3.33-2.68-6.01-6.01-6.01h-1.616c-3.33 0-6.01 2.68-6.01 6.01v25.05c0 3.33 2.68 6.01 6.01 6.01h1.616c3.33 0 6.01-2.68 6.01-6.01v-1.866h51.109l24.045 39.833h-75.154v-2.076c0-3.329-2.68-6.01-6.01-6.01h-1.616a5.997 5.997 0 0 0-6.01 6.01v25.05c0 3.33 2.68 6.01 6.01 6.01h1.616c3.33 0 6.01-2.68 6.01-6.01v-1.808h75.154l-24.045 39.835h-51.11v-2.135c0-3.33-2.68-6.01-6.01-6.01h-1.615c-3.33 0-6.01 2.68-6.01 6.01v25.05c0 3.33 2.68 6.01 6.01 6.01h1.616c3.33 0 6.974-2.823 6.01-6.01v-1.75h57.787a10.58 10.58 0 0 0 9.552-6.027l31.266-54.973h54.926l31.266 54.973a10.584 10.584 0 0 0 9.552 6.028h57.58v2.498c0 3.33 2.68 6.01 6.01 6.01h1.615c3.33 0 6.01-2.68 6.01-6.01v-25.05c0-3.33-2.68-6.01-6.01-6.01h-1.615c-3.33 0-6.01 2.68-6.01 6.01v1.386h-50.902l-24.045-39.835h74.947v1.867c0 3.33 2.68 6.01 6.01 6.01h1.615c3.33 0 6.01-2.68 6.01-6.01v-25.05c0-3.33-2.68-6.01-6.01-6.01h-1.615c-3.33 0-6.855 2.79-6.01 6.01v2.017h-74.947l24.045-39.833h50.902v1.234c0 3.33 2.68 6.01 6.01 6.01h1.615c3.33 0 6.01-2.68 6.01-6.01V52.03c0-3.33-2.68-6.01-6.01-6.01z" fill="#a3caff" stroke="#001e47" stroke-width="1.5" stroke-dasharray="6.99999997,6.99999997"/><style id="style4585"/><path id="use9611" d="M96.462-31.52h-.591c-.482 0-.886-.416-.886-.91a.85.85 0 0 1 .291-.64l.381-.374a.955.955 0 0 0 0-1.356l-.867-.86a.974.974 0 0 0-.68-.271.981.981 0 0 0-.68.272l-.365.365a.878.878 0 0 1-.661.3c-.497 0-.913-.405-.913-.883v-.594c0-.525-.424-.976-.953-.976h-1.181c-.529 0-.948.447-.948.976v.59c0 .478-.416.883-.914.883a.869.869 0 0 1-.645-.288l-.377-.373a.958.958 0 0 0-.68-.272.981.981 0 0 0-.68.272l-.875.855a.957.957 0 0 0 0 1.352l.366.366a.88.88 0 0 1 .303.657c0 .497-.404.91-.886.91h-.591c-.533 0-.98.415-.98.943v1.182c0 .525.447.944.98.944h.59c.483 0 .887.416.887.91a.88.88 0 0 1-.303.657l-.366.361a.957.957 0 0 0 0 1.353l.867.863a.958.958 0 0 0 .68.272.981.981 0 0 0 .68-.272l.377-.374a.863.863 0 0 1 .646-.287c.497 0 .913.404.913.882v.59c0 .525.42.976.952.976h1.182c.528 0 .948-.447.948-.975v-.591c0-.478.416-.882.913-.882.249 0 .482.109.661.3l.365.364a.981.981 0 0 0 .68.272.981.981 0 0 0 .68-.272l.867-.862a.962.962 0 0 0 0-1.357l-.38-.373a.857.857 0 0 1-.292-.641c0-.498.404-.91.886-.91h.59c.53 0 .906-.416.906-.944v-1.185c.008-.53-.369-.945-.897-.945zm-3.409 1.535a3.108 3.108 0 1 1-6.218 0 3.108 3.108 0 1 1 6.218 0z" fill="#fff" stroke="#d9d20d" stroke-width=".129"/><use xlink:href="#use9611" id="use9619" transform="translate(67.954 95.018)" width="100%" height="100%" class="function-ev-1 hidden"/><use height="100%" width="100%" transform="translate(66.896 156.375)" id="use9621" xlink:href="#use9611" class="function-http-1 hidden"/><use xlink:href="#use9611" id="use9623" transform="translate(67.954 217.203)" width="100%" height="100%" class="function-ws-1 hidden"/><use class="function-http-2 function-ev-2 function-ws-2 hidden" xlink:href="#use9611" id="use9625" transform="translate(126.732 156.375)" width="100%" height="100%"/><use height="100%" width="100%" transform="translate(202.443 156.375)" id="use9627" xlink:href="#use9611" class="function-http-3 function-ev-3 function-ws-3 hidden"/><use class="function-http-4 function-ev-4 function-ws-4 hidden" xlink:href="#use9611" id="use9629" transform="translate(267.401 156.375)" width="100%" height="100%"/><use height="100%" width="100%" transform="translate(267.401 95.018)" id="use9631" xlink:href="#use9611" class="function-ev-4 hidden"/><use class="function-ev-4 hidden" xlink:href="#use9611" id="use9633" transform="translate(267.401 217.203)" width="100%" height="100%"/></svg>