<svg xmlns="http://www.w3.org/2000/svg" xmlns:xlink="http://www.w3.org/1999/xlink" width="412.901" height="866.254" viewBox="0 0 109.24666 229.19635"><defs><linearGradient id="gradpause1"><stop offset="0" stop-color="#ef3b00"/><stop offset=".034" stop-color="#e83d08"/><stop offset="1" stop-color="#287df2"/></linearGradient><linearGradient xlink:href="#gradpause1" id="gpause1" x1="211.929" y1="64.325" x2="211.929" y2="269.545" gradientUnits="userSpaceOnUse"/></defs><g transform="translate(-170.273 -50.64)"><rect ry=".935" y="103.536" x="170.273" height="123.952" width="109.247" class="appland" fill="#287df2" stroke-width=".555"/><text y="58.494" x="188.102" style="line-height:6.61458349px" font-weight="400" font-size="10.583" font-family="sans-serif" letter-spacing="0" word-spacing="0" stroke-width=".265"><tspan y="58.494" x="188.102">RAF</tspan></text><text style="line-height:6.61458349px" x="212.09" y="279.686" font-weight="400" font-size="10.583" font-family="sans-serif" letter-spacing="0" word-spacing="0" stroke-width=".265"><tspan x="212.09" y="279.686">DOM</tspan></text><path style="line-height:normal;font-variant-ligatures:normal;font-variant-position:normal;font-variant-caps:normal;font-variant-numeric:normal;font-variant-alternates:normal;font-feature-settings:normal;text-indent:0;text-align:start;text-decoration-line:none;text-decoration-style:solid;text-decoration-color:#000;text-transform:none;text-orientation:mixed;shape-padding:0;isolation:auto;mix-blend-mode:normal" d="M245.178 96.464a2.153 2.153 0 0 0-2.158 2.158v2.828c0 1.196 2.158 2.158 2.158 2.158h21.878s2.158-.962 2.158-2.158v-2.828a2.153 2.153 0 0 0-2.158-2.158zm-57.415 0a2.153 2.153 0 0 0-2.158 2.158v2.828c0 1.196 2.158 2.158 2.158 2.158h21.878s2.158-.962 2.158-2.158v-2.828a2.153 2.153 0 0 0-2.158-2.158z" color="#000" font-weight="400" font-family="sans-serif" white-space="normal" overflow="visible" fill="#a3caff" fill-rule="evenodd" stroke-width="13.229"/><path d="M255.996 65.826l-.068 33.036" class="stream lf dom-stream" fill="none" fill-rule="evenodd" stroke="#ef3b00" stroke-width="3.969" stroke-linecap="round" stroke-miterlimit="10" stroke-dasharray="3.96875004,190.50000206"/><path d="M198.249 103.36v56.62l26.193 26.194v41.805" fill="none" fill-rule="evenodd" stroke="#a3caff" stroke-width="10.583"/><path style="line-height:normal;font-variant-ligatures:normal;font-variant-position:normal;font-variant-caps:normal;font-variant-numeric:normal;font-variant-alternates:normal;font-feature-settings:normal;text-indent:0;text-align:start;text-decoration-line:none;text-decoration-style:solid;text-decoration-color:#000;text-transform:none;text-orientation:mixed;shape-padding:0;isolation:auto;mix-blend-mode:normal" d="M213.692 227.433a2.153 2.153 0 0 0-2.158 2.158v2.828c0 1.196 2.158 2.158 2.158 2.158h21.878s2.158-.962 2.158-2.158v-2.828a2.153 2.153 0 0 0-2.158-2.158z" color="#000" font-weight="400" font-family="sans-serif" white-space="normal" overflow="visible" fill="#a3caff" fill-rule="evenodd" stroke-width="13.229"/><path d="M198.317 65.826l-.068 37.534v57.15l26.647 26.724-.19 80.81" class="stream raf-stream" fill="none" fill-rule="evenodd" stroke="url(#gpause1)" stroke-width="3.969" stroke-linecap="round" stroke-miterlimit="10" stroke-dasharray="3.96875004,7.93750009"/><text style="line-height:6.61458349px" x="243.157" y="58.494" font-weight="400" font-size="10.583" font-family="sans-serif" letter-spacing="0" word-spacing="0" stroke-width=".265"><tspan x="243.157" y="58.494">DOM</tspan></text></g></svg>