<svg xmlns="http://www.w3.org/2000/svg" width="412.901" height="866.254" viewBox="0 0 109.24666 229.19635"><g transform="translate(-170.273 -50.64)"><path d="M255.996 65.826l-.068 33.036" class="dom-stream" fill="none" fill-rule="evenodd" stroke="#ef3b00" stroke-width="3.969" stroke-linecap="round" stroke-miterlimit="10" stroke-dasharray="3.96875004,190.50000206"/><rect ry=".935" y="103.536" x="170.273" height="123.952" width="109.247" class="appland" fill="#287df2" stroke-width=".555"/><text y="58.494" x="188.102" style="line-height:6.61458349px" font-weight="400" font-size="10.583" font-family="sans-serif" letter-spacing="0" word-spacing="0" stroke-width=".265"><tspan y="58.494" x="188.102">RAF</tspan></text><path d="M198.317 65.826l-.068 37.534" class="raf-stream" fill="none" fill-rule="evenodd" stroke="#ef3b00" stroke-width="3.969" stroke-linecap="round" stroke-miterlimit="10" stroke-dasharray="3.969,7.938"/><text style="line-height:6.61458349px" x="212.09" y="279.686" font-weight="400" font-size="10.583" font-family="sans-serif" letter-spacing="0" word-spacing="0" stroke-width=".265"><tspan x="212.09" y="279.686">DOM</tspan></text><path style="line-height:normal;font-variant-ligatures:normal;font-variant-position:normal;font-variant-caps:normal;font-variant-numeric:normal;font-variant-alternates:normal;font-feature-settings:normal;text-indent:0;text-align:start;text-decoration-line:none;text-decoration-style:solid;text-decoration-color:#000;text-transform:none;text-orientation:mixed;shape-padding:0;isolation:auto;mix-blend-mode:normal" d="M245.178 96.464a2.153 2.153 0 0 0-2.158 2.158v2.828c0 1.196 2.158 2.158 2.158 2.158h21.878s2.158-.962 2.158-2.158v-2.828a2.153 2.153 0 0 0-2.158-2.158zM187.763 96.464a2.153 2.153 0 0 0-2.158 2.158v2.828c0 1.196 2.158 2.158 2.158 2.158h21.878s2.158-.962 2.158-2.158v-2.828a2.153 2.153 0 0 0-2.158-2.158z" color="#000" font-weight="400" font-family="sans-serif" white-space="normal" overflow="visible" fill="#a3caff" fill-rule="evenodd" stroke-width="13.229"/><path class="out-stream" d="M224.442 225.333l-.068 37.533" fill="none" fill-rule="evenodd" stroke="#287df2" stroke-width="3.969" stroke-linecap="round" stroke-miterlimit="10" stroke-dasharray="3.969,7.938"/><path d="M198.249 103.36v56.62l26.193 26.194v41.805" fill="none" fill-rule="evenodd" stroke="#a3caff" stroke-width="10.583" stroke-linejoin="round"/><path style="line-height:normal;font-variant-ligatures:normal;font-variant-position:normal;font-variant-caps:normal;font-variant-numeric:normal;font-variant-alternates:normal;font-feature-settings:normal;text-indent:0;text-align:start;text-decoration-line:none;text-decoration-style:solid;text-decoration-color:#000;text-transform:none;text-orientation:mixed;shape-padding:0;isolation:auto;mix-blend-mode:normal" d="M213.692 227.433a2.153 2.153 0 0 0-2.158 2.158v2.828c0 1.196 2.158 2.158 2.158 2.158h21.878s2.158-.962 2.158-2.158v-2.828a2.153 2.153 0 0 0-2.158-2.158z" color="#000" font-weight="400" font-family="sans-serif" white-space="normal" overflow="visible" fill="#a3caff" fill-rule="evenodd" stroke-width="13.229"/><text style="line-height:6.61458349px" x="243.157" y="58.494" font-weight="400" font-size="10.583" font-family="sans-serif" letter-spacing="0" word-spacing="0" stroke-width=".265"><tspan x="243.157" y="58.494">DOM</tspan></text><path d="M256.192 103.36v56.62l-31.296 27.254" fill="none" fill-rule="evenodd" stroke="#a3caff" stroke-width="10.583" stroke-linejoin="round"/></g></svg>