<svg xmlns="http://www.w3.org/2000/svg" xmlns:xlink="http://www.w3.org/1999/xlink" width="412.901" height="871.727" viewBox="0 0 109.24666 230.64434"><defs><linearGradient id="a"><stop offset="0" stop-color="#ef3b00"/><stop offset=".034" stop-color="#e83d08"/><stop offset="1" stop-color="#287df2"/></linearGradient><linearGradient xlink:href="#a" id="b" x1="213.368" y1="68.702" x2="212.99" y2="275.682" gradientUnits="userSpaceOnUse" gradientTransform="translate(11.717 -12.7)"/></defs><g transform="translate(-170.273 -44.13)"><rect class="appland" width="109.247" height="123.952" x="170.273" y="98.474" ry=".935" fill="#287df2" stroke-width=".555"/><text style="line-height:6.61458302px" x="214.561" y="51.845" font-weight="400" font-size="10.583" font-family="sans-serif" letter-spacing="0" word-spacing="0" stroke-width=".265"><tspan x="214.561" y="51.845">RAF</tspan></text><path d="M225.085 56.002l-.378 206.98" class="raf-stream" fill="none" fill-rule="evenodd" stroke="url(#b)" stroke-width="3.969" stroke-linecap="round" stroke-miterlimit="10" stroke-dasharray="3.96875,7.9375"/><path style="line-height:normal;font-variant-ligatures:normal;font-variant-position:normal;font-variant-caps:normal;font-variant-numeric:normal;font-variant-alternates:normal;font-feature-settings:normal;text-indent:0;text-align:start;text-decoration-line:none;text-decoration-style:solid;text-decoration-color:#000;text-transform:none;text-orientation:mixed;shape-padding:0;isolation:auto;mix-blend-mode:normal" d="M213.957 92.46a2.153 2.153 0 0 0-2.158 2.159v2.828c0 1.195.962 2.158 2.158 2.158h4.323v121.573h-4.323a2.153 2.153 0 0 0-2.158 2.158v2.827c0 1.196.962 2.159 2.158 2.159h21.878a2.154 2.154 0 0 0 2.158-2.159v-2.827a2.153 2.153 0 0 0-2.158-2.158h-4.324V99.605h4.324a2.153 2.153 0 0 0 2.158-2.158v-2.828a2.153 2.153 0 0 0-2.158-2.158z" color="#000" font-weight="400" font-family="sans-serif" white-space="normal" overflow="visible" fill="#a3caff" fill-rule="evenodd" stroke-width="13.229"/><text y="274.624" x="212.09" style="line-height:6.61458302px" font-weight="400" font-size="10.583" font-family="sans-serif" letter-spacing="0" word-spacing="0" stroke-width=".265"><tspan y="274.624" x="212.09">DOM</tspan></text></g></svg>