<svg xmlns="http://www.w3.org/2000/svg" xmlns:xlink="http://www.w3.org/1999/xlink" width="412.901" height="871.727" viewBox="0 0 109.24666 230.64434" id="svg4511"><defs id="defs4493"><linearGradient id="linearGradient4521"><stop offset="0" id="stop4517" stop-color="#e83d08"/><stop offset="1" id="stop4519" stop-color="#287df2"/></linearGradient><linearGradient xlink:href="#linearGradient4521" id="linearGradient4523" x1="233.703" y1="56.305" x2="231.435" y2="263.209" gradientUnits="userSpaceOnUse"/></defs><g transform="translate(-170.273 -44.13)" id="g4509"><rect class="appland" width="109.247" height="123.952" x="170.273" y="98.474" ry=".935" fill="#287df2" stroke-width=".555" id="rect4495"/><text style="line-height:6.61458302px" x="214.561" y="51.845" font-weight="400" font-size="10.583" font-family="sans-serif" letter-spacing="0" word-spacing="0" stroke-width=".265" id="text4499"><tspan x="214.561" y="51.845" id="tspan4497">RAF</tspan></text><path style="line-height:normal;font-variant-ligatures:normal;font-variant-position:normal;font-variant-caps:normal;font-variant-numeric:normal;font-variant-alternates:normal;font-feature-settings:normal;text-indent:0;text-align:start;text-decoration-line:none;text-decoration-style:solid;text-decoration-color:#000;text-transform:none;text-orientation:mixed;shape-padding:0;isolation:auto;mix-blend-mode:normal" d="M213.957 92.46a2.153 2.153 0 0 0-2.158 2.159v2.828c0 1.195.962 2.158 2.158 2.158h4.323v121.573h-4.323a2.153 2.153 0 0 0-2.158 2.158v2.827c0 1.196.962 2.159 2.158 2.159h21.878a2.154 2.154 0 0 0 2.158-2.159v-2.827a2.153 2.153 0 0 0-2.158-2.158h-4.324V99.605h4.324a2.153 2.153 0 0 0 2.158-2.158v-2.828a2.153 2.153 0 0 0-2.158-2.158z" color="#000" font-weight="400" font-family="sans-serif" white-space="normal" overflow="visible" fill="#a3caff" fill-rule="evenodd" stroke-width="13.229" id="path4501"/><path d="M225.085 56.002l-.378 206.98" class="stream raf-stream" stroke-miterlimit="10" id="path4503" fill="none" fill-rule="evenodd" stroke="url(#linearGradient4523)" stroke-width="2.646" stroke-linecap="round" stroke-dasharray="2.64583204,5.29166407000000039"/><text y="274.624" x="212.09" style="line-height:6.61458302px" font-weight="400" font-size="10.583" font-family="sans-serif" letter-spacing="0" word-spacing="0" stroke-width=".265" id="text4507"><tspan y="274.624" x="212.09" id="tspan4505">DOM</tspan></text></g></svg>