<svg xmlns="http://www.w3.org/2000/svg" xmlns:xlink="http://www.w3.org/1999/xlink" width="1920" height="1080" viewBox="0 0 508.00001 285.74999" id="svg8"><defs id="defs4516"><linearGradient id="linearGradient6329"><stop offset="0" id="stop6325" stop-color="#ff7f2a"/><stop offset="1" id="stop6327" stop-color="#287df2"/></linearGradient><linearGradient xlink:href="#linearGradient6329" id="linearGradient6331" x1="168.621" y1="130.807" x2="440.147" y2="130.085" gradientUnits="userSpaceOnUse"/></defs><style id="style4586">.appland{stroke-width:1;fill:#287df2;fill-opacity:1}.fwland{stroke-opacity:1;fill-opacity:1;stroke:none;fill:#dedede}.component{stroke-dasharray:7,7;stroke-dashoffset:0;stroke-width:1.5;stroke-linecap:butt;stroke:#001e47;fill:#a3caff}</style><g transform="translate(0 -11.25)" id="layer1"><rect id="rect4660" width="451.908" height="238.125" x="28.046" y="11.25" ry="1.323" class="fwland" fill="#dedede"/><rect class="appland" ry="1.323" id="rect4666" width="250.61" height="175.357" x="128.695" y="42.634" fill="#287df2"/><text id="text4911" y="26.165" x="218.52" style="line-height:6.61458302px" font-weight="400" font-size="10.583" font-family="sans-serif" letter-spacing="0" word-spacing="0" fill="#f06" stroke-width=".265"><tspan y="26.165" x="218.52" id="tspan4909" font-size="12.7">React Land</tspan></text><text style="line-height:6.61458302px" x="224.613" y="58.019" id="text4915" font-weight="400" font-size="10.583" font-family="sans-serif" letter-spacing="0" word-spacing="0" stroke-width=".265"><tspan id="tspan4913" x="224.613" y="58.019" font-size="12.7" fill="#fff">App Land</tspan></text><g transform="matrix(.513 0 0 .513 182.215 58.845)" id="g4505" stroke="#fff" stroke-width="3.969" stroke-linecap="round"><circle r="21.694" cy="139.316" cx="139.935" id="circle4499" fill="none" paint-order="stroke fill markers"/><path class="time-min" d="M139.935 139.316l10.419-11.564" id="path4501" fill="none"/><path class="time-hour" d="M140.269 139.316l-7.941-6.844" id="path4503" fill="none"/></g><g id="g7085" class="output-vdom" transform="translate(59.267)"><rect id="rect5870-6-5" width="47.604" height="21.693" x="330.11" y="116.828" ry="1.323" class="side-effect" fill="#287df2" stroke-width="1.323" stroke-linecap="square" stroke-linejoin="round" paint-order="stroke fill markers"/><text id="text5864-6" y="131.27" x="339.031" style="line-height:6.61458302px" font-weight="400" font-size="10.583" letter-spacing="0" word-spacing="0" font-family="sans-serif" fill="#fff" stroke-width="1.323" stroke-linecap="square" paint-order="stroke fill markers"><tspan style="line-height:1.71979165px" y="131.27" x="339.031" id="tspan5862-2" font-size="9.878" paint-order="stroke fill markers">VDOM</tspan></text></g><path d="M267.029 138.509c2.24 6.85-10.986 11.28-21.321 10.844-18.487-.78-28.949-12.004-25.994-21.73 4.336-14.276 30.986-22.033 54.47-18.968 31.302 4.084 47.97 23.553 40.16 40.74-9.83 21.63-51.175 33.007-87.62 27.09-44.141-7.164-67.171-35.142-54.325-59.75 15.138-28.997 103.872-61.356 211.33 9.526" id="path6322" class="stream" fill="none" fill-rule="evenodd" stroke="url(#linearGradient6331)" stroke-width=".487"/></g><style id="style4585"/></svg>