<svg xmlns="http://www.w3.org/2000/svg" width="1920" height="1080" viewBox="0 0 508.00001 285.74999" id="svg8"><rect class="appland" ry="1.298" id="rect4666" width="185.208" height="171.979" x="161.828" y="34.396"/><text style="line-height:6.61458349px" x="242.328" y="47.117" id="text4915" font-weight="400" font-size="10.583" letter-spacing="0" word-spacing="0" font-family="sans-serif" stroke-width=".265"><tspan id="tspan4913" x="242.328" y="47.117" font-size="12.7" fill="#fff">App</tspan></text><path d="M346.547 130.097l5.388 4.684h16.112a1.32 1.32 0 0 0 1.323-1.323v-26.145a1.32 1.32 0 0 0-1.323-1.323h-16.112l-5.387 4.684z" id="rect7706" class="appland"/><circle id="circle4499" cx="257.633" cy="180.918" r="11.129" fill="none" stroke="#fff" stroke-width="2.036" stroke-linecap="round" paint-order="stroke fill markers"/><path id="path4501" d="M257.633 180.92l5.344-5.933" class="time-min" fill="none" stroke="#fff" stroke-width="2.036" stroke-linecap="round"/><path id="path4503" d="M257.804 180.92l-4.074-3.512" class="time-hour" fill="none" stroke="#fff" stroke-width="2.036" stroke-linecap="round"/><g transform="translate(-16.219 -28.056)" id="g6320"><rect ry="1.325" y="150.792" x="216.259" height="23.382" width="53.111" id="rect6314" fill="#a3caff" stroke="#287df2" stroke-width=".256" stroke-linecap="round" stroke-linejoin="round" paint-order="stroke fill markers"/><text id="text6318" y="164.367" x="222.211" style="line-height:6.61458302px" font-weight="400" font-size="7.056" letter-spacing="0" word-spacing="0" font-family="sans-serif" stroke-width=".265"><tspan y="164.367" x="222.211" id="tspan6316" fill="#1a1a1a">Component</tspan></text></g><g id="g6328" transform="translate(47.441 -28.056)"><rect id="rect6322" width="53.111" height="23.382" x="216.259" y="150.792" ry="1.325" fill="#a3caff" stroke="#287df2" stroke-width=".256" stroke-linecap="round" stroke-linejoin="round" paint-order="stroke fill markers"/><text style="line-height:6.61458302px" x="222.211" y="164.367" id="text6326" font-weight="400" font-size="7.056" letter-spacing="0" word-spacing="0" font-family="sans-serif" stroke-width=".265"><tspan id="tspan6324" x="222.211" y="164.367" fill="#1a1a1a">Component</tspan></text></g><g id="g6304" transform="translate(15.611 -75.058)"><rect id="rect6298" width="53.111" height="23.382" x="216.259" y="150.792" ry="1.325" fill="#a3caff" stroke="#287df2" stroke-width=".256" stroke-linecap="round" stroke-linejoin="round" paint-order="stroke fill markers"/><text style="line-height:6.61458302px" x="222.211" y="164.367" id="text6302" font-weight="400" font-size="7.056" letter-spacing="0" word-spacing="0" font-family="sans-serif" stroke-width=".265"><tspan id="tspan6300" x="222.211" y="164.367" fill="#1a1a1a">Component</tspan></text></g><path d="M256.975 98.138l-27.192 25.912" id="path6431" fill="none" fill-rule="evenodd" stroke="#a3caff" stroke-width="1.323"/><path d="M262.413 97.178l24.313 29.43" id="path6433" fill="none" fill-rule="evenodd" stroke="#a3caff" stroke-width="1.323"/><rect y="93.081" x="392.196" height="52.917" width="84.667" id="rect5875" ry=".399" class="appland" stroke-width=".375"/><text word-spacing="0" letter-spacing="0" font-size="10.583" font-weight="400" id="text5879" y="124.803" x="399.05" style="line-height:6.61458349px" font-family="sans-serif" stroke-width=".265"><tspan font-size="12.7" y="124.803" x="399.05" id="tspan5877" fill="#fff">React Land</tspan></text><g id="g8134" class="hidden output"><rect class="component" y="113.405" x="308.642" height="13.961" width="37.273" id="rect7460" ry=".661" fill="#a3caff" stroke="#001e47" stroke-width="1.5" stroke-dasharray="7,7"/><text word-spacing="0" letter-spacing="0" font-size="3.671" font-weight="400" transform="scale(.9531 1.0492)" id="text7464" y="117.021" x="335.047" style="line-height:2.29455948px" font-family="sans-serif" fill="#1a1a1a" stroke-width=".201"><tspan font-size="6.268" id="tspan7462" y="117.021" x="335.047">VDOM</tspan></text></g><rect class="appland" ry=".399" id="rect8096" width="84.667" height="52.917" x="29.711" y="89.861" stroke-width=".375"/><text style="line-height:6.61458349px" x="34.976" y="121.054" id="text8100" font-weight="400" font-size="10.583" letter-spacing="0" word-spacing="0" font-family="sans-serif" stroke-width=".265"><tspan id="tspan8098" x="34.976" y="121.054" font-size="12.7" fill="#fff">Redux Land</tspan></text><path class="appland" id="path8126" d="M162.357 130.097l-5.388 4.684h-16.112a1.32 1.32 0 0 1-1.323-1.323v-26.145a1.32 1.32 0 0 1 1.323-1.323h16.112l5.387 4.684z"/><g id="g8144" class="hidden state"><rect ry=".661" id="rect7097" width="37.273" height="13.961" x="75.937" y="113.405" class="component" fill="#a3caff" stroke="#001e47" stroke-width="1.5" stroke-dasharray="7,7"/><text style="line-height:2.29455948px" x="90.89" y="117.021" id="text7101" transform="scale(.9531 1.0492)" font-weight="400" font-size="3.671" letter-spacing="0" word-spacing="0" font-family="sans-serif" fill="#1a1a1a" stroke-width=".201"><tspan x="90.89" y="117.021" id="tspan7099" font-size="6.268">State</tspan></text></g><path id="path8136" d="M163.887 181.035H94.14v-40.6" fill="none" fill-rule="evenodd" stroke="#edaf1f" stroke-width="13.229"/><path d="M237.97 181.035H94.14v-51.184" id="path7095" class="stream" fill="none" fill-rule="evenodd" stroke="#ffe9e9" stroke-width=".265"/></svg>