<svg xmlns="http://www.w3.org/2000/svg" id="Calque_1" width="324.264" height="365.207" viewBox="0 0 324.26427 365.20662"><g id="g4637" transform="translate(-60.267 -27.107)"><path stroke-miterlimit="10" d="M163.826 298.3l15.838 44.689 72.406 39.551s27.152 16.359 40.729 0c13.577-16.359 21.301-44.554 21.301-44.554s-24.158-10.917-45.637-12.769c19.323-.108 40.649 3.477 45.719 8.658l6.334-21.152 11.879-.848 9.758-12.303s-10.182-18.244-11.666-36.275c-1.484-18.029 9.324-23.458 9.324-23.458s17.475-95.402-26.082-133.302c-43.559-37.9-121.055-53.74-181.014-2.264-59.963 51.477-17.537 152.73-4.529 161.215 13.013 8.486 35.64 32.812 35.64 32.812z" id="path4609" fill="#f5dcb2" stroke="#000" stroke-width="5" stroke-linejoin="round"/><g id="g4621"><path d="M166.512 231.267s-20.789-23.594-32.455-22.321c-11.668 1.272-21.637 24.96-.637 50.96 21 25.998 14.424 35.273 30.547 35.139 8.273-.07 7.637-11.17 7.637-11.17" id="path4617" fill="#f5dcb2"/><path d="M166.512 231.267c-5.164-4.547-10.392-8.977-15.941-12.806-2.755-1.919-5.59-3.717-8.516-5.053-1.462-.658-2.929-1.231-4.354-1.567-1.439-.334-2.747-.414-3.877-.11-2.384.592-4.533 2.54-6.056 4.953-1.521 2.442-2.486 5.344-2.91 8.346-.866 6.036.27 12.406 2.641 18.285 1.172 2.957 2.659 5.818 4.382 8.556a62.697 62.697 0 0 0 2.725 4.036c.485.662.97 1.297 1.489 1.959a91.488 91.488 0 0 1 1.594 2.08c4.199 5.602 8.005 11.589 11.038 17.912 1.537 3.131 2.922 6.354 4.335 9.268.718 1.443 1.481 2.76 2.426 3.732.932.981 2.125 1.633 3.583 2.063 1.446.443 3.077.654 4.729.769 1.506.141 2.895-.16 4.083-1.032 1.188-.868 2.057-2.294 2.633-3.836.601-1.548.937-3.234 1.088-4.946.254 1.709.223 3.468-.066 5.227-.328 1.738-.982 3.544-2.352 4.993-1.339 1.485-3.47 2.231-5.373 2.307-1.769.124-3.582.166-5.486-.124-1.884-.285-3.922-1.085-5.525-2.429-1.61-1.33-2.738-2.93-3.722-4.446-.99-1.526-1.81-3.056-2.646-4.548a184.618 184.618 0 0 0-2.517-4.407 136.997 136.997 0 0 0-11.467-16.422l-1.598-1.946a81.005 81.005 0 0 1-1.671-2.092 69.168 69.168 0 0 1-3.132-4.403c-1.957-3.038-3.674-6.267-5.047-9.671-1.347-3.412-2.359-6.997-2.866-10.698-.481-3.698-.505-7.511.188-11.267.694-3.742 2.03-7.463 4.349-10.713 1.159-1.616 2.547-3.13 4.245-4.351 1.69-1.214 3.696-2.149 5.882-2.498.229-.037.652-.093.815-.102.29-.027.567-.032.851-.046a12.79 12.79 0 0 1 1.631.09c1.055.128 2.043.369 2.979.67 1.871.604 3.554 1.429 5.116 2.374 3.127 1.883 5.892 4.084 8.506 6.411 5.146 4.733 9.779 9.883 13.814 15.482z" id="path4619"/></g><path stroke-miterlimit="10" d="M221.521 29.607s-19.373 12.02-12.584 26.021c0 0 50.486-29.274 86.547 7.212 0 0-16.67-5.091-31.518 6.364 0 0 49.061 44.971 79.744 12.728 0 0 .85 19.515-13.082 30.97 0 0 30.615-6.787 51.404 5.516 0 0-22.658 4.555-30.971 24.183 0 0 4.408 4.559 12.727-8.061 0 0-3.393 33.516-47.516 12.727 0 0 8.484 24.183-1.697 42.426 0 0-19.092-57.698-100.549-68.729 0 0-25.381 11.71-63.637 10.606 0 0-53.314 19.092-37.477 147.499 0 0-20.764-18.931-14.398-62.487 0 0-15.016 27.981 7.611 77.761 0 0-41.861-40.73-21.496-109.74 0 0-7.918 2.221-14.141 46.08 0 0-29.416-82.848 26.586-119.617 0 0-11.314-.566-22.061 9.051 0 0 8.906-31.22 52.041-35.071.003-.003 27.719-53.741 94.467-55.439z" id="path4623" fill="#4f3314" stroke="#000" stroke-width="5" stroke-linejoin="round"/><g id="g4627"><path d="M238.635 105.689c-3.341 3.799-7.412 6.914-11.569 9.803-4.233 2.831-8.526 5.414-13.201 7.674-4.688 2.178-9.505 3.813-14.401 5.237-4.895 1.408-9.87 2.512-14.884 3.371-10.031 1.694-20.235 2.343-30.369 1.884a192.17 192.17 0 0 1-3.796-.211c-.555-.022-.794-.101-1.157-.159l-.986-.213a24.347 24.347 0 0 1-1.913-.538 35.815 35.815 0 0 1-7.147-3.184c-4.46-2.658-8.298-6.311-10.882-10.651 3.468 3.656 7.534 6.569 12.002 8.467a33.954 33.954 0 0 0 6.862 2.199c.584.121 1.17.215 1.749.31l.864.117c.256.024.636.074.708.045a184.69 184.69 0 0 0 3.722-.084c9.913-.335 19.772-1.261 29.51-2.909 9.712-1.663 19.406-3.943 28.606-7.261 2.225-.849 4.518-1.925 6.767-2.933a141.62 141.62 0 0 0 6.698-3.26c4.429-2.258 8.745-4.737 12.817-7.704z" id="path4625"/></g><g id="g4635"><path d="M329.673 226.733c.108 6.262.403 12.511 1.032 18.708.276 3.1.625 6.188 1.05 9.257.392 3.071.862 6.126 1.425 9.152.555 3.027 1.331 6.007 2.178 8.936.832 2.934 1.582 5.85 2.258 8.786a256.893 256.893 0 0 0 2.189 8.802c.777 2.953 1.684 5.878 2.634 8.998l-.572.402c-2.643-2.015-4.766-4.606-6.568-7.36-1.787-2.77-3.229-5.741-4.377-8.797-1.155-3.056-1.915-6.227-2.351-9.43-.42-3.207-.667-6.413-.941-9.596a167.938 167.938 0 0 1-.516-9.541c-.048-3.179-.014-6.351.093-9.514.138-3.165.348-6.32.628-9.465.271-3.146.631-6.277 1.142-9.397z" id="path4633"/></g><path d="M265.451 258.994s21.618 12.068 37.593 4.6" id="path4646" fill="none" fill-rule="evenodd" stroke="#000" stroke-width="5"/><path d="M259.063 225.485l48.025 8.293-43.29-15.057z" id="path4648" fill-rule="evenodd" stroke="#000"/></g></svg>