<svg xmlns="http://www.w3.org/2000/svg" xmlns:xlink="http://www.w3.org/1999/xlink" width="1920" height="1080" viewBox="0 0 508.00001 285.74999" id="svg8"><defs id="defs4523"><linearGradient id="linearGradient4781"><stop offset="0" id="stop4777" stop-color="#f7f9fc" stop-opacity="0"/><stop offset="1" id="stop4779" stop-color="#fff"/></linearGradient><linearGradient id="linearGradient4757"><stop offset="0" id="stop4753" stop-color="#ff7f2a"/><stop offset="1" id="stop4755" stop-color="#ff7f2a" stop-opacity="0"/></linearGradient><linearGradient xlink:href="#thelast-7-5" id="lgcycle" gradientUnits="userSpaceOnUse" x1="186.763" y1="637.383" x2="553.446" y2="2.269"/><linearGradient xlink:href="#felix-3" id="lgcycleblack" gradientUnits="userSpaceOnUse" x1="534.386" y1="527.969" x2="631.412" y2="359.915"/><linearGradient xlink:href="#linearGradient4757" id="linearGradient4759" x1="174.195" y1="89.822" x2="189.003" y2="89.456" gradientUnits="userSpaceOnUse"/><linearGradient xlink:href="#linearGradient4757" id="linearGradient4767" x1="175.293" y1="127.295" x2="188.82" y2="128.027" gradientUnits="userSpaceOnUse"/><linearGradient xlink:href="#linearGradient4757" id="linearGradient4775" x1="174.744" y1="160.922" x2="189.003" y2="160.555" gradientUnits="userSpaceOnUse"/><linearGradient xlink:href="#linearGradient4781" id="linearGradient4785" gradientUnits="userSpaceOnUse" x1="319.008" y1="98.837" x2="333.03" y2="98.654"/><linearGradient xlink:href="#linearGradient4781" id="linearGradient4793" x1="318.715" y1="140.776" x2="333.052" y2="141.142" gradientUnits="userSpaceOnUse"/><linearGradient xlink:href="#thelast-7-5" id="linearGradient5289" gradientUnits="userSpaceOnUse" x1="186.763" y1="637.383" x2="553.446" y2="2.269" gradientTransform="translate(421.095 104.72) scale(.05901)"/><linearGradient xlink:href="#felix-3" id="linearGradient5291" gradientUnits="userSpaceOnUse" x1="534.386" y1="527.969" x2="631.412" y2="359.915" gradientTransform="translate(421.095 104.72) scale(.05901)"/><linearGradient xlink:href="#linearGradient4757" id="linearGradient4632" gradientUnits="userSpaceOnUse" x1="174.195" y1="89.822" x2="189.003" y2="89.456" gradientTransform="translate(0 -178.858)"/><linearGradient xlink:href="#linearGradient4757" id="linearGradient4634" gradientUnits="userSpaceOnUse" x1="175.293" y1="127.295" x2="188.82" y2="128.027" gradientTransform="translate(3.704 -178.858)"/><linearGradient xlink:href="#linearGradient4757" id="linearGradient4636" gradientUnits="userSpaceOnUse" x1="174.744" y1="160.922" x2="189.003" y2="160.555" gradientTransform="translate(0 -178.858)"/><linearGradient xlink:href="#linearGradient4781" id="linearGradient4642" gradientUnits="userSpaceOnUse" x1="319.008" y1="98.837" x2="333.03" y2="98.654" gradientTransform="translate(0 -177.27)"/><linearGradient xlink:href="#linearGradient4781" id="linearGradient4644" gradientUnits="userSpaceOnUse" x1="318.715" y1="140.776" x2="333.052" y2="141.142" gradientTransform="translate(0 -177.27)"/></defs><path d="M176.346 93.067l10.207-5.894v28.637l-10.207-5.893m0 29.187l10.207-5.893v29.695l-10.207-5.893m0 29.187l10.207-5.893v12.307a.84.84 0 0 0 .842.841h132.976a.84.84 0 0 0 .84-.841v-33.265l10.763 6.214m0-29.187l-10.762 6.213v-42.507l10.762 6.214m0-29.187l-10.762 6.214V54.592a.84.84 0 0 0-.841-.841H187.395a.84.84 0 0 0-.842.841v15.181l-10.207-5.893" id="rect6128" fill="none" stroke="#edaf1f" stroke-width="5.292"/><text style="line-height:6.61458302px" x="241.778" y="68.932" id="text6132" font-weight="400" font-size="10.583" letter-spacing="0" word-spacing="0" font-family="sans-serif" fill="#fff" stroke-width=".265"><tspan id="tspan6130" x="241.778" y="68.932" font-size="12.7">App</tspan></text><style id="style4585"/><path class="prodenv stream" id="path8268" d="M66.63 104.895V78.382l136.107.1" fill="none" fill-rule="evenodd" stroke="url(#linearGradient4759)" stroke-width=".265"/><path class="prodenv stream" id="path8270" d="M83.363 124.712l119.374.038" fill="none" fill-rule="evenodd" stroke="url(#linearGradient4767)" stroke-width=".265"/><path class="prodenv stream" id="path8274" d="M297.582 91.516h145.743v17.457" fill="none" fill-rule="evenodd" stroke="url(#linearGradient4785)" stroke-width=".265"/><path class="prodenv stream" id="path8276" d="M290.33 150.544h153.298v-12.557" fill="none" fill-rule="evenodd" stroke="url(#linearGradient4793)" stroke-width=".265"/><text style="line-height:6.61458302px" x="133.687" y="71.756" id="text8228" font-weight="400" font-size="10.583" letter-spacing="0" word-spacing="0" font-family="sans-serif" fill="#fff" stroke-width=".265"><tspan id="tspan8226" x="133.687" y="71.756">DOM</tspan></text><text style="line-height:6.61458302px" x="133.091" y="118.18" id="text8236" font-weight="400" font-size="10.583" letter-spacing="0" word-spacing="0" font-family="sans-serif" fill="#fff" stroke-width=".265"><tspan id="tspan8234" x="133.091" y="118.18">HTTP</tspan></text><text id="text8240" y="165.895" x="137.559" style="line-height:6.61458302px" font-weight="400" font-size="10.583" letter-spacing="0" word-spacing="0" font-family="sans-serif" fill="#fff" stroke-width=".265"><tspan y="165.895" x="137.559" id="tspan8238">RAF</tspan></text><text id="text8246" y="85.74" x="344.311" style="line-height:6.61458302px" font-weight="400" font-size="10.583" letter-spacing="0" word-spacing="0" font-family="sans-serif" fill="#fff" stroke-width=".265"><tspan y="85.74" x="344.311" id="tspan8244">DOM</tspan></text><text id="text8254" y="144.266" x="343.856" style="line-height:6.61458302px" font-weight="400" font-size="10.583" letter-spacing="0" word-spacing="0" font-family="sans-serif" fill="#fff" stroke-width=".265"><tspan y="144.266" x="343.856" id="tspan8252">HTTP</tspan></text><path d="M66.372 141.977v29.103l136.365.266" id="path4723" class="prodenv stream" fill="none" fill-rule="evenodd" stroke="url(#linearGradient4775)" stroke-width=".265"/><g id="g4570" class="prodenv"><g transform="translate(45.387 104.72) scale(.05901)" id="g4657"><linearGradient id="thelast-7-5" gradientUnits="userSpaceOnUse" x1="186.763" y1="637.383" x2="553.446" y2="2.269"><stop stop-color="#51d3d9" offset=".415" id="stop4643"/><stop stop-color="#c8ff8c" offset="1" id="stop4645"/></linearGradient><path d="M639.9 495.8c-.3 6.5-2.1 12.9-5.4 18.7l-60.6 105c-7.3 12.7-20.8 20.5-35.4 20.5H202.2c-14.6 0-28.1-7.8-35.4-20.4L5.5 340.5C1.8 334.1 0 327.1 0 320s1.4-14.5 5.7-21.7L166.9 20.4C174.2 7.8 187.7 0 202.2 0h336.3c14.6 0 28.1 7.8 35.4 20.4 0 0 58.3 95.5 62.5 102.3 4.2 6.8 3.5 15.4 3.5 22.4 0 6-1.7 14.2-3.3 20.7-1.6 6.5-50.4 204.3-50.4 204.3L479.7 143.6H261.4L159.2 320l102.2 176.4h218.2z" id="path4648" fill="url(#lgcycle)"/><linearGradient id="felix-3" gradientUnits="userSpaceOnUse" x1="534.386" y1="527.969" x2="631.412" y2="359.915"><stop stop-color="#51d3d9" offset=".415" id="stop4650"/><stop stop-color="#5a919b" offset="1" id="stop4652"/></linearGradient><path d="M562.1 319.9l74 156.9c5.7 12.1 5.1 26.2-1.6 37.8l-154.8-18.1z" id="path4655" fill="url(#lgcycleblack)"/></g><path id="path4501" d="M66.826 124.254l9.602-10.656" class="time-min" fill="none" stroke="#fff" stroke-width="3.657" stroke-linecap="round"/><path id="path4503" d="M66.826 124.254l-7.318-6.307" class="time-hour" fill="none" stroke="#fff" stroke-width="3.657" stroke-linecap="round"/></g><g id="g4576" class="prodenv" stroke-width=".059"><path d="M458.856 133.977a2.456 2.456 0 0 1-.32 1.104l-3.575 6.196a2.41 2.41 0 0 1-2.09 1.21h-19.844c-.862 0-1.658-.46-2.09-1.204l-9.517-16.47a2.401 2.401 0 0 1-.325-1.21c0-.419.083-.855.336-1.28l9.513-16.4a2.414 2.414 0 0 1 2.083-1.203h19.845c.861 0 1.658.46 2.089 1.204 0 0 3.44 5.635 3.688 6.037.248.4.207.908.207 1.321 0 .354-.1.838-.195 1.222l-2.974 12.056-6.285-13.366H436.52l-6.03 10.41 6.03 10.409h12.876z" id="path5277" fill="url(#linearGradient5289)"/><path d="M454.265 123.597l4.366 9.259a2.406 2.406 0 0 1-.094 2.23l-9.135-1.068z" id="path5285" fill="url(#linearGradient5291)"/></g><g id="g4713" class="testenv" fill="#fff" stroke-width=".007"><path id="path4" d="M17.807-43.51h2.189v-4.577h6.667v11.245h4.577v-6.668l14.54.01c13.932 0 14.539-.01 14.787-.358.438-.577 1.135-2.746 1.523-4.647l.338-1.772h2.329c1.273 0 2.359-.05 2.408-.1.06-.059.1-.815.1-1.691v-1.592h10.151l1.074-1.075c.587-.587 1.035-1.094.995-1.134-.05-.05-2.805-.08-6.15-.08h-6.07v-3.383H62.45l-.299-1.473c-.378-1.931-.667-2.956-1.204-4.25l-.428-1.045H31.241v-3.283c0-1.811-.04-3.324-.1-3.384-.059-.06-1.074-.1-2.248-.1l-2.15.002.01 5.622-.01 5.622h-6.747v-4.477h-2.189c-1.194 0-2.229.04-2.288.1-.13.128-.13 22.26 0 22.39.059.059 1.094.098 2.288.098zm2.19-11.344v-2.19h6.667l-.01 2.24.01 2.238H23.38c-1.81 0-3.304-.02-3.334-.05-.03-.029-.05-1.044-.05-2.238zm11.244 0v-6.668H58.21v5.573h4.577l-.01 1.144.01 1.145H58.21v5.573H44.775c-7.384 0-13.454-.02-13.484-.05-.03-.03-.05-3.055-.05-6.717z"/><path id="path6" d="M49.253-50.327h6.767l-.01-4.528.01-4.527H42.486v9.056z"/></g><path d="M66.63-76.08v-24.396l136.107.1" id="path4626" class="testenv teststream in1 stream vlf in3" fill="none" fill-rule="evenodd" stroke="url(#linearGradient4632)" stroke-width=".265"/><path d="M87.067-54.146l119.374.038" id="path4628" class="testenv teststream stream vlf in2" fill="none" fill-rule="evenodd" stroke="url(#linearGradient4634)" stroke-width=".265"/><path class="testenv teststream stream vlf in2 in3" id="path4630" d="M66.372-31.59v23.812l136.365.266" fill="none" fill-rule="evenodd" stroke="url(#linearGradient4636)" stroke-width=".265"/><path d="M307.636-85.755h135.689v17.457" id="path4638" class="testenv teststream out1 out2 stream vlf out3" fill="none" fill-rule="evenodd" stroke="url(#linearGradient4642)" stroke-width=".265"/><path d="M307.636-26.727h135.992v-12.557" id="path4640" class="testenv teststream stream vlf out2" fill="none" fill-rule="evenodd" stroke="url(#linearGradient4644)" stroke-width=".265"/><g id="g4696" class="testenv"><text style="line-height:6.61458302px" x="433.872" y="-45.408" id="text4668" class="ok" font-weight="400" font-size="35.278" font-family="sans-serif" letter-spacing="0" word-spacing="0" fill="#16e51c" stroke-width=".265"><tspan id="tspan4666" x="433.872" y="-45.408">✔</tspan></text><circle id="path4680" cx="442.975" cy="-56.686" r="22.959" fill="#020202" stroke-width="1.429" stroke-linecap="round" paint-order="stroke fill markers"/><g id="g4707" class="testrescache" transform="translate(27.428 -51.685) scale(.93583)"><circle id="circle4698" cx="446.421" cy="-9.849" r="11.939" fill="#fff" stroke-width="1.672" stroke-linecap="round" paint-order="stroke fill markers"/><text id="text4702" y="-2.688" x="440.303" style="line-height:6.61458302px" font-weight="400" font-size="19.756" font-family="sans-serif" letter-spacing="0" word-spacing="0" stroke-width=".265"><tspan y="-2.688" x="440.303" id="tspan4700">8</tspan></text></g></g><text style="line-height:6.61458302px" x="219.228" y="-149.993" id="text5469" class="testenv" font-weight="400" font-size="14.111" font-family="sans-serif" letter-spacing="0" word-spacing="0" fill="#fff" stroke-width=".265"><tspan id="tspan5467" x="219.228" y="-149.993">(Test env)</tspan></text></svg>