<svg
   xmlns:dc="http://purl.org/dc/elements/1.1/"
   xmlns:cc="http://creativecommons.org/ns#"
   xmlns:rdf="http://www.w3.org/1999/02/22-rdf-syntax-ns#"
   xmlns:svg="http://www.w3.org/2000/svg"
   xmlns="http://www.w3.org/2000/svg"
   xmlns:sodipodi="http://sodipodi.sourceforge.net/DTD/sodipodi-0.dtd"
   xmlns:inkscape="http://www.inkscape.org/namespaces/inkscape"
   width="297mm"
   height="210mm"
   viewBox="0 0 1052.3622 744.09448"
   version="1.1"
   sodipodi:docname="eyes-ears.svg"
  >
  <defs
 />
  <sodipodi:namedview
     pagecolor="#ffffff"
     bordercolor="#666666"
     borderopacity="1.0"
     showgrid="false"
     />
  <metadata
>
    <rdf:RDF>
      <cc:Work
         rdf:about="">
        <dc:format>image/svg+xml</dc:format>
        <dc:type
           rdf:resource="http://purl.org/dc/dcmitype/StillImage" />
        <dc:title />
      </cc:Work>
    </rdf:RDF>
  </metadata>
  <g
     transform="translate(0,-308.26772)"
>
    <path
       style="fill:#fdf400;fill-opacity:1;fill-rule:evenodd;stroke:#fdf400;stroke-width:2.52654576;stroke-linecap:butt;stroke-linejoin:miter;stroke-miterlimit:4;stroke-dasharray:none;stroke-opacity:1"
       d="m 304.13646,521.31776 -27.43108,67.8558 22.37796,-7.2187 -15.52019,54.5012 35.73258,-75.07451 -23.46079,9.74524 z"
       sodipodi:nodetypes="ccccccc"
       class="elec-impulse-eye"
 />
    <path
       sodipodi:nodetypes="ccccccc"
       d="m 308.20996,805.19161 -29.08702,71.95203 23.72886,-7.65447 -16.4571,57.79127 37.88964,-79.60652 -24.87704,10.33353 z"
       style="fill:#fdf400;fill-opacity:1;fill-rule:evenodd;stroke:#fdf400;stroke-width:2.67906523;stroke-linecap:butt;stroke-linejoin:miter;stroke-miterlimit:4;stroke-dasharray:none;stroke-opacity:1"
       class="elec-impulse-ear"
 />
    <g
       transform="matrix(0.56391092,0,0,0.56391092,-352.13309,1083.4547)"
>
      <path
         style="opacity:1;fill:#ffffff;fill-opacity:1;fill-rule:nonzero;stroke:#000000;stroke-width:10;stroke-linecap:round;stroke-linejoin:round;stroke-miterlimit:4;stroke-dasharray:none;stroke-opacity:1"
         d="m 1091.4277,-330.13747 c -8e-4,29.98226 24.3048,54.28788 54.2871,54.28711 29.9815,-2.8e-4 58.5717,-23.5913 58.5709,-53.57282 -0.013,-17.63965 -15.025,-34.17304 -15.8727,-55.04827 3.4903,-26.86669 37.291,-36.28401 37.3018,-69.95118 0,-49.70563 -40.2944,-90 -90,-90 -49.7056,0 -90,40.29437 -90,90"
         sodipodi:nodetypes="cccccsc"
 />
      <path
         style="fill:none;fill-rule:evenodd;stroke:#000000;stroke-width:10;stroke-linecap:butt;stroke-linejoin:miter;stroke-miterlimit:4;stroke-dasharray:none;stroke-opacity:1"
         d="m 1165.7143,-464.78065 c 0,0 -22.8572,-28.57143 -54.2857,-14.28572 -31.4286,14.28572 -45.7143,42.85715 -22.8572,74.28572 22.8572,31.42857 40,68.57143 40,68.57143"
 />
      <ellipse
         style="opacity:1;fill:#0c0c0c;fill-opacity:1;fill-rule:nonzero;stroke:none;stroke-width:10;stroke-linecap:round;stroke-linejoin:round;stroke-miterlimit:4;stroke-dasharray:none;stroke-opacity:1"
         cx="1129.0662"
         cy="-379.85489"
         rx="22.219002"
         ry="21.135147"
 />
    </g>
    <g
       transform="matrix(0.70302203,0,0,0.70302203,278.36765,1147.3091)"
>
      <path
         d="m 787.20874,-583.9276 c 0,-18.0904 -11.39025,-33.50073 -26.80059,-40.20088 6.03013,-6.03013 10.05022,-14.74032 10.05022,-24.12053 0,-18.76041 -15.41034,-34.17075 -34.17075,-34.17075 -1.34003,0 -2.68005,0 -3.35007,0 2.01004,-4.6901 3.35007,-10.05022 3.35007,-15.41033 0,-18.76041 -15.41033,-34.17075 -34.17074,-34.17075 -6.03013,0 -11.39025,1.34003 -16.08035,4.02009 -4.69011,-13.40029 -17.42039,-24.79054 -32.16071,-24.79054 -18.76041,0 -33.50073,17.42038 -34.17075,30.82067 l 0,0 0,234.50513 0.67002,0 c 0,0 0,0 0,0 0,24.12053 19.43042,42.88094 43.55095,42.88094 21.44047,0 38.86085,-15.41034 42.88094,-35.51078 4.02009,1.34003 8.71019,2.01004 13.40029,2.01004 24.12053,0 43.55095,-19.43042 43.55095,-43.55095 0,-7.37016 -2.01004,-14.74032 -5.36011,-21.44047 16.08035,-5.36012 28.81063,-21.44047 28.81063,-40.87089 z"
         style="fill:#f0908b"
 />
      <path
         d="m 425.40083,-583.9276 c 0,-18.0904 11.39025,-33.50073 26.80058,-40.20088 -6.03013,-6.03013 -10.05022,-14.74032 -10.05022,-24.12053 0,-18.76041 15.41034,-34.17075 34.17075,-34.17075 1.34003,0 2.68006,0 3.35007,0 -2.01004,-4.6901 -3.35007,-10.05022 -3.35007,-15.41033 0,-18.76041 15.41034,-34.17075 34.17075,-34.17075 6.03013,0 11.39025,1.34003 16.08035,4.02009 4.6901,-13.40029 17.42038,-24.79054 32.1607,-24.79054 18.76041,0 33.50073,17.42038 34.17075,30.82067 l 0,0 0,234.50513 -0.67002,0 c 0,0 0,0 0,0 0,24.12053 -19.43042,42.88094 -43.55095,42.88094 -21.44047,0 -38.86085,-15.41034 -42.88094,-35.51078 -4.02008,1.34003 -8.71019,2.01004 -13.40029,2.01004 -24.12053,0 -43.55095,-19.43042 -43.55095,-43.55095 0,-7.37016 2.01004,-14.74032 5.36012,-21.44047 -16.08036,-5.36012 -28.81063,-21.44047 -28.81063,-40.87089 z"
         style="fill:#f0908b"
 />
      <path
         stroke-miterlimit="10"
         d="m 787.20874,-583.9276 c 0,-18.0904 -11.39025,-33.50073 -26.80059,-40.20088 6.03013,-6.03013 10.05022,-14.74032 10.05022,-24.12053 0,-18.76041 -15.41034,-34.17075 -34.17075,-34.17075 -1.34003,0 -2.68005,0 -3.35007,0 2.01004,-4.6901 3.35007,-10.05022 3.35007,-15.41033 0,-18.76041 -15.41033,-34.17075 -34.17074,-34.17075 -6.03013,0 -11.39025,1.34003 -16.08035,4.02009 -4.69011,-13.40029 -17.42039,-24.79054 -32.16071,-24.79054 -18.76041,0 -33.50073,17.42038 -34.17075,30.82067 l 0,0 0,234.50513 0.67002,0 c 0,0 0,0 0,0 0,24.12053 19.43042,42.88094 43.55095,42.88094 21.44047,0 38.86085,-15.41034 42.88094,-35.51078 4.02009,1.34003 8.71019,2.01004 13.40029,2.01004 24.12053,0 43.55095,-19.43042 43.55095,-43.55095 0,-7.37016 -2.01004,-14.74032 -5.36011,-21.44047 16.08035,-5.36012 28.81063,-21.44047 28.81063,-40.87089 z"
         style="fill:none;stroke:#2c3e50;stroke-width:13.40029335;stroke-linecap:round;stroke-linejoin:round;stroke-miterlimit:10"
 />
      <path
         stroke-miterlimit="10"
         d="m 425.40083,-583.9276 c 0,-18.0904 11.39025,-33.50073 26.80058,-40.20088 -6.03013,-6.03013 -10.05022,-14.74032 -10.05022,-24.12053 0,-18.76041 15.41034,-34.17075 34.17075,-34.17075 1.34003,0 2.68006,0 3.35007,0 -2.01004,-4.6901 -3.35007,-10.05022 -3.35007,-15.41033 0,-18.76041 15.41034,-34.17075 34.17075,-34.17075 6.03013,0 11.39025,1.34003 16.08035,4.02009 4.6901,-13.40029 17.42038,-24.79054 32.1607,-24.79054 18.76041,0 33.50073,17.42038 34.17075,30.82067 l 0,0 0,234.50513 -0.67002,0 c 0,0 0,0 0,0 0,24.12053 -19.43042,42.88094 -43.55095,42.88094 -21.44047,0 -38.86085,-15.41034 -42.88094,-35.51078 -4.02008,1.34003 -8.71019,2.01004 -13.40029,2.01004 -24.12053,0 -43.55095,-19.43042 -43.55095,-43.55095 0,-7.37016 2.01004,-14.74032 5.36012,-21.44047 -16.08036,-5.36012 -28.81063,-21.44047 -28.81063,-40.87089 z"
         style="fill:none;stroke:#2c3e50;stroke-width:13.40029335;stroke-linecap:round;stroke-linejoin:round;stroke-miterlimit:10"
 />
      <path
         stroke-miterlimit="10"
         d="m 495.75236,-573.20737 c 0,0 30.82068,-4.6901 44.22097,25.46056 14.74032,33.50073 -4.6901,58.29127 -33.50073,67.67148"
         style="fill:none;stroke:#2c3e50;stroke-width:13.40029335;stroke-linecap:round;stroke-linejoin:round;stroke-miterlimit:10"
 />
      <path
         stroke-miterlimit="10"
         d="m 563.42384,-671.02951 c 0,0 -16.75036,26.80059 -46.90102,20.10044 -30.15066,-6.70014 -36.18079,-31.49069 -36.18079,-31.49069"
         style="fill:none;stroke:#2c3e50;stroke-width:13.40029335;stroke-linecap:round;stroke-linejoin:round;stroke-miterlimit:10"
 />
      <path
         stroke-miterlimit="10"
         d="m 563.42384,-610.72819 c -0.67001,-0.67001 -8.71019,-28.81063 -43.55095,-38.86085"
         style="fill:none;stroke:#2c3e50;stroke-width:13.40029335;stroke-linecap:round;stroke-linejoin:round;stroke-miterlimit:10"
 />
      <path
         stroke-miterlimit="10"
         d="m 682.68645,-606.7081 c 0,0 -8.04017,29.48064 17.42038,52.26114 12.06027,10.72024 36.18079,14.07031 56.95125,11.39025"
         style="fill:none;stroke:#2c3e50;stroke-width:13.40029335;stroke-linecap:round;stroke-linejoin:round;stroke-miterlimit:10"
 />
      <path
         stroke-miterlimit="10"
         d="m 673.30625,-661.6493 c 0,0 18.09039,11.39025 33.50073,6.70015 15.41034,-4.69011 26.13057,-27.47061 26.13057,-27.47061"
         style="fill:none;stroke:#2c3e50;stroke-width:13.40029335;stroke-linecap:round;stroke-linejoin:round;stroke-miterlimit:10"
 />
      <path
         stroke-miterlimit="10"
         d="m 659.90595,-514.24608 c 0,0 8.71019,-34.17075 48.91107,-34.17075"
         style="fill:none;stroke:#2c3e50;stroke-width:13.40029335;stroke-linecap:round;stroke-linejoin:round;stroke-miterlimit:10"
 />
    </g>
    <path
       d="m 430.92203,465.73327 -3.57049,0 c -2.91284,0 -5.35581,-2.51346 -5.35581,-5.49673 0,-1.50336 0.63423,-2.8658 1.76176,-3.87588 l 2.302,-2.25508 c 2.27857,-2.25505 2.27857,-5.94301 0,-8.19806 l -5.23827,-5.19135 c -1.03352,-1.03359 -2.56044,-1.64432 -4.11079,-1.64432 -1.55032,0 -3.05378,0.61073 -4.11076,1.64432 l -2.20812,2.20809 c -1.05709,1.17451 -2.46645,1.80874 -3.99336,1.80874 -3.00668,0 -5.52025,-2.443 -5.52025,-5.33228 l 0,-3.59402 c 0,-3.17118 -2.5604,-5.89604 -5.75509,-5.89604 l -7.141,0 c -3.19469,0 -5.73167,2.70138 -5.73167,5.89604 l 0,3.57052 c 0,2.88931 -2.51342,5.33227 -5.52012,5.33227 -1.50337,0 -2.88928,-0.63422 -3.89935,-1.73827 l -2.27859,-2.25505 c -1.03362,-1.05707 -2.56041,-1.64432 -4.11077,-1.64432 -1.55045,0 -3.05378,0.61073 -4.11087,1.64432 l -5.28528,5.16784 c -2.25502,2.25508 -2.25502,5.94304 0,8.17461 l 2.20804,2.2081 c 1.17461,1.05706 1.83229,2.46646 1.83229,3.96982 0,3.00678 -2.44298,5.49673 -5.3558,5.49673 l -3.57051,0 c -3.21813,0 -5.91952,2.51345 -5.91952,5.70815 l 0,3.57049 0,3.57054 c 0,3.17117 2.70139,5.70813 5.91952,5.70813 l 3.57051,0 c 2.91282,0 5.3558,2.51344 5.3558,5.4967 0,1.50337 -0.65768,2.91279 -1.83229,3.96985 l -2.20804,2.18459 c -2.25502,2.25505 -2.25502,5.94304 0,8.17461 l 5.23829,5.21483 c 1.03365,1.05706 2.56052,1.6443 4.11087,1.6443 1.55033,0 3.05371,-0.61075 4.11077,-1.6443 l 2.27859,-2.25508 c 0.98653,-1.10402 2.39598,-1.73825 3.89936,-1.73825 3.00667,0 5.52021,2.44298 5.52021,5.33227 l 0,3.57052 c 0,3.17119 2.53688,5.89606 5.75511,5.89606 l 7.141,0 c 3.1947,0 5.73155,-2.70139 5.73155,-5.89606 l 0,-3.57052 c 0,-2.88929 2.51354,-5.33227 5.52025,-5.33227 1.50336,0 2.91282,0.65771 3.99333,1.80875 l 2.20816,2.20806 c 1.05706,1.03358 2.56043,1.64434 4.11075,1.64434 1.55036,0 3.0537,-0.61076 4.11079,-1.64434 l 5.23837,-5.21483 c 2.25502,-2.25505 2.25502,-5.94304 0,-8.19809 l -2.30213,-2.25506 c -1.1275,-1.01007 -1.76175,-2.39601 -1.76175,-3.87587 0,-3.00677 2.44299,-5.49674 5.35583,-5.49674 l 3.57049,0 c 3.1947,0 5.47326,-2.51347 5.47326,-5.70812 l 0,-3.59402 0,-3.57049 c 0.0467,-3.1947 -2.23158,-5.70815 -5.42627,-5.70815 z m -20.60092,9.27864 0,0 c 0,10.35921 -8.38607,18.7922 -18.7922,18.7922 -10.40622,0 -18.7922,-8.43299 -18.7922,-18.7922 l 0,0 0,0 c 0,-10.35921 8.38598,-18.79218 18.7922,-18.79218 10.40613,0 18.7922,8.43297 18.7922,18.79218 l 0,0 z"
       class="function function-first"
       />
    <path
       class="function function-first"
       d="m 422.3506,751.44756 -3.57049,0 c -2.91284,0 -5.35581,-2.51346 -5.35581,-5.49673 0,-1.50336 0.63423,-2.8658 1.76176,-3.87588 l 2.302,-2.25508 c 2.27857,-2.25505 2.27857,-5.94301 0,-8.19806 l -5.23827,-5.19135 c -1.03352,-1.03359 -2.56044,-1.64432 -4.11079,-1.64432 -1.55032,0 -3.05378,0.61073 -4.11076,1.64432 l -2.20812,2.20809 c -1.05709,1.17451 -2.46645,1.80874 -3.99336,1.80874 -3.00668,0 -5.52025,-2.443 -5.52025,-5.33228 l 0,-3.59402 c 0,-3.17118 -2.5604,-5.89604 -5.75509,-5.89604 l -7.141,0 c -3.19469,0 -5.73167,2.70138 -5.73167,5.89604 l 0,3.57052 c 0,2.88931 -2.51342,5.33227 -5.52012,5.33227 -1.50337,0 -2.88928,-0.63422 -3.89935,-1.73827 l -2.27859,-2.25505 c -1.03362,-1.05707 -2.56041,-1.64432 -4.11077,-1.64432 -1.55045,0 -3.05378,0.61073 -4.11087,1.64432 l -5.28528,5.16784 c -2.25502,2.25508 -2.25502,5.94304 0,8.17461 l 2.20804,2.2081 c 1.17461,1.05706 1.83229,2.46646 1.83229,3.96982 0,3.00678 -2.44298,5.49673 -5.3558,5.49673 l -3.57051,0 c -3.21813,0 -5.91952,2.51345 -5.91952,5.70815 l 0,3.57049 0,3.57054 c 0,3.17117 2.70139,5.70813 5.91952,5.70813 l 3.57051,0 c 2.91282,0 5.3558,2.51344 5.3558,5.4967 0,1.50337 -0.65768,2.91279 -1.83229,3.96985 l -2.20804,2.18459 c -2.25502,2.25505 -2.25502,5.94304 0,8.17461 l 5.23829,5.21483 c 1.03365,1.05706 2.56052,1.6443 4.11087,1.6443 1.55033,0 3.05371,-0.61075 4.11077,-1.6443 l 2.27859,-2.25508 c 0.98653,-1.10402 2.39598,-1.73825 3.89936,-1.73825 3.00667,0 5.52021,2.44298 5.52021,5.33227 l 0,3.57052 c 0,3.17119 2.53688,5.89606 5.75511,5.89606 l 7.141,0 c 3.1947,0 5.73155,-2.70139 5.73155,-5.89606 l 0,-3.57052 c 0,-2.88929 2.51354,-5.33227 5.52025,-5.33227 1.50336,0 2.91282,0.65771 3.99333,1.80875 l 2.20816,2.20806 c 1.05706,1.03358 2.56043,1.64434 4.11075,1.64434 1.55036,0 3.0537,-0.61076 4.11079,-1.64434 l 5.23837,-5.21483 c 2.25502,-2.25505 2.25502,-5.94304 0,-8.19809 l -2.30213,-2.25506 c -1.1275,-1.01007 -1.76175,-2.39601 -1.76175,-3.87587 0,-3.00677 2.44299,-5.49674 5.35583,-5.49674 l 3.57049,0 c 3.1947,0 5.47326,-2.51347 5.47326,-5.70812 l 0,-3.59402 0,-3.57049 c 0.0467,-3.1947 -2.23158,-5.70815 -5.42627,-5.70815 z m -20.60092,9.27864 0,0 c 0,10.35921 -8.38607,18.7922 -18.7922,18.7922 -10.40622,0 -18.7922,-8.43299 -18.7922,-18.7922 l 0,0 0,0 c 0,-10.35921 8.38598,-18.79218 18.7922,-18.79218 10.40613,0 18.7922,8.43297 18.7922,18.79218 l 0,0 z"
       />
    <g
       transform="matrix(0.50505048,0,0,0.50505048,-476.42082,568.6671)"
>
      <ellipse
         ry="135.94939"
         rx="153.09225"
         cy="10.219346"
         cx="1529.2858"
         style="opacity:1;fill:#ffffff;fill-opacity:1;fill-rule:nonzero;stroke:#000000;stroke-width:10.95835876;stroke-linecap:round;stroke-linejoin:round;stroke-miterlimit:4;stroke-dasharray:none;stroke-opacity:1"
 />
      <circle
         r="63.57143"
         cy="10.219346"
         cx="1455"
         style="opacity:1;fill:#66ff6d;fill-opacity:1;fill-rule:nonzero;stroke:#000000;stroke-width:10;stroke-linecap:round;stroke-linejoin:round;stroke-miterlimit:4;stroke-dasharray:none;stroke-opacity:1"
 />
      <ellipse
         ry="15.714286"
         rx="12.571429"
         cy="10.219346"
         cx="1452.5714"
         style="opacity:1;fill:#000000;fill-opacity:1;fill-rule:nonzero;stroke:none;stroke-width:10;stroke-linecap:round;stroke-linejoin:round;stroke-miterlimit:4;stroke-dasharray:none;stroke-opacity:1"
 />
    </g>
    <g
       class="input-stream negative"
       transform="translate(0,18)"
>
      <path
         style="opacity:1;fill:none;fill-opacity:0.94117647;fill-rule:nonzero;stroke:#000000;stroke-width:12.39998055;stroke-linecap:round;stroke-linejoin:round;stroke-miterlimit:4;stroke-dasharray:none;stroke-opacity:1"
         d="m -31.460084,889.07648 c 16.157789,-16.3192 25.2334851,-38.34856 25.2600949,-61.31354 -0.039814,-21.32097 -7.8818499,-41.8901 -22.0462739,-57.82605"
         sodipodi:nodetypes="ccc"
 />
      <path
         sodipodi:nodetypes="ccc"
         d="m -62.59889,873.49791 c 12.118346,-12.23941 18.925118,-28.76143 18.945062,-45.98516 -0.02988,-15.99072 -5.911371,-31.41757 -16.534703,-43.36954"
         style="opacity:1;fill:none;fill-opacity:0.94117647;fill-rule:nonzero;stroke:#000000;stroke-width:12.39998055;stroke-linecap:round;stroke-linejoin:round;stroke-miterlimit:4;stroke-dasharray:none;stroke-opacity:1"
 />
      <path
         style="opacity:1;fill:none;fill-opacity:0.94117647;fill-rule:nonzero;stroke:#000000;stroke-width:12.39998055;stroke-linecap:round;stroke-linejoin:round;stroke-miterlimit:4;stroke-dasharray:none;stroke-opacity:1"
         d="m -93.737696,859.29094 c 8.078885,-8.15961 12.616733,-19.17428 12.630047,-30.65678 -0.01986,-10.66048 -3.940938,-20.94504 -11.023142,-28.91302"
         sodipodi:nodetypes="ccc"
 />
    </g>
    <g
       class="input-stream"
       transform="translate(0,18)"
>
      <path
         d="m -3.76506,536.89796 0,30.92851"
         style="fill:none;fill-rule:evenodd;stroke:#ff7511;stroke-width:7.5293355;stroke-linecap:round;stroke-linejoin:miter;stroke-miterlimit:4;stroke-dasharray:none;stroke-opacity:1"
 />
      <path
         d="m -19.17675,520.69732 0,63.32979"
         style="fill:none;fill-rule:evenodd;stroke:#ff11e7;stroke-width:7.5293355;stroke-linecap:round;stroke-linejoin:miter;stroke-miterlimit:4;stroke-dasharray:none;stroke-opacity:1"
 />
      <path
         d="m -34.58839,499.34192 0,106.04058"
         style="fill:none;fill-rule:evenodd;stroke:#11ffef;stroke-width:7.5293355;stroke-linecap:round;stroke-linejoin:miter;stroke-miterlimit:4;stroke-dasharray:none;stroke-opacity:1"
 />
      <path
         d="m -50.00004,528.06125 0,48.60193"
         style="fill:none;fill-rule:evenodd;stroke:#1139ff;stroke-width:7.5293355;stroke-linecap:round;stroke-linejoin:miter;stroke-miterlimit:4;stroke-dasharray:none;stroke-opacity:1"
 />
      <path
         d="m -65.41168,499.34193 0,106.04057"
         style="fill:none;fill-rule:evenodd;stroke:#fff811;stroke-width:7.5293355;stroke-linecap:round;stroke-linejoin:miter;stroke-miterlimit:4;stroke-dasharray:none;stroke-opacity:1"
 />
      <path
         d="m -80.82333,525.11567 0,54.49308"
         style="fill:none;fill-rule:evenodd;stroke:#7cff11;stroke-width:7.5293355;stroke-linecap:round;stroke-linejoin:miter;stroke-miterlimit:4;stroke-dasharray:none;stroke-opacity:1"
 />
      <path
         d="m -96.23498,515.54256 0,73.6393"
         style="fill:none;fill-rule:evenodd;stroke:#ff1111;stroke-width:7.5293355;stroke-linecap:round;stroke-linejoin:miter;stroke-miterlimit:4;stroke-dasharray:none;stroke-opacity:1"
 />
    </g>
    <path
       d="m 921.18542,649.20656 -3.57049,0 c -2.91284,0 -5.35581,-2.51346 -5.35581,-5.49673 0,-1.50336 0.63423,-2.8658 1.76176,-3.87588 l 2.302,-2.25508 c 2.27857,-2.25505 2.27857,-5.94301 0,-8.19806 l -5.23827,-5.19135 c -1.03352,-1.03359 -2.56044,-1.64432 -4.11079,-1.64432 -1.55032,0 -3.05378,0.61073 -4.11076,1.64432 l -2.20812,2.20809 c -1.05709,1.17451 -2.46645,1.80874 -3.99336,1.80874 -3.00668,0 -5.52025,-2.443 -5.52025,-5.33228 l 0,-3.59402 c 0,-3.17118 -2.5604,-5.89604 -5.75509,-5.89604 l -7.141,0 c -3.19469,0 -5.73167,2.70138 -5.73167,5.89604 l 0,3.57052 c 0,2.88931 -2.51342,5.33227 -5.52012,5.33227 -1.50337,0 -2.88928,-0.63422 -3.89935,-1.73827 l -2.27859,-2.25505 c -1.03362,-1.05707 -2.56041,-1.64432 -4.11077,-1.64432 -1.55045,0 -3.05378,0.61073 -4.11087,1.64432 l -5.28528,5.16784 c -2.25502,2.25508 -2.25502,5.94304 0,8.17461 l 2.20804,2.2081 c 1.17461,1.05706 1.83229,2.46646 1.83229,3.96982 0,3.00678 -2.44298,5.49673 -5.3558,5.49673 l -3.57051,0 c -3.21813,0 -5.91952,2.51345 -5.91952,5.70815 l 0,3.57049 0,3.57054 c 0,3.17117 2.70139,5.70813 5.91952,5.70813 l 3.57051,0 c 2.91282,0 5.3558,2.51344 5.3558,5.4967 0,1.50337 -0.65768,2.91279 -1.83229,3.96985 l -2.20804,2.18459 c -2.25502,2.25505 -2.25502,5.94304 0,8.17461 l 5.23829,5.21483 c 1.03365,1.05706 2.56052,1.6443 4.11087,1.6443 1.55033,0 3.05371,-0.61075 4.11077,-1.6443 l 2.27859,-2.25508 c 0.98653,-1.10402 2.39598,-1.73825 3.89936,-1.73825 3.00667,0 5.52021,2.44298 5.52021,5.33227 l 0,3.57052 c 0,3.17119 2.53688,5.89606 5.75511,5.89606 l 7.141,0 c 3.1947,0 5.73155,-2.70139 5.73155,-5.89606 l 0,-3.57052 c 0,-2.88929 2.51354,-5.33227 5.52025,-5.33227 1.50336,0 2.91282,0.65771 3.99333,1.80875 l 2.20816,2.20806 c 1.05706,1.03358 2.56043,1.64434 4.11075,1.64434 1.55036,0 3.0537,-0.61076 4.11079,-1.64434 l 5.23837,-5.21483 c 2.25502,-2.25505 2.25502,-5.94304 0,-8.19809 l -2.30213,-2.25506 c -1.1275,-1.01007 -1.76175,-2.39601 -1.76175,-3.87587 0,-3.00677 2.44299,-5.49674 5.35583,-5.49674 l 3.57049,0 c 3.1947,0 5.47326,-2.51347 5.47326,-5.70812 l 0,-3.59402 0,-3.57049 c 0.0467,-3.1947 -2.23158,-5.70815 -5.42627,-5.70815 z m -20.60092,9.27864 0,0 c 0,10.35921 -8.38607,18.7922 -18.7922,18.7922 -10.40622,0 -18.7922,-8.43299 -18.7922,-18.7922 l 0,0 0,0 c 0,-10.35921 8.38598,-18.79218 18.7922,-18.79218 10.40613,0 18.7922,8.43297 18.7922,18.79218 l 0,0 z"
       class="function function-second"
       />
  </g>
</svg>
