<svg
   xmlns:dc="http://purl.org/dc/elements/1.1/"
   xmlns:cc="http://creativecommons.org/ns#"
   xmlns:rdf="http://www.w3.org/1999/02/22-rdf-syntax-ns#"
   xmlns:svg="http://www.w3.org/2000/svg"
   xmlns="http://www.w3.org/2000/svg"
   xmlns:sodipodi="http://sodipodi.sourceforge.net/DTD/sodipodi-0.dtd"
   xmlns:inkscape="http://www.inkscape.org/namespaces/inkscape"
   width="297mm"
   height="210mm"
   viewBox="0 0 0 1052.3622"
   version="1.1"
   sodipodi:docname="src.svg">
  <defs
 />
  <sodipodi:namedview
     pagecolor="#ffffff"
     bordercolor="#666666"
     borderopacity="1.0"
     showgrid="false"
     />
  <metadata
>
    <rdf:RDF>
      <cc:Work
         rdf:about="">
        <dc:format>image/svg+xml</dc:format>
        <dc:type
           rdf:resource="http://purl.org/dc/dcmitype/StillImage" />
        <dc:title />
      </cc:Work>
    </rdf:RDF>
  </metadata>
  <g
     transform="translate(0,-308.26772)">
    <path
       style="fill:none;fill-rule:evenodd;stroke:#000000;stroke-width:13.065;stroke-linecap:round;stroke-linejoin:round;stroke-miterlimit:4;stroke-dasharray:none;stroke-opacity:1"
       d="m -706.20217,-525.55079 -0.38654,46.25846 46.84494,-44.11154 m 31.24977,41.89381 c 0,42.64104 -34.5674,77.20843 -77.20842,77.20845 -42.64107,2e-5 -77.20847,-34.56738 -77.20847,-77.20845 0,-42.64106 34.5674,-77.20847 77.20847,-77.20845 42.64102,2e-5 77.20842,34.56741 77.20842,77.20845 z"
       sodipodi:nodetypes="cccsssss"
       />
    <path
       style="fill:#fdf400;fill-opacity:1;fill-rule:evenodd;stroke:#fdf400;stroke-width:6.30825806;stroke-linecap:butt;stroke-linejoin:miter;stroke-miterlimit:4;stroke-dasharray:none;stroke-opacity:1"
       d="m 902.19367,-635.00704 -68.4897,169.42179 55.87312,-18.02359 -38.75068,136.07813 89.21676,-187.44538 -58.57667,24.33186 z"
       sodipodi:nodetypes="ccccccc" />
    <g
       transform="translate(374.04543,-63.683822)">
      <ellipse
         ry="135.94939"
         rx="153.09225"
         cy="10.219346"
         cx="1529.2858"
         style="opacity:1;fill:none;fill-opacity:1;fill-rule:nonzero;stroke:#000000;stroke-width:10.95835876;stroke-linecap:round;stroke-linejoin:round;stroke-miterlimit:4;stroke-dasharray:none;stroke-opacity:1" />
      <circle
         r="63.57143"
         cy="10.219346"
         cx="1455"
         style="opacity:1;fill:#66ff6d;fill-opacity:1;fill-rule:nonzero;stroke:#000000;stroke-width:10;stroke-linecap:round;stroke-linejoin:round;stroke-miterlimit:4;stroke-dasharray:none;stroke-opacity:1" />
      <ellipse
         ry="15.714286"
         rx="12.571429"
         cy="10.219346"
         cx="1452.5714"
         style="opacity:1;fill:#000000;fill-opacity:1;fill-rule:nonzero;stroke:none;stroke-width:10;stroke-linecap:round;stroke-linejoin:round;stroke-miterlimit:4;stroke-dasharray:none;stroke-opacity:1" />
    </g>
    <g
       transform="translate(402.66632,342.23541)">
      <path
         sodipodi:nodetypes="cccccsc"
         d="m 1091.4277,-304.78125 c -8e-4,29.98226 24.3048,54.28788 54.2871,54.28711 29.9815,-2.8e-4 58.5717,-23.5913 58.5709,-53.57282 -0.013,-17.63965 -15.025,-34.17304 -15.8727,-55.04827 3.4903,-26.86669 37.291,-36.28401 37.3018,-69.95118 0,-49.70563 -40.2944,-90 -90,-90 -49.7056,0 -90,40.29437 -90,90"
         style="opacity:1;fill:none;fill-opacity:1;fill-rule:nonzero;stroke:#000000;stroke-width:10;stroke-linecap:round;stroke-linejoin:round;stroke-miterlimit:4;stroke-dasharray:none;stroke-opacity:1" />
      <path
         d="m 1165.7143,-464.78065 c 0,0 -22.8572,-28.57143 -54.2857,-14.28572 -31.4286,14.28572 -45.7143,42.85715 -22.8572,74.28572 22.8572,31.42857 40,68.57143 40,68.57143"
         style="fill:none;fill-rule:evenodd;stroke:#000000;stroke-width:10;stroke-linecap:butt;stroke-linejoin:miter;stroke-miterlimit:4;stroke-dasharray:none;stroke-opacity:1" />
      <ellipse
         ry="21.135147"
         rx="22.219002"
         cy="-379.85489"
         cx="1129.0662"
         style="opacity:1;fill:#0c0c0c;fill-opacity:1;fill-rule:nonzero;stroke:none;stroke-width:10;stroke-linecap:round;stroke-linejoin:round;stroke-miterlimit:4;stroke-dasharray:none;stroke-opacity:1" />
    </g>
    <g
       transform="translate(1754.5806,526.04177)">
      <path
         style="fill:#f0908b"
         d="m 787.20874,-583.9276 c 0,-18.0904 -11.39025,-33.50073 -26.80059,-40.20088 6.03013,-6.03013 10.05022,-14.74032 10.05022,-24.12053 0,-18.76041 -15.41034,-34.17075 -34.17075,-34.17075 -1.34003,0 -2.68005,0 -3.35007,0 2.01004,-4.6901 3.35007,-10.05022 3.35007,-15.41033 0,-18.76041 -15.41033,-34.17075 -34.17074,-34.17075 -6.03013,0 -11.39025,1.34003 -16.08035,4.02009 -4.69011,-13.40029 -17.42039,-24.79054 -32.16071,-24.79054 -18.76041,0 -33.50073,17.42038 -34.17075,30.82067 l 0,0 0,234.50513 0.67002,0 c 0,0 0,0 0,0 0,24.12053 19.43042,42.88094 43.55095,42.88094 21.44047,0 38.86085,-15.41034 42.88094,-35.51078 4.02009,1.34003 8.71019,2.01004 13.40029,2.01004 24.12053,0 43.55095,-19.43042 43.55095,-43.55095 0,-7.37016 -2.01004,-14.74032 -5.36011,-21.44047 16.08035,-5.36012 28.81063,-21.44047 28.81063,-40.87089 z"
 />
      <path
         style="fill:#f0908b"
         d="m 425.40083,-583.9276 c 0,-18.0904 11.39025,-33.50073 26.80058,-40.20088 -6.03013,-6.03013 -10.05022,-14.74032 -10.05022,-24.12053 0,-18.76041 15.41034,-34.17075 34.17075,-34.17075 1.34003,0 2.68006,0 3.35007,0 -2.01004,-4.6901 -3.35007,-10.05022 -3.35007,-15.41033 0,-18.76041 15.41034,-34.17075 34.17075,-34.17075 6.03013,0 11.39025,1.34003 16.08035,4.02009 4.6901,-13.40029 17.42038,-24.79054 32.1607,-24.79054 18.76041,0 33.50073,17.42038 34.17075,30.82067 l 0,0 0,234.50513 -0.67002,0 c 0,0 0,0 0,0 0,24.12053 -19.43042,42.88094 -43.55095,42.88094 -21.44047,0 -38.86085,-15.41034 -42.88094,-35.51078 -4.02008,1.34003 -8.71019,2.01004 -13.40029,2.01004 -24.12053,0 -43.55095,-19.43042 -43.55095,-43.55095 0,-7.37016 2.01004,-14.74032 5.36012,-21.44047 -16.08036,-5.36012 -28.81063,-21.44047 -28.81063,-40.87089 z"
 />
      <path
         style="fill:none;stroke:#2c3e50;stroke-width:13.40029335;stroke-linecap:round;stroke-linejoin:round;stroke-miterlimit:10"
         d="m 787.20874,-583.9276 c 0,-18.0904 -11.39025,-33.50073 -26.80059,-40.20088 6.03013,-6.03013 10.05022,-14.74032 10.05022,-24.12053 0,-18.76041 -15.41034,-34.17075 -34.17075,-34.17075 -1.34003,0 -2.68005,0 -3.35007,0 2.01004,-4.6901 3.35007,-10.05022 3.35007,-15.41033 0,-18.76041 -15.41033,-34.17075 -34.17074,-34.17075 -6.03013,0 -11.39025,1.34003 -16.08035,4.02009 -4.69011,-13.40029 -17.42039,-24.79054 -32.16071,-24.79054 -18.76041,0 -33.50073,17.42038 -34.17075,30.82067 l 0,0 0,234.50513 0.67002,0 c 0,0 0,0 0,0 0,24.12053 19.43042,42.88094 43.55095,42.88094 21.44047,0 38.86085,-15.41034 42.88094,-35.51078 4.02009,1.34003 8.71019,2.01004 13.40029,2.01004 24.12053,0 43.55095,-19.43042 43.55095,-43.55095 0,-7.37016 -2.01004,-14.74032 -5.36011,-21.44047 16.08035,-5.36012 28.81063,-21.44047 28.81063,-40.87089 z"
         stroke-miterlimit="10"
 />
      <path
         style="fill:none;stroke:#2c3e50;stroke-width:13.40029335;stroke-linecap:round;stroke-linejoin:round;stroke-miterlimit:10"
         d="m 425.40083,-583.9276 c 0,-18.0904 11.39025,-33.50073 26.80058,-40.20088 -6.03013,-6.03013 -10.05022,-14.74032 -10.05022,-24.12053 0,-18.76041 15.41034,-34.17075 34.17075,-34.17075 1.34003,0 2.68006,0 3.35007,0 -2.01004,-4.6901 -3.35007,-10.05022 -3.35007,-15.41033 0,-18.76041 15.41034,-34.17075 34.17075,-34.17075 6.03013,0 11.39025,1.34003 16.08035,4.02009 4.6901,-13.40029 17.42038,-24.79054 32.1607,-24.79054 18.76041,0 33.50073,17.42038 34.17075,30.82067 l 0,0 0,234.50513 -0.67002,0 c 0,0 0,0 0,0 0,24.12053 -19.43042,42.88094 -43.55095,42.88094 -21.44047,0 -38.86085,-15.41034 -42.88094,-35.51078 -4.02008,1.34003 -8.71019,2.01004 -13.40029,2.01004 -24.12053,0 -43.55095,-19.43042 -43.55095,-43.55095 0,-7.37016 2.01004,-14.74032 5.36012,-21.44047 -16.08036,-5.36012 -28.81063,-21.44047 -28.81063,-40.87089 z"
         stroke-miterlimit="10"
 />
      <path
         style="fill:none;stroke:#2c3e50;stroke-width:13.40029335;stroke-linecap:round;stroke-linejoin:round;stroke-miterlimit:10"
         d="m 495.75236,-573.20737 c 0,0 30.82068,-4.6901 44.22097,25.46056 14.74032,33.50073 -4.6901,58.29127 -33.50073,67.67148"
         stroke-miterlimit="10"
 />
      <path
         style="fill:none;stroke:#2c3e50;stroke-width:13.40029335;stroke-linecap:round;stroke-linejoin:round;stroke-miterlimit:10"
         d="m 563.42384,-671.02951 c 0,0 -16.75036,26.80059 -46.90102,20.10044 -30.15066,-6.70014 -36.18079,-31.49069 -36.18079,-31.49069"
         stroke-miterlimit="10"
 />
      <path
         style="fill:none;stroke:#2c3e50;stroke-width:13.40029335;stroke-linecap:round;stroke-linejoin:round;stroke-miterlimit:10"
         d="m 563.42384,-610.72819 c -0.67001,-0.67001 -8.71019,-28.81063 -43.55095,-38.86085"
         stroke-miterlimit="10"
 />
      <path
         style="fill:none;stroke:#2c3e50;stroke-width:13.40029335;stroke-linecap:round;stroke-linejoin:round;stroke-miterlimit:10"
         d="m 682.68645,-606.7081 c 0,0 -8.04017,29.48064 17.42038,52.26114 12.06027,10.72024 36.18079,14.07031 56.95125,11.39025"
         stroke-miterlimit="10"
 />
      <path
         style="fill:none;stroke:#2c3e50;stroke-width:13.40029335;stroke-linecap:round;stroke-linejoin:round;stroke-miterlimit:10"
         d="m 673.30625,-661.6493 c 0,0 18.09039,11.39025 33.50073,6.70015 15.41034,-4.69011 26.13057,-27.47061 26.13057,-27.47061"
         stroke-miterlimit="10"
 />
      <path
         style="fill:none;stroke:#2c3e50;stroke-width:13.40029335;stroke-linecap:round;stroke-linejoin:round;stroke-miterlimit:10"
         d="m 659.90595,-514.24608 c 0,0 8.71019,-34.17075 48.91107,-34.17075"
         stroke-miterlimit="10"
 />
    </g>
    <g
       transform="translate(-555.9512,-208.60516)"
>
      <g
>
        <path
           style="fill:#675f58"
           d="m 324.186,147.222 -148.367,0 c -13.78,0 -24.946,11.171 -24.946,24.94 0,13.78 11.166,24.951 24.946,24.951 l 148.367,0 c 13.774,0 24.951,-11.171 24.951,-24.951 10e-4,-13.769 -11.176,-24.94 -24.951,-24.94 z m -3.282,33.474 c -4.71,0 -8.534,-3.819 -8.534,-8.534 0,-4.71 3.824,-8.529 8.534,-8.529 4.714,0 8.533,3.819 8.533,8.529 10e-4,4.715 -3.819,8.534 -8.533,8.534 z" />
        <path
           style="fill:#675f58"
           d="m 324.186,202.696 -148.367,0 c -13.78,0 -24.946,11.165 -24.946,24.946 0,13.781 11.166,24.946 24.946,24.946 l 148.367,0 c 13.774,0 24.951,-11.165 24.951,-24.946 0,-13.781 -11.176,-24.946 -24.951,-24.946 z m -3.282,33.486 c -4.71,0 -8.534,-3.83 -8.534,-8.54 0,-4.71 3.824,-8.534 8.534,-8.534 4.714,0 8.533,3.825 8.533,8.534 0,4.709 -3.819,8.54 -8.533,8.54 z" />
        <path
           style="fill:#675f58"
           d="m 324.186,258.171 -148.367,0 c -13.78,0 -24.946,11.165 -24.946,24.945 0,13.78 11.166,24.951 24.946,24.951 l 148.367,0 c 13.774,0 24.951,-11.171 24.951,-24.951 0,-13.78 -11.176,-24.945 -24.951,-24.945 z m -3.282,33.474 c -4.71,0 -8.534,-3.813 -8.534,-8.528 0,-4.715 3.824,-8.534 8.534,-8.534 4.714,0 8.533,3.819 8.533,8.534 10e-4,4.714 -3.819,8.528 -8.533,8.528 z" />
      </g>
      <g
>
        <rect
           y="333.724"
           x="207.769"
           width="84.473"
           style="fill:#ff931e"
           height="19.054001" />
        <rect
           y="314.03"
           x="244.282"
           width="11.437"
           style="fill:#ff931e"
           height="28.58" />
      </g>
      <g
>
        <rect
           y="339.681"
           x="134.814"
           width="67.719002"
           style="fill:#ff931e"
           height="6.2880001" />
        <rect
           y="339.681"
           x="297.47198"
           width="67.713997"
           style="fill:#ff931e"
           height="6.2880001" />
      </g>
    </g>
    <g
       transform="translate(-2139.7818,539.68675)">
      <g
>
        <path
           sodipodi:nodetypes="sssssssss"
           style="fill:#ffffff;fill-opacity:1;stroke:#000000;stroke-width:10;stroke-miterlimit:4;stroke-dasharray:none;stroke-opacity:1"
           d="m 1579.5121,-657.58212 -122.1168,0 c -15.328,1e-5 -27.7538,12.42581 -27.7538,27.75381 l 0,233.13204 c 0,15.328 12.4258,27.7538 27.7538,27.75381 l 122.1168,0 c 15.328,-1e-5 27.7538,-12.42581 27.7538,-27.75381 l 0,-233.13204 c 0,-15.328 -12.4258,-27.7538 -27.7538,-27.75381 z"
           />
        <path
           sodipodi:nodetypes="ccccc"
           d="m 1451.8446,-424.45009 133.2183,0 0,-188.72593 -133.2183,0 z"
           />
        <circle
           r="11.101525"
           cy="-402.24692"
           cx="1518.4532" />
        <rect
           y="-635.37897"
           x="1496.2501"
           width="44.406101"
           height="11.101525" />
      </g>
    </g>
    <g
       transform="matrix(0.64094121,0,0,0.64094121,-1364.4827,688.30984)"
>
      <rect
         style="opacity:1;fill:#ffffff;fill-opacity:1;fill-rule:nonzero;stroke:#000000;stroke-width:10;stroke-linecap:round;stroke-linejoin:round;stroke-miterlimit:4;stroke-dasharray:none;stroke-opacity:1"
         width="368.57144"
         height="360"
         x="340.22345"
         y="-1353.4391"
         ry="65.714287" />
      <rect
         style="opacity:1;fill:none;fill-opacity:1;fill-rule:nonzero;stroke:#000000;stroke-width:10;stroke-linecap:round;stroke-linejoin:round;stroke-miterlimit:4;stroke-dasharray:none;stroke-opacity:1"
         width="271.42856"
         height="205.71429"
         x="388.79489"
         y="-1276.2963" />
      <path
         style="fill:#000000;fill-opacity:1;fill-rule:evenodd;stroke:none;stroke-width:1px;stroke-linecap:butt;stroke-linejoin:miter;stroke-opacity:1"
         d="m 485.73367,-1232.0107 -2.65307,104.2858 92.85715,-45.4285 z"
         sodipodi:nodetypes="cccc" />
      <rect
         ry="65.714287"
         y="-1262.5254"
         x="406.89352"
         height="360"
         width="368.57144"
         style="opacity:1;fill:#ffffff;fill-opacity:1;fill-rule:nonzero;stroke:#000000;stroke-width:10;stroke-linecap:round;stroke-linejoin:round;stroke-miterlimit:4;stroke-dasharray:none;stroke-opacity:1" />
      <rect
         y="-1185.3826"
         x="455.46497"
         height="205.71429"
         width="271.42856"
         style="opacity:1;fill:none;fill-opacity:1;fill-rule:nonzero;stroke:#000000;stroke-width:10;stroke-linecap:round;stroke-linejoin:round;stroke-miterlimit:4;stroke-dasharray:none;stroke-opacity:1" />
      <path
         sodipodi:nodetypes="cccc"
         d="m 552.40374,-1141.097 -2.65307,104.2858 92.85715,-45.4285 z"
         style="fill:#000000;fill-opacity:1;fill-rule:evenodd;stroke:none;stroke-width:1px;stroke-linecap:butt;stroke-linejoin:miter;stroke-opacity:1" />
      <rect
         style="opacity:1;fill:#ffffff;fill-opacity:1;fill-rule:nonzero;stroke:#000000;stroke-width:10;stroke-linecap:round;stroke-linejoin:round;stroke-miterlimit:4;stroke-dasharray:none;stroke-opacity:1"
         width="368.57144"
         height="360"
         x="473.5636"
         y="-1171.6117"
         ry="65.714287" />
      <rect
         style="opacity:1;fill:none;fill-opacity:1;fill-rule:nonzero;stroke:#000000;stroke-width:10;stroke-linecap:round;stroke-linejoin:round;stroke-miterlimit:4;stroke-dasharray:none;stroke-opacity:1"
         width="271.42856"
         height="205.71429"
         x="522.13501"
         y="-1094.4689" />
      <path
         style="fill:#000000;fill-opacity:1;fill-rule:evenodd;stroke:none;stroke-width:1px;stroke-linecap:butt;stroke-linejoin:miter;stroke-opacity:1"
         d="m 619.07381,-1050.1833 -2.65307,104.28583 92.85715,-45.4285 z"
         sodipodi:nodetypes="cccc" />
    </g>
    <path
       d="m 2901.6611,-96.157268 -11.2689,0 c -9.1932,0 -16.9035,-7.932742 -16.9035,-17.348262 0,-4.74481 2.0017,-9.04481 5.5603,-12.23274 l 7.2654,-7.11725 c 7.1914,-7.11721 7.1914,-18.75682 0,-25.87406 l -16.5326,-16.38449 c -3.2619,-3.26206 -8.081,-5.18962 -12.9741,-5.18962 -4.893,0 -9.6381,1.92756 -12.974,5.18962 l -6.9691,6.969 c -3.3363,3.70687 -7.7844,5.70862 -12.6035,5.70862 -9.4894,0 -17.4225,-7.71037 -17.4225,-16.82933 l 0,-11.34309 c 0,-10.00858 -8.0809,-18.60857 -18.1637,-18.60857 l -22.5378,0 c -10.0828,0 -18.0898,8.52587 -18.0898,18.60857 l 0,11.26896 c 0,9.11896 -7.9326,16.8293 -17.4221,16.8293 -4.7448,0 -9.1189,-2.00172 -12.3068,-5.48622 l -7.1915,-7.11724 c -3.2622,-3.33618 -8.0809,-5.18962 -12.974,-5.18962 -4.8934,0 -9.6381,1.92756 -12.9744,5.18962 l -16.6809,16.31036 c -7.1171,7.11721 -7.1171,18.75683 0,25.79995 l 6.9688,6.96896 c 3.7072,3.33621 5.7829,7.78446 5.7829,12.52927 0,9.48964 -7.7103,17.348262 -16.9035,17.348262 l -11.2689,0 c -10.1568,0 -18.6827,7.932742 -18.6827,18.015482 l 0,11.268958 0,11.268959 c 0,10.008582 8.5259,18.015482 18.6827,18.015482 l 11.2689,0 c 9.1932,0 16.9035,7.932742 16.9035,17.348265 0,4.744807 -2.0757,9.193085 -5.7829,12.5292673 l -6.9688,6.89480497 c -7.1171,7.11724403 -7.1171,18.75688973 0,25.80000973 l 16.5326,16.458576 c 3.2623,3.336183 8.0813,5.189651 12.9744,5.189651 4.893,0 9.6378,-1.927592 12.974,-5.189651 l 7.1915,-7.117244 c 3.1136,-3.484465 7.562,-5.486181 12.3068,-5.486181 9.4894,0 17.4224,7.710336 17.4224,16.829263 l 0,11.268959 c 0,10.008616 8.0067,18.608608 18.1638,18.608608 l 22.5378,0 c 10.0828,0 18.0894,-8.525868 18.0894,-18.608608 l 0,-11.268959 c 0,-9.118927 7.933,-16.829263 17.4225,-16.829263 4.7448,0 9.1932,2.075874 12.6034,5.70862 l 6.9692,6.968929 c 3.3362,3.262059 8.081,5.189651 12.974,5.189651 4.8931,0 9.6378,-1.927592 12.9741,-5.189651 l 16.5329,-16.458576 c 7.1171,-7.117244 7.1171,-18.7568897 0,-25.87413373 l -7.2658,-7.11720997 c -3.5585,-3.1879353 -5.5603,-7.5620553 -5.5603,-12.2327383 0,-9.489647 7.7104,-17.348265 16.9036,-17.348265 l 11.2689,0 c 10.0828,0 17.2742,-7.932742 17.2742,-18.015482 l 0,-11.343083 0,-11.268958 c 0.1473,-10.08274 -7.0431,-18.015482 -17.1259,-18.015482 z m -65.0188,29.28444 0,0 c 0,32.694781 -26.4674,59.3102553 -59.3103,59.3102553 -32.8432,0 -59.3103,-26.6154743 -59.3103,-59.3102553 l 0,0 0,0 c 0,-32.69478 26.4671,-59.310252 59.3103,-59.310252 32.8429,0 59.3103,26.615472 59.3103,59.310252 l 0,0 z"
       class="function" />
    <g
       transform="matrix(20.79899,0,0,20.79899,48.22016,-21986.979)"
 />
    <g
       transform="matrix(11.16989,0,0,11.16989,1028.5571,-686.79603)"
       style="fill:none;fill-rule:evenodd;stroke:none;stroke-width:1"
>
      <g
         style="fill:#000000"
>
        <path
           d="m 13.12442,0 0,4 1,0 0,-4 -1,0 0,0 z m 6.402508,2.5768639 -3.108584,2.5172816 0.62932,0.7771459 3.108584,-2.5172815 -0.62932,-0.777146 0,0 z m 2.004928,6.7355595 -3.89748,-0.8998042 -0.224951,0.97437 3.89748,0.8998048 0.224951,-0.9743706 0,0 z M 5.9419353,10.286794 9.8394156,9.3869892 9.6144645,8.4126192 5.7169843,9.3124234 l 0.224951,0.9743706 0,0 z M 7.0925924,3.3540099 10.201176,5.8712914 10.830497,5.0941455 7.7219128,2.5768639 l -0.6293204,0.777146 0,0 z M 19.623159,31 c 4.142832,0 7.501261,-3.585225 7.501261,-7.5 0,0 0,2.313244 0,0 l 0,-3.750838 0,-2.247486 C 27.12442,16.672323 26.458623,16 25.62442,16 c -0.828427,0 -1.5,0.671189 -1.5,1.501676 l 0,0.498324 -1,0 0,-2.493561 C 23.12442,14.674456 22.458623,14 21.62442,14 c -0.828427,0 -1.5,0.671541 -1.5,1.506439 l 0,1.493561 -1,0 0,-2.493561 C 19.12442,13.674456 18.458623,13 17.62442,13 c -0.828427,0 -1.5,0.671541 -1.5,1.506439 l 0,3.493561 -1,0 0,-10.4947588 C 15.12442,6.6739194 14.458623,6 13.62442,6 c -0.828427,0 -1.5,0.6671298 -1.5,1.5052412 l 0,11.2947468 c -2.058399,-2.200421 -4.7683699,-4.620867 -5.878967,-3.504273 -1.0871697,1.093041 1.7143293,4.105007 5.626343,10.687379 1.76262,2.965794 3.992909,5.016448 7.751363,5.016906 l 0,0 z m 8.501261,-7.5 c 0,4.694421 -3.805579,8.5 -8.5,8.5 -3.112915,0 -6.398193,-1.452514 -8.659179,-5.571777 C 7.7017521,20.482516 3.5282732,16.583208 5.5155336,14.595947 6.9371827,13.174298 9.169262,14.538167 11.12442,16.366787 l 0,0 0,-8.8583784 C 11.12442,6.1154175 12.243709,5 13.62442,5 c 1.390338,0 2.5,1.1230528 2.5,2.5084086 l 0,4.9899564 C 16.542251,12.185305 17.061617,12 17.62442,12 c 1.082518,0 1.994885,0.677467 2.345818,1.628124 C 20.411013,13.237989 20.990131,13 21.62442,13 c 1.390338,0 2.5,1.118226 2.5,2.497627 l 0,0.01346 c 0.417831,-0.312572 0.937197,-0.496897 1.5,-0.496897 1.390338,0 2.5,1.119344 2.5,2.500126 l 0,5.985683 0,0 z"
 />
      </g>
    </g>
    <g
       transform="translate(2095.4396,-1086.227)">
      <circle
         style="fill:#ffca02;fill-opacity:1"
         r="125"
         cy="618.07642"
         cx="-525.71436"
         class="st0" />
      <path
         d="m -461.21423,618.07645 c 13.5,0 23.1,13.1 19.1,25.9 -11.1,35.7 -44.3,61.6 -83.6,61.6 -39.3,0 -72.5,-25.9 -83.6,-61.6 -4,-12.9 5.6,-25.9 19.1,-25.9 l 129,0 z"
         class="st2"
         />
      <path
         style="fill:#ffffff;fill-opacity:1"
         d="m -461.21423,618.07645 -129,0 c -6.8,0 -12.5,3.3 -16.1,8.2 2.9,6.8 9.7,11.8 17.9,11.8 l 125.5,0 c 8.2,0 14.9,-5 17.9,-11.8 -3.7,-4.9 -9.5,-8.2 -16.2,-8.2 z"
         class="st1"
         />
    </g>
    <path
       d="m 557.12952,-461.84176 -58.7939,-30.59622 0,-13.38633 58.7939,-30.72149 0,17.31949 -41.1168,20.30005 41.1168,19.75195 0,17.33255 z m 44.5933,-91.12834 -24.9483,109.617 -14.5582,0 24.9483,-109.617 14.5582,0 z m 45.9766,54.04384 -41.1221,-20.29744 0,-17.31949 58.7939,30.71888 0,13.38633 -58.7939,30.59622 0,-17.33255 41.1221,-19.75195 z"
 />
    <g
       transform="matrix(1.0942844,0,0,1.0942844,208.99365,-1378.0112)">
      <path
         style="clip-rule:evenodd;fill:#ffffff;fill-rule:evenodd;stroke:#000000;stroke-width:5;stroke-linejoin:round;stroke-miterlimit:1.41420996;stroke-dasharray:none;stroke-opacity:1"
         d="m 1009.4538,1113.8829 c 0,-9.8823 -8.0112,-17.893 -17.89351,-17.893 l -354.75469,0 c -9.8823,0 -17.89351,8.0107 -17.89351,17.893 l 0,291.0419 c 0,9.8823 8.01121,17.893 17.89351,17.893 l 354.75469,0 c 9.88231,0 17.89351,-8.0107 17.89351,-17.893 l 0,-291.0419 z"
         />
      <path
         style="clip-rule:evenodd;fill:#d9d6d4;fill-rule:evenodd;stroke-linejoin:round;stroke-miterlimit:1.41420996"
         d="m 1007.4538,1115.8829 0,35.8557 -386.54171,0 0,-35.8557 c 5.2e-4,-9.8823 8.01173,-17.893 17.89351,-17.893 l 350.75469,0 c 9.88181,0 17.89301,8.0107 17.89351,17.893 z"
         sodipodi:nodetypes="ccccssc" />
      <path
         style="clip-rule:evenodd;fill:#f53939;fill-rule:evenodd;stroke-linejoin:round;stroke-miterlimit:1.41420996"
         d="m 654.15974,1105.2886 c 9.70685,-0.6138 18.07312,6.7575 18.68692,16.4639 0.6138,9.7068 -6.75757,18.0731 -16.4639,18.6869 -9.70684,0.6138 -18.07311,-6.7571 -18.68691,-16.4639 -0.61381,-9.7069 6.75757,-18.0731 16.46389,-18.6869 z"
         />
      <path
         style="clip-rule:evenodd;fill:#ea9b38;fill-rule:evenodd;stroke-linejoin:round;stroke-miterlimit:1.41420996"
         d="m 700.17785,1105.2886 c 9.70685,-0.6138 18.07312,6.7575 18.68692,16.4639 0.6138,9.7068 -6.75757,18.0731 -16.46442,18.6869 -9.70632,0.6138 -18.07311,-6.7571 -18.68691,-16.4639 -0.61381,-9.7069 6.75756,-18.0731 16.46441,-18.6869 z"
         />
      <path
         style="clip-rule:evenodd;fill:#8cc666;fill-rule:evenodd;stroke-linejoin:round;stroke-miterlimit:1.41420996"
         d="m 746.19544,1105.2886 c 9.70685,-0.6138 18.07312,6.7575 18.68692,16.4639 0.6138,9.7068 -6.75705,18.0731 -16.4639,18.6869 -9.70684,0.6138 -18.07311,-6.7571 -18.68691,-16.4639 -0.61381,-9.7069 6.75757,-18.0731 16.46389,-18.6869 z"
         />
      <rect
         style="opacity:1;fill:#ffffff;fill-opacity:1;fill-rule:nonzero;stroke:#000000;stroke-width:4.61285305;stroke-linecap:round;stroke-miterlimit:1.41420996;stroke-dasharray:none;stroke-opacity:1"
         width="110.70847"
         height="86.985229"
         x="666.44434"
         y="1184.3715"
         ry="0.5911842" />
      <path
         style="fill:none;fill-rule:evenodd;stroke:#000000;stroke-width:5;stroke-linecap:round;stroke-linejoin:miter;stroke-miterlimit:4;stroke-dasharray:none;stroke-opacity:1"
         d="m 801.99989,1189.0494 151.42857,0"
         />
      <path
         style="fill:none;fill-rule:evenodd;stroke:#000000;stroke-width:3.23134303;stroke-linecap:butt;stroke-linejoin:miter;stroke-miterlimit:4;stroke-dasharray:none;stroke-opacity:1"
         d="m 800.16911,1209.3558 155.79496,0"
         />
      <path
         style="fill:none;fill-rule:evenodd;stroke:#000000;stroke-width:3.05283237;stroke-linecap:round;stroke-linejoin:miter;stroke-miterlimit:4;stroke-dasharray:none;stroke-opacity:1"
         d="m 649.50018,1290.5814 304.91573,0"
         />
      <path
         d="m 800.16911,1229.6622 155.79496,0"
         style="fill:none;fill-rule:evenodd;stroke:#000000;stroke-width:3.23134303;stroke-linecap:butt;stroke-linejoin:miter;stroke-miterlimit:4;stroke-dasharray:none;stroke-opacity:1" />
      <path
         style="fill:none;fill-rule:evenodd;stroke:#000000;stroke-width:3.23134303;stroke-linecap:butt;stroke-linejoin:miter;stroke-miterlimit:4;stroke-dasharray:none;stroke-opacity:1"
         d="m 800.16911,1249.9686 155.79496,0"
         />
      <path
         d="m 800.16911,1270.275 155.79496,0"
         style="fill:none;fill-rule:evenodd;stroke:#000000;stroke-width:3.23134303;stroke-linecap:butt;stroke-linejoin:miter;stroke-miterlimit:4;stroke-dasharray:none;stroke-opacity:1" />
      <path
         d="m 649.50018,1310.8878 304.91573,0"
         style="fill:none;fill-rule:evenodd;stroke:#000000;stroke-width:3.05283237;stroke-linecap:round;stroke-linejoin:miter;stroke-miterlimit:4;stroke-dasharray:none;stroke-opacity:1" />
      <path
         style="fill:none;fill-rule:evenodd;stroke:#000000;stroke-width:3.05283237;stroke-linecap:round;stroke-linejoin:miter;stroke-miterlimit:4;stroke-dasharray:none;stroke-opacity:1"
         d="m 649.50018,1331.1942 304.91573,0"
         />
      <path
         d="m 649.50018,1351.5006 304.91573,0"
         style="fill:none;fill-rule:evenodd;stroke:#000000;stroke-width:3.05283237;stroke-linecap:round;stroke-linejoin:miter;stroke-miterlimit:4;stroke-dasharray:none;stroke-opacity:1" />
      <path
         style="fill:none;fill-rule:evenodd;stroke:#000000;stroke-width:3.05283237;stroke-linecap:round;stroke-linejoin:miter;stroke-miterlimit:4;stroke-dasharray:none;stroke-opacity:1"
         d="m 649.50018,1371.807 304.91573,0"
         />
      <path
         d="m 649.50018,1392.1134 304.91573,0"
         style="fill:none;fill-rule:evenodd;stroke:#000000;stroke-width:3.05283237;stroke-linecap:round;stroke-linejoin:miter;stroke-miterlimit:4;stroke-dasharray:none;stroke-opacity:1" />
    </g>
    <g
>
      <circle
         r="182.82866"
         cy="711.14722"
         cx="-542.61981"
         style="opacity:1;fill:#ead2a9;fill-opacity:1;fill-rule:nonzero;stroke:#000000;stroke-width:10;stroke-linecap:round;stroke-linejoin:round;stroke-miterlimit:4;stroke-dasharray:none;stroke-opacity:1" />
      <path
         sodipodi:nodetypes="cccccccccccc"
         d="m -605.40735,468.75181 c -7.29459,2.91784 -79.66869,38.40355 -102.52592,135.09889 0,0 -21.02768,1.71156 -22.07001,-21.24519 0,0 -34.22457,66.16204 7.98303,162.26074 l -3.42897,-26.8734 c 2.9e-4,-100.97383 82.34527,-188.20808 183.3191,-188.2073 48.6995,9.07507 49.83124,30.94362 78.82852,72.55609 0,0 -15.75026,-73.97188 74.92965,-91.79133 -0.0354,-0.0708 -48.73198,-20.35866 -94.23318,-14.57042 0,0 -24.43076,-23.45179 34.97701,-44.33559 -0.47813,0.12582 -78.55065,-1.02632 -139.34062,48.58568 0,0 -42.89735,11.06904 -18.43861,-31.47817 z"
         style="fill:#93710c;fill-opacity:1;fill-rule:evenodd;stroke:#000000;stroke-width:10;stroke-linecap:butt;stroke-linejoin:miter;stroke-miterlimit:4;stroke-dasharray:none;stroke-opacity:1" />
      <ellipse
         ry="56.706215"
         rx="29.330801"
         cy="686.7049"
         cx="-535.77588"
         style="opacity:1;fill:#f5f5f5;fill-opacity:1;fill-rule:nonzero;stroke:#000000;stroke-width:10;stroke-linecap:round;stroke-linejoin:round;stroke-miterlimit:4;stroke-dasharray:none;stroke-opacity:1" />
      <ellipse
         style="opacity:1;fill:#f5f5f5;fill-opacity:1;fill-rule:nonzero;stroke:#000000;stroke-width:10;stroke-linecap:round;stroke-linejoin:round;stroke-miterlimit:4;stroke-dasharray:none;stroke-opacity:1"
         cx="-428.22964"
         cy="686.7049"
         rx="29.330801"
         ry="56.706215" />
      <path
         d="m -569.87565,782.35911 c 0,0 35.05531,25.2398 78.52386,25.2398 43.46857,0 86.93713,-23.83759 86.93713,-23.83759 0,0 -40.66412,75.71943 -93.94816,77.12162 -53.28403,1.40221 -71.51283,-78.52383 -71.51283,-78.52383 z"
         style="fill:#f5f5f5;fill-opacity:1;fill-rule:evenodd;stroke:#000000;stroke-width:10;stroke-linecap:butt;stroke-linejoin:miter;stroke-miterlimit:4;stroke-dasharray:none;stroke-opacity:1" />
    </g>
    <g
       class="audio">
      <path
         sodipodi:nodetypes="ccc"
         d="m 149.3387,-366.76393 c 26.71293,-26.9798 41.71736,-63.39991 41.76135,-101.36685 -0.0659,-35.24897 -13.0307,-69.25495 -36.44808,-95.60113"
         style="opacity:1;fill:none;fill-opacity:0.94117647;fill-rule:nonzero;stroke:#000000;stroke-width:20.50031471;stroke-linecap:round;stroke-linejoin:round;stroke-miterlimit:4;stroke-dasharray:none;stroke-opacity:1" />
      <path
         style="opacity:1;fill:none;fill-opacity:0.94117647;fill-rule:nonzero;stroke:#000000;stroke-width:20.50031471;stroke-linecap:round;stroke-linejoin:round;stroke-miterlimit:4;stroke-dasharray:none;stroke-opacity:1"
         d="m 97.85835,-392.51926 c 20.03471,-20.23485 31.28803,-47.54994 31.32099,-76.02514 -0.0494,-26.43673 -9.77299,-51.94121 -27.33606,-71.70085"
         sodipodi:nodetypes="ccc" />
      <path
         sodipodi:nodetypes="ccc"
         d="m 46.378002,-416.00699 c 13.356447,-13.4899 20.85866,-31.69996 20.880677,-50.68343 -0.0328,-17.62448 -6.515369,-34.62747 -18.224041,-47.80056"
         style="opacity:1;fill:none;fill-opacity:0.94117647;fill-rule:nonzero;stroke:#000000;stroke-width:20.50031471;stroke-linecap:round;stroke-linejoin:round;stroke-miterlimit:4;stroke-dasharray:none;stroke-opacity:1" />
    </g>
    <path
       d="m 148.73932,7.6190609 -4.5894,0 c -3.74406,0 -6.88418,-3.23073 -6.88418,-7.06531999 0,-1.93238001 0.81522,-3.68361001 2.26451,-4.98193001 l 2.95892,-2.89861 c 2.92879,-2.8985699 2.92879,-7.6389499 0,-10.5375299 l -6.73311,-6.67279 c -1.32845,-1.32854 -3.2911,-2.11355 -5.28388,-2.11355 -1.99273,0 -3.92523,0.78501 -5.28383,2.11355 l -2.83825,2.83821 c -1.35875,1.50968 -3.1703,2.3249 -5.13294,2.3249 -3.86469,0 -7.09554,-3.14016 -7.09554,-6.85395 l 0,-4.61963 c 0,-4.07613 -3.29106,-7.57858 -7.39741,-7.57858 l -9.178812,0 c -4.10636,0 -7.36731,3.47227 -7.36731,7.57858 l 0,4.58943 c 0,3.71382 -3.23066,6.85393 -7.09538,6.85393 -1.93238,0 -3.71379,-0.81521 -5.0121,-2.23432 l -2.92883,-2.89857 c -1.32858,-1.35872 -3.29106,-2.11355 -5.28384,-2.11355 -1.9929,0 -3.92524,0.78501 -5.28399,2.11355 l -6.79352,6.64258 c -2.89853,2.89861 -2.89853,7.63899 0,10.5073799 l 2.83814,2.83822 c 1.5098,1.35871 2.35516,3.1703 2.35516,5.10268001 0,3.86480999 -3.14012,7.06531999 -6.88417,7.06531999 l -4.58941,0 c -4.13649,0 -7.60877,3.2307001 -7.60877,7.3370601 l 0,4.5894 0,4.58945 c 0,4.07613 3.47228,7.33705 7.60877,7.33705 l 4.58941,0 c 3.74405,0 6.88417,3.23069 6.88417,7.06528 0,1.93238 -0.84536,3.74401 -2.35516,5.10272 l -2.83814,2.808 c -2.89853,2.89857 -2.89853,7.63899 0,10.50738 l 6.73312,6.70298 c 1.32862,1.35871 3.29121,2.11353 5.28399,2.11353 1.99274,0 3.92513,-0.78504 5.28384,-2.11353 l 2.92883,-2.89861 c 1.26805,-1.41907 3.07972,-2.23429 5.01211,-2.23429 3.86468,0 7.0955,3.14013 7.0955,6.85392 l 0,4.58944 c 0,4.07614 3.26083,7.5786 7.39744,7.5786 l 9.178812,0 c 4.10636,0 7.36715,-3.47228 7.36715,-7.5786 l 0,-4.58944 c 0,-3.71379 3.23082,-6.85392 7.09554,-6.85392 1.93238,0 3.74405,0.8454 5.1329,2.3249 l 2.8383,2.83818 c 1.35871,1.32853 3.2911,2.11357 5.28383,2.11357 1.99278,0 3.92512,-0.78504 5.28387,-2.11357 l 6.73324,-6.70298 c 2.89853,-2.89857 2.89853,-7.63899 0,-10.53756 l -2.95909,-2.89858 c -1.44925,-1.29831 -2.2645,-3.07976 -2.2645,-4.98192 0,-3.86481 3.14015,-7.06533 6.88421,-7.06533 l 4.5894,0 c 4.10636,0 7.03515,-3.23074 7.03515,-7.33704 l 0,-4.61963 0,-4.5894 c 0.06,-4.10636 -2.8684,-7.3370601 -6.97475,-7.3370601 z m -26.47976,11.9264601 0,0 c 0,13.31539 -10.77919,24.15489 -24.154892,24.15489 -13.37582,0 -24.15489,-10.8395 -24.15489,-24.15489 l 0,0 0,0 c 0,-13.3153901 10.77907,-24.1548601 24.15489,-24.1548601 13.375702,0 24.154892,10.83947 24.154892,24.1548601 l 0,0 z"
       class="function"
       />
    <g
       transform="matrix(12.417714,0,0,12.417714,-1108.2432,731.21602)"
>
      <circle
         r="3.4252815"
         cy="7.5403247"
         cx="12.691252" />
      <path
         d="m 12.691252,12.678247 c -5.2235548,0 -6.8505636,3.425282 -6.8505636,3.425282 l 0,3.781428 13.7011266,0 0,-3.781428 c 0,0 -1.627009,-3.425282 -6.850563,-3.425282 z"
         sodipodi:nodetypes="sccccs" />
    </g>
    <g
       class="input-server"
       transform="translate(1209.1107,124.31331)">
      <circle
         r="44.425819"
         cy="376.43896"
         cx="195.34296"
         style="opacity:1;fill:#39ff00;fill-opacity:1;fill-rule:nonzero;stroke:none;stroke-width:5;stroke-linecap:round;stroke-linejoin:round;stroke-miterlimit:4;stroke-dasharray:none;stroke-opacity:1" />
      <text
         sodipodi:linespacing="125%"
         y="387.44214"
         x="166.37749"
         style="font-style:normal;font-weight:normal;font-size:30.22740173px;line-height:125%;font-family:sans-serif;letter-spacing:0px;word-spacing:0px;fill:#000000;fill-opacity:1;stroke:none;stroke-width:1px;stroke-linecap:butt;stroke-linejoin:miter;stroke-opacity:1"
         xml:space="preserve"><tspan
           style="fill:#ffffff;fill-opacity:1"
           y="387.44214"
           x="166.37749"
           sodipodi:role="line">200</tspan></text>
    </g>
    <g
       transform="translate(-344.26719,203.43061)">
      <path
         d="m 177.84568,-706.38456 0,51.30063"
         style="fill:none;fill-rule:evenodd;stroke:#ff7511;stroke-width:12.48879242;stroke-linecap:round;stroke-linejoin:miter;stroke-miterlimit:4;stroke-dasharray:none;stroke-opacity:1" />
      <path
         d="m 152.28255,-733.25632 0,105.04415"
         style="fill:none;fill-rule:evenodd;stroke:#ff11e7;stroke-width:12.48879242;stroke-linecap:round;stroke-linejoin:miter;stroke-miterlimit:4;stroke-dasharray:none;stroke-opacity:1" />
      <path
         d="m 126.7195,-768.67819 0,175.88788"
         style="fill:none;fill-rule:evenodd;stroke:#11ffef;stroke-width:12.48879242;stroke-linecap:round;stroke-linejoin:miter;stroke-miterlimit:4;stroke-dasharray:none;stroke-opacity:1" />
      <path
         d="m 101.15644,-721.04188 0,80.61527"
         style="fill:none;fill-rule:evenodd;stroke:#1139ff;stroke-width:12.48879242;stroke-linecap:round;stroke-linejoin:miter;stroke-miterlimit:4;stroke-dasharray:none;stroke-opacity:1" />
      <path
         d="m 75.593381,-768.67818 0,175.88787"
         style="fill:none;fill-rule:evenodd;stroke:#fff811;stroke-width:12.48879242;stroke-linecap:round;stroke-linejoin:miter;stroke-miterlimit:4;stroke-dasharray:none;stroke-opacity:1" />
      <path
         d="m 50.030322,-725.92766 0,90.38683"
         style="fill:none;fill-rule:evenodd;stroke:#7cff11;stroke-width:12.48879242;stroke-linecap:round;stroke-linejoin:miter;stroke-miterlimit:4;stroke-dasharray:none;stroke-opacity:1" />
      <path
         d="m 24.467263,-741.80643 0,122.14436"
         style="fill:none;fill-rule:evenodd;stroke:#ff1111;stroke-width:12.48879242;stroke-linecap:round;stroke-linejoin:miter;stroke-miterlimit:4;stroke-dasharray:none;stroke-opacity:1" />
    </g>
    <circle
       style="opacity:0.93999999;fill:#000000;fill-opacity:1;fill-rule:nonzero;stroke:#020202;stroke-width:1;stroke-linecap:round;stroke-linejoin:round;stroke-miterlimit:4;stroke-dasharray:none;stroke-opacity:1"
       cx="2138.3435"
       cy="1044.0634"
       r="229.6022" />
    <g
>
      <circle
         transform="scale(-1,1)"
         style="opacity:1;fill:#ead2a9;fill-opacity:1;fill-rule:nonzero;stroke:#000000;stroke-width:10;stroke-linecap:round;stroke-linejoin:round;stroke-miterlimit:4;stroke-dasharray:none;stroke-opacity:1"
         cx="1115.7418"
         cy="534.10455"
         r="182.82866" />
      <ellipse
         transform="scale(-1,1)"
         style="opacity:1;fill:#f5f5f5;fill-opacity:1;fill-rule:nonzero;stroke:#000000;stroke-width:10;stroke-linecap:round;stroke-linejoin:round;stroke-miterlimit:4;stroke-dasharray:none;stroke-opacity:1"
         cx="1122.5857"
         cy="509.6622"
         rx="29.330801"
         ry="56.706215" />
      <ellipse
         transform="scale(-1,1)"
         ry="56.706215"
         rx="29.330801"
         cy="509.6622"
         cx="1230.132"
         style="opacity:1;fill:#f5f5f5;fill-opacity:1;fill-rule:nonzero;stroke:#000000;stroke-width:10;stroke-linecap:round;stroke-linejoin:round;stroke-miterlimit:4;stroke-dasharray:none;stroke-opacity:1" />
      <path
         d="m -1233.3894,638.02221 c 0,0 44.0115,18.58261 77.2646,17.60458 33.253,-0.97803 67.4841,-31.29702 67.4841,-31.29702"
         style="fill:none;fill-rule:evenodd;stroke:#000000;stroke-width:10;stroke-linecap:butt;stroke-linejoin:miter;stroke-miterlimit:4;stroke-dasharray:none;stroke-opacity:1"
         sodipodi:nodetypes="csc" />
      <path
         sodipodi:nodetypes="csccccscsc"
         d="m -1017.9953,568.26116 c 0,0 11.9195,-143.81866 -39.6774,-156.53278 -116.1035,-28.60934 -229.1514,67.39782 -302.475,-102.15621 0,0 68.1677,42.51927 111.2011,40.56321 0,0 -28.363,-38.89414 -36.1873,-59.43281 0,0 44.0116,47.69643 159.4194,27.15775 0,0 65.528,-16.62653 118.3418,14.67048 65.48278,38.80463 90.9569,101.71531 89.97887,158.44115 0,0 -0.97803,89.0009 -19.56064,98.78122 -18.5826,9.78031 -81.04083,-21.49201 -81.04083,-21.49201 z"
         style="fill:#f1d60c;fill-opacity:1;fill-rule:evenodd;stroke:#000000;stroke-width:10;stroke-linecap:butt;stroke-linejoin:miter;stroke-miterlimit:4;stroke-dasharray:none;stroke-opacity:1" />
    </g>
  </g>
</svg>
