<svg
   xmlns:dc="http://purl.org/dc/elements/1.1/"
   xmlns:cc="http://creativecommons.org/ns#"
   xmlns:rdf="http://www.w3.org/1999/02/22-rdf-syntax-ns#"
   xmlns:svg="http://www.w3.org/2000/svg"
   xmlns="http://www.w3.org/2000/svg"
   xmlns:sodipodi="http://sodipodi.sourceforge.net/DTD/sodipodi-0.dtd"
   xmlns:inkscape="http://www.inkscape.org/namespaces/inkscape"
   width="297mm"
   height="210mm"
   viewBox="0 0 1052.3622 744.09448"
   version="1.1"
   sodipodi:docname="you.svg"
  >
  <defs
 />
  <sodipodi:namedview
     pagecolor="#ffffff"
     bordercolor="#666666"
     borderopacity="1.0"
     showgrid="false"
     />
  <metadata
>
    <rdf:RDF>
      <cc:Work
         rdf:about="">
        <dc:format>image/svg+xml</dc:format>
        <dc:type
           rdf:resource="http://purl.org/dc/dcmitype/StillImage" />
        <dc:title />
      </cc:Work>
    </rdf:RDF>
  </metadata>
  <g
     transform="translate(0,-256.31496)"
>
    <path
       d="m 864.39398,457.09674 -4.5894,0 c -3.7441,0 -6.8842,-3.23073 -6.8842,-7.06532 0,-1.93238 0.8152,-3.68361 2.2645,-4.98193 l 2.9589,-2.89861 c 2.9288,-2.89857 2.9288,-7.63895 0,-10.53753 l -6.7331,-6.67279 c -1.3284,-1.32854 -3.2911,-2.11355 -5.2838,-2.11355 -1.9928,0 -3.9253,0.78501 -5.2839,2.11355 l -2.8382,2.83821 c -1.3588,1.50968 -3.1703,2.3249 -5.133,2.3249 -3.8646,0 -7.0955,-3.14016 -7.0955,-6.85395 l 0,-4.61963 c 0,-4.07613 -3.2911,-7.57858 -7.3974,-7.57858 l -9.1788,0 c -4.1064,0 -7.3673,3.47227 -7.3673,7.57858 l 0,4.58943 c 0,3.71382 -3.2307,6.85393 -7.0954,6.85393 -1.9324,0 -3.7138,-0.81521 -5.0121,-2.23432 l -2.9288,-2.89857 c -1.3286,-1.35872 -3.2911,-2.11355 -5.2839,-2.11355 -1.9929,0 -3.9252,0.78501 -5.284,2.11355 l -6.7935,6.64258 c -2.8985,2.89861 -2.8985,7.63899 0,10.50738 l 2.8381,2.83822 c 1.5098,1.35871 2.3552,3.1703 2.3552,5.10268 0,3.86481 -3.1401,7.06532 -6.8842,7.06532 l -4.5894,0 c -4.1365,0 -7.6087,3.2307 -7.6087,7.33706 l 0,4.5894 0,4.58945 c 0,4.07613 3.4722,7.33705 7.6087,7.33705 l 4.5894,0 c 3.7441,0 6.8842,3.23069 6.8842,7.06528 0,1.93238 -0.8454,3.74401 -2.3552,5.10272 l -2.8381,2.808 c -2.8985,2.89857 -2.8985,7.63899 0,10.50738 l 6.7331,6.70298 c 1.3286,1.35871 3.2912,2.11353 5.284,2.11353 1.9928,0 3.9251,-0.78504 5.2839,-2.11353 l 2.9288,-2.89861 c 1.268,-1.41907 3.0797,-2.23429 5.0121,-2.23429 3.8647,0 7.0955,3.14013 7.0955,6.85392 l 0,4.58944 c 0,4.07614 3.2608,7.5786 7.3974,7.5786 l 9.1789,0 c 4.1063,0 7.3671,-3.47228 7.3671,-7.5786 l 0,-4.58944 c 0,-3.71379 3.2308,-6.85392 7.0955,-6.85392 1.9324,0 3.7441,0.8454 5.1329,2.3249 l 2.8383,2.83818 c 1.3588,1.32853 3.2911,2.11357 5.2839,2.11357 1.9928,0 3.9251,-0.78504 5.2838,-2.11357 l 6.7333,-6.70298 c 2.8985,-2.89857 2.8985,-7.63899 0,-10.53756 l -2.9591,-2.89858 c -1.4493,-1.29831 -2.2645,-3.07976 -2.2645,-4.98192 0,-3.86481 3.1401,-7.06533 6.8842,-7.06533 l 4.5894,0 c 4.1064,0 7.0351,-3.23074 7.0351,-7.33704 l 0,-4.61963 0,-4.5894 c 0.06,-4.10636 -2.8684,-7.33706 -6.9747,-7.33706 z m -26.4798,11.92646 0,0 c 0,13.31539 -10.7791,24.15489 -24.1549,24.15489 -13.3758,0 -24.1548,-10.8395 -24.1548,-24.15489 l 0,0 0,0 c 0,-13.31539 10.779,-24.15486 24.1548,-24.15486 13.3758,0 24.1549,10.83947 24.1549,24.15486 l 0,0 z"
       class="function"
       />
    <g
       class="input-stream negative"
       style="opacity:0.1"
       transform="translate(2e-4,-15.092141)"
>
      <path
         style="opacity:1;fill:none;fill-opacity:0.94117647;fill-rule:nonzero;stroke:#000000;stroke-width:12.39998055;stroke-linecap:round;stroke-linejoin:round;stroke-miterlimit:4;stroke-dasharray:none;stroke-opacity:1"
         d="m -35.031494,816.81709 c 16.157789,-16.3192 25.2334851,-38.34856 25.2600949,-61.31354 -0.039813,-21.32097 -7.8818499,-41.89009 -22.0462739,-57.82605"
         sodipodi:nodetypes="ccc"
         />
      <path
         sodipodi:nodetypes="ccc"
         d="m -66.1703,801.23852 c 12.118346,-12.2394 18.925118,-28.76143 18.945062,-45.98515 -0.02988,-15.99073 -5.911371,-31.41758 -16.534703,-43.36954"
         style="opacity:1;fill:none;fill-opacity:0.94117647;fill-rule:nonzero;stroke:#000000;stroke-width:12.39998055;stroke-linecap:round;stroke-linejoin:round;stroke-miterlimit:4;stroke-dasharray:none;stroke-opacity:1"
         />
      <path
         style="opacity:1;fill:none;fill-opacity:0.94117647;fill-rule:nonzero;stroke:#000000;stroke-width:12.39998055;stroke-linecap:round;stroke-linejoin:round;stroke-miterlimit:4;stroke-dasharray:none;stroke-opacity:1"
         d="m -97.309106,787.03155 c 8.078885,-8.1596 12.616733,-19.17428 12.630047,-30.65677 -0.01986,-10.66048 -3.940938,-20.94505 -11.023142,-28.91303"
         sodipodi:nodetypes="ccc"
         />
    </g>
    <g
       class="input-stream"
       style="opacity:0.1"
       transform="translate(2e-4,15.092146)"
>
      <path
         d="m -3.76504,578.92424 0,30.92851"
         style="fill:none;fill-rule:evenodd;stroke:#ff7511;stroke-width:7.5293355;stroke-linecap:round;stroke-linejoin:miter;stroke-miterlimit:4;stroke-dasharray:none;stroke-opacity:1"
         />
      <path
         d="m -19.17673,562.7236 0,63.32979"
         style="fill:none;fill-rule:evenodd;stroke:#ff11e7;stroke-width:7.5293355;stroke-linecap:round;stroke-linejoin:miter;stroke-miterlimit:4;stroke-dasharray:none;stroke-opacity:1"
         />
      <path
         d="m -34.58837,541.3682 0,106.04058"
         style="fill:none;fill-rule:evenodd;stroke:#11ffef;stroke-width:7.5293355;stroke-linecap:round;stroke-linejoin:miter;stroke-miterlimit:4;stroke-dasharray:none;stroke-opacity:1"
         />
      <path
         d="m -50.00002,570.08753 0,48.60193"
         style="fill:none;fill-rule:evenodd;stroke:#1139ff;stroke-width:7.5293355;stroke-linecap:round;stroke-linejoin:miter;stroke-miterlimit:4;stroke-dasharray:none;stroke-opacity:1"
         />
      <path
         d="m -65.41166,541.36821 0,106.04057"
         style="fill:none;fill-rule:evenodd;stroke:#fff811;stroke-width:7.5293355;stroke-linecap:round;stroke-linejoin:miter;stroke-miterlimit:4;stroke-dasharray:none;stroke-opacity:1"
         />
      <path
         d="m -80.82331,567.14195 0,54.49308"
         style="fill:none;fill-rule:evenodd;stroke:#7cff11;stroke-width:7.5293355;stroke-linecap:round;stroke-linejoin:miter;stroke-miterlimit:4;stroke-dasharray:none;stroke-opacity:1"
         />
      <path
         d="m -96.23496,557.56884 0,73.6393"
         style="fill:none;fill-rule:evenodd;stroke:#ff1111;stroke-width:7.5293355;stroke-linecap:round;stroke-linejoin:miter;stroke-miterlimit:4;stroke-dasharray:none;stroke-opacity:1"
         />
    </g>
    <g
       transform="translate(1667.9131,123.73968)"
>
      <circle
         transform="scale(-1,1)"
         style="opacity:1;fill:#ead2a9;fill-opacity:1;fill-rule:nonzero;stroke:#000000;stroke-width:10;stroke-linecap:round;stroke-linejoin:round;stroke-miterlimit:4;stroke-dasharray:none;stroke-opacity:1"
         cx="1115.7418"
         cy="534.10455"
         r="182.82866"
 />
      <ellipse
         transform="scale(-1,1)"
         style="opacity:1;fill:#f5f5f5;fill-opacity:1;fill-rule:nonzero;stroke:#000000;stroke-width:10;stroke-linecap:round;stroke-linejoin:round;stroke-miterlimit:4;stroke-dasharray:none;stroke-opacity:1"
         cx="1122.5857"
         cy="509.6622"
         rx="29.330801"
         ry="56.706215"
 />
      <ellipse
         transform="scale(-1,1)"
         ry="56.706215"
         rx="29.330801"
         cy="509.6622"
         cx="1230.132"
         style="opacity:1;fill:#f5f5f5;fill-opacity:1;fill-rule:nonzero;stroke:#000000;stroke-width:10;stroke-linecap:round;stroke-linejoin:round;stroke-miterlimit:4;stroke-dasharray:none;stroke-opacity:1"
 />
      <path
         d="m -1233.3894,638.02221 c 0,0 44.0115,18.58261 77.2646,17.60458 33.253,-0.97803 67.4841,-31.29702 67.4841,-31.29702"
         style="fill:none;fill-rule:evenodd;stroke:#000000;stroke-width:10;stroke-linecap:butt;stroke-linejoin:miter;stroke-miterlimit:4;stroke-dasharray:none;stroke-opacity:1"
         sodipodi:nodetypes="csc"
         />
      <path
         sodipodi:nodetypes="csccccscsc"
         d="m -1017.9953,568.26116 c 0,0 11.9195,-143.81866 -39.6774,-156.53278 -116.1035,-28.60934 -229.1514,67.39782 -302.475,-102.15621 0,0 68.1677,42.51927 111.2011,40.56321 0,0 -28.363,-38.89414 -36.1873,-59.43281 0,0 44.0116,47.69643 159.4194,27.15775 0,0 65.528,-16.62653 118.3418,14.67048 65.48278,38.80463 90.9569,101.71531 89.97887,158.44115 0,0 -0.97803,89.0009 -19.56064,98.78122 -18.5826,9.78031 -81.04083,-21.49201 -81.04083,-21.49201 z"
         style="fill:#f1d60c;fill-opacity:1;fill-rule:evenodd;stroke:#000000;stroke-width:10;stroke-linecap:butt;stroke-linejoin:miter;stroke-miterlimit:4;stroke-dasharray:none;stroke-opacity:1"
         />
    </g>
  </g>
</svg>
