<svg xmlns="http://www.w3.org/2000/svg" width="1920" height="1080" viewBox="0 0 508 285.75" id="svg1165"><g id="layer1" transform="translate(0 -11.25)"><g transform="translate(4.812 77.672) scale(.25743)" id="g2522"><g id="g3345" transform="translate(0 49.06)"><g transform="translate(-113.637 -2.076)" id="g2508"><path id="path2502" d="M324.186 147.222H175.819c-13.78 0-24.946 11.171-24.946 24.94 0 13.78 11.166 24.951 24.946 24.951h148.367c13.774 0 24.951-11.171 24.951-24.951.001-13.769-11.176-24.94-24.951-24.94zm-3.282 33.474a8.535 8.535 0 0 1-8.534-8.534c0-4.71 3.824-8.529 8.534-8.529a8.53 8.53 0 0 1 8.533 8.529 8.53 8.53 0 0 1-8.533 8.534z"/><path id="path2504" d="M324.186 202.696H175.819c-13.78 0-24.946 11.165-24.946 24.946 0 13.781 11.166 24.946 24.946 24.946h148.367c13.774 0 24.951-11.165 24.951-24.946 0-13.781-11.176-24.946-24.951-24.946zm-3.282 33.486c-4.71 0-8.534-3.83-8.534-8.54 0-4.71 3.824-8.534 8.534-8.534 4.714 0 8.533 3.825 8.533 8.534 0 4.709-3.819 8.54-8.533 8.54z"/><path id="path2506" d="M324.186 258.171H175.819c-13.78 0-24.946 11.165-24.946 24.945 0 13.78 11.166 24.951 24.946 24.951h148.367c13.774 0 24.951-11.171 24.951-24.951 0-13.78-11.176-24.945-24.951-24.945zm-3.282 33.474c-4.71 0-8.534-3.813-8.534-8.528a8.535 8.535 0 0 1 8.534-8.534 8.531 8.531 0 0 1 8.533 8.534c.001 4.714-3.819 8.528-8.533 8.528z"/></g><g transform="translate(-113.638 -2.076)" id="g2514" fill="#ff931e"><path id="rect2510" d="M207.769 333.724h84.473v19.054h-84.473z"/><path id="rect2512" d="M244.282 314.03h11.437v28.58h-11.437z"/></g><g transform="translate(-113.632 -2.076)" id="g2520" fill="#ff931e"><path id="rect2516" d="M134.814 339.681h67.719v6.288h-67.719z"/><path id="rect2518" d="M297.472 339.681h67.714v6.288h-67.714z"/></g></g><g id="cv-view" class="hidden" stroke-linejoin="bevel"><path id="rect3128" fill="#fffdfd" stroke-width="2.115" paint-order="stroke fill markers" d="M267.277 236.238h85.904v121.493h-85.904z"/><path id="rect3132" fill="#5f5b5b" stroke-width="2.115" paint-order="stroke fill markers" d="M271.567 239.984h13.294v13.294h-13.294z"/><path id="rect3134" fill="#2b90e1" stroke-width="2.115" paint-order="stroke fill markers" d="M266.974 258.113h86.413v4.834h-86.413z"/><path id="rect3136" fill="#e1872b" stroke-width="2.115" paint-order="stroke fill markers" d="M290.421 242.522h32.329v3.626h-32.329z"/><path id="rect3138" fill="#e1942b" stroke-width="1.627" paint-order="stroke fill markers" d="M290.421 250.288h45.322v2.326h-45.322z"/><path id="rect3140" fill="#c4c4c4" stroke-width="2.115" paint-order="stroke fill markers" d="M269.543 266.19h18.908v16.878h-18.908z"/><path id="rect3142" fill="#c4c4c4" stroke-width="2.115" paint-order="stroke fill markers" d="M291.34 265.976h31.834v42.836H291.34z"/><path id="rect3144" fill="#c4c4c4" stroke-width="2.115" paint-order="stroke fill markers" d="M326.062 266.19h25.317v32.047h-25.317z"/></g><g id="cv-template" class="hidden" stroke-width="2.112" stroke-linejoin="bevel"><path id="rect3128-7" fill="#fffdfd" paint-order="stroke fill markers" d="M267.096 235.619h85.764v121.295h-85.764z"/><path id="rect3134-8" fill="#2b90e1" paint-order="stroke fill markers" d="M266.794 257.459h86.272v4.826h-86.272z"/></g><g id="cv-elements" class="hidden"><path class="cv-element" id="avatar" fill="#5f5b5b" stroke-width="2.115" stroke-linejoin="bevel" paint-order="stroke fill markers" d="M271.566 239.983h13.296v13.296h-13.296z"/><path class="cv-element" id="head-title" fill="#e1872b" stroke-width="2.115" stroke-linejoin="bevel" paint-order="stroke fill markers" d="M290.417 242.522h32.333v3.626h-32.333z"/><path class="cv-element" id="head-subtitle" fill="#e1942b" stroke-width="1.628" stroke-linejoin="bevel" paint-order="stroke fill markers" d="M290.416 250.288h45.327v2.326h-45.327z"/><path class="cv-element" id="content-left" fill="#c4c4c4" stroke-width="2.115" stroke-linejoin="bevel" paint-order="stroke fill markers" d="M269.543 266.188h18.91v16.88h-18.91z"/><path class="cv-element" id="content-middle" fill="#c4c4c4" stroke-width="2.115" stroke-linejoin="bevel" paint-order="stroke fill markers" d="M291.34 265.976h31.837v42.841H291.34z"/><path class="cv-element" id="content-right" fill="#c4c4c4" stroke-width="2.115" stroke-linejoin="bevel" paint-order="stroke fill markers" d="M326.062 266.186h25.32v32.051h-25.32z"/></g><text style="line-height:25.69449997px" x="697.535" y="-101.096" id="text3425" class="hidden view-mode" font-weight="400" font-size="41.111" font-family="sans-serif" letter-spacing="0" word-spacing="0" fill="#fff" stroke-width="1.028"><tspan id="tspan3423" x="697.535" y="-101.096" font-size="98.667">View mode</tspan></text><text style="line-height:25.69449997px" x="714.566" y="-98.623" id="text3429" class="hidden edit-mode" font-weight="400" font-size="41.111" font-family="sans-serif" letter-spacing="0" word-spacing="0" fill="#fff" stroke-width="1.028"><tspan id="tspan3427" x="714.566" y="-98.623" font-size="98.667">Edit mode</tspan></text></g></g></svg>