<svg xmlns="http://www.w3.org/2000/svg" width="1920" height="1080" viewBox="0 0 508 285.75" id="svg8"><g id="htmlstring" transform="translate(-31.75)"><circle id="circle873" cx="32.411" cy="197.239" r="23.688" fill="#fff" stroke-width="1.245" stroke-linejoin="bevel" paint-order="stroke fill markers"/><g aria-label="&quot;&lt;html&gt;&quot;" style="line-height:6.61458302px" id="text877" font-weight="400" font-size="8.467" font-family="DejaVu Sans Mono" letter-spacing="0" word-spacing="0" fill="red" stroke-width=".265"><path d="M15.737 194.305v2.295h-.72v-2.295zm-1.584 0v2.295h-.72v-2.295z" style="-inkscape-font-specification:'DejaVu Sans Mono'" id="path1058"/><path d="M21.863 196.505l-3.514 1.323 3.514 1.31v.757l-4.37-1.728v-.687l4.37-1.728z" style="-inkscape-font-specification:'DejaVu Sans Mono'" id="path1060"/><path d="M26.568 197.609v2.869h-.765v-2.87q0-.624-.219-.917-.22-.294-.686-.294-.534 0-.823.38-.285.377-.285 1.084v2.617h-.76v-6.433h.76v2.497q.202-.397.55-.6.347-.206.822-.206.707 0 1.054.467.352.463.352 1.406z" style="-inkscape-font-specification:'DejaVu Sans Mono'" id="path1062"/><path d="M29.855 194.533v1.314h1.728v.592h-1.728v2.513q0 .513.194.715.194.203.678.203h.856v.608h-.93q-.856 0-1.208-.343-.351-.344-.351-1.183v-2.513h-1.236v-.592h1.236v-1.314z" style="-inkscape-font-specification:'DejaVu Sans Mono'" id="path1064"/><path d="M35.204 196.319q.14-.298.356-.438.219-.145.525-.145.558 0 .785.434.232.43.232 1.625v2.683h-.695v-2.65q0-.98-.112-1.216-.107-.24-.396-.24-.331 0-.455.257-.12.252-.12 1.199v2.65h-.695v-2.65q0-.992-.12-1.224-.115-.232-.421-.232-.302 0-.422.257-.116.252-.116 1.199v2.65h-.69v-4.63h.69v.396q.137-.248.34-.376.206-.132.467-.132.314 0 .52.145.211.144.327.438z" style="-inkscape-font-specification:'DejaVu Sans Mono'" id="path1066"/><path d="M40.144 198.8q0 .512.186.772.19.26.558.26h.89v.646h-.964q-.682 0-1.058-.439-.372-.438-.372-1.24v-4.204h-1.22V194h1.98z" style="-inkscape-font-specification:'DejaVu Sans Mono'" id="path1068"/><path d="M42.96 196.505v-.753l4.37 1.728v.687l-4.37 1.728v-.757l3.514-1.31z" style="-inkscape-font-specification:'DejaVu Sans Mono'" id="path1070"/><path d="M51.39 194.305v2.295h-.72v-2.295zm-1.584 0v2.295h-.72v-2.295z" style="-inkscape-font-specification:'DejaVu Sans Mono'" id="path1072"/></g></g><g id="elements"><circle r="23.688" cy="85.866" cx="253.289" id="circle982" fill="#fff" stroke-width="1.245" stroke-linejoin="bevel" paint-order="stroke fill markers"/><g transform="translate(5.167 -5.754)" id="g1019" fill="none" stroke="red" stroke-width="1.323" stroke-linecap="round" stroke-linejoin="round"><rect ry="0" y="88.31" x="229.499" height="6.62" width="9.85" id="rect848" paint-order="stroke fill markers"/><rect id="rect878" width="9.85" height="6.62" x="256.894" y="88.31" ry="0" paint-order="stroke fill markers"/><rect ry="0" y="88.31" x="243.196" height="6.62" width="9.85" id="rect880" paint-order="stroke fill markers"/></g></g><g id="vnode-2" transform="translate(-49.742 42.333)"><circle id="circle873-3" cx="171.648" cy="154.533" r="23.688" fill="#fff" stroke-width="1.245" stroke-linejoin="bevel" paint-order="stroke fill markers"/><rect id="rect819" width="7.619" height="5.121" x="164.841" y="141.068" ry="0" fill="none" stroke="#2e0000" stroke-width="1.023" stroke-linecap="round" stroke-linejoin="round" paint-order="stroke fill markers"/><rect ry="0" y="151.818" x="158.95" height="5.121" width="7.619" id="rect823" fill="none" stroke="#2e0000" stroke-width="1.023" stroke-linecap="round" stroke-linejoin="round" paint-order="stroke fill markers"/><rect id="rect825" width="7.619" height="5.121" x="170.733" y="151.818" ry="0" fill="none" stroke="#2e0000" stroke-width="1.023" stroke-linecap="round" stroke-linejoin="round" paint-order="stroke fill markers"/><path d="M162.713 151.939l5.994-5.893 6.203 5.995" id="path829" fill="none" fill-rule="evenodd" stroke="#2e0000" stroke-width="1.023" stroke-linejoin="bevel"/><rect id="rect831" width="7.619" height="5.121" x="164.945" y="162.878" ry="0" fill="none" stroke="#2e0000" stroke-width="1.023" stroke-linecap="round" stroke-linejoin="round" paint-order="stroke fill markers"/><rect ry="0" y="162.878" x="176.728" height="5.121" width="7.619" id="rect833" fill="none" stroke="#2e0000" stroke-width="1.023" stroke-linecap="round" stroke-linejoin="round" paint-order="stroke fill markers"/><path id="path835" d="M168.708 162.998l5.995-5.891 6.202 5.994" fill="none" fill-rule="evenodd" stroke="#2e0000" stroke-width="1.023" stroke-linejoin="bevel"/></g><g id="vnode-1" transform="translate(-49.742 42.333)"><circle r="23.688" cy="154.533" cx="171.648" id="circle925" fill="#fff" stroke-width="1.245" stroke-linejoin="bevel" paint-order="stroke fill markers"/><rect ry="0" y="141.068" x="164.841" height="5.121" width="7.619" id="rect927" fill="none" stroke="#2e0000" stroke-width="1.023" stroke-linecap="round" stroke-linejoin="round" paint-order="stroke fill markers"/><rect id="rect929" width="7.619" height="5.121" x="158.95" y="151.818" ry="0" fill="none" stroke="#2e0000" stroke-width="1.023" stroke-linecap="round" stroke-linejoin="round" paint-order="stroke fill markers"/><rect ry="0" y="151.818" x="170.733" height="5.121" width="7.619" id="rect931" fill="none" stroke="#2e0000" stroke-width="1.023" stroke-linecap="round" stroke-linejoin="round" paint-order="stroke fill markers"/><path id="path933" d="M162.713 151.939l5.994-5.893 6.203 5.995" fill="none" fill-rule="evenodd" stroke="#2e0000" stroke-width="1.023" stroke-linejoin="bevel"/><rect ry="0" y="162.878" x="164.945" height="5.121" width="7.619" id="rect935" fill="none" stroke="#2e0000" stroke-width="1.023" stroke-linecap="round" stroke-linejoin="round" paint-order="stroke fill markers"/><rect id="rect937" width="7.619" height="5.121" x="176.728" y="162.878" ry="0" fill="none" stroke="#2e0000" stroke-width="1.023" stroke-linecap="round" stroke-linejoin="round" paint-order="stroke fill markers"/><path d="M168.708 162.998l5.995-5.891 6.202 5.994" id="path939" fill="none" fill-rule="evenodd" stroke="#2e0000" stroke-width="1.023" stroke-linejoin="bevel"/></g><g transform="translate(31.986 116.77)" id="g941"><path id="rect912" d="M58.265 55.656h62.541v49.445H58.265z" fill="#fffefe" stroke="#000" stroke-width="2.646" stroke-linejoin="bevel" paint-order="stroke fill markers"/><text style="line-height:6.61458302px;-inkscape-font-specification:'DejaVu Sans Mono'" x="67.224" y="84.324" id="text916" font-weight="400" font-size="10.583" letter-spacing="0" word-spacing="0" font-family="DejaVu Sans Mono" stroke-width=".265"><tspan x="67.224" y="84.324" style="-inkscape-font-specification:'DejaVu Sans Mono'" id="tspan918">toVnode</tspan></text></g><g transform="translate(77.314 21.357)" id="g976"><path id="rect922" d="M145.415 40.249h62.541v49.445h-62.541z" fill="#fff" stroke="#000" stroke-width="2.646" stroke-linejoin="bevel" paint-order="stroke fill markers"/><text id="text926" y="68.612" x="154.602" style="line-height:6.61458302px;-inkscape-font-specification:'DejaVu Sans Mono'" font-weight="400" font-size="10.583" letter-spacing="0" word-spacing="0" font-family="DejaVu Sans Mono" stroke-width=".265"><tspan id="tspan924" style="-inkscape-font-specification:'DejaVu Sans Mono'" y="68.612" x="154.602">extract</tspan></text></g><g id="final-vnode" transform="translate(60.854 40.217)"><circle id="circle1006" cx="325.686" cy="156.89" r="23.688" fill="#fff" stroke-width="1.245" stroke-linejoin="bevel" paint-order="stroke fill markers"/><g transform="translate(115.315 49.431) scale(.64709)" fill="none" stroke-width="1.323"><rect id="rect882" width="9.85" height="6.62" x="319.606" y="142.172" ry="0" stroke="#000" stroke-linecap="round" stroke-linejoin="round" paint-order="stroke fill markers"/><rect ry="0" y="156.07" x="311.989" height="6.62" width="9.85" id="rect884" stroke="#000" stroke-linecap="round" stroke-linejoin="round" paint-order="stroke fill markers"/><rect id="rect886" width="9.85" height="6.62" x="327.223" y="156.07" ry="0" stroke="#000" stroke-linecap="round" stroke-linejoin="round" paint-order="stroke fill markers"/><path d="M316.853 156.225l7.751-7.617 8.018 7.75" id="path888" fill-rule="evenodd" stroke="#000" stroke-linejoin="bevel"/><rect id="rect890" width="9.85" height="6.62" x="319.739" y="170.369" ry="0" stroke="#000" stroke-linecap="round" stroke-linejoin="round" paint-order="stroke fill markers"/><rect ry="0" y="170.369" x="334.974" height="6.62" width="9.85" id="rect892" stroke="#000" stroke-linecap="round" stroke-linejoin="round" paint-order="stroke fill markers"/><path id="path894" d="M324.604 170.524l7.751-7.617 8.018 7.75" fill-rule="evenodd" stroke="#000" stroke-linejoin="bevel"/><path id="path906" d="M310.305 170.39l6.95-7.483" fill-rule="evenodd" stroke="#000"/><rect id="rect898" width="9.85" height="6.62" x="305.381" y="170.085" ry="0" stroke="red" stroke-linecap="round" stroke-linejoin="round" paint-order="stroke fill markers"/><path id="path908" d="M324.664 177.34v5.757" fill-rule="evenodd" stroke="#000"/><rect ry="0" y="183.336" x="319.739" height="6.62" width="9.85" id="rect900" stroke="red" stroke-linecap="round" stroke-linejoin="round" paint-order="stroke fill markers"/><path id="path910" d="M339.899 177.34v5.757" fill-rule="evenodd" stroke="#000"/><rect id="rect902" width="9.85" height="6.62" x="334.974" y="183.336" ry="0" stroke="red" stroke-linecap="round" stroke-linejoin="round" paint-order="stroke fill markers"/></g></g><g transform="translate(72.437 124.253)" id="g971"><path id="rect928" d="M282.771 48.172h62.541v49.445h-62.541z" fill="#fff" stroke="#000" stroke-width="2.646" stroke-linejoin="bevel" paint-order="stroke fill markers"/><text id="text932" y="76.84" x="294.999" style="line-height:6.61458302px;-inkscape-font-specification:'DejaVu Sans Mono'" font-weight="400" font-size="10.583" letter-spacing="0" word-spacing="0" font-family="DejaVu Sans Mono" stroke-width=".265"><tspan id="tspan930" style="-inkscape-font-specification:'DejaVu Sans Mono'" y="76.84" x="294.999">insert</tspan></text></g></svg>