<svg xmlns="http://www.w3.org/2000/svg" xmlns:xlink="http://www.w3.org/1999/xlink" width="412.901" height="866.254" viewBox="0 0 109.24666 229.19635" id="svg5439"><defs id="defs5407"><linearGradient id="linearGradient6004"><stop id="stop6000" stop-color="#ef3b00" offset="0"/><stop id="stop6002" stop-color="#fff" offset="1"/></linearGradient><linearGradient id="linearGradient5998"><stop id="stop5994" stop-color="#ef3b00" offset="0"/><stop id="stop5996" stop-color="#f6f6f6" offset="1"/></linearGradient><linearGradient id="gradpause3a"><stop offset="0" stop-color="#ef3b00" id="stop5399"/><stop offset="1" stop-color="#f1f1f1" id="stop5401"/></linearGradient><linearGradient xlink:href="#linearGradient5998" id="gradpause3c" gradientUnits="userSpaceOnUse" x1="209.659" y1="98.766" x2="210.307" y2="230.155"/><linearGradient xlink:href="#linearGradient6004" id="gradpause3b" x1="217.322" y1="98.834" x2="218.827" y2="231.302" gradientUnits="userSpaceOnUse"/><linearGradient xlink:href="#gradpause3a" id="gradpause3d" x1="242.674" y1="99.008" x2="241.224" y2="231.996" gradientUnits="userSpaceOnUse"/></defs><g transform="translate(-170.273 -50.64)" id="g5437"><path d="M241.014 93.818l5.611 9.718h-38.943l5.51-9.546m-30.22 0l5.512 9.546h-17.276a.933.933 0 0 0-.935.935v122.082c0 .518.417.935.935.935h43.484l-5.968 10.337m31.28 0l-5.969-10.337h44.55a.933.933 0 0 0 .935-.935V104.471a.933.933 0 0 0-.935-.935h-12.961l5.61-9.718" id="rect5409" fill="none" stroke="#edaf1f" stroke-width="5.292"/><text y="58.494" x="188.102" style="line-height:6.61458349px" font-weight="400" font-size="10.583" font-family="sans-serif" letter-spacing="0" word-spacing="0" stroke-width=".265" id="text5413"><tspan y="58.494" x="188.102" id="tspan5411">RAF</tspan></text><text style="line-height:6.61458349px" x="212.09" y="279.686" font-weight="400" font-size="10.583" font-family="sans-serif" letter-spacing="0" word-spacing="0" stroke-width=".265" id="text5417"><tspan x="212.09" y="279.686" id="tspan5415">DOM</tspan></text><path d="M198.249 106.006v53.974l26.193 26.194v38.63" id="path5421" fill="none" fill-rule="evenodd" stroke="#a3caff" stroke-width="10.583" stroke-linejoin="round"/><text style="line-height:6.61458349px" x="243.157" y="58.494" font-weight="400" font-size="10.583" font-family="sans-serif" letter-spacing="0" word-spacing="0" stroke-width=".265" id="text5427"><tspan x="243.157" y="58.494" id="tspan5425">DOM</tspan></text><path d="M256.192 106.006v53.974l-31.296 27.254" id="path5429" fill="none" fill-rule="evenodd" stroke="#a3caff" stroke-width="10.583" stroke-linejoin="round"/><path class="stream out-stream" d="M224.896 187.234l-.522 75.632" stroke-miterlimit="10" fill="none" fill-rule="evenodd" stroke="url(#gradpause3b)" stroke-width="3.969" stroke-linecap="round" stroke-dasharray="3.969,7.93799999999999972" id="path5431"/><path d="M198.317 65.826l-.068 94.154 26.647 27.254" class="stream raf-stream" stroke-miterlimit="10" fill="none" fill-rule="evenodd" stroke="url(#gradpause3c)" stroke-width="3.969" stroke-linecap="round" stroke-dasharray="3.969,7.93799999999999883" id="path5433"/><path d="M255.996 65.826l.196 94.154-31.296 27.254" class="stream lf dom-stream" stroke-miterlimit="10" fill="none" fill-rule="evenodd" stroke="url(#gradpause3d)" stroke-width="3.969" stroke-linecap="round" stroke-dasharray="0,50.00000105" stroke-dashoffset="13.892" id="path5435"/></g></svg>