<svg xmlns="http://www.w3.org/2000/svg" width="1920" height="1080" viewBox="0 0 508 285.75001" id="svg10026"><g id="layer1" transform="translate(0 -11.25)"><rect class="appland" ry="1.298" id="rect4666" width="185.208" height="171.979" x="161.396" y="45.646"/><text style="line-height:6.61458349px" x="241.895" y="61.014" id="text4915" font-weight="400" font-size="10.583" letter-spacing="0" word-spacing="0" font-family="sans-serif" stroke-width=".265"><tspan id="tspan4913" x="241.895" y="61.014" font-size="12.7" fill="#fff">App</tspan></text><g transform="matrix(.513 0 0 .513 123.105 58.133)" id="g4505" stroke="#fff" stroke-width="3.969" stroke-linecap="round"><circle r="21.694" cy="139.316" cx="139.935" id="circle4499" fill="none" paint-order="stroke fill markers"/><path class="time-min" d="M139.935 139.316l10.419-11.564" id="path4501" fill="none"/><path class="time-hour" d="M140.269 139.316l-7.941-6.844" id="path4503" fill="none"/></g><path d="M209.875 129.602h57.76" id="path6350" class="stream" fill="none" fill-rule="evenodd" stroke="#fff" stroke-width=".265"/><path id="path10610" d="M287.203 133.62l-6.962-.405-4.282 5.505-1.765-6.747-6.559-2.37 5.871-3.765.228-6.97 5.394 4.42 6.7-1.936-2.538 6.496z" class="sideeffect-1 hidden" fill="#fff" stroke="#f7f9fc" stroke-width=".036" stroke-linecap="round" stroke-linejoin="round" paint-order="stroke fill markers"/><path class="sideeffect-2 hidden" d="M287.203 133.62l-6.962-.405-4.282 5.505-1.765-6.747-6.559-2.37 5.871-3.765.228-6.97 5.394 4.42 6.7-1.936-2.538 6.496z" id="path10612" fill="#fff" stroke="#f7f9fc" stroke-width=".036" stroke-linecap="round" stroke-linejoin="round" paint-order="stroke fill markers"/><path id="path10614" d="M287.203 133.62l-6.962-.405-4.282 5.505-1.765-6.747-6.559-2.37 5.871-3.765.228-6.97 5.394 4.42 6.7-1.936-2.538 6.496z" class="sideeffect-3 hidden" fill="#fff" stroke="#f7f9fc" stroke-width=".036" stroke-linecap="round" stroke-linejoin="round" paint-order="stroke fill markers"/></g></svg>