<?xml version="1.0" encoding="UTF-8" standalone="no"?>
<!-- Created with Inkscape (http://www.inkscape.org/) -->

<svg
   xmlns:dc="http://purl.org/dc/elements/1.1/"
   xmlns:cc="http://creativecommons.org/ns#"
   xmlns:rdf="http://www.w3.org/1999/02/22-rdf-syntax-ns#"
   xmlns:svg="http://www.w3.org/2000/svg"
   xmlns="http://www.w3.org/2000/svg"
   xmlns:sodipodi="http://sodipodi.sourceforge.net/DTD/sodipodi-0.dtd"
   xmlns:inkscape="http://www.inkscape.org/namespaces/inkscape"
   width="801.8717"
   height="464.56857"
   id="svg27183"
   version="1.1"
   inkscape:version="0.91 r13725"
   sodipodi:docname="backpacker.svg">
  <defs
     id="defs27185" />
  <sodipodi:namedview
     id="base"
     pagecolor="#ffffff"
     bordercolor="#666666"
     borderopacity="1.0"
     inkscape:pageopacity="0.0"
     inkscape:pageshadow="2"
     inkscape:zoom="0.55985477"
     inkscape:cx="71.315924"
     inkscape:cy="298.3286"
     inkscape:document-units="px"
     inkscape:current-layer="layer1"
     showgrid="false"
     inkscape:window-width="1680"
     inkscape:window-height="1001"
     inkscape:window-x="0"
     inkscape:window-y="2"
     inkscape:window-maximized="0"
     fit-margin-top="0"
     fit-margin-left="0"
     fit-margin-right="0"
     fit-margin-bottom="0" />
  <metadata
     id="metadata27188">
    <rdf:RDF>
      <cc:Work
         rdf:about="">
        <dc:format>image/svg+xml</dc:format>
        <dc:type
           rdf:resource="http://purl.org/dc/dcmitype/StillImage" />
        <dc:title></dc:title>
      </cc:Work>
    </rdf:RDF>
  </metadata>
  <g
     inkscape:label="Layer 1"
     inkscape:groupmode="layer"
     id="layer1"
     transform="translate(-210.35042,-577.60516)">
    <path
       sodipodi:nodetypes="sscccccccssscccsssssssssssssssscccsscsscssssccccccssscccsssccscsssssssssscsssssscssssssssssscsssssssscc"
       inkscape:connector-curvature="0"
       id="path3807"
       d="m 241.17716,1036.9128 c 2.14268,-0.9809 3.48426,-2.2997 4.55785,-4.4803 l 0.94994,-1.9293 0.0783,-35.51317 0.0782,-35.51304 1.73706,0 1.73707,0 0,35.27807 0,35.27814 0.62346,1.6662 c 1.83292,4.899 7.8043,7.4314 12.45975,5.2842 2.28867,-1.0555 3.60888,-2.3338 4.70054,-4.5511 l 0.94989,-1.9294 0.0772,-43.73518 0.0771,-43.73508 -1.80405,-0.85431 c -5.76082,-2.72801 -9.80167,-6.78034 -12.03012,-12.06422 -0.54319,-1.28797 -0.98764,-2.53858 -0.98764,-2.77919 0,-0.24061 -0.46962,-0.85105 -1.04366,-1.35662 -3.2689,-2.87896 -3.65057,-7.74987 -0.85502,-10.91149 0.79621,-0.90043 0.99518,-1.46525 1.44243,-4.0942 0.62617,-3.68024 2.07141,-8.82198 3.48339,-12.39273 0.57152,-1.44519 1.0391,-2.71748 1.0391,-2.82724 0,-0.10981 -6.30626,-0.16107 -14.01395,-0.11401 -15.60738,0.0954 -14.47176,-0.0425 -18.37057,2.23161 -11.183,6.52298 -16.72402,27.10588 -15.56099,57.80315 0.22598,5.96293 0.40786,8.11618 0.75616,8.94998 1.66746,3.99176 6.72668,5.11052 9.82054,2.17171 1.80126,-1.71095 1.74421,-1.17002 1.7841,-16.90297 0.0299,-11.74484 0.12741,-15.06825 0.53334,-18.15273 0.90629,-6.88639 1.90437,-11.29212 3.4651,-15.29494 l 0.94442,-2.42218 0.14522,58.52452 0.14521,58.52452 0.77364,1.4522 c 2.42488,4.5519 7.7799,6.4617 12.307,4.3891 z m 35.17278,-73.65669 c 5.24297,-1.40549 6.84237,-2.24715 9.7561,-5.1341 2.78488,-2.75931 4.85592,-7.52765 4.86735,-11.20672 l 0.004,-1.3796 -4.86494,-0.005 c -5.17119,-0.006 -9.5962,-0.49636 -13.07324,-1.44962 -1.15995,-0.31799 -2.17284,-0.5782 -2.25094,-0.5782 -0.0781,0 -0.14201,4.63983 -0.14201,10.31076 l 0,10.3108 1.2344,-4.6e-4 c 0.67892,-2.6e-4 2.68998,-0.39065 4.46896,-0.86754 z m 13.47112,-23.16629 c 0.0108,-0.46838 -3.64465,-13.72025 -3.78539,-13.72179 -0.0823,0 -0.38076,0.64915 -0.66329,1.44461 -0.73877,2.08003 -3.259,4.69529 -5.66858,5.88227 -1.85862,0.91564 -2.05234,0.94911 -5.49111,0.94911 l -3.56456,0 0,1.61285 0,1.61291 1.96052,0.62837 c 1.07824,0.34564 3.13677,0.82274 4.57446,1.06023 1.4377,0.23754 2.94076,0.48547 3.34013,0.551 1.33069,0.21839 9.29412,0.20164 9.29936,-0.0194 z m -20.62666,-4.40589 0,-1.4289 -1.52487,-0.50516 c -0.83864,-0.27782 -2.36053,-0.87946 -3.38191,-1.33697 -1.02138,-0.45746 -1.90017,-0.78863 -1.95288,-0.73596 -0.23817,0.23817 3.40241,3.47305 4.95466,4.40257 0.94907,0.5683 1.76592,1.03326 1.81529,1.03326 0.0494,0 0.0897,-0.64297 0.0897,-1.42884 z m 8.60318,-2.8053 c 0.86718,-0.25209 2.12515,-0.87667 2.79554,-1.38797 4.35685,-3.32309 5.38953,-8.86958 2.98781,-16.04753 -3.19391,-9.54557 -10.66912,-17.86705 -17.47019,-19.44801 l -1.57845,-0.36695 -0.68284,1.35517 c -1.19171,2.36514 -2.78731,6.9523 -3.8204,10.98331 -0.5501,2.14634 -1.00024,4.07582 -1.00024,4.28766 0,0.21681 0.45475,0.45896 1.04049,0.55398 0.57223,0.0929 2.23865,0.93982 3.70313,1.88215 1.46449,0.94229 3.28354,2.07213 4.04236,2.51075 l 1.37961,0.7975 0,-0.7329 c 0,-0.40313 -0.45182,-1.4938 -1.00399,-2.42376 -0.99411,-1.6742 -1.74345,-4.45591 -1.0919,-4.05324 1.2633,0.78078 5.78222,9.37402 5.22336,9.93289 -0.38958,0.38957 -5.13645,-2.01883 -9.51521,-4.82769 -2.43008,-1.55879 -2.49585,-1.58106 -4.66734,-1.58106 -1.9065,0 -2.36179,0.10538 -3.38715,0.7839 -1.65884,1.09776 -2.81771,3.4903 -2.63112,5.43207 0.23672,2.46364 0.96827,3.45156 4.1634,5.62237 3.53999,2.40515 10.30791,5.816 13.05516,6.57948 2.54156,0.70629 6.31037,0.7722 8.45797,0.14788 z m -25.18845,-42.10258 c 2.35628,-0.55543 5.27765,-2.08531 7.21034,-3.776 2.03107,-1.77668 4.28499,-5.22259 5.08889,-7.77995 0.92075,-2.92913 0.90079,-7.65542 -0.0438,-10.36166 -1.841,-5.27494 -6.12532,-9.5284 -11.19696,-11.11646 -2.47173,-0.774 -7.29489,-0.88991 -9.59674,-0.23064 -7.58678,2.1729 -12.63434,8.79483 -12.63434,16.57506 0,4.87851 1.5606,8.60102 5.05425,12.05583 2.48202,2.45447 4.77371,3.81822 7.77137,4.62474 2.04687,0.55073 6.03078,0.55507 8.34691,0.009 z"
       style="fill:#e12d0e;fill-opacity:1" />
    <path
       inkscape:connector-curvature="0"
       id="path3390"
       d="m 609.53278,1011.3281 c 0.42472,0.9811 -0.92293,0.923 20.14052,0.923 21.13613,0 19.73033,0.074 20.15506,-0.9521 0.30764,-0.7614 0.30764,-72.3292 0,-73.09065 -0.42473,-1.02546 0.98107,-0.95199 -20.15506,-0.95199 -21.13614,0 -19.73034,-0.0735 -20.15507,0.95199 -0.30764,0.74692 -0.29309,72.40195 0.0146,73.11975 z m 3.44221,-47.60392 c 0.54181,-0.11709 1.02546,-0.84946 1.02546,-1.53821 0,-0.36657 -0.13162,-0.62983 -0.49819,-0.99563 -0.27856,-0.27856 -0.60075,-0.49819 -0.73237,-0.49819 -0.21963,0 -0.23418,-0.95201 -0.23418,-10.17969 l 0,-10.1797 17.13681,0 17.13759,0 0,10.17894 c 0,9.22768 -0.0146,10.17968 -0.23417,10.17968 -0.13164,0 -0.45381,0.21964 -0.73237,0.4982 -0.67421,0.67344 -0.68875,1.4502 -0.0735,2.12364 0.23417,0.24871 0.55636,0.45381 0.73236,0.45381 l 0.30765,0 0,22.70419 0,22.70348 -17.13759,0 -17.13757,0 0,-22.68894 0,-22.68889 0.44004,-0.0727 z" />
    <path
       inkscape:connector-curvature="0"
       id="path3392"
       d="m 616.09425,963.25506 c 0.51273,0.51273 0.51273,0.51273 1.84584,0.51273 1.24511,0 1.36219,-0.0291 1.77238,-0.41019 0.60074,-0.52727 0.70329,-1.24509 0.2931,-1.904 -0.39564,-0.64436 -0.87853,-0.7913 -2.29965,-0.73237 -1.06909,0.0436 -1.25965,0.088 -1.59637,0.42473 -0.23417,0.23418 -0.41019,0.60074 -0.45381,0.98108 -0.0742,0.54182 -0.0299,0.65967 0.43851,1.12802 z" />
    <path
       inkscape:connector-curvature="0"
       id="path3394"
       d="m 617.64699,957.05939 0.42473,0.48366 3.53022,0.0436 c 3.96948,0.0436 4.33527,-0.0145 4.76077,-0.92292 0.33672,-0.68875 0.35127,-11.38118 0.0291,-12.15716 -0.38112,-0.90838 -0.51274,-0.93746 -4.5113,-0.96655 -2.37312,0 -3.70547,0.0437 -3.89602,0.14617 -0.76145,0.41019 -0.76145,0.36657 -0.76145,6.85534 l 0,6.0495 0.42396,0.46834 z m 4.18912,-10.42918 1.5382,0 0,3.88149 0,3.88146 -1.5382,0 -1.5382,0 0,-3.88146 0,-3.88149 1.5382,0 z" />
    <path
       inkscape:connector-curvature="0"
       id="path3396"
       d="m 618.78955,975.13443 c 0.0291,0.17601 1.08363,1.5382 2.32873,3.03202 l 2.25527,2.70984 0,3.23711 c 0,3.60292 0.088,4.07204 0.86399,4.46769 0.55636,0.29309 0.93747,0.29309 1.47928,0.0145 0.64436,-0.33672 0.79129,-0.73236 0.87854,-2.32873 l 0.0734,-1.43566 2.78331,3.33967 c 1.52366,1.8313 3.09095,3.72076 3.47129,4.17457 l 0.70329,0.82038 -1.81523,1.21526 c -1.96293,1.28872 -2.24149,1.64075 -2.08002,2.53382 0.11709,0.64436 0.6589,1.12802 1.36219,1.23056 0.52727,0.0734 0.73236,-0.0436 3.22257,-1.68437 1.45019,-0.96654 2.75346,-1.91855 2.88585,-2.09455 0.30765,-0.45381 0.2931,-1.27419 -0.0291,-1.75785 -0.21963,-0.32217 -7.99713,-9.6968 -8.70041,-10.47279 l -0.27856,-0.30764 1.65529,-0.41019 c 2.43128,-0.60074 2.90039,-0.92292 2.90039,-1.97747 0,-0.6589 -0.33671,-1.14255 -0.96654,-1.4058 -0.46911,-0.19056 -0.67421,-0.16148 -3.14911,0.4538 -1.46473,0.36657 -2.66545,0.65891 -2.6953,0.62982 -0.33672,-0.49819 -4.58476,-5.50769 -4.74547,-5.61023 -0.46911,-0.2931 -0.93746,-0.35126 -1.39127,-0.16071 -0.77829,0.33672 -1.15863,0.99562 -1.01246,1.78692 z" />
    <path
       inkscape:connector-curvature="0"
       id="path3398"
       d="m 623.55033,962.6987 c 0.21963,0.83492 0.70328,1.06909 2.1971,1.06909 1.46474,0 1.77238,-0.10255 2.09456,-0.73237 0.36657,-0.71782 0.27857,-1.28872 -0.27856,-1.84584 -0.48365,-0.48365 -0.52728,-0.4982 -1.72876,-0.4982 -0.952,0 -1.31857,0.0589 -1.69891,0.2931 -0.24871,0.16071 -0.46911,0.30765 -0.46911,0.32219 0,0.0291 -0.0581,0.24871 -0.11709,0.48365 -0.0727,0.24947 -0.0727,0.64436 5.6e-4,0.90838 z" />
    <path
       inkscape:connector-curvature="0"
       id="path3400"
       d="m 631.51837,963.0645 c 0.32219,0.60074 0.62983,0.70329 2.09456,0.70329 1.1571,0 1.36219,-0.0436 1.69891,-0.33672 0.77599,-0.67421 0.71783,-1.9484 -0.11708,-2.44582 -0.36657,-0.23417 -0.73237,-0.2931 -1.69892,-0.2931 -1.18617,0 -1.23055,0.0145 -1.71344,0.49819 -0.55713,0.55636 -0.64513,1.18618 -0.26403,1.87416 z" />
    <path
       inkscape:connector-curvature="0"
       id="path3402"
       d="m 631.70893,957.05939 0.42472,0.48366 3.53022,0.0436 c 3.96948,0.0436 4.33528,-0.0145 4.76078,-0.92292 0.33672,-0.68875 0.35126,-11.38118 0.0291,-12.15716 -0.38111,-0.90838 -0.51273,-0.93746 -4.5113,-0.96655 -2.37312,0 -3.70546,0.0437 -3.89602,0.14617 -0.76144,0.41019 -0.76144,0.36657 -0.76144,6.85534 l 0,6.0495 0.42396,0.46834 z m 4.18912,-10.42918 1.5382,0 0,3.88149 0,3.88146 -1.5382,0 -1.53822,0 0,-3.88146 0,-3.88149 1.53822,0 z" />
    <path
       inkscape:connector-curvature="0"
       id="path3404"
       d="m 639.53004,963.25506 c 0.51274,0.51273 0.51274,0.51273 1.84585,0.51273 1.2451,0 1.36219,-0.0291 1.77237,-0.41019 0.60074,-0.52727 0.7033,-1.24509 0.29311,-1.904 -0.39565,-0.64436 -0.87854,-0.7913 -2.29966,-0.73237 -1.06909,0.0436 -1.25964,0.088 -1.59637,0.42473 -0.23417,0.23418 -0.41018,0.60074 -0.4538,0.98108 -0.0734,0.54182 -0.0299,0.65967 0.4385,1.12802 z" />
    <path
       style="fill:#e12d0e;fill-opacity:1"
       d="m 551.06543,1037.3462 c 2.14268,-0.9809 3.48425,-2.2997 4.55784,-4.4803 l 0.94994,-1.9293 0.0783,-35.51317 0.0782,-35.51304 1.73707,0 1.73707,0 0,35.27807 0,35.27814 0.62345,1.6662 c 1.83292,4.899 7.8043,7.4314 12.45975,5.2842 2.28867,-1.0555 3.60888,-2.3338 4.70054,-4.5511 l 0.94989,-1.9294 0.0772,-43.73518 0.0771,-51.70788 0.0531,-0.0306 c 0.0337,-13.55844 -4.36785,-22.6897 -11.8478,-36.44937 0.57152,-1.44519 1.0391,-2.71748 1.0391,-2.82724 0,-0.10981 -6.30626,-0.16107 -14.01394,-0.11401 -15.60738,0.0954 -14.47177,-0.0425 -18.37058,2.23161 -11.18299,6.52298 -16.72402,27.10588 -15.56099,57.80315 0.22598,5.96293 0.40787,8.11618 0.75616,8.94998 1.66747,3.99176 6.72668,5.11052 9.82055,2.17171 1.80125,-1.71095 1.74421,-1.17002 1.78409,-16.90297 0.0299,-11.74484 0.12742,-15.06825 0.53334,-18.15273 0.90629,-6.88639 1.90437,-11.29212 3.4651,-15.29494 l 0.94442,-2.42218 0.14522,58.52452 0.14521,58.52453 0.77364,1.4522 c 2.42488,4.5519 7.77991,6.4617 12.307,4.3891 z m 47.90864,-96.85075 c -0.63266,-2.06768 -1.54609,-8.65033 -1.54609,-8.65033 0,0 -1.55707,-8.79064 -3.95879,-15.96859 -3.19391,-9.54557 -10.66912,-17.86705 -17.47019,-19.44801 l -8.28823,-0.36695 -0.60391,1.43411 c -1.02782,2.44082 -2.39261,7.18911 -3.4257,10.11498 -2.30104,6.12297 10.4145,21.38324 15.51314,24.3294 l -0.11164,-14.24087 c -0.003,-0.40312 -0.0551,-2.70285 -0.0551,-2.70285 l 0.24773,-1.31816 c 0,0 5.13617,14.38277 5.38192,15.13395 1.03131,3.15242 2.03455,7.67917 2.39211,10.39601 1.25346,4.91971 1.15402,14.72493 2.52423,20.73142 0.6909,5.12372 7.94762,7.38211 10.35089,2.96603 1.83112,-0.79354 -0.6509,-20.20705 -0.95039,-22.41014 z m -36.47668,-49.286 c 2.35628,-0.55543 5.27765,-2.08531 7.21034,-3.776 2.03107,-1.77668 4.28499,-5.22259 5.08889,-7.77995 0.92075,-2.92913 0.90079,-7.65542 -0.0438,-10.36166 -1.841,-5.27494 -6.12532,-9.5284 -11.19696,-11.11646 -2.47173,-0.774 -7.29489,-0.88991 -9.59674,-0.23064 -7.58677,2.1729 -12.63434,8.79483 -12.63434,16.57506 0,4.87851 1.56061,8.60102 5.05425,12.05583 2.48202,2.45447 4.77372,3.81822 7.77137,4.62474 2.04688,0.55073 6.03079,0.55507 8.34691,0.009 z"
       id="path3399"
       inkscape:connector-curvature="0"
       sodipodi:nodetypes="sscccccccssscccccssssssssscccssccscssccsccscccccsssssssccc" />
    <g
       transform="matrix(0.0681665,0,0,0.0681665,281.62561,848.39841)"
       id="g6">
      <path
         inkscape:connector-curvature="0"
         d="m 914.2,167.3 c -0.2,-0.7 -0.4,-1.4 -0.5,-2.1 -1.5,-4.8 -3,-9.4 -5,-13.9 C 894.2,118.3 863.9,92.8 825.8,86 L 806.1,82.5 408.2,11.7 C 378.8,6.5 349,13 324.4,30.1 c -24.5,17.1 -40.9,42.7 -46.1,72 l 353.5,0.1 20.1,0 c 38.8,0.1 73,19.9 93,49.9 2.8,4.1 5.2,8.4 7.4,12.8 0.3,0.7 0.7,1.4 0.9,2 4.2,9 7.2,18.5 8.9,28.6 0.2,1 0.4,2 0.4,3 0.8,5 1.3,10.1 1.3,15.3 l 0,630.6 c 0,5.2 -0.5,10.2 -1.3,15.3 -0.1,1 -0.3,2.1 -0.4,3.1 -1.6,10 -4.7,19.6 -8.9,28.6 -0.3,0.6 -0.7,1.4 -0.9,2.1 -0.3,0.6 -0.7,1 -0.9,1.6 1.2,-1.2 2.7,-1.9 3.8,-3.1 3.5,-3.6 6.6,-7.4 9.5,-11.4 0.4,-0.7 0.9,-1.3 1.3,-1.9 5.7,-8.1 10.4,-17 13.7,-26.6 0.3,-0.9 0.8,-1.9 1,-3 1.6,-4.8 3,-9.7 3.9,-14.8 l 131.7,-619 c 0.9,-5.2 1.3,-10.2 1.4,-15.3 0.1,-1 0.1,-2 0.1,-3 0.3,-10.2 -1,-20.1 -3.6,-29.7 z"
         id="path8" />
      <path
         inkscape:connector-curvature="0"
         d="m 237.9,763.6 c -5.4,0 -8.4,0.3 -10.2,0.6 l 0,34.9 c 2.1,0.3 4.6,0.5 8.1,0.5 14.5,0 23.2,-7 23.2,-18.9 0.1,-10.9 -7.6,-17.1 -21.1,-17.1 z"
         id="path10" />
      <path
         inkscape:connector-curvature="0"
         d="m 346.7,768.2 c -0.4,1.4 -0.7,2.7 -1,4.1 -1,4.7 -2.1,9.4 -3.2,13.5 -0.1,0.4 -5.7,20.2 -7.4,26.5 l 24,0 -7.8,-26.8 c -1.7,-5.4 -3.2,-11.6 -4.6,-17.3 z"
         id="path12" />
      <path
         inkscape:connector-curvature="0"
         d="m 466.3,668.6 c 36.8,-9.9 70.6,-30.5 96.4,-58.5 -16.5,-8.8 -34.2,-15.1 -52.2,-19.8 -9.5,28.5 -22.8,56.6 -44.2,78.3 z"
         id="path14" />
      <path
         inkscape:connector-curvature="0"
         d="m 515.5,573.2 c 20.5,5.4 40.5,12.8 59,23 25.7,-33.1 40.8,-74.3 42.5,-116.1 -29.7,0 -59.4,0 -89,0 -0.5,31.3 -4.6,62.6 -12.5,93.1 z"
         id="path16" />
      <path
         inkscape:connector-curvature="0"
         d="m 358.7,273.9 c -4.7,0.9 -9.2,2.5 -13.6,4.1 -31.4,10.9 -60.1,29.7 -82.7,54.2 16.5,8.8 34.2,15.3 52.3,19.8 9.4,-28.5 22.6,-56.6 44,-78.1 z"
         id="path18" />
      <path
         inkscape:connector-curvature="0"
         d="m 309.6,369 c -20.5,-5.4 -40.5,-12.8 -59.1,-22.9 -25.6,33.1 -40.7,74.3 -42.4,116.1 29.7,0 59.3,0 88.9,0 0.7,-31.3 4.6,-62.7 12.6,-93.2 z"
         id="path20" />
      <path
         inkscape:connector-curvature="0"
         d="m 728.4,229.3 c -1.6,-10.1 -4.7,-19.6 -8.9,-28.6 -0.3,-0.7 -0.7,-1.3 -0.9,-2 -2.2,-4.4 -4.6,-8.7 -7.4,-12.8 -20,-30 -54.3,-49.8 -93,-49.9 l -20.1,0 -353.5,-0.1 -50.4,0 c -29.9,0 -58,11.6 -79.3,32.7 -21.2,21.1 -32.9,49.2 -32.8,79 l 0,630.5 C 82,908 93.7,936 114.8,957.2 136,978.4 164.2,990 194.1,990 l 404,-0.1 20.1,0 c 38.7,-0.1 72.9,-19.9 92.9,-49.9 2.5,-3.6 4.5,-7.4 6.5,-11.2 0.3,-0.5 0.7,-1 0.9,-1.6 0.3,-0.7 0.7,-1.4 0.9,-2.1 4.2,-9 7.2,-18.5 8.9,-28.6 0.2,-1 0.4,-2 0.4,-3.1 0.8,-5 1.3,-10 1.3,-15.2 l 0,-630.6 c 0,-5.2 -0.5,1 -1.3,-4.1 0.1,-1 -0.1,-13.2 -0.3,-14.2 z M 236.1,824.5 c -3.5,0 -6.1,-0.1 -8.3,-0.4 l 0,45.1 -31.4,0 0,-127.5 1.3,-0.2 c 10.4,-1.8 23.5,-2.6 39,-2.6 17.8,0 30.8,3.3 39.7,10.5 8.9,6.9 14,18 14,30.4 0,13 -4.3,24 -12.1,31.1 -9.8,8.9 -24.3,13.6 -42.2,13.6 z m 137.8,44.6 -9.8,-32.5 -34,0 -9,32.5 -32.7,0 39.4,-129.4 39.8,0 40.4,129.4 -34.1,0 z m 86.4,1.9 c -15.2,0 -29.7,-4.2 -36.6,-8.1 l -0.9,-0.5 6.4,-26.4 1.7,0.9 c 7.2,3.7 19.1,7.7 31.2,7.7 11.8,0 18.6,-4.5 18.6,-12.2 0,-6.9 -5.3,-11 -20.2,-16.2 -23.9,-8.4 -36,-21.5 -36,-38.9 0,-23.2 20.4,-39.3 49.5,-39.3 12.7,0 23.8,2.2 33,6.5 l 1.1,0.5 -7.2,25.9 -1.6,-0.9 c -4.3,-2.1 -13.4,-5.8 -25.6,-5.8 -11.7,0 -17,5.4 -17,10.7 0,6.9 5.6,10.1 22.5,16.3 23.3,8.7 33.7,20.7 33.7,39.2 -0.1,18.7 -13.9,40.6 -52.6,40.6 z m 103,0 c -15.2,0 -29.6,-4.2 -36.7,-8.1 l -1,-0.5 6.6,-26.4 1.7,0.9 c 7.1,3.7 19,7.7 31.1,7.7 11.7,0 18.7,-4.5 18.7,-12.2 0,-6.9 -5.4,-11 -20.3,-16.2 -23.9,-8.4 -36,-21.5 -36,-38.9 0,-23.2 20.4,-39.3 49.5,-39.3 12.7,0 23.8,2.2 33,6.5 l 1.2,0.5 -7.2,25.9 -1.6,-0.9 c -4.3,-2.1 -13.4,-5.8 -25.6,-5.8 -11.7,0 -17,5.4 -17,10.7 0,6.9 5.7,10.1 22.6,16.3 23.3,8.7 33.7,20.7 33.7,39.2 -0.3,18.7 -14,40.6 -52.7,40.6 z M 635,475.1 c -0.7,33.1 -8.6,66.2 -23.6,95.7 -14.5,29.2 -35.7,55 -61.3,75.2 -26.2,20.7 -57.2,35.3 -89.7,42.4 -13.3,3.1 -26.8,4.4 -40.3,5.2 l -14.8,0 c -17.8,-0.9 -35.5,-3.3 -52.6,-8.1 -41.4,-11.6 -79.2,-35.4 -107.5,-67.8 -19.8,-22.6 -35,-49.4 -44.3,-78 -6.7,-20.8 -10.2,-42.7 -10.8,-64.5 l 0,-8 c 0.8,-40.5 12.8,-81 34.6,-115.1 23.3,-36.6 57.3,-66.2 96.9,-83.9 26.2,-11.8 54.8,-18.2 83.6,-19.4 l 14.6,0 c 25.7,1.2 51.2,6.1 75.1,15.8 49.8,19.7 91.7,58.1 115.9,105.8 15.4,29.9 23.5,63.3 24.2,96.8 l 0,7.9 0,0 z"
         id="path22" />
      <path
         inkscape:connector-curvature="0"
         d="m 297,480 c -29.6,0 -59.2,0 -88.9,0 1.6,41.9 16.8,83 42.4,116.1 18.7,-10.2 38.7,-17.5 59.1,-23 -8,-30.4 -11.9,-61.7 -12.6,-93.1 z"
         id="path24" />
      <path
         inkscape:connector-curvature="0"
         d="m 460.4,580.7 c -12.9,-1.2 -25.9,-2.5 -38.9,-2.5 0,32.3 0,64.5 0,96.8 16.9,-3.6 30.5,-15.5 40.9,-28.8 14.2,-17.7 23.4,-38.8 30.9,-60.1 -10.9,-2.6 -21.9,-3.8 -32.9,-5.4 z"
         id="path26" />
      <path
         inkscape:connector-curvature="0"
         d="m 515.5,369 c 8,30.5 12,61.8 12.6,93.2 29.6,0 59.3,0 88.9,0 -1.8,-41.9 -16.8,-83.1 -42.5,-116.1 -18.5,10.2 -38.6,17.5 -59,22.9 z"
         id="path28" />
      <path
         inkscape:connector-curvature="0"
         d="m 370.4,655 c 9.1,9.4 20.4,17.2 33.3,20 0,-32.4 0,-64.6 0,-96.8 -24.1,0.5 -48.2,3 -71.8,8 8.7,24.9 20,49.6 38.5,68.8 z"
         id="path30" />
      <path
         inkscape:connector-curvature="0"
         d="m 493.2,356 c -8.8,-24.8 -20,-49.5 -38.5,-68.7 -9.1,-9.5 -20.4,-17.2 -33.3,-20 0,32.4 0,64.6 0,96.9 18,-0.4 36,-1.8 53.8,-4.8 6.1,-0.7 12.1,-1.9 18,-3.4 z"
         id="path32" />
      <path
         inkscape:connector-curvature="0"
         d="m 362.7,296.1 c -14.1,17.7 -23.3,38.7 -30.8,59.9 10.5,2.7 21.3,3.8 32,5.4 13.2,1.3 26.5,2.5 39.8,2.7 0,-32.3 0,-64.5 0,-96.9 -17,3.7 -30.6,15.7 -41,28.9 z"
         id="path34" />
      <path
         inkscape:connector-curvature="0"
         d="m 510.5,352 c 18,-4.7 35.7,-11.2 52.3,-19.8 -25.8,-28 -59.6,-48.7 -96.4,-58.4 4.4,4 8,8.9 11.9,13.5 14.5,19.5 24.7,41.8 32.2,64.7 z"
         id="path36" />
      <path
         inkscape:connector-curvature="0"
         d="m 498.2,373.2 c -25.1,5.6 -51,8.2 -76.7,8.7 0,26.7 0,53.5 0,80.3 29.6,-0.1 59.2,0.1 88.8,-0.1 -0.6,-29.9 -4.5,-59.8 -12.1,-88.9 z"
         id="path38" />
      <path
         inkscape:connector-curvature="0"
         d="m 510.1,480 c -29.6,0.1 -59.1,0.1 -88.7,0.1 l 0,80.3 c 25.8,0.4 51.6,3.2 76.8,8.7 7.6,-29.2 11.6,-59.1 11.9,-89.1 z"
         id="path40" />
      <path
         inkscape:connector-curvature="0"
         d="m 262.3,610 c 25.8,28 59.6,48.7 96.4,58.4 -21.3,-21.6 -34.7,-49.7 -44.1,-78.2 -18.1,4.6 -35.7,11.3 -52.3,19.8 z"
         id="path42" />
      <path
         inkscape:connector-curvature="0"
         d="m 314.9,462.2 c 29.6,0.1 59.1,0.1 88.8,0.1 l 0,-80.3 c -25.8,-0.4 -51.6,-3.1 -76.8,-8.7 -7.6,29 -11.5,58.9 -12,88.9 z"
         id="path44" />
      <path
         inkscape:connector-curvature="0"
         d="m 326.9,569.1 c 25.1,-5.7 51,-8.3 76.7,-8.8 0,-26.7 0,-53.5 0,-80.3 -29.6,0 -59.1,-0.1 -88.8,0.1 0.6,30 4.5,60 12.1,89 z"
         id="path46" />
    </g>
    <g
       id="g3463"
       transform="matrix(0.0681665,0,0,0.0681665,599.5652,844.82605)">
      <path
         id="path3465"
         d="m 914.2,167.3 c -0.2,-0.7 -0.4,-1.4 -0.5,-2.1 -1.5,-4.8 -3,-9.4 -5,-13.9 C 894.2,118.3 863.9,92.8 825.8,86 L 806.1,82.5 408.2,11.7 C 378.8,6.5 349,13 324.4,30.1 c -24.5,17.1 -40.9,42.7 -46.1,72 l 353.5,0.1 20.1,0 c 38.8,0.1 73,19.9 93,49.9 2.8,4.1 5.2,8.4 7.4,12.8 0.3,0.7 0.7,1.4 0.9,2 4.2,9 7.2,18.5 8.9,28.6 0.2,1 0.4,2 0.4,3 0.8,5 1.3,10.1 1.3,15.3 l 0,630.6 c 0,5.2 -0.5,10.2 -1.3,15.3 -0.1,1 -0.3,2.1 -0.4,3.1 -1.6,10 -4.7,19.6 -8.9,28.6 -0.3,0.6 -0.7,1.4 -0.9,2.1 -0.3,0.6 -0.7,1 -0.9,1.6 1.2,-1.2 2.7,-1.9 3.8,-3.1 3.5,-3.6 6.6,-7.4 9.5,-11.4 0.4,-0.7 0.9,-1.3 1.3,-1.9 5.7,-8.1 10.4,-17 13.7,-26.6 0.3,-0.9 0.8,-1.9 1,-3 1.6,-4.8 3,-9.7 3.9,-14.8 l 131.7,-619 c 0.9,-5.2 1.3,-10.2 1.4,-15.3 0.1,-1 0.1,-2 0.1,-3 0.3,-10.2 -1,-20.1 -3.6,-29.7 z"
         inkscape:connector-curvature="0" />
      <path
         id="path3467"
         d="m 237.9,763.6 c -5.4,0 -8.4,0.3 -10.2,0.6 l 0,34.9 c 2.1,0.3 4.6,0.5 8.1,0.5 14.5,0 23.2,-7 23.2,-18.9 0.1,-10.9 -7.6,-17.1 -21.1,-17.1 z"
         inkscape:connector-curvature="0" />
      <path
         id="path3469"
         d="m 346.7,768.2 c -0.4,1.4 -0.7,2.7 -1,4.1 -1,4.7 -2.1,9.4 -3.2,13.5 -0.1,0.4 -5.7,20.2 -7.4,26.5 l 24,0 -7.8,-26.8 c -1.7,-5.4 -3.2,-11.6 -4.6,-17.3 z"
         inkscape:connector-curvature="0" />
      <path
         id="path3471"
         d="m 466.3,668.6 c 36.8,-9.9 70.6,-30.5 96.4,-58.5 -16.5,-8.8 -34.2,-15.1 -52.2,-19.8 -9.5,28.5 -22.8,56.6 -44.2,78.3 z"
         inkscape:connector-curvature="0" />
      <path
         id="path3473"
         d="m 515.5,573.2 c 20.5,5.4 40.5,12.8 59,23 25.7,-33.1 40.8,-74.3 42.5,-116.1 -29.7,0 -59.4,0 -89,0 -0.5,31.3 -4.6,62.6 -12.5,93.1 z"
         inkscape:connector-curvature="0" />
      <path
         id="path3475"
         d="m 358.7,273.9 c -4.7,0.9 -9.2,2.5 -13.6,4.1 -31.4,10.9 -60.1,29.7 -82.7,54.2 16.5,8.8 34.2,15.3 52.3,19.8 9.4,-28.5 22.6,-56.6 44,-78.1 z"
         inkscape:connector-curvature="0" />
      <path
         id="path3477"
         d="m 309.6,369 c -20.5,-5.4 -40.5,-12.8 -59.1,-22.9 -25.6,33.1 -40.7,74.3 -42.4,116.1 29.7,0 59.3,0 88.9,0 0.7,-31.3 4.6,-62.7 12.6,-93.2 z"
         inkscape:connector-curvature="0" />
      <path
         id="path3479"
         d="m 728.4,229.3 c -1.6,-10.1 -4.7,-19.6 -8.9,-28.6 -0.3,-0.7 -0.7,-1.3 -0.9,-2 -2.2,-4.4 -4.6,-8.7 -7.4,-12.8 -20,-30 -54.3,-49.8 -93,-49.9 l -20.1,0 -353.5,-0.1 -50.4,0 c -29.9,0 -58,11.6 -79.3,32.7 -21.2,21.1 -32.9,49.2 -32.8,79 l 0,630.5 C 82,908 93.7,936 114.8,957.2 136,978.4 164.2,990 194.1,990 l 404,-0.1 20.1,0 c 38.7,-0.1 72.9,-19.9 92.9,-49.9 2.5,-3.6 4.5,-7.4 6.5,-11.2 0.3,-0.5 0.7,-1 0.9,-1.6 0.3,-0.7 0.7,-1.4 0.9,-2.1 4.2,-9 7.2,-18.5 8.9,-28.6 0.2,-1 0.4,-2 0.4,-3.1 0.8,-5 1.3,-10 1.3,-15.2 l 0,-630.6 c 0,-5.2 -0.5,1 -1.3,-4.1 0.1,-1 -0.1,-13.2 -0.3,-14.2 z M 236.1,824.5 c -3.5,0 -6.1,-0.1 -8.3,-0.4 l 0,45.1 -31.4,0 0,-127.5 1.3,-0.2 c 10.4,-1.8 23.5,-2.6 39,-2.6 17.8,0 30.8,3.3 39.7,10.5 8.9,6.9 14,18 14,30.4 0,13 -4.3,24 -12.1,31.1 -9.8,8.9 -24.3,13.6 -42.2,13.6 z m 137.8,44.6 -9.8,-32.5 -34,0 -9,32.5 -32.7,0 39.4,-129.4 39.8,0 40.4,129.4 -34.1,0 z m 86.4,1.9 c -15.2,0 -29.7,-4.2 -36.6,-8.1 l -0.9,-0.5 6.4,-26.4 1.7,0.9 c 7.2,3.7 19.1,7.7 31.2,7.7 11.8,0 18.6,-4.5 18.6,-12.2 0,-6.9 -5.3,-11 -20.2,-16.2 -23.9,-8.4 -36,-21.5 -36,-38.9 0,-23.2 20.4,-39.3 49.5,-39.3 12.7,0 23.8,2.2 33,6.5 l 1.1,0.5 -7.2,25.9 -1.6,-0.9 c -4.3,-2.1 -13.4,-5.8 -25.6,-5.8 -11.7,0 -17,5.4 -17,10.7 0,6.9 5.6,10.1 22.5,16.3 23.3,8.7 33.7,20.7 33.7,39.2 -0.1,18.7 -13.9,40.6 -52.6,40.6 z m 103,0 c -15.2,0 -29.6,-4.2 -36.7,-8.1 l -1,-0.5 6.6,-26.4 1.7,0.9 c 7.1,3.7 19,7.7 31.1,7.7 11.7,0 18.7,-4.5 18.7,-12.2 0,-6.9 -5.4,-11 -20.3,-16.2 -23.9,-8.4 -36,-21.5 -36,-38.9 0,-23.2 20.4,-39.3 49.5,-39.3 12.7,0 23.8,2.2 33,6.5 l 1.2,0.5 -7.2,25.9 -1.6,-0.9 c -4.3,-2.1 -13.4,-5.8 -25.6,-5.8 -11.7,0 -17,5.4 -17,10.7 0,6.9 5.7,10.1 22.6,16.3 23.3,8.7 33.7,20.7 33.7,39.2 -0.3,18.7 -14,40.6 -52.7,40.6 z M 635,475.1 c -0.7,33.1 -8.6,66.2 -23.6,95.7 -14.5,29.2 -35.7,55 -61.3,75.2 -26.2,20.7 -57.2,35.3 -89.7,42.4 -13.3,3.1 -26.8,4.4 -40.3,5.2 l -14.8,0 c -17.8,-0.9 -35.5,-3.3 -52.6,-8.1 -41.4,-11.6 -79.2,-35.4 -107.5,-67.8 -19.8,-22.6 -35,-49.4 -44.3,-78 -6.7,-20.8 -10.2,-42.7 -10.8,-64.5 l 0,-8 c 0.8,-40.5 12.8,-81 34.6,-115.1 23.3,-36.6 57.3,-66.2 96.9,-83.9 26.2,-11.8 54.8,-18.2 83.6,-19.4 l 14.6,0 c 25.7,1.2 51.2,6.1 75.1,15.8 49.8,19.7 91.7,58.1 115.9,105.8 15.4,29.9 23.5,63.3 24.2,96.8 l 0,7.9 0,0 z"
         inkscape:connector-curvature="0" />
      <path
         id="path3481"
         d="m 297,480 c -29.6,0 -59.2,0 -88.9,0 1.6,41.9 16.8,83 42.4,116.1 18.7,-10.2 38.7,-17.5 59.1,-23 -8,-30.4 -11.9,-61.7 -12.6,-93.1 z"
         inkscape:connector-curvature="0" />
      <path
         id="path3483"
         d="m 460.4,580.7 c -12.9,-1.2 -25.9,-2.5 -38.9,-2.5 0,32.3 0,64.5 0,96.8 16.9,-3.6 30.5,-15.5 40.9,-28.8 14.2,-17.7 23.4,-38.8 30.9,-60.1 -10.9,-2.6 -21.9,-3.8 -32.9,-5.4 z"
         inkscape:connector-curvature="0" />
      <path
         id="path3485"
         d="m 515.5,369 c 8,30.5 12,61.8 12.6,93.2 29.6,0 59.3,0 88.9,0 -1.8,-41.9 -16.8,-83.1 -42.5,-116.1 -18.5,10.2 -38.6,17.5 -59,22.9 z"
         inkscape:connector-curvature="0" />
      <path
         id="path3487"
         d="m 370.4,655 c 9.1,9.4 20.4,17.2 33.3,20 0,-32.4 0,-64.6 0,-96.8 -24.1,0.5 -48.2,3 -71.8,8 8.7,24.9 20,49.6 38.5,68.8 z"
         inkscape:connector-curvature="0" />
      <path
         id="path3489"
         d="m 493.2,356 c -8.8,-24.8 -20,-49.5 -38.5,-68.7 -9.1,-9.5 -20.4,-17.2 -33.3,-20 0,32.4 0,64.6 0,96.9 18,-0.4 36,-1.8 53.8,-4.8 6.1,-0.7 12.1,-1.9 18,-3.4 z"
         inkscape:connector-curvature="0" />
      <path
         id="path3491"
         d="m 362.7,296.1 c -14.1,17.7 -23.3,38.7 -30.8,59.9 10.5,2.7 21.3,3.8 32,5.4 13.2,1.3 26.5,2.5 39.8,2.7 0,-32.3 0,-64.5 0,-96.9 -17,3.7 -30.6,15.7 -41,28.9 z"
         inkscape:connector-curvature="0" />
      <path
         id="path3493"
         d="m 510.5,352 c 18,-4.7 35.7,-11.2 52.3,-19.8 -25.8,-28 -59.6,-48.7 -96.4,-58.4 4.4,4 8,8.9 11.9,13.5 14.5,19.5 24.7,41.8 32.2,64.7 z"
         inkscape:connector-curvature="0" />
      <path
         id="path3495"
         d="m 498.2,373.2 c -25.1,5.6 -51,8.2 -76.7,8.7 0,26.7 0,53.5 0,80.3 29.6,-0.1 59.2,0.1 88.8,-0.1 -0.6,-29.9 -4.5,-59.8 -12.1,-88.9 z"
         inkscape:connector-curvature="0" />
      <path
         id="path3497"
         d="m 510.1,480 c -29.6,0.1 -59.1,0.1 -88.7,0.1 l 0,80.3 c 25.8,0.4 51.6,3.2 76.8,8.7 7.6,-29.2 11.6,-59.1 11.9,-89.1 z"
         inkscape:connector-curvature="0" />
      <path
         id="path3499"
         d="m 262.3,610 c 25.8,28 59.6,48.7 96.4,58.4 -21.3,-21.6 -34.7,-49.7 -44.1,-78.2 -18.1,4.6 -35.7,11.3 -52.3,19.8 z"
         inkscape:connector-curvature="0" />
      <path
         id="path3501"
         d="m 314.9,462.2 c 29.6,0.1 59.1,0.1 88.8,0.1 l 0,-80.3 c -25.8,-0.4 -51.6,-3.1 -76.8,-8.7 -7.6,29 -11.5,58.9 -12,88.9 z"
         inkscape:connector-curvature="0" />
      <path
         id="path3503"
         d="m 326.9,569.1 c 25.1,-5.7 51,-8.3 76.7,-8.8 0,-26.7 0,-53.5 0,-80.3 -29.6,0 -59.1,-0.1 -88.8,0.1 0.6,30 4.5,60 12.1,89 z"
         inkscape:connector-curvature="0" />
    </g>
    <g
       transform="matrix(0.0681665,0,0,0.0681665,949.656,850.18458)"
       id="g4321">
      <path
         inkscape:connector-curvature="0"
         d="m 914.2,167.3 c -0.2,-0.7 -0.4,-1.4 -0.5,-2.1 -1.5,-4.8 -3,-9.4 -5,-13.9 C 894.2,118.3 863.9,92.8 825.8,86 L 806.1,82.5 408.2,11.7 C 378.8,6.5 349,13 324.4,30.1 c -24.5,17.1 -40.9,42.7 -46.1,72 l 353.5,0.1 20.1,0 c 38.8,0.1 73,19.9 93,49.9 2.8,4.1 5.2,8.4 7.4,12.8 0.3,0.7 0.7,1.4 0.9,2 4.2,9 7.2,18.5 8.9,28.6 0.2,1 0.4,2 0.4,3 0.8,5 1.3,10.1 1.3,15.3 l 0,630.6 c 0,5.2 -0.5,10.2 -1.3,15.3 -0.1,1 -0.3,2.1 -0.4,3.1 -1.6,10 -4.7,19.6 -8.9,28.6 -0.3,0.6 -0.7,1.4 -0.9,2.1 -0.3,0.6 -0.7,1 -0.9,1.6 1.2,-1.2 2.7,-1.9 3.8,-3.1 3.5,-3.6 6.6,-7.4 9.5,-11.4 0.4,-0.7 0.9,-1.3 1.3,-1.9 5.7,-8.1 10.4,-17 13.7,-26.6 0.3,-0.9 0.8,-1.9 1,-3 1.6,-4.8 3,-9.7 3.9,-14.8 l 131.7,-619 c 0.9,-5.2 1.3,-10.2 1.4,-15.3 0.1,-1 0.1,-2 0.1,-3 0.3,-10.2 -1,-20.1 -3.6,-29.7 z"
         id="path4323" />
      <path
         inkscape:connector-curvature="0"
         d="m 237.9,763.6 c -5.4,0 -8.4,0.3 -10.2,0.6 l 0,34.9 c 2.1,0.3 4.6,0.5 8.1,0.5 14.5,0 23.2,-7 23.2,-18.9 0.1,-10.9 -7.6,-17.1 -21.1,-17.1 z"
         id="path4325" />
      <path
         inkscape:connector-curvature="0"
         d="m 346.7,768.2 c -0.4,1.4 -0.7,2.7 -1,4.1 -1,4.7 -2.1,9.4 -3.2,13.5 -0.1,0.4 -5.7,20.2 -7.4,26.5 l 24,0 -7.8,-26.8 c -1.7,-5.4 -3.2,-11.6 -4.6,-17.3 z"
         id="path4327" />
      <path
         inkscape:connector-curvature="0"
         d="m 466.3,668.6 c 36.8,-9.9 70.6,-30.5 96.4,-58.5 -16.5,-8.8 -34.2,-15.1 -52.2,-19.8 -9.5,28.5 -22.8,56.6 -44.2,78.3 z"
         id="path4329" />
      <path
         inkscape:connector-curvature="0"
         d="m 515.5,573.2 c 20.5,5.4 40.5,12.8 59,23 25.7,-33.1 40.8,-74.3 42.5,-116.1 -29.7,0 -59.4,0 -89,0 -0.5,31.3 -4.6,62.6 -12.5,93.1 z"
         id="path4331" />
      <path
         inkscape:connector-curvature="0"
         d="m 358.7,273.9 c -4.7,0.9 -9.2,2.5 -13.6,4.1 -31.4,10.9 -60.1,29.7 -82.7,54.2 16.5,8.8 34.2,15.3 52.3,19.8 9.4,-28.5 22.6,-56.6 44,-78.1 z"
         id="path4333" />
      <path
         inkscape:connector-curvature="0"
         d="m 309.6,369 c -20.5,-5.4 -40.5,-12.8 -59.1,-22.9 -25.6,33.1 -40.7,74.3 -42.4,116.1 29.7,0 59.3,0 88.9,0 0.7,-31.3 4.6,-62.7 12.6,-93.2 z"
         id="path4335" />
      <path
         inkscape:connector-curvature="0"
         d="m 728.4,229.3 c -1.6,-10.1 -4.7,-19.6 -8.9,-28.6 -0.3,-0.7 -0.7,-1.3 -0.9,-2 -2.2,-4.4 -4.6,-8.7 -7.4,-12.8 -20,-30 -54.3,-49.8 -93,-49.9 l -20.1,0 -353.5,-0.1 -50.4,0 c -29.9,0 -58,11.6 -79.3,32.7 -21.2,21.1 -32.9,49.2 -32.8,79 l 0,630.5 C 82,908 93.7,936 114.8,957.2 136,978.4 164.2,990 194.1,990 l 404,-0.1 20.1,0 c 38.7,-0.1 72.9,-19.9 92.9,-49.9 2.5,-3.6 4.5,-7.4 6.5,-11.2 0.3,-0.5 0.7,-1 0.9,-1.6 0.3,-0.7 0.7,-1.4 0.9,-2.1 4.2,-9 7.2,-18.5 8.9,-28.6 0.2,-1 0.4,-2 0.4,-3.1 0.8,-5 1.3,-10 1.3,-15.2 l 0,-630.6 c 0,-5.2 -0.5,1 -1.3,-4.1 0.1,-1 -0.1,-13.2 -0.3,-14.2 z M 236.1,824.5 c -3.5,0 -6.1,-0.1 -8.3,-0.4 l 0,45.1 -31.4,0 0,-127.5 1.3,-0.2 c 10.4,-1.8 23.5,-2.6 39,-2.6 17.8,0 30.8,3.3 39.7,10.5 8.9,6.9 14,18 14,30.4 0,13 -4.3,24 -12.1,31.1 -9.8,8.9 -24.3,13.6 -42.2,13.6 z m 137.8,44.6 -9.8,-32.5 -34,0 -9,32.5 -32.7,0 39.4,-129.4 39.8,0 40.4,129.4 -34.1,0 z m 86.4,1.9 c -15.2,0 -29.7,-4.2 -36.6,-8.1 l -0.9,-0.5 6.4,-26.4 1.7,0.9 c 7.2,3.7 19.1,7.7 31.2,7.7 11.8,0 18.6,-4.5 18.6,-12.2 0,-6.9 -5.3,-11 -20.2,-16.2 -23.9,-8.4 -36,-21.5 -36,-38.9 0,-23.2 20.4,-39.3 49.5,-39.3 12.7,0 23.8,2.2 33,6.5 l 1.1,0.5 -7.2,25.9 -1.6,-0.9 c -4.3,-2.1 -13.4,-5.8 -25.6,-5.8 -11.7,0 -17,5.4 -17,10.7 0,6.9 5.6,10.1 22.5,16.3 23.3,8.7 33.7,20.7 33.7,39.2 -0.1,18.7 -13.9,40.6 -52.6,40.6 z m 103,0 c -15.2,0 -29.6,-4.2 -36.7,-8.1 l -1,-0.5 6.6,-26.4 1.7,0.9 c 7.1,3.7 19,7.7 31.1,7.7 11.7,0 18.7,-4.5 18.7,-12.2 0,-6.9 -5.4,-11 -20.3,-16.2 -23.9,-8.4 -36,-21.5 -36,-38.9 0,-23.2 20.4,-39.3 49.5,-39.3 12.7,0 23.8,2.2 33,6.5 l 1.2,0.5 -7.2,25.9 -1.6,-0.9 c -4.3,-2.1 -13.4,-5.8 -25.6,-5.8 -11.7,0 -17,5.4 -17,10.7 0,6.9 5.7,10.1 22.6,16.3 23.3,8.7 33.7,20.7 33.7,39.2 -0.3,18.7 -14,40.6 -52.7,40.6 z M 635,475.1 c -0.7,33.1 -8.6,66.2 -23.6,95.7 -14.5,29.2 -35.7,55 -61.3,75.2 -26.2,20.7 -57.2,35.3 -89.7,42.4 -13.3,3.1 -26.8,4.4 -40.3,5.2 l -14.8,0 c -17.8,-0.9 -35.5,-3.3 -52.6,-8.1 -41.4,-11.6 -79.2,-35.4 -107.5,-67.8 -19.8,-22.6 -35,-49.4 -44.3,-78 -6.7,-20.8 -10.2,-42.7 -10.8,-64.5 l 0,-8 c 0.8,-40.5 12.8,-81 34.6,-115.1 23.3,-36.6 57.3,-66.2 96.9,-83.9 26.2,-11.8 54.8,-18.2 83.6,-19.4 l 14.6,0 c 25.7,1.2 51.2,6.1 75.1,15.8 49.8,19.7 91.7,58.1 115.9,105.8 15.4,29.9 23.5,63.3 24.2,96.8 l 0,7.9 0,0 z"
         id="path4337" />
      <path
         inkscape:connector-curvature="0"
         d="m 297,480 c -29.6,0 -59.2,0 -88.9,0 1.6,41.9 16.8,83 42.4,116.1 18.7,-10.2 38.7,-17.5 59.1,-23 -8,-30.4 -11.9,-61.7 -12.6,-93.1 z"
         id="path4339" />
      <path
         inkscape:connector-curvature="0"
         d="m 460.4,580.7 c -12.9,-1.2 -25.9,-2.5 -38.9,-2.5 0,32.3 0,64.5 0,96.8 16.9,-3.6 30.5,-15.5 40.9,-28.8 14.2,-17.7 23.4,-38.8 30.9,-60.1 -10.9,-2.6 -21.9,-3.8 -32.9,-5.4 z"
         id="path4341" />
      <path
         inkscape:connector-curvature="0"
         d="m 515.5,369 c 8,30.5 12,61.8 12.6,93.2 29.6,0 59.3,0 88.9,0 -1.8,-41.9 -16.8,-83.1 -42.5,-116.1 -18.5,10.2 -38.6,17.5 -59,22.9 z"
         id="path4343" />
      <path
         inkscape:connector-curvature="0"
         d="m 370.4,655 c 9.1,9.4 20.4,17.2 33.3,20 0,-32.4 0,-64.6 0,-96.8 -24.1,0.5 -48.2,3 -71.8,8 8.7,24.9 20,49.6 38.5,68.8 z"
         id="path4345" />
      <path
         inkscape:connector-curvature="0"
         d="m 493.2,356 c -8.8,-24.8 -20,-49.5 -38.5,-68.7 -9.1,-9.5 -20.4,-17.2 -33.3,-20 0,32.4 0,64.6 0,96.9 18,-0.4 36,-1.8 53.8,-4.8 6.1,-0.7 12.1,-1.9 18,-3.4 z"
         id="path4347" />
      <path
         inkscape:connector-curvature="0"
         d="m 362.7,296.1 c -14.1,17.7 -23.3,38.7 -30.8,59.9 10.5,2.7 21.3,3.8 32,5.4 13.2,1.3 26.5,2.5 39.8,2.7 0,-32.3 0,-64.5 0,-96.9 -17,3.7 -30.6,15.7 -41,28.9 z"
         id="path4349" />
      <path
         inkscape:connector-curvature="0"
         d="m 510.5,352 c 18,-4.7 35.7,-11.2 52.3,-19.8 -25.8,-28 -59.6,-48.7 -96.4,-58.4 4.4,4 8,8.9 11.9,13.5 14.5,19.5 24.7,41.8 32.2,64.7 z"
         id="path4351" />
      <path
         inkscape:connector-curvature="0"
         d="m 498.2,373.2 c -25.1,5.6 -51,8.2 -76.7,8.7 0,26.7 0,53.5 0,80.3 29.6,-0.1 59.2,0.1 88.8,-0.1 -0.6,-29.9 -4.5,-59.8 -12.1,-88.9 z"
         id="path4353" />
      <path
         inkscape:connector-curvature="0"
         d="m 510.1,480 c -29.6,0.1 -59.1,0.1 -88.7,0.1 l 0,80.3 c 25.8,0.4 51.6,3.2 76.8,8.7 7.6,-29.2 11.6,-59.1 11.9,-89.1 z"
         id="path4355" />
      <path
         inkscape:connector-curvature="0"
         d="m 262.3,610 c 25.8,28 59.6,48.7 96.4,58.4 -21.3,-21.6 -34.7,-49.7 -44.1,-78.2 -18.1,4.6 -35.7,11.3 -52.3,19.8 z"
         id="path4357" />
      <path
         inkscape:connector-curvature="0"
         d="m 314.9,462.2 c 29.6,0.1 59.1,0.1 88.8,0.1 l 0,-80.3 c -25.8,-0.4 -51.6,-3.1 -76.8,-8.7 -7.6,29 -11.5,58.9 -12,88.9 z"
         id="path4359" />
      <path
         inkscape:connector-curvature="0"
         d="m 326.9,569.1 c 25.1,-5.7 51,-8.3 76.7,-8.8 0,-26.7 0,-53.5 0,-80.3 -29.6,0 -59.1,-0.1 -88.8,0.1 0.6,30 4.5,60 12.1,89 z"
         id="path4361" />
    </g>
    <path
       d="m 957.8374,1017.1332 c 0.42472,0.9811 -0.92293,0.9229 20.14052,0.9229 21.1361,0 19.73033,0.073 20.15506,-0.952 0.30764,-0.7614 0.30764,-72.32922 0,-73.09067 -0.42473,-1.02546 0.98104,-0.95199 -20.15506,-0.95199 -21.13614,0 -19.73034,-0.0735 -20.15507,0.95199 -0.30764,0.74692 -0.29309,72.40197 0.0146,73.11977 z m 3.44221,-47.60394 c 0.54181,-0.11709 1.02546,-0.84946 1.02546,-1.53821 0,-0.36657 -0.13162,-0.62983 -0.49819,-0.99563 -0.27856,-0.27856 -0.60075,-0.49819 -0.73237,-0.49819 -0.21963,0 -0.23418,-0.95201 -0.23418,-10.17969 l 0,-10.1797 17.13681,0 17.13759,0 0,10.17894 c 0,9.22768 -0.0146,10.17968 -0.23417,10.17968 -0.13164,0 -0.45381,0.21964 -0.73237,0.4982 -0.67421,0.67344 -0.68875,1.4502 -0.0735,2.12364 0.23417,0.24871 0.55636,0.45381 0.73236,0.45381 l 0.30765,0 0,22.70419 0,22.7034 -17.13759,0 -17.13757,0 0,-22.68886 0,-22.68889 0.44004,-0.0727 z"
       id="path4363"
       inkscape:connector-curvature="0" />
    <path
       d="m 964.39887,969.06014 c 0.51273,0.51273 0.51273,0.51273 1.84584,0.51273 1.24511,0 1.36219,-0.0291 1.77238,-0.41019 0.60074,-0.52727 0.70329,-1.24509 0.2931,-1.904 -0.39564,-0.64436 -0.87853,-0.7913 -2.29965,-0.73237 -1.06909,0.0436 -1.25965,0.088 -1.59637,0.42473 -0.23417,0.23418 -0.41019,0.60074 -0.45381,0.98108 -0.0742,0.54182 -0.0299,0.65967 0.43851,1.12802 z"
       id="path4365"
       inkscape:connector-curvature="0" />
    <path
       d="m 965.95161,962.86447 0.42473,0.48366 3.53022,0.0436 c 3.96948,0.0436 4.33527,-0.0145 4.76077,-0.92292 0.33672,-0.68875 0.35127,-11.38118 0.0291,-12.15716 -0.38112,-0.90838 -0.51274,-0.93746 -4.5113,-0.96655 -2.37312,0 -3.70547,0.0437 -3.89602,0.14617 -0.76145,0.41019 -0.76145,0.36657 -0.76145,6.85534 l 0,6.0495 0.42396,0.46834 z m 4.18912,-10.42918 1.5382,0 0,3.88149 0,3.88146 -1.5382,0 -1.5382,0 0,-3.88146 0,-3.88149 1.5382,0 z"
       id="path4367"
       inkscape:connector-curvature="0" />
    <path
       d="m 967.09417,980.93951 c 0.0291,0.17601 1.08363,1.5382 2.32873,3.03202 l 2.25527,2.70984 0,3.23711 c 0,3.60292 0.088,4.07204 0.86399,4.46769 0.55636,0.29309 0.93747,0.29309 1.47928,0.0145 0.64436,-0.33672 0.79129,-0.73236 0.87854,-2.32873 l 0.0734,-1.43566 2.78331,3.33967 c 1.52366,1.8313 3.09095,3.72076 3.47129,4.17457 l 0.70329,0.82038 -1.81523,1.2153 c -1.96293,1.2887 -2.24149,1.6407 -2.08002,2.5338 0.11709,0.6443 0.6589,1.128 1.36219,1.2305 0.52727,0.073 0.73236,-0.044 3.22257,-1.6843 1.45019,-0.9666 2.75346,-1.9186 2.88585,-2.0946 0.30765,-0.45379 0.2931,-1.27417 -0.0291,-1.75783 -0.21963,-0.32217 -7.99713,-9.6968 -8.70041,-10.47279 l -0.27856,-0.30764 1.65529,-0.41019 c 2.43128,-0.60074 2.90039,-0.92292 2.90039,-1.97747 0,-0.6589 -0.33671,-1.14255 -0.96654,-1.4058 -0.46911,-0.19056 -0.67421,-0.16148 -3.14911,0.4538 -1.46473,0.36657 -2.66545,0.65891 -2.6953,0.62982 -0.33672,-0.49819 -4.58476,-5.50769 -4.74547,-5.61023 -0.46911,-0.2931 -0.93746,-0.35126 -1.39127,-0.16071 -0.77829,0.33672 -1.15863,0.99562 -1.01246,1.78692 z"
       id="path4369"
       inkscape:connector-curvature="0" />
    <path
       d="m 971.85495,968.50378 c 0.21963,0.83492 0.70328,1.06909 2.1971,1.06909 1.46474,0 1.77238,-0.10255 2.09456,-0.73237 0.36657,-0.71782 0.27857,-1.28872 -0.27856,-1.84584 -0.48365,-0.48365 -0.52728,-0.4982 -1.72876,-0.4982 -0.952,0 -1.31857,0.0589 -1.69891,0.2931 -0.24871,0.16071 -0.46911,0.30765 -0.46911,0.32219 0,0.0291 -0.0581,0.24871 -0.11709,0.48365 -0.0727,0.24947 -0.0727,0.64436 5.6e-4,0.90838 z"
       id="path4371"
       inkscape:connector-curvature="0" />
    <path
       d="m 979.82299,968.86958 c 0.32219,0.60074 0.62983,0.70329 2.09456,0.70329 1.1571,0 1.36219,-0.0436 1.69891,-0.33672 0.77599,-0.67421 0.71783,-1.9484 -0.11708,-2.44582 -0.36657,-0.23417 -0.73237,-0.2931 -1.69892,-0.2931 -1.18617,0 -1.23055,0.0145 -1.71344,0.49819 -0.55713,0.55636 -0.64513,1.18618 -0.26403,1.87416 z"
       id="path4373"
       inkscape:connector-curvature="0" />
    <path
       d="m 980.01355,962.86447 0.42472,0.48366 3.53022,0.0436 c 3.96948,0.0436 4.33528,-0.0145 4.76078,-0.92292 0.33672,-0.68875 0.35126,-11.38118 0.0291,-12.15716 -0.38111,-0.90838 -0.51273,-0.93746 -4.5113,-0.96655 -2.37312,0 -3.70546,0.0437 -3.89602,0.14617 -0.76144,0.41019 -0.76144,0.36657 -0.76144,6.85534 l 0,6.0495 0.42396,0.46834 z m 4.18912,-10.42918 1.5382,0 0,3.88149 0,3.88146 -1.5382,0 -1.53822,0 0,-3.88146 0,-3.88149 1.53822,0 z"
       id="path4375"
       inkscape:connector-curvature="0" />
    <path
       d="m 987.83466,969.06014 c 0.51274,0.51273 0.51274,0.51273 1.84585,0.51273 1.2451,0 1.36219,-0.0291 1.77237,-0.41019 0.60074,-0.52727 0.7033,-1.24509 0.29311,-1.904 -0.39565,-0.64436 -0.87854,-0.7913 -2.29966,-0.73237 -1.06909,0.0436 -1.25964,0.088 -1.59637,0.42473 -0.23417,0.23418 -0.41018,0.60074 -0.4538,0.98108 -0.0734,0.54182 -0.0299,0.65967 0.4385,1.12802 z"
       id="path4377"
       inkscape:connector-curvature="0" />
    <path
       sodipodi:nodetypes="sscccccccssscccccssssssssscccssccscssccsccscccccsssssssccc"
       inkscape:connector-curvature="0"
       id="path4379"
       d="m 898.94941,1041.3334 c 2.14268,-0.9809 3.48425,-2.2997 4.55784,-4.4803 l 0.94994,-1.9294 0.0783,-35.51311 0.0782,-35.51304 1.73707,0 1.73707,0 0,35.27807 0,35.27818 0.62345,1.6661 c 1.83292,4.8991 7.8043,7.4315 12.45975,5.2843 2.28867,-1.0555 3.60888,-2.3338 4.70054,-4.5512 l 0.94989,-1.9294 0.0772,-43.73512 0.0771,-51.70788 0.0531,-0.0306 c 0.0337,-13.55844 -4.36785,-22.6897 -11.8478,-36.44937 0.57152,-1.44519 1.0391,-2.71748 1.0391,-2.82724 0,-0.10981 -6.30626,-0.16107 -14.01394,-0.11401 -15.60738,0.0954 -14.47177,-0.0425 -18.37058,2.23161 -11.18299,6.52298 -16.72402,27.10588 -15.56099,57.80315 0.22598,5.96293 0.40787,8.11618 0.75616,8.94998 1.66747,3.99176 6.72668,5.11052 9.82055,2.17171 1.80125,-1.71095 1.74421,-1.17002 1.78409,-16.90297 0.0299,-11.74484 0.12742,-15.06825 0.53334,-18.15273 0.90629,-6.88639 1.90437,-11.29212 3.4651,-15.29494 l 0.94442,-2.42218 0.14522,58.52452 0.14521,58.52447 0.77364,1.4523 c 2.42488,4.5518 7.77991,6.4616 12.307,4.3891 z m 47.90864,-96.85079 c -0.63266,-2.06768 -1.54609,-8.65033 -1.54609,-8.65033 0,0 -1.55707,-8.79064 -3.95879,-15.96859 -3.19391,-9.54557 -10.66912,-17.86705 -17.47019,-19.44801 l -8.28823,-0.36695 -0.60391,1.43411 c -1.02782,2.44082 -2.39261,7.18911 -3.4257,10.11498 -2.30104,6.12297 10.4145,21.38324 15.51314,24.3294 l -0.11164,-14.24087 c -0.003,-0.40312 -0.0551,-2.70285 -0.0551,-2.70285 l 0.24773,-1.31816 c 0,0 5.13617,14.38277 5.38192,15.13395 1.03131,3.15242 2.03455,7.67917 2.39211,10.39601 1.25346,4.91971 1.15402,14.72493 2.52423,20.73142 0.6909,5.12372 7.94762,7.38211 10.35089,2.96603 1.83112,-0.79354 -0.6509,-20.20705 -0.95039,-22.41014 z m -36.47668,-49.286 c 2.35628,-0.55543 5.27765,-2.08531 7.21034,-3.776 2.03107,-1.77668 4.28499,-5.22259 5.08889,-7.77995 0.92075,-2.92913 0.90079,-7.65542 -0.0438,-10.36166 -1.841,-5.27494 -6.12532,-9.5284 -11.19696,-11.11646 -2.47173,-0.774 -7.29489,-0.88991 -9.59674,-0.23064 -7.58677,2.1729 -12.63434,8.79483 -12.63434,16.57506 0,4.87851 1.56061,8.60102 5.05425,12.05583 2.48202,2.45447 4.77372,3.81822 7.77137,4.62474 2.04688,0.55073 6.03079,0.55507 8.34691,0.009 z"
       style="fill:#49e10e;fill-opacity:1" />
    <g
       transform="matrix(0.44123635,0,0,0.44123635,430.68371,524.90073)"
       id="g5">
      <path
         inkscape:connector-curvature="0"
         d="m 157.98695,184.38488 15.38788,-16.18471 c 9.01133,-9.01133 24.18529,-5.8854 24.18529,-5.8854 l 45.02946,6.16135 22.80617,-22.31567 c 12.01512,-11.80056 22.86694,6.25375 18.14672,12.47586 l -11.70942,13.61004 48.49336,8.98159 16.46066,-19.18912 c 17.59356,-21.02645 30.68334,-2.08353 22.74478,9.07336 l -10.63664,13.45688 72.86283,9.50247 c 62.65024,-60.29014 88.22733,-85.29891 104.71135,-70.44132 16.59028,14.95339 -12.75624,44.75856 -69.82804,103.5468 l 10.36069,75.06977 15.2651,-12.72081 c 9.01133,-7.50944 25.01187,4.53795 8.49108,20.20051 l -20.99733,19.80177 8.8588,49.13702 13.11954,-10.08475 c 11.586,-9.22589 25.65553,2.97466 9.99297,19.71 l -20.84417,20.99734 c -0.85822,0.64367 6.80502,43.09845 6.80502,43.09845 4.72022,20.8119 -7.01958,28.41564 -7.01958,28.41564 l -14.31509,12.47587 -54.37876,-153.60343 c -4.50567,-13.51701 -15.92502,-28.19577 -35.00611,-26.45363 -10.08411,1.07278 -35.55799,18.2695 -38.99088,22.34606 l -58.97684,56.70849 c -1.50189,1.07278 9.07336,73.72104 9.07336,73.72104 0,2.14556 -18.69861,26.66819 -18.69861,26.66819 l -37.36621,-66.51729 -18.45305,8.58285 10.7898,-16.79799 -67.28375,-37.97951 25.22769,-18.45304 c 12.01512,2.78922 75.00838,9.87019 76.29571,9.22652 0,0 51.29689,-50.87264 54.2256,-53.94965 16.9499,-17.80812 22.65302,-24.46187 25.22769,-33.25865 2.57678,-8.80401 -1.81285,-21.70583 -28.41564,-38.04088 -36.68901,-22.52835 -151.64143,-61.09202 -151.64143,-61.09202 z"
         id="path3166"
         style="fill:#000000;stroke:none" />
    </g>
    <g
       id="g4401"
       transform="matrix(-0.21666403,0,0,0.13945607,501.13819,932.00824)">
      <polygon
         points="233.17773,0 233.17773,141.73242 902.25049,141.73242 902.25049,222.98633 902.25049,222.98633 233.17773,222.98633 233.17773,364.71875 0,182.35938 "
         id="polygon4403" />
    </g>
    <g
       transform="matrix(-0.21666403,0,0,0.13945607,856.58751,930.22206)"
       id="g4405">
      <polygon
         id="polygon4407"
         points="233.17773,141.73242 902.25049,141.73242 902.25049,222.98633 902.25049,222.98633 233.17773,222.98633 233.17773,364.71875 0,182.35938 233.17773,0 " />
    </g>
    <text
       xml:space="preserve"
       style="font-style:normal;font-weight:normal;font-size:40px;line-height:125%;font-family:sans-serif;letter-spacing:0px;word-spacing:0px;fill:#000000;fill-opacity:1;stroke:none;stroke-width:1px;stroke-linecap:butt;stroke-linejoin:miter;stroke-opacity:1"
       x="-389.6785"
       y="925.04181"
       id="text4409"
       sodipodi:linespacing="125%"
       transform="matrix(0.70710678,-0.70710678,0.70710678,0.70710678,0,0)"><tspan
         sodipodi:role="line"
         id="tspan4411"
         x="-389.6785"
         y="925.04181">Check-in</tspan></text>
    <text
       xml:space="preserve"
       style="font-style:normal;font-weight:normal;font-size:40px;line-height:125%;font-family:sans-serif;letter-spacing:0px;word-spacing:0px;fill:#000000;fill-opacity:1;stroke:none;stroke-width:1px;stroke-linecap:butt;stroke-linejoin:miter;stroke-opacity:1"
       x="-137.93381"
       y="1165.9235"
       id="text4413"
       sodipodi:linespacing="125%"
       transform="matrix(0.70710678,-0.70710678,0.70710678,0.70710678,0,0)"><tspan
         sodipodi:role="line"
         id="tspan4415"
         x="-137.93381"
         y="1165.9235">Security</tspan></text>
  </g>
</svg>
