<?xml version="1.0" encoding="UTF-8" standalone="no"?>
<!-- Created with Inkscape (http://www.inkscape.org/) -->

<svg
   xmlns:dc="http://purl.org/dc/elements/1.1/"
   xmlns:cc="http://creativecommons.org/ns#"
   xmlns:rdf="http://www.w3.org/1999/02/22-rdf-syntax-ns#"
   xmlns:svg="http://www.w3.org/2000/svg"
   xmlns="http://www.w3.org/2000/svg"
   xmlns:sodipodi="http://sodipodi.sourceforge.net/DTD/sodipodi-0.dtd"
   xmlns:inkscape="http://www.inkscape.org/namespaces/inkscape"
   id="svg3390"
   version="1.1"
   inkscape:version="0.91 r13725"
   width="1048.2861"
   height="451.90466"
   viewBox="0 0 1048.2861 451.90467"
   sodipodi:docname="hellfest.svg">
  <metadata
     id="metadata3396">
    <rdf:RDF>
      <cc:Work
         rdf:about="">
        <dc:format>image/svg+xml</dc:format>
        <dc:type
           rdf:resource="http://purl.org/dc/dcmitype/StillImage" />
        <dc:title />
      </cc:Work>
    </rdf:RDF>
  </metadata>
  <defs
     id="defs3394" />
  <sodipodi:namedview
     pagecolor="#ffffff"
     bordercolor="#666666"
     borderopacity="1"
     objecttolerance="10"
     gridtolerance="10"
     guidetolerance="10"
     inkscape:pageopacity="0"
     inkscape:pageshadow="2"
     inkscape:window-width="1662"
     inkscape:window-height="1002"
     id="namedview3392"
     showgrid="false"
     fit-margin-top="0"
     fit-margin-left="0"
     fit-margin-right="0"
     fit-margin-bottom="0"
     inkscape:zoom="0.37266791"
     inkscape:cx="128.63727"
     inkscape:cy="118.75828"
     inkscape:window-x="3"
     inkscape:window-y="27"
     inkscape:window-maximized="0"
     inkscape:current-layer="svg3390"
     inkscape:object-nodes="true" />
  <path
     style="fill:#040030;fill-opacity:1;fill-rule:evenodd;stroke:none;stroke-width:1px;stroke-linecap:butt;stroke-linejoin:miter;stroke-opacity:1"
     d="m 113.08536,234.69302 c -7.26501,5.0855 -7.99152,11.4424 -14.530028,13.62191 -6.53851,2.1795 -29.06006,5.63038 -29.06006,5.63038 0,0 -1.27138,3.99577 5.26713,5.81201 6.53852,1.81626 9.44452,1.45301 9.44452,1.45301 0,0 -5.81201,5.08551 -16.70953,8.71802 -10.89753,3.63251 -18.889046,5.44876 -18.889046,5.44876 0,0 -0.36325,2.90601 1.634626,2.90601 1.99788,0 5.08551,0.36325 5.08551,0.36325 l -6.901761,4.54062 14.348411,0.72651 -9.2629,6.90177 23.24805,1.08974 -1.81625,1.63464 8.17314,1.99787 -13.25865,7.08339 c 0,0 8.53639,2.36114 16.52791,2.54277 7.99152,0.18162 15.801408,0.18162 15.801408,0.18162 l -5.812018,4.17738 17.799298,1.45301 c 0,0 -0.90814,1.81625 -2.17951,1.81625 -1.27138,0 -2.90601,0.7265 -2.90601,0.7265 l 9.26289,-0.18163 -0.72649,1.45301 47.2226,-5.26714 4.72226,-7.26502 3.45089,4.90388 c 0,0 4.54064,-8.35476 4.54064,-11.44239 0,-3.08763 1.99787,-10.35264 1.99787,-10.35264 l 1.81626,0.7265 c 0,0 2.72438,-10.53428 2.72438,-15.80141 0,-5.26714 -2.17951,-13.80353 -2.17951,-13.80353 l 4.17739,3.99576 c 0,0 -3.63251,-4.17739 -3.81413,-7.26501 -0.18163,-3.08764 -2.17951,-10.7159 -5.99364,-17.0728 -3.81413,-6.35689 -10.7159,-13.07702 -12.89541,-13.44027 -2.1795,-0.36325 -11.4424,-0.18163 -15.07491,0.90812 -3.63251,1.08975 -7.44664,5.81201 -7.44664,5.81201 0,0 -4.90389,0.90813 -6.3569,-1.453 -1.453,-2.36113 -6.17525,-4.72226 -6.17525,-4.72226 l 1.27137,3.81413 z"
     id="path3400"
     inkscape:connector-curvature="0" />
  <path
     style="fill:#fde0d2;fill-opacity:1;fill-rule:evenodd;stroke:#000000;stroke-width:1.08297527px;stroke-linecap:butt;stroke-linejoin:miter;stroke-opacity:1"
     d="m 163.03235,261.21033 c 0,8.35477 2.1795,37.2332 -12.71379,39.95759 -14.89327,2.72437 -22.52154,0.72649 -28.51518,-10.53428 -5.99364,-11.26078 -5.44876,-31.23957 -0.7265,-37.9597 4.72225,-6.72014 7.44664,-15.07491 11.26077,-16.34629 3.81414,-1.27138 4.17739,1.08976 6.17526,1.27138 1.99789,0.18163 6.53852,-6.35689 13.25867,-5.08552 6.72013,1.27138 11.26077,28.69682 11.26077,28.69682 z"
     id="path3402"
     inkscape:connector-curvature="0" />
  <path
     style="fill:none;fill-rule:evenodd;stroke:#000000;stroke-width:1.08297527px;stroke-linecap:butt;stroke-linejoin:miter;stroke-opacity:1"
     d="m 124.70938,249.94955 c 0,0 3.26926,-3.26925 6.53852,-1.81625 3.26925,1.453 0.36326,-0.18162 0.36326,-0.18162"
     id="path3404"
     inkscape:connector-curvature="0" />
  <path
     style="fill:none;fill-rule:evenodd;stroke:#000000;stroke-width:1.08297527px;stroke-linecap:butt;stroke-linejoin:miter;stroke-opacity:1"
     d="m 140.87405,242.50292 c 0,0 4.17738,-5.63039 9.44451,-3.99576 5.26715,1.63462 0.54488,3.99576 3.63251,8.17314 3.08765,4.17738 -0.54486,-0.54488 -0.54486,-0.54488"
     id="path3406"
     inkscape:connector-curvature="0" />
  <ellipse
     style="fill:#f9f8f4;fill-opacity:1;fill-rule:evenodd;stroke:#000000;stroke-width:1.08297527px;stroke-linecap:butt;stroke-linejoin:miter;stroke-opacity:1"
     id="path3408"
     cx="144.68817"
     cy="257.85022"
     rx="4.5406351"
     ry="4.0865712" />
  <circle
     style="fill:#fdfdfd;fill-opacity:1;fill-rule:evenodd;stroke:#000000;stroke-width:1.08297527px;stroke-linecap:butt;stroke-linejoin:miter;stroke-opacity:1"
     id="path3410"
     cx="124.25533"
     cy="259.84814"
     r="2.4519429" />
  <ellipse
     style="fill:#ff0000;fill-rule:evenodd;stroke:#000000;stroke-width:1.08297527px;stroke-linecap:butt;stroke-linejoin:miter;stroke-opacity:1"
     id="path3412"
     cx="126.16238"
     cy="261.6644"
     rx="0.36325079"
     ry="0.090812698" />
  <path
     style="fill:none;fill-rule:evenodd;stroke:#000000;stroke-width:1.08297527px;stroke-linecap:butt;stroke-linejoin:miter;stroke-opacity:1"
     d="m 123.98288,274.6506 29.06007,-5.26713 0,0"
     id="path3414"
     inkscape:connector-curvature="0" />
  <path
     style="fill:none;fill-rule:evenodd;stroke:#000000;stroke-width:1.08297527px;stroke-linecap:butt;stroke-linejoin:miter;stroke-opacity:1"
     d="m 130.5214,267.38559 4.35901,0 -0.72651,0"
     id="path3416"
     inkscape:connector-curvature="0" />
  <path
     style="fill:#010101;fill-opacity:1;fill-rule:evenodd;stroke:#000000;stroke-width:1.08297527px;stroke-linecap:butt;stroke-linejoin:miter;stroke-opacity:1"
     d="m 125.61751,280.82587 c 0,0 1.63463,-2.906 7.62827,-3.6325 5.99364,-0.72651 5.99364,-0.90814 5.99364,-0.90814 l 4.72226,0 -0.36325,1.99789 -5.26714,0.36325 c 0,0 0.7265,8.718 2.72438,13.6219 1.99788,4.90388 3.45089,9.80776 3.45089,9.80776 l -0.36325,1.08976 -8.71802,0 c 0,0 -4.54064,-9.08127 -5.26715,-13.07702 -0.72649,-3.99576 -1.63462,-8.17314 -1.63462,-8.17314 z"
     id="path3418"
     inkscape:connector-curvature="0" />
  <path
     style="fill:#fde0d2;fill-opacity:1;fill-rule:evenodd;stroke:#000000;stroke-width:1.08297527px;stroke-linecap:butt;stroke-linejoin:miter;stroke-opacity:1"
     d="m 150.13694,301.89441 c 0,0 -2.906,3.99577 -2.906,6.90177 0,2.906 0,4.17738 1.453,4.17738 1.453,0 5.0855,-1.63462 5.0855,-1.63462 0,0 -1.63461,7.26501 -12.71377,8.17313 -11.07915,0.90813 -9.44451,-4.90388 -9.44451,-4.90388 0,0 3.99575,-0.7265 4.54063,-4.35901 0.54487,-3.63251 0.7265,-6.72014 0.7265,-6.72014 z"
     id="path3420"
     inkscape:connector-curvature="0" />
  <path
     style="fill:#020001;fill-opacity:1;fill-rule:evenodd;stroke:#000000;stroke-width:1.08297527px;stroke-linecap:butt;stroke-linejoin:miter;stroke-opacity:1"
     d="m 131.06628,314.06332 c 0,0 -14.16679,-0.72651 -17.7993,2.1795 -3.6325,2.906 -19.978788,19.40692 -19.978788,34.69045 l 0,0.54488 c 4.95832,0.91046 15.074908,2.906 15.074908,2.906 0,0 -1.08975,-8.17313 0.54487,-10.89753 1.63464,-2.72437 2.36114,-4.90388 2.36114,-4.90388 l -5.44876,57.03038 c 0,0 19.25228,5.26714 32.69256,6.17526 13.44029,0.90812 30.33145,-0.90812 30.33145,-0.90812 0,0 -1.27137,-23.24806 -0.18163,-28.33357 1.08976,-5.08552 3.81415,-23.97455 3.81415,-23.97455 0,0 15.61978,-11.26078 18.52578,-15.07491 2.906,-3.81413 12.16891,-10.17102 12.16891,-10.17102 0,0 2.24438,-30.14985 -9.9894,-30.14982 0,0 -18.88905,16.52792 -27.42544,17.07279 -5.11301,0.32637 -17.25937,8.83621 -26.52933,9.70673 -8.14034,0.76445 -8.16112,-5.89259 -8.16112,-5.89259 z"
     id="path3422"
     inkscape:connector-curvature="0"
     sodipodi:nodetypes="cssccsccscscscsssc" />
  <path
     style="fill:#fde0d2;fill-opacity:1;fill-rule:evenodd;stroke:#000000;stroke-width:1.08297527px;stroke-linecap:butt;stroke-linejoin:miter;stroke-opacity:1"
     d="m 193.3638,298.62515 c 0,0 -1.63463,5.08551 -1.27138,8.71802 0.36325,3.63252 1.81624,8.17315 1.81624,8.17315 0,0 10.35266,-12.71378 11.26078,-19.43392 0.90813,-6.72014 5.63039,-17.43603 5.99364,-25.97243 0.36325,-8.53639 1.08976,-21.06855 1.08976,-21.06855 0,0 3.99576,-4.72226 3.99576,-7.08338 0,-2.36114 0,-7.44665 0,-7.44665 0,0 4.359,-6.72013 5.26713,-12.16889 0.90813,-5.44877 1.453,-25.60919 1.453,-25.60919 0,0 -0.18162,-2.90601 -3.26925,-2.90601 -3.08763,0 -3.99576,3.99577 -3.99576,3.99577 l -0.36326,16.5279 c 0,0 -1.27138,-1.81625 -3.08762,-1.63462 -1.81626,0.18163 -3.08764,3.26925 -3.08764,3.26925 0,0 -0.90812,-2.36112 -4.54063,-1.63463 -3.63251,0.7265 -5.6304,4.72226 -5.6304,4.72226 l -3.81413,-21.25016 c 0,0 -0.18162,-2.90602 -4.90388,-1.99789 -4.72226,0.90813 -5.44876,6.90177 -5.44876,6.90177 l 8.5364,39.59434 c 0,0 -3.81414,3.08763 -2.36114,7.26501 1.45301,4.1774 8.71802,2.90601 8.71802,2.90601 0,0 1.63463,17.43604 -0.54488,24.3378 -2.1795,6.90176 -2.1795,19.43392 -5.812,21.79504 z"
     id="path4224"
     inkscape:connector-curvature="0" />
  <path
     style="fill:#fde0d2;fill-opacity:1;fill-rule:evenodd;stroke:#000000;stroke-width:1.08297527px;stroke-linecap:butt;stroke-linejoin:miter;stroke-opacity:1"
     d="m 95.885712,352.17884 -8.71802,13.07702 c 0,0 -1.08975,-3.45087 -6.35689,-1.63462 -5.26713,1.81625 -3.08763,6.17526 -3.08763,6.17526 l -3.26926,-0.7265 -7.99151,9.9894 2.906,3.63251 0.36325,5.44876 c 0,0 -0.36325,1.81625 0.90813,2.906 1.27138,1.08975 3.45088,-0.54488 3.45088,-0.54488 l 3.81414,0.36326 c 0,0 1.08975,2.906 2.72438,3.26925 1.63463,0.36325 5.44876,-2.1795 5.44876,-2.1795 l 3.26926,-5.81201 c 0,0 0.54487,-3.99576 -0.36325,-4.72227 -0.90813,-0.7265 -1.45301,-2.72437 -1.45301,-2.72437 0,0 2.72438,0.36325 3.63251,-0.90813 0.90813,-1.27138 0.36325,-1.63463 0.36325,-1.63463 l 11.805648,-19.61555 1.46214,-2.79583 z"
     id="path4226"
     inkscape:connector-curvature="0"
     sodipodi:nodetypes="ccscccccsccsccscscccc" />
  <path
     style="fill:#f7f6f5;fill-opacity:1;fill-rule:evenodd;stroke:none;stroke-width:1px;stroke-linecap:butt;stroke-linejoin:miter;stroke-opacity:1"
     d="m 133.4274,332.22585 -5.26713,28.15194 -7.62827,-0.54488 -0.7265,6.72015 7.44664,0.54486 -0.18162,13.07704 c 0,0 2.906,-1.08975 3.99576,-1.08975 1.08975,0 3.81413,0 3.81413,0 0,0 -0.72651,-3.45088 -0.36326,-5.99364 0.36326,-2.54275 -0.18162,-5.08552 -0.18162,-5.08552 l 9.80778,0.36326 c 0,0 0.54487,-3.81413 0.54487,-4.90389 0,-1.08975 -1.08975,-2.36112 -1.08975,-2.36112 l -6.72014,0.18163 c 0,0 0,-11.62403 1.63462,-15.98304 1.63464,-4.35901 3.08764,-13.07704 3.08764,-13.07704 z"
     id="path4228"
     inkscape:connector-curvature="0"
     sodipodi:nodetypes="ccccccscsccsccscc" />
  <path
     style="fill:none;fill-rule:evenodd;stroke:#000000;stroke-width:1.08297527px;stroke-linecap:butt;stroke-linejoin:miter;stroke-opacity:1"
     d="m 198.99417,220.16298 c 0,0 3.45089,4.54064 2.90602,7.99153 -0.54488,3.45088 -1.27138,7.62826 -1.27138,7.62826 0,0 0.18163,3.45088 4.90388,3.6325 4.72226,0.18163 5.44876,-4.72225 5.44876,-4.72225 0,0 0.54488,-5.63039 0.54488,-8.53639 0,-2.90601 -1.99788,-9.9894 -1.99788,-9.9894"
     id="path4230"
     inkscape:connector-curvature="0" />
  <path
     style="fill:none;fill-rule:evenodd;stroke:#000000;stroke-width:1.08297527px;stroke-linecap:butt;stroke-linejoin:miter;stroke-opacity:1"
     d="m 210.25495,237.41741 c 0,0 4.17738,2.17949 4.90389,-1.81627 0.7265,-3.99575 2.36114,-6.53851 2.36114,-9.62614 0,-3.08763 -1.63464,-11.26078 -1.63464,-11.26078"
     id="path4232"
     inkscape:connector-curvature="0" />
  <path
     style="fill:none;fill-rule:evenodd;stroke:#000000;stroke-width:1.08297527px;stroke-linecap:butt;stroke-linejoin:miter;stroke-opacity:1"
     d="m 193.72704,242.50292 c 0,0 13.07703,-3.81413 16.52791,-0.90813 3.45088,2.906 3.63251,6.90176 0.7265,7.44663 -2.906,0.54488 -11.80565,3.45089 -11.80565,3.45089"
     id="path4234"
     inkscape:connector-curvature="0" />
  <path
     style="fill:none;fill-rule:evenodd;stroke:#000000;stroke-width:1.08297527px;stroke-linecap:butt;stroke-linejoin:miter;stroke-opacity:1"
     d="m 78.042732,369.93675 c 0,0 0.70636,1.3485 0.32107,2.44014 -0.38528,1.09165 -1.60535,2.2475 -1.60535,2.2475 0,0 3.596,-3.21071 5.00871,-2.31171 1.41271,0.899 2.31171,3.27493 1.99064,4.68764 -0.32107,1.41272 2.63279,0 2.63279,0 l 1.02743,1.798"
     id="path4236"
     inkscape:connector-curvature="0" />
  <path
     style="fill:none;fill-rule:evenodd;stroke:#000000;stroke-width:1.08297527px;stroke-linecap:butt;stroke-linejoin:miter;stroke-opacity:1"
     d="m 87.096952,365.57019 4.36657,10.72378 0,0 0,0 0,0 0,0"
     id="path4238"
     inkscape:connector-curvature="0" />
  <path
     style="fill:#27221e;fill-opacity:1;fill-rule:evenodd;stroke:#000000;stroke-width:1.08297527px;stroke-linecap:butt;stroke-linejoin:miter;stroke-opacity:1"
     d="m 138.14729,445.26009 c 0,0 0.51372,2.31172 3.596,3.33915 3.08229,1.02743 29.79544,-0.25687 29.79544,-0.25687 l -4.88029,-15.66827 -24.14458,-2.05487 -3.08228,7.44886 z"
     id="path4248"
     inkscape:connector-curvature="0" />
  <path
     style="fill:#241f1c;fill-opacity:1;fill-rule:evenodd;stroke:#000000;stroke-width:1.08297527px;stroke-linecap:butt;stroke-linejoin:miter;stroke-opacity:1"
     d="m 97.050162,448.59924 26.199418,-0.25687 1.28429,-11.04485 -16.43885,-7.44885 -7.96258,4.62343 z"
     id="path4246"
     inkscape:connector-curvature="0" />
  <path
     style="fill:#544b46;fill-opacity:1;fill-rule:evenodd;stroke:#000000;stroke-width:1.08297527px;stroke-linecap:butt;stroke-linejoin:miter;stroke-opacity:1"
     d="m 110.14987,396.7141 -12.448438,45.19394 c 0,0 0.63301,-8.97709 13.475868,-7.94965 12.84285,1.02741 12.586,11.3017 12.586,11.3017 l 4.62342,-1.28428 5.90772,-21.83286 4.10971,23.374 c 0,0 -1.54115,-10.27428 14.384,-10.27428 15.92515,0 17.46629,9.76057 17.46629,9.76057 l -6.42143,-42.89513 z"
     id="path4240"
     inkscape:connector-curvature="0"
     sodipodi:nodetypes="ccsccccsccc" />
  <path
     style="fill:none;fill-rule:evenodd;stroke:#000000;stroke-width:1.08297527px;stroke-linecap:butt;stroke-linejoin:miter;stroke-opacity:1"
     d="m 123.7633,416.23525 c 0,0 -0.51372,4.62342 10.01742,4.88027 10.53114,0.25686 0.77057,0.25686 0.77057,0.25686"
     id="path4242"
     inkscape:connector-curvature="0" />
  <path
     style="fill:none;fill-rule:evenodd;stroke:#000000;stroke-width:1.08297527px;stroke-linecap:butt;stroke-linejoin:miter;stroke-opacity:1"
     d="m 129.41415,401.33754 -0.77057,6.67827 4.10971,0.77058 0.77058,-7.192 0,0 0,0"
     id="path4244"
     inkscape:connector-curvature="0" />
  <path
     style="fill:none;fill-opacity:1;stroke:#000000;stroke-width:1.41462171;stroke-miterlimit:4;stroke-dasharray:none;stroke-opacity:1"
     d="m 62.768322,311.90788 -17.974973,0 c -0.50291,3.66809 -5.61035,8.4835 -11.58742,8.48604 -5.97764,-0.002 -10.82883,-4.81759 -11.33179,-8.48604 l -21.16533017,0 0.25711,121.53045 22.00767017,0 c 0.89099,-3.43579 5.69972,-9.12399 11.34906,-9.12837 5.6522,0.002 10.46512,5.69086 11.35657,9.12837 l 17.346213,0 z"
     id="rect4333"
     inkscape:connector-curvature="0"
     sodipodi:nodetypes="ccccccccccc" />
  <path
     inkscape:connector-curvature="0"
     id="path4348"
     d="m 17.495849,354.2085 13.51481,0.51323 c 0,0 -1.96738,5.55994 -2.13843,7.61282 -0.17097,2.0529 -0.59874,7.01401 -0.59874,7.01401 l 8.63922,0 c 0,0 -0.3421,-4.8756 -0.85539,-7.44171 -0.51323,-2.56613 -2.13839,-7.27066 -2.13839,-7.27066 l 13.34372,-0.0858 c 0,0 -1.53966,5.38881 -1.96733,7.78386 -0.4277,2.39506 -0.68428,6.24418 -0.68428,6.24418 0,0 5.902043,-1.19752 6.671853,-1.53966 0.76986,-0.34209 0.85537,-0.34209 0.85537,-0.34209 l 4.70456,-1.112 0.17099,16.76524 c 0,0 -6.07313,-2.39503 -7.52726,-2.56612 -1.454093,-0.17098 -4.790073,-0.68428 -4.790073,-0.68428 0,0 0.42772,5.04667 1.02646,7.52727 0.59877,2.48055 1.71078,6.50076 1.71078,6.50076 l -13.60039,-0.0858 c 0,0 2.30947,-6.58636 2.39501,-8.29705 0.0858,-1.71076 0.59878,-6.32974 0.59878,-6.32974 l -8.72479,-0.0856 c 0,0 0.4277,5.64542 0.76985,7.09957 0.3421,1.45415 2.13841,7.61277 2.13841,7.61277 l -13.34377,0.0858 c 0,0 2.05288,-6.07311 2.22399,-7.95494 0.17097,-1.8818 0.51318,-5.90201 0.51318,-5.90201 0,0 -4.36235,0.5132 -6.58633,1.02643 -2.22395,0.51323 -6.0731102,1.79629 -6.0731102,1.79629 l 0,-16.59419 c 0,0 6.0731102,2.13845 7.8694202,2.13845 1.79623,0 5.13216,0.76986 5.13216,0.76986 0,0 -0.5132,-6.84301 -1.02643,-7.69838 -0.51317,-0.85532 -2.22392,-6.50076 -2.22392,-6.50076 z"
     style="fill:#00221e;fill-opacity:1;fill-rule:evenodd;stroke:none;stroke-width:1px;stroke-linecap:butt;stroke-linejoin:miter;stroke-opacity:1" />
  <path
     inkscape:connector-curvature="0"
     id="path4350"
     d="m 515.58849,233.26373 c -7.26501,5.0855 -7.99152,11.4424 -14.53003,13.62191 -6.53851,2.1795 -29.06006,5.63038 -29.06006,5.63038 0,0 -1.27138,3.99577 5.26713,5.81201 6.53852,1.81626 9.44452,1.45301 9.44452,1.45301 0,0 -5.81201,5.08551 -16.70953,8.71802 -10.89753,3.63251 -18.88905,5.44876 -18.88905,5.44876 0,0 -0.36325,2.90601 1.63463,2.90601 1.99788,0 5.08551,0.36325 5.08551,0.36325 l -6.90176,4.54062 14.34841,0.72651 -9.2629,6.90177 23.24805,1.08974 -1.81625,1.63464 8.17314,1.99787 -13.25865,7.08339 c 0,0 8.53639,2.36114 16.52791,2.54277 7.99152,0.18162 15.80141,0.18162 15.80141,0.18162 l -5.81202,4.17738 17.7993,1.45301 c 0,0 -0.90814,1.81625 -2.17951,1.81625 -1.27138,0 -2.90601,0.7265 -2.90601,0.7265 l 9.26289,-0.18163 -0.72649,1.45301 47.2226,-5.26714 4.72226,-7.26502 3.45089,4.90388 c 0,0 4.54064,-8.35476 4.54064,-11.44239 0,-3.08763 1.99787,-10.35264 1.99787,-10.35264 l 1.81626,0.7265 c 0,0 2.72438,-10.53428 2.72438,-15.80141 0,-5.26714 -2.17951,-13.80353 -2.17951,-13.80353 l 4.17739,3.99576 c 0,0 -3.63251,-4.17739 -3.81413,-7.26501 -0.18163,-3.08764 -2.17951,-10.7159 -5.99364,-17.0728 -3.81413,-6.35689 -10.7159,-13.07702 -12.89541,-13.44027 -2.1795,-0.36325 -11.4424,-0.18163 -15.07491,0.90812 -3.63251,1.08975 -7.44664,5.81201 -7.44664,5.81201 0,0 -4.90389,0.90813 -6.3569,-1.453 -1.453,-2.36113 -6.17525,-4.72226 -6.17525,-4.72226 l 1.27137,3.81413 z"
     style="fill:#040030;fill-opacity:1;fill-rule:evenodd;stroke:none;stroke-width:1px;stroke-linecap:butt;stroke-linejoin:miter;stroke-opacity:1" />
  <path
     inkscape:connector-curvature="0"
     id="path4352"
     d="m 565.53548,259.78104 c 0,8.35477 2.1795,37.2332 -12.71379,39.95759 -14.89327,2.72437 -22.52154,0.72649 -28.51518,-10.53428 -5.99364,-11.26078 -5.44876,-31.23957 -0.7265,-37.9597 4.72225,-6.72014 7.44664,-15.07491 11.26077,-16.34629 3.81414,-1.27138 4.17739,1.08976 6.17526,1.27138 1.99789,0.18163 6.53852,-6.35689 13.25867,-5.08552 6.72013,1.27138 11.26077,28.69682 11.26077,28.69682 z"
     style="fill:#fde0d2;fill-opacity:1;fill-rule:evenodd;stroke:#000000;stroke-width:1.08297527px;stroke-linecap:butt;stroke-linejoin:miter;stroke-opacity:1" />
  <path
     inkscape:connector-curvature="0"
     id="path4354"
     d="m 527.21251,248.52026 c 0,0 3.26926,-3.26925 6.53852,-1.81625 3.26925,1.453 0.36326,-0.18162 0.36326,-0.18162"
     style="fill:none;fill-rule:evenodd;stroke:#000000;stroke-width:1.08297527px;stroke-linecap:butt;stroke-linejoin:miter;stroke-opacity:1" />
  <path
     inkscape:connector-curvature="0"
     id="path4356"
     d="m 543.37718,241.07363 c 0,0 4.17738,-5.63039 9.44451,-3.99576 5.26715,1.63462 0.54488,3.99576 3.63251,8.17314 3.08765,4.17738 -0.54486,-0.54488 -0.54486,-0.54488"
     style="fill:none;fill-rule:evenodd;stroke:#000000;stroke-width:1.08297527px;stroke-linecap:butt;stroke-linejoin:miter;stroke-opacity:1" />
  <ellipse
     ry="4.0865712"
     rx="4.5406351"
     cy="256.42093"
     cx="547.19128"
     id="ellipse4358"
     style="fill:#f9f8f4;fill-opacity:1;fill-rule:evenodd;stroke:#000000;stroke-width:1.08297527px;stroke-linecap:butt;stroke-linejoin:miter;stroke-opacity:1" />
  <circle
     r="2.4519429"
     cy="258.41885"
     cx="526.75848"
     id="circle4360"
     style="fill:#fdfdfd;fill-opacity:1;fill-rule:evenodd;stroke:#000000;stroke-width:1.08297527px;stroke-linecap:butt;stroke-linejoin:miter;stroke-opacity:1" />
  <ellipse
     ry="0.090812698"
     rx="0.36325079"
     cy="260.23511"
     cx="528.66553"
     id="ellipse4362"
     style="fill:#ff0000;fill-rule:evenodd;stroke:#000000;stroke-width:1.08297527px;stroke-linecap:butt;stroke-linejoin:miter;stroke-opacity:1" />
  <path
     inkscape:connector-curvature="0"
     id="path4364"
     d="m 526.48601,273.22131 29.06007,-5.26713 0,0"
     style="fill:none;fill-rule:evenodd;stroke:#000000;stroke-width:1.08297527px;stroke-linecap:butt;stroke-linejoin:miter;stroke-opacity:1" />
  <path
     inkscape:connector-curvature="0"
     id="path4366"
     d="m 533.02453,265.9563 4.35901,0 -0.72651,0"
     style="fill:none;fill-rule:evenodd;stroke:#000000;stroke-width:1.08297527px;stroke-linecap:butt;stroke-linejoin:miter;stroke-opacity:1" />
  <path
     inkscape:connector-curvature="0"
     id="path4368"
     d="m 528.12064,279.39658 c 0,0 1.63463,-2.906 7.62827,-3.6325 5.99364,-0.72651 5.99364,-0.90814 5.99364,-0.90814 l 4.72226,0 -0.36325,1.99789 -5.26714,0.36325 c 0,0 0.7265,8.718 2.72438,13.6219 1.99788,4.90388 3.45089,9.80776 3.45089,9.80776 l -0.36325,1.08976 -8.71802,0 c 0,0 -4.54064,-9.08127 -5.26715,-13.07702 -0.72649,-3.99576 -1.63462,-8.17314 -1.63462,-8.17314 z"
     style="fill:#010101;fill-opacity:1;fill-rule:evenodd;stroke:#000000;stroke-width:1.08297527px;stroke-linecap:butt;stroke-linejoin:miter;stroke-opacity:1" />
  <path
     inkscape:connector-curvature="0"
     id="path4370"
     d="m 552.64007,300.46512 c 0,0 -2.906,3.99577 -2.906,6.90177 0,2.906 0,4.17738 1.453,4.17738 1.453,0 5.0855,-1.63462 5.0855,-1.63462 0,0 -1.63461,7.26501 -12.71377,8.17313 -11.07915,0.90813 -9.44451,-4.90388 -9.44451,-4.90388 0,0 3.99575,-0.7265 4.54063,-4.35901 0.54487,-3.63251 0.7265,-6.72014 0.7265,-6.72014 z"
     style="fill:#fde0d2;fill-opacity:1;fill-rule:evenodd;stroke:#000000;stroke-width:1.08297527px;stroke-linecap:butt;stroke-linejoin:miter;stroke-opacity:1" />
  <path
     sodipodi:nodetypes="cssccsccscscscsssc"
     inkscape:connector-curvature="0"
     id="path4372"
     d="m 533.56941,312.63403 c 0,0 -14.16679,-0.72651 -17.7993,2.1795 -3.6325,2.906 -19.97879,19.40692 -19.97879,34.69045 l 0,0.54488 c 4.95832,0.91046 15.07491,2.906 15.07491,2.906 0,0 -1.08975,-8.17313 0.54487,-10.89753 1.63464,-2.72437 2.36114,-4.90388 2.36114,-4.90388 l -5.44876,57.03038 c 0,0 19.25228,5.26714 32.69256,6.17526 13.44029,0.90812 30.33145,-0.90812 30.33145,-0.90812 0,0 -1.27137,-23.24806 -0.18163,-28.33357 1.08976,-5.08552 3.81415,-23.97455 3.81415,-23.97455 0,0 15.61978,-11.26078 18.52578,-15.07491 2.906,-3.81413 12.16891,-10.17102 12.16891,-10.17102 0,0 2.24438,-30.14985 -9.9894,-30.14982 0,0 -18.88905,16.52792 -27.42544,17.07279 -5.11301,0.32637 -17.25937,8.83621 -26.52933,9.70673 -8.14034,0.76445 -8.16112,-5.89259 -8.16112,-5.89259 z"
     style="fill:#020001;fill-opacity:1;fill-rule:evenodd;stroke:#000000;stroke-width:1.08297527px;stroke-linecap:butt;stroke-linejoin:miter;stroke-opacity:1" />
  <path
     inkscape:connector-curvature="0"
     id="path4374"
     d="m 595.86693,297.19586 c 0,0 -1.63463,5.08551 -1.27138,8.71802 0.36325,3.63252 1.81624,8.17315 1.81624,8.17315 0,0 10.35266,-12.71378 11.26078,-19.43392 0.90813,-6.72014 5.63039,-17.43603 5.99364,-25.97243 0.36325,-8.53639 1.08976,-21.06855 1.08976,-21.06855 0,0 3.99576,-4.72226 3.99576,-7.08338 0,-2.36114 0,-7.44665 0,-7.44665 0,0 4.359,-6.72013 5.26713,-12.16889 0.90813,-5.44877 1.453,-25.60919 1.453,-25.60919 0,0 -0.18162,-2.90601 -3.26925,-2.90601 -3.08763,0 -3.99576,3.99577 -3.99576,3.99577 l -0.36326,16.5279 c 0,0 -1.27138,-1.81625 -3.08762,-1.63462 -1.81626,0.18163 -3.08764,3.26925 -3.08764,3.26925 0,0 -0.90812,-2.36112 -4.54063,-1.63463 -3.63251,0.7265 -5.6304,4.72226 -5.6304,4.72226 l -3.81413,-21.25016 c 0,0 -0.18162,-2.90602 -4.90388,-1.99789 -4.72226,0.90813 -5.44876,6.90177 -5.44876,6.90177 l 8.5364,39.59434 c 0,0 -3.81414,3.08763 -2.36114,7.26501 1.45301,4.1774 8.71802,2.90601 8.71802,2.90601 0,0 1.63463,17.43604 -0.54488,24.3378 -2.1795,6.90176 -2.1795,19.43392 -5.812,21.79504 z"
     style="fill:#fde0d2;fill-opacity:1;fill-rule:evenodd;stroke:#000000;stroke-width:1.08297527px;stroke-linecap:butt;stroke-linejoin:miter;stroke-opacity:1" />
  <path
     sodipodi:nodetypes="ccscccccsccsccscscccc"
     inkscape:connector-curvature="0"
     id="path4376"
     d="m 498.38884,350.74955 -8.71802,13.07702 c 0,0 -1.08975,-3.45087 -6.35689,-1.63462 -5.26713,1.81625 -3.08763,6.17526 -3.08763,6.17526 l -3.26926,-0.7265 -7.99151,9.9894 2.906,3.63251 0.36325,5.44876 c 0,0 -0.36325,1.81625 0.90813,2.906 1.27138,1.08975 3.45088,-0.54488 3.45088,-0.54488 l 3.81414,0.36326 c 0,0 1.08975,2.906 2.72438,3.26925 1.63463,0.36325 5.44876,-2.1795 5.44876,-2.1795 l 3.26926,-5.81201 c 0,0 0.54487,-3.99576 -0.36325,-4.72227 -0.90813,-0.7265 -1.45301,-2.72437 -1.45301,-2.72437 0,0 2.72438,0.36325 3.63251,-0.90813 0.90813,-1.27138 0.36325,-1.63463 0.36325,-1.63463 l 11.80565,-19.61555 1.46214,-2.79583 z"
     style="fill:#fde0d2;fill-opacity:1;fill-rule:evenodd;stroke:#000000;stroke-width:1.08297527px;stroke-linecap:butt;stroke-linejoin:miter;stroke-opacity:1" />
  <path
     sodipodi:nodetypes="ccccccscsccsccscc"
     inkscape:connector-curvature="0"
     id="path4378"
     d="m 535.93053,330.79656 -5.26713,28.15194 -7.62827,-0.54488 -0.7265,6.72015 7.44664,0.54486 -0.18162,13.07704 c 0,0 2.906,-1.08975 3.99576,-1.08975 1.08975,0 3.81413,0 3.81413,0 0,0 -0.72651,-3.45088 -0.36326,-5.99364 0.36326,-2.54275 -0.18162,-5.08552 -0.18162,-5.08552 l 9.80778,0.36326 c 0,0 0.54487,-3.81413 0.54487,-4.90389 0,-1.08975 -1.08975,-2.36112 -1.08975,-2.36112 l -6.72014,0.18163 c 0,0 0,-11.62403 1.63462,-15.98304 1.63464,-4.35901 3.08764,-13.07704 3.08764,-13.07704 z"
     style="fill:#f7f6f5;fill-opacity:1;fill-rule:evenodd;stroke:none;stroke-width:1px;stroke-linecap:butt;stroke-linejoin:miter;stroke-opacity:1" />
  <path
     inkscape:connector-curvature="0"
     id="path4380"
     d="m 601.4973,218.73369 c 0,0 3.45089,4.54064 2.90602,7.99153 -0.54488,3.45088 -1.27138,7.62826 -1.27138,7.62826 0,0 0.18163,3.45088 4.90388,3.6325 4.72226,0.18163 5.44876,-4.72225 5.44876,-4.72225 0,0 0.54488,-5.63039 0.54488,-8.53639 0,-2.90601 -1.99788,-9.9894 -1.99788,-9.9894"
     style="fill:none;fill-rule:evenodd;stroke:#000000;stroke-width:1.08297527px;stroke-linecap:butt;stroke-linejoin:miter;stroke-opacity:1" />
  <path
     inkscape:connector-curvature="0"
     id="path4382"
     d="m 612.75808,235.98812 c 0,0 4.17738,2.17949 4.90389,-1.81627 0.7265,-3.99575 2.36114,-6.53851 2.36114,-9.62614 0,-3.08763 -1.63464,-11.26078 -1.63464,-11.26078"
     style="fill:none;fill-rule:evenodd;stroke:#000000;stroke-width:1.08297527px;stroke-linecap:butt;stroke-linejoin:miter;stroke-opacity:1" />
  <path
     inkscape:connector-curvature="0"
     id="path4384"
     d="m 596.23017,241.07363 c 0,0 13.07703,-3.81413 16.52791,-0.90813 3.45088,2.906 3.63251,6.90176 0.7265,7.44663 -2.906,0.54488 -11.80565,3.45089 -11.80565,3.45089"
     style="fill:none;fill-rule:evenodd;stroke:#000000;stroke-width:1.08297527px;stroke-linecap:butt;stroke-linejoin:miter;stroke-opacity:1" />
  <path
     inkscape:connector-curvature="0"
     id="path4386"
     d="m 480.54586,368.50746 c 0,0 0.70636,1.3485 0.32107,2.44014 -0.38528,1.09165 -1.60535,2.2475 -1.60535,2.2475 0,0 3.596,-3.21071 5.00871,-2.31171 1.41271,0.899 2.31171,3.27493 1.99064,4.68764 -0.32107,1.41272 2.63279,0 2.63279,0 l 1.02743,1.798"
     style="fill:none;fill-rule:evenodd;stroke:#000000;stroke-width:1.08297527px;stroke-linecap:butt;stroke-linejoin:miter;stroke-opacity:1" />
  <path
     inkscape:connector-curvature="0"
     id="path4388"
     d="m 489.60008,364.1409 4.36657,10.72378 0,0 0,0 0,0 0,0"
     style="fill:none;fill-rule:evenodd;stroke:#000000;stroke-width:1.08297527px;stroke-linecap:butt;stroke-linejoin:miter;stroke-opacity:1" />
  <path
     inkscape:connector-curvature="0"
     id="path4390"
     d="m 540.65042,443.8308 c 0,0 0.51372,2.31172 3.596,3.33915 3.08229,1.02743 29.79544,-0.25687 29.79544,-0.25687 l -4.88029,-15.66827 -24.14458,-2.05487 -3.08228,7.44886 z"
     style="fill:#27221e;fill-opacity:1;fill-rule:evenodd;stroke:#000000;stroke-width:1.08297527px;stroke-linecap:butt;stroke-linejoin:miter;stroke-opacity:1" />
  <path
     inkscape:connector-curvature="0"
     id="path4392"
     d="m 499.55329,447.16995 26.19942,-0.25687 1.28429,-11.04485 -16.43885,-7.44885 -7.96258,4.62343 z"
     style="fill:#241f1c;fill-opacity:1;fill-rule:evenodd;stroke:#000000;stroke-width:1.08297527px;stroke-linecap:butt;stroke-linejoin:miter;stroke-opacity:1" />
  <path
     sodipodi:nodetypes="ccsccccsccc"
     inkscape:connector-curvature="0"
     id="path4394"
     d="m 512.653,395.28481 -12.44844,45.19394 c 0,0 0.63301,-8.97709 13.47587,-7.94965 12.84285,1.02741 12.586,11.3017 12.586,11.3017 l 4.62342,-1.28428 5.90772,-21.83286 4.10971,23.374 c 0,0 -1.54115,-10.27428 14.384,-10.27428 15.92515,0 17.46629,9.76057 17.46629,9.76057 l -6.42143,-42.89513 z"
     style="fill:#544b46;fill-opacity:1;fill-rule:evenodd;stroke:#000000;stroke-width:1.08297527px;stroke-linecap:butt;stroke-linejoin:miter;stroke-opacity:1" />
  <path
     inkscape:connector-curvature="0"
     id="path4396"
     d="m 526.26643,414.80596 c 0,0 -0.51372,4.62342 10.01742,4.88027 10.53114,0.25686 0.77057,0.25686 0.77057,0.25686"
     style="fill:none;fill-rule:evenodd;stroke:#000000;stroke-width:1.08297527px;stroke-linecap:butt;stroke-linejoin:miter;stroke-opacity:1" />
  <path
     inkscape:connector-curvature="0"
     id="path4398"
     d="m 531.91728,399.90825 -0.77057,6.67827 4.10971,0.77058 0.77058,-7.192 0,0 0,0"
     style="fill:none;fill-rule:evenodd;stroke:#000000;stroke-width:1.08297527px;stroke-linecap:butt;stroke-linejoin:miter;stroke-opacity:1" />
  <path
     style="fill:#040030;fill-opacity:1;fill-rule:evenodd;stroke:none;stroke-width:1px;stroke-linecap:butt;stroke-linejoin:miter;stroke-opacity:1"
     d="m 930.14884,237.05857 c -7.26501,5.0855 -7.99152,11.4424 -14.53003,13.62191 -6.53851,2.1795 -29.06006,5.63038 -29.06006,5.63038 0,0 -1.27138,3.99577 5.26713,5.81201 6.53852,1.81626 9.44452,1.45301 9.44452,1.45301 0,0 -5.81201,5.08551 -16.70953,8.71802 -10.89753,3.63251 -18.88905,5.44876 -18.88905,5.44876 0,0 -0.36325,2.90601 1.63463,2.90601 1.99788,0 5.08551,0.36325 5.08551,0.36325 l -6.90176,4.54062 14.34841,0.72651 -9.2629,6.90177 23.24805,1.08974 -1.81625,1.63464 8.17314,1.99787 -13.25865,7.08339 c 0,0 8.53639,2.36114 16.52791,2.54277 7.99152,0.18162 15.80141,0.18162 15.80141,0.18162 l -5.81202,4.17738 17.7993,1.45301 c 0,0 -0.90814,1.81625 -2.17951,1.81625 -1.27138,0 -2.90601,0.7265 -2.90601,0.7265 l 9.26289,-0.18163 -0.72649,1.45301 47.22256,-5.26714 4.7223,-7.26502 3.4509,4.90388 c 0,0 4.5406,-8.35476 4.5406,-11.44239 0,-3.08763 1.9979,-10.35264 1.9979,-10.35264 l 1.8163,0.7265 c 0,0 2.72426,-10.53428 2.72426,-15.80141 0,-5.26714 -2.17946,-13.80353 -2.17946,-13.80353 l 4.17736,3.99576 c 0,0 -3.63246,-4.17739 -3.81406,-7.26501 -0.1816,-3.08764 -2.1795,-10.7159 -5.9936,-17.0728 -3.8142,-6.35689 -10.7159,-13.07702 -12.8955,-13.44027 -2.1795,-0.36325 -11.4424,-0.18163 -15.0749,0.90812 -3.6325,1.08975 -7.4466,5.81201 -7.4466,5.81201 0,0 -4.9039,0.90813 -6.3569,-1.453 -1.453,-2.36113 -6.17526,-4.72226 -6.17526,-4.72226 l 1.27137,3.81413 z"
     id="path4410"
     inkscape:connector-curvature="0" />
  <path
     style="fill:#fde0d2;fill-opacity:1;fill-rule:evenodd;stroke:#000000;stroke-width:1.08297527px;stroke-linecap:butt;stroke-linejoin:miter;stroke-opacity:1"
     d="m 980.09584,263.57588 c 0,8.35477 2.1795,37.2332 -12.7138,39.95759 -14.8933,2.72437 -22.52154,0.72649 -28.51518,-10.53428 -5.99364,-11.26078 -5.44876,-31.23957 -0.7265,-37.9597 4.72225,-6.72014 7.44664,-15.07491 11.26078,-16.34629 3.8141,-1.27138 4.1774,1.08976 6.1752,1.27138 1.9979,0.18163 6.5386,-6.35689 13.2587,-5.08552 6.7202,1.27138 11.2608,28.69682 11.2608,28.69682 z"
     id="path4412"
     inkscape:connector-curvature="0" />
  <path
     style="fill:none;fill-rule:evenodd;stroke:#000000;stroke-width:1.08297527px;stroke-linecap:butt;stroke-linejoin:miter;stroke-opacity:1"
     d="m 941.77286,252.3151 c 0,0 3.26926,-3.26925 6.53852,-1.81625 3.26926,1.453 0.36326,-0.18162 0.36326,-0.18162"
     id="path4414"
     inkscape:connector-curvature="0" />
  <path
     style="fill:none;fill-rule:evenodd;stroke:#000000;stroke-width:1.08297527px;stroke-linecap:butt;stroke-linejoin:miter;stroke-opacity:1"
     d="m 957.93754,244.86847 c 0,0 4.1774,-5.63039 9.4445,-3.99576 5.2672,1.63462 0.5449,3.99576 3.6325,8.17314 3.0877,4.17738 -0.5448,-0.54488 -0.5448,-0.54488"
     id="path4416"
     inkscape:connector-curvature="0" />
  <ellipse
     style="fill:#f9f8f4;fill-opacity:1;fill-rule:evenodd;stroke:#000000;stroke-width:1.08297527px;stroke-linecap:butt;stroke-linejoin:miter;stroke-opacity:1"
     id="ellipse4418"
     cx="961.75165"
     cy="260.21576"
     rx="4.5406351"
     ry="4.0865712" />
  <circle
     style="fill:#fdfdfd;fill-opacity:1;fill-rule:evenodd;stroke:#000000;stroke-width:1.08297527px;stroke-linecap:butt;stroke-linejoin:miter;stroke-opacity:1"
     id="circle4420"
     cx="941.31885"
     cy="262.21368"
     r="2.4519429" />
  <ellipse
     style="fill:#ff0000;fill-rule:evenodd;stroke:#000000;stroke-width:1.08297527px;stroke-linecap:butt;stroke-linejoin:miter;stroke-opacity:1"
     id="ellipse4422"
     cx="943.22589"
     cy="264.02994"
     rx="0.36325079"
     ry="0.090812698" />
  <path
     style="fill:none;fill-rule:evenodd;stroke:#000000;stroke-width:1.08297527px;stroke-linecap:butt;stroke-linejoin:miter;stroke-opacity:1"
     d="m 941.04636,277.01615 29.06008,-5.26713 0,0"
     id="path4424"
     inkscape:connector-curvature="0" />
  <path
     style="fill:none;fill-rule:evenodd;stroke:#000000;stroke-width:1.08297527px;stroke-linecap:butt;stroke-linejoin:miter;stroke-opacity:1"
     d="m 947.58488,269.75114 4.35906,0 -0.7266,0"
     id="path4426"
     inkscape:connector-curvature="0" />
  <path
     style="fill:#010101;fill-opacity:1;fill-rule:evenodd;stroke:#000000;stroke-width:1.08297527px;stroke-linecap:butt;stroke-linejoin:miter;stroke-opacity:1"
     d="m 942.68099,283.19142 c 0,0 1.63463,-2.906 7.62825,-3.6325 5.9937,-0.72651 5.9937,-0.90814 5.9937,-0.90814 l 4.7222,0 -0.3632,1.99789 -5.2672,0.36325 c 0,0 0.7265,8.718 2.7244,13.6219 1.9979,4.90388 3.4509,9.80776 3.4509,9.80776 l -0.3633,1.08976 -8.718,0 c 0,0 -4.54061,-9.08127 -5.26712,-13.07702 -0.72649,-3.99576 -1.63462,-8.17314 -1.63462,-8.17314 z"
     id="path4428"
     inkscape:connector-curvature="0" />
  <path
     style="fill:#fde0d2;fill-opacity:1;fill-rule:evenodd;stroke:#000000;stroke-width:1.08297527px;stroke-linecap:butt;stroke-linejoin:miter;stroke-opacity:1"
     d="m 967.20044,304.25996 c 0,0 -2.906,3.99577 -2.906,6.90177 0,2.906 0,4.17738 1.453,4.17738 1.453,0 5.0855,-1.63462 5.0855,-1.63462 0,0 -1.6346,7.26501 -12.7138,8.17313 -11.07914,0.90813 -9.4445,-4.90388 -9.4445,-4.90388 0,0 3.9958,-0.7265 4.5406,-4.35901 0.5449,-3.63251 0.7265,-6.72014 0.7265,-6.72014 z"
     id="path4430"
     inkscape:connector-curvature="0" />
  <path
     style="fill:#020001;fill-opacity:1;fill-rule:evenodd;stroke:#000000;stroke-width:1.08297527px;stroke-linecap:butt;stroke-linejoin:miter;stroke-opacity:1"
     d="m 948.12976,316.42887 c 0,0 -14.16679,-0.72651 -17.7993,2.1795 -3.6325,2.906 -19.97879,19.40692 -19.97879,34.69045 l 0,0.54488 c 4.95832,0.91046 15.07491,2.906 15.07491,2.906 0,0 -1.08975,-8.17313 0.54487,-10.89753 1.63464,-2.72437 2.36114,-4.90388 2.36114,-4.90388 l -5.44876,57.03038 c 0,0 19.25228,5.26714 32.69251,6.17526 13.4403,0.90812 30.3315,-0.90812 30.3315,-0.90812 0,0 -1.2714,-23.24806 -0.1816,-28.33357 1.0897,-5.08552 3.8141,-23.97455 3.8141,-23.97455 0,0 15.61976,-11.26078 18.52576,-15.07491 2.906,-3.81413 12.1689,-10.17102 12.1689,-10.17102 0,0 2.2444,-30.14985 -9.9894,-30.14982 0,0 -18.88896,16.52792 -27.42536,17.07279 -5.113,0.32637 -17.2594,8.83621 -26.5294,9.70673 -8.1403,0.76445 -8.16108,-5.89259 -8.16108,-5.89259 z"
     id="path4432"
     inkscape:connector-curvature="0"
     sodipodi:nodetypes="cssccsccscscscsssc" />
  <path
     style="fill:#fde0d2;fill-opacity:1;fill-rule:evenodd;stroke:#000000;stroke-width:1.08297527px;stroke-linecap:butt;stroke-linejoin:miter;stroke-opacity:1"
     d="m 1010.4272,300.9907 c 0,0 -1.6346,5.08551 -1.2713,8.71802 0.3632,3.63252 1.8162,8.17315 1.8162,8.17315 0,0 10.3527,-12.71378 11.2608,-19.43392 0.9081,-6.72014 5.6304,-17.43603 5.9936,-25.97243 0.3633,-8.53639 1.0898,-21.06855 1.0898,-21.06855 0,0 3.9957,-4.72226 3.9957,-7.08338 0,-2.36114 0,-7.44665 0,-7.44665 0,0 4.359,-6.72013 5.2672,-12.16889 0.9081,-5.44877 1.453,-25.60919 1.453,-25.60919 0,0 -0.1816,-2.90601 -3.2693,-2.90601 -3.0876,0 -3.9957,3.99577 -3.9957,3.99577 l -0.3633,16.5279 c 0,0 -1.2714,-1.81625 -3.0876,-1.63462 -1.8163,0.18163 -3.0877,3.26925 -3.0877,3.26925 0,0 -0.9081,-2.36112 -4.5406,-1.63463 -3.6325,0.7265 -5.6304,4.72226 -5.6304,4.72226 l -3.8141,-21.25016 c 0,0 -0.1816,-2.90602 -4.9039,-1.99789 -4.7223,0.90813 -5.4488,6.90177 -5.4488,6.90177 l 8.5364,39.59434 c 0,0 -3.8141,3.08763 -2.3611,7.26501 1.453,4.1774 8.718,2.90601 8.718,2.90601 0,0 1.6347,17.43604 -0.5449,24.3378 -2.1795,6.90176 -2.1795,19.43392 -5.812,21.79504 z"
     id="path4434"
     inkscape:connector-curvature="0" />
  <path
     style="fill:#fde0d2;fill-opacity:1;fill-rule:evenodd;stroke:#000000;stroke-width:1.08297527px;stroke-linecap:butt;stroke-linejoin:miter;stroke-opacity:1"
     d="m 912.94919,354.54439 -8.71802,13.07702 c 0,0 -1.08975,-3.45087 -6.35689,-1.63462 -5.26713,1.81625 -3.08763,6.17526 -3.08763,6.17526 l -3.26926,-0.7265 -7.99151,9.9894 2.906,3.63251 0.36325,5.44876 c 0,0 -0.36325,1.81625 0.90813,2.906 1.27138,1.08975 3.45088,-0.54488 3.45088,-0.54488 l 3.81414,0.36326 c 0,0 1.08975,2.906 2.72438,3.26925 1.63463,0.36325 5.44876,-2.1795 5.44876,-2.1795 l 3.26926,-5.81201 c 0,0 0.54487,-3.99576 -0.36325,-4.72227 -0.90813,-0.7265 -1.45301,-2.72437 -1.45301,-2.72437 0,0 2.72438,0.36325 3.63251,-0.90813 0.90813,-1.27138 0.36325,-1.63463 0.36325,-1.63463 l 11.80565,-19.61555 1.46214,-2.79583 z"
     id="path4436"
     inkscape:connector-curvature="0"
     sodipodi:nodetypes="ccscccccsccsccscscccc" />
  <path
     style="fill:#f7f6f5;fill-opacity:1;fill-rule:evenodd;stroke:none;stroke-width:1px;stroke-linecap:butt;stroke-linejoin:miter;stroke-opacity:1"
     d="m 950.49084,334.5914 -5.26709,28.15194 -7.62827,-0.54488 -0.7265,6.72015 7.44664,0.54486 -0.18162,13.07704 c 0,0 2.906,-1.08975 3.99576,-1.08975 1.08978,0 3.81418,0 3.81418,0 0,0 -0.7266,-3.45088 -0.3633,-5.99364 0.3633,-2.54275 -0.1816,-5.08552 -0.1816,-5.08552 l 9.8078,0.36326 c 0,0 0.5448,-3.81413 0.5448,-4.90389 0,-1.08975 -1.0897,-2.36112 -1.0897,-2.36112 l -6.7202,0.18163 c 0,0 0,-11.62403 1.6347,-15.98304 1.6346,-4.35901 3.0876,-13.07704 3.0876,-13.07704 z"
     id="path4438"
     inkscape:connector-curvature="0"
     sodipodi:nodetypes="ccccccscsccsccscc" />
  <path
     style="fill:none;fill-rule:evenodd;stroke:#000000;stroke-width:1.08297527px;stroke-linecap:butt;stroke-linejoin:miter;stroke-opacity:1"
     d="m 1016.0576,222.52853 c 0,0 3.4509,4.54064 2.906,7.99153 -0.5448,3.45088 -1.2713,7.62826 -1.2713,7.62826 0,0 0.1816,3.45088 4.9038,3.6325 4.7223,0.18163 5.4488,-4.72225 5.4488,-4.72225 0,0 0.5449,-5.63039 0.5449,-8.53639 0,-2.90601 -1.9979,-9.9894 -1.9979,-9.9894"
     id="path4440"
     inkscape:connector-curvature="0" />
  <path
     style="fill:none;fill-rule:evenodd;stroke:#000000;stroke-width:1.08297527px;stroke-linecap:butt;stroke-linejoin:miter;stroke-opacity:1"
     d="m 1027.3184,239.78296 c 0,0 4.1774,2.17949 4.9039,-1.81627 0.7265,-3.99575 2.3611,-6.53851 2.3611,-9.62614 0,-3.08763 -1.6346,-11.26078 -1.6346,-11.26078"
     id="path4442"
     inkscape:connector-curvature="0" />
  <path
     style="fill:none;fill-rule:evenodd;stroke:#000000;stroke-width:1.08297527px;stroke-linecap:butt;stroke-linejoin:miter;stroke-opacity:1"
     d="m 1010.7905,244.86847 c 0,0 13.077,-3.81413 16.5279,-0.90813 3.4509,2.906 3.6325,6.90176 0.7265,7.44663 -2.906,0.54488 -11.8057,3.45089 -11.8057,3.45089"
     id="path4444"
     inkscape:connector-curvature="0" />
  <path
     style="fill:none;fill-rule:evenodd;stroke:#000000;stroke-width:1.08297527px;stroke-linecap:butt;stroke-linejoin:miter;stroke-opacity:1"
     d="m 895.10621,372.3023 c 0,0 0.70636,1.3485 0.32107,2.44014 -0.38528,1.09165 -1.60535,2.2475 -1.60535,2.2475 0,0 3.596,-3.21071 5.00871,-2.31171 1.41271,0.899 2.31171,3.27493 1.99064,4.68764 -0.32107,1.41272 2.63279,0 2.63279,0 l 1.02743,1.798"
     id="path4446"
     inkscape:connector-curvature="0" />
  <path
     style="fill:none;fill-rule:evenodd;stroke:#000000;stroke-width:1.08297527px;stroke-linecap:butt;stroke-linejoin:miter;stroke-opacity:1"
     d="m 904.16043,367.93574 4.36657,10.72378 0,0 0,0 0,0 0,0"
     id="path4448"
     inkscape:connector-curvature="0" />
  <path
     style="fill:#27221e;fill-opacity:1;fill-rule:evenodd;stroke:#000000;stroke-width:1.08297527px;stroke-linecap:butt;stroke-linejoin:miter;stroke-opacity:1"
     d="m 955.21074,447.62564 c 0,0 0.5137,2.31172 3.596,3.33915 3.0823,1.02743 29.7955,-0.25687 29.7955,-0.25687 l -4.8803,-15.66827 -24.1446,-2.05487 -3.0823,7.44886 z"
     id="path4450"
     inkscape:connector-curvature="0" />
  <path
     style="fill:#241f1c;fill-opacity:1;fill-rule:evenodd;stroke:#000000;stroke-width:1.08297527px;stroke-linecap:butt;stroke-linejoin:miter;stroke-opacity:1"
     d="m 914.11364,450.96479 26.19942,-0.25687 1.28429,-11.04485 -16.43885,-7.44885 -7.96258,4.62343 z"
     id="path4452"
     inkscape:connector-curvature="0" />
  <path
     style="fill:#544b46;fill-opacity:1;fill-rule:evenodd;stroke:#000000;stroke-width:1.08297527px;stroke-linecap:butt;stroke-linejoin:miter;stroke-opacity:1"
     d="m 927.21335,399.07965 -12.44844,45.19394 c 0,0 0.63301,-8.97709 13.47587,-7.94965 12.84285,1.02741 12.586,11.3017 12.586,11.3017 l 4.62342,-1.28428 5.90774,-21.83286 4.1097,23.374 c 0,0 -1.5412,-10.27428 14.384,-10.27428 15.9251,0 17.4663,9.76057 17.4663,9.76057 l -6.4214,-42.89513 z"
     id="path4454"
     inkscape:connector-curvature="0"
     sodipodi:nodetypes="ccsccccsccc" />
  <path
     style="fill:none;fill-rule:evenodd;stroke:#000000;stroke-width:1.08297527px;stroke-linecap:butt;stroke-linejoin:miter;stroke-opacity:1"
     d="m 940.82678,418.6008 c 0,0 -0.51372,4.62342 10.01746,4.88027 10.5311,0.25686 0.7705,0.25686 0.7705,0.25686"
     id="path4456"
     inkscape:connector-curvature="0" />
  <path
     style="fill:none;fill-rule:evenodd;stroke:#000000;stroke-width:1.08297527px;stroke-linecap:butt;stroke-linejoin:miter;stroke-opacity:1"
     d="m 946.47763,403.70309 -0.77057,6.67827 4.10968,0.77058 0.7706,-7.192 0,0 0,0"
     id="path4458"
     inkscape:connector-curvature="0" />
  <path
     inkscape:connector-curvature="0"
     id="path4460"
     d="m 1013.7422,262.06768 0.1677,7.21151 c 0,0 3.522,2.51565 9.7272,2.51565 6.2053,0 9.224,-1.50939 9.224,-1.50939 l -0.5031,-8.88861 c 0,0 -1.174,-0.67084 -1.7609,-0.67084 -0.587,0 -1.2579,0.0839 -1.2579,0.0839 l -0.2515,0.67084 c 0,0 -3.1865,1.17397 -7.0438,1.34168 -3.8574,0.16771 -8.3017,-0.75469 -8.3017,-0.75469 z"
     style="fill:#38b027;fill-opacity:1;fill-rule:evenodd;stroke:#000000;stroke-width:1px;stroke-linecap:butt;stroke-linejoin:miter;stroke-opacity:1" />
  <path
     inkscape:connector-curvature="0"
     id="path4462"
     d="m 1033.1966,266.34427 c 0,0 7.2953,1.50939 7.9662,8.97247 0.6708,7.46308 -2.4318,12.15895 -2.4318,12.15895 l -4.612,-0.33542 c 0,0 5.8698,-5.11515 4.4443,-12.0751 -1.4256,-6.95995 -5.3667,-7.63078 -5.3667,-7.63078 z"
     style="fill:#38b027;fill-opacity:1;fill-rule:evenodd;stroke:#000000;stroke-width:1px;stroke-linecap:butt;stroke-linejoin:miter;stroke-opacity:1" />
  <path
     inkscape:connector-curvature="0"
     id="path4464"
     d="m 1033.0288,265.17031 c 0,0 10.0626,-4.52816 13.6684,4.19274 3.6057,8.7209 -2.9349,17.27409 -2.9349,17.27409 l -3.5219,-2.43179 c 0,0 4.5281,-7.71464 2.5995,-12.57822 -1.9287,-4.86358 -10.1465,-5.61828 -10.1465,-5.61828 z"
     style="fill:#38b027;fill-opacity:1;fill-rule:evenodd;stroke:#000000;stroke-width:1px;stroke-linecap:butt;stroke-linejoin:miter;stroke-opacity:1" />
  <g
     id="Ebene_1"
     transform="matrix(-0.20850058,0,0,0.183221,455.69752,323.65346)">
    <polygon
       points="0,182.35938 233.17773,0 233.17773,141.73242 902.25049,141.73242 902.25049,222.98633 902.25049,222.98633 233.17773,222.98633 233.17773,364.71875 "
       id="path2050" />
  </g>
  <g
     transform="matrix(-0.21296168,0,0,0.183221,858.87336,321.75604)"
     id="g4484">
    <polygon
       id="polygon4486"
       points="233.17773,141.73242 902.25049,141.73242 902.25049,222.98633 902.25049,222.98633 233.17773,222.98633 233.17773,364.71875 0,182.35938 233.17773,0 " />
  </g>
  <text
     xml:space="preserve"
     style="font-style:normal;font-weight:normal;font-size:40px;line-height:125%;font-family:sans-serif;letter-spacing:0px;word-spacing:0px;fill:#000000;fill-opacity:1;stroke:none;stroke-width:1px;stroke-linecap:butt;stroke-linejoin:miter;stroke-opacity:1"
     x="-21.672909"
     y="450.54138"
     id="text4488"
     sodipodi:linespacing="125%"
     transform="matrix(0.70710678,-0.70710678,0.70710678,0.70710678,0,0)"><tspan
       sodipodi:role="line"
       id="tspan4490"
       x="-21.672909"
       y="450.54138">Ticket</tspan></text>
  <text
     xml:space="preserve"
     style="font-style:normal;font-weight:normal;font-size:40px;line-height:125%;font-family:sans-serif;letter-spacing:0px;word-spacing:0px;fill:#000000;fill-opacity:1;stroke:none;stroke-width:1px;stroke-linecap:butt;stroke-linejoin:miter;stroke-opacity:1"
     x="267.01172"
     y="145.23654"
     id="text4492"
     sodipodi:linespacing="125%"><tspan
       sodipodi:role="line"
       id="tspan4494"
       x="267.01172"
       y="145.23654" /></text>
  <text
     xml:space="preserve"
     style="font-style:normal;font-weight:normal;font-size:40px;line-height:125%;font-family:sans-serif;letter-spacing:0px;word-spacing:0px;fill:#000000;fill-opacity:1;stroke:none;stroke-width:1px;stroke-linecap:butt;stroke-linejoin:miter;stroke-opacity:1"
     x="283.60587"
     y="748.11475"
     id="text4496"
     sodipodi:linespacing="125%"
     transform="matrix(0.70710678,-0.70710678,0.70710678,0.70710678,0,0)"><tspan
       sodipodi:role="line"
       id="tspan4498"
       x="283.60587"
       y="748.11475">Wristband</tspan></text>
  <text
     xml:space="preserve"
     style="font-style:normal;font-weight:normal;font-size:40px;line-height:125%;font-family:sans-serif;letter-spacing:0px;word-spacing:0px;fill:#000000;fill-opacity:1;stroke:none;stroke-width:1px;stroke-linecap:butt;stroke-linejoin:miter;stroke-opacity:1"
     x="810.99921"
     y="268.67087"
     id="text4500"
     sodipodi:linespacing="125%"><tspan
       sodipodi:role="line"
       id="tspan4502"
       x="810.99921"
       y="268.67087" /></text>
  <path
     style="opacity:1;fill:#b02737;fill-opacity:1;fill-rule:nonzero;stroke:none;stroke-width:0.99268693;stroke-miterlimit:4;stroke-dasharray:none;stroke-opacity:1"
     d="m 509.07666,55.942362 c -13.40928,10.179272 -17.72791,21.686216 -19.0586,26.876954 -0.83449,5.311407 -1.28906,9.924519 -1.28906,13.316406 -10e-6,20.319238 15.57687,36.819288 34.91016,37.152348 l 0,0.006 c 0.13855,0.002 0.27513,0.01 0.41406,0.01 0.0301,0 0.0597,-0.002 0.0898,-0.002 0.0301,8e-5 0.0597,0.002 0.0899,0.002 0.13893,0 0.27551,-0.008 0.41406,-0.01 l 0,-0.006 c 19.33299,-0.33341 34.91016,-16.83333 34.91015,-37.152348 0,-3.391887 -0.45457,-8.004999 -1.28906,-13.316406 -1.33069,-5.190739 -5.64931,-16.697682 -19.05859,-26.876954 -14.13318,-10.0208 -15.24429,-44.514732 -15.24429,-44.514732 0,0 -5.14649,36.494021 -14.88853,44.514732 z"
     id="path3426"
     inkscape:connector-curvature="0"
     sodipodi:nodetypes="ccsccscsccscccc" />
  <path
     inkscape:connector-curvature="0"
     id="path4337"
     d="m 508.06065,75.42775 14.60357,0.55457 c 0,0 -2.12583,6.007801 -2.31069,8.226061 -0.18485,2.21827 -0.64699,7.57907 -0.64699,7.57907 l 9.33519,0 c 0,0 -0.36971,-5.26837 -0.92428,-8.0412 -0.55456,-2.77283 -2.31069,-7.856361 -2.31069,-7.856361 l 14.41872,-0.0924 c 0,0 -1.6637,5.822941 -2.12584,8.410911 -0.46214,2.58798 -0.73942,6.74722 -0.73942,6.74722 0,0 6.37751,-1.29399 7.20935,-1.66369 0.83186,-0.36972 0.92428,-0.36972 0.92428,-0.36972 l 5.08352,-1.20156 0.18486,18.115819 c 0,0 -6.56237,-2.58797 -8.13364,-2.77283 -1.57126,-0.18485 -5.17594,-0.73942 -5.17594,-0.73942 0,0 0.46214,5.45323 1.10913,8.13364 0.64699,2.6804 1.84855,7.0245 1.84855,7.0245 l -14.69599,-0.0924 c 0,0 2.49554,-7.11693 2.58797,-8.96548 0.0924,-1.84855 0.64699,-6.83965 0.64699,-6.83965 l -9.42762,-0.0924 c 0,0 0.46214,6.10022 0.83185,7.67149 0.36971,1.57127 2.31069,8.22606 2.31069,8.22606 l -14.41871,0.0924 c 0,0 2.21826,-6.56237 2.40312,-8.59577 0.18485,-2.03341 0.55456,-6.37751 0.55456,-6.37751 0,0 -4.71381,0.55456 -7.11693,1.10913 -2.40312,0.55457 -6.56236,1.94098 -6.56236,1.94098 l 0,-17.930969 c 0,0 6.56236,2.3107 8.50334,2.3107 1.94099,0 5.54566,0.83185 5.54566,0.83185 0,0 -0.55456,-7.39422 -1.10913,-8.31849 -0.55456,-0.92428 -2.40312,-7.024511 -2.40312,-7.024511 z"
     style="fill:#00221e;fill-opacity:1;fill-rule:evenodd;stroke:none;stroke-width:1px;stroke-linecap:butt;stroke-linejoin:miter;stroke-opacity:1" />
</svg>
