<?xml version="1.0" encoding="UTF-8" standalone="no"?>
<!-- Created with Inkscape (http://www.inkscape.org/) -->

<svg
   xmlns:dc="http://purl.org/dc/elements/1.1/"
   xmlns:cc="http://creativecommons.org/ns#"
   xmlns:rdf="http://www.w3.org/1999/02/22-rdf-syntax-ns#"
   xmlns:svg="http://www.w3.org/2000/svg"
   xmlns="http://www.w3.org/2000/svg"
   xmlns:sodipodi="http://sodipodi.sourceforge.net/DTD/sodipodi-0.dtd"
   xmlns:inkscape="http://www.inkscape.org/namespaces/inkscape"
   id="svg3487"
   version="1.1"
   inkscape:version="0.91 r13725"
   width="697.1626"
   height="335.15024"
   viewBox="0 0 697.1626 335.15024"
   sodipodi:docname="machine.svg">
  <metadata
     id="metadata3493">
    <rdf:RDF>
      <cc:Work
         rdf:about="">
        <dc:format>image/svg+xml</dc:format>
        <dc:type
           rdf:resource="http://purl.org/dc/dcmitype/StillImage" />
        <dc:title></dc:title>
      </cc:Work>
    </rdf:RDF>
  </metadata>
  <defs
     id="defs3491" />
  <sodipodi:namedview
     pagecolor="#ffffff"
     bordercolor="#666666"
     borderopacity="1"
     objecttolerance="10"
     gridtolerance="10"
     guidetolerance="10"
     inkscape:pageopacity="0"
     inkscape:pageshadow="2"
     inkscape:window-width="1690"
     inkscape:window-height="1011"
     id="namedview3489"
     showgrid="false"
     inkscape:snap-smooth-nodes="true"
     inkscape:zoom="1.1125541"
     inkscape:cx="326.0808"
     inkscape:cy="165.55027"
     inkscape:window-x="19"
     inkscape:window-y="69"
     inkscape:window-maximized="0"
     inkscape:current-layer="g2776"
     fit-margin-top="0"
     fit-margin-left="0"
     fit-margin-right="0"
     fit-margin-bottom="0" />
  <path
     style="opacity:1;fill:none;fill-opacity:0.47058824;fill-rule:evenodd;stroke:#73b7d9;stroke-width:3.40799999;stroke-linecap:butt;stroke-linejoin:miter;stroke-miterlimit:4;stroke-dasharray:none;stroke-opacity:1"
     d="m 397.56718,94.491895 3.05046,1.8471 2.70673,-1.8471 3.05047,1.8471 2.70674,-1.8471 3.05046,1.8471 2.70673,-1.8471 3.05046,1.8471 2.70675,-1.8471 0,-2.4e-4 0,0"
     id="path4420"
     inkscape:connector-curvature="0"
     sodipodi:nodetypes="ccccccccccc" />
  <g
     id="g4637"
     style="stroke:#becfd7;stroke-opacity:1"
     transform="translate(2.3059782,-8.7369145)">
    <ellipse
       ry="13.225108"
       rx="12.853294"
       cy="240.37076"
       cx="40.798759"
       id="path3497"
       style="opacity:1;fill:none;fill-opacity:1;fill-rule:nonzero;stroke:#becfd7;stroke-width:7;stroke-miterlimit:4;stroke-dasharray:none;stroke-opacity:1" />
    <ellipse
       style="opacity:1;fill:none;fill-opacity:1;fill-rule:nonzero;stroke:#becfd7;stroke-width:7;stroke-miterlimit:4;stroke-dasharray:none;stroke-opacity:1"
       id="ellipse4301"
       cx="96.728981"
       cy="240.37076"
       rx="12.853294"
       ry="13.225108" />
    <ellipse
       ry="13.225108"
       rx="12.853294"
       cy="240.37076"
       cx="153.61256"
       id="ellipse4303"
       style="opacity:1;fill:none;fill-opacity:1;fill-rule:nonzero;stroke:#becfd7;stroke-width:7;stroke-miterlimit:4;stroke-dasharray:none;stroke-opacity:1" />
    <ellipse
       style="opacity:1;fill:none;fill-opacity:1;fill-rule:nonzero;stroke:#becfd7;stroke-width:7;stroke-miterlimit:4;stroke-dasharray:none;stroke-opacity:1"
       id="ellipse4305"
       cx="210.49614"
       cy="240.37076"
       rx="12.853294"
       ry="13.225108" />
    <ellipse
       ry="13.225108"
       rx="12.853294"
       cy="240.37076"
       cx="482.71594"
       id="path3497-1"
       style="opacity:1;fill:none;fill-opacity:1;fill-rule:nonzero;stroke:#becfd7;stroke-width:7;stroke-miterlimit:4;stroke-dasharray:none;stroke-opacity:1" />
    <ellipse
       style="opacity:1;fill:none;fill-opacity:1;fill-rule:nonzero;stroke:#becfd7;stroke-width:7;stroke-miterlimit:4;stroke-dasharray:none;stroke-opacity:1"
       id="ellipse4301-2"
       cx="538.64612"
       cy="240.37076"
       rx="12.853294"
       ry="13.225108" />
    <ellipse
       ry="13.225108"
       rx="12.853294"
       cy="240.37076"
       cx="595.52972"
       id="ellipse4303-4"
       style="opacity:1;fill:none;fill-opacity:1;fill-rule:nonzero;stroke:#becfd7;stroke-width:7;stroke-miterlimit:4;stroke-dasharray:none;stroke-opacity:1" />
    <ellipse
       style="opacity:1;fill:none;fill-opacity:1;fill-rule:nonzero;stroke:#becfd7;stroke-width:7;stroke-miterlimit:4;stroke-dasharray:none;stroke-opacity:1"
       id="ellipse4305-1"
       cx="652.41333"
       cy="240.37076"
       rx="12.853294"
       ry="13.225108" />
  </g>
  <rect
     style="opacity:1;fill:none;fill-opacity:1;fill-rule:nonzero;stroke:#717d82;stroke-width:7;stroke-miterlimit:4;stroke-dasharray:none;stroke-opacity:1"
     id="rect3499"
     width="690.1626"
     height="30.991043"
     x="3.5"
     y="216.13834"
     ry="15.495522" />
  <path
     style="opacity:1;fill:#98a2a6;fill-opacity:1;fill-rule:nonzero;stroke:none;stroke-width:4;stroke-miterlimit:4;stroke-dasharray:none;stroke-opacity:1"
     d="m 387.00715,84.038476 a 10.785993,10.785993 0 0 0 -10.78711,10.787109 10.785993,10.785993 0 0 0 10.78711,10.785165 10.785993,10.785993 0 0 0 0.0254,0 l 4.24219,22.59179 6.18359,-1.16211 -4.37695,-23.3164 a 10.785993,10.785993 0 0 0 4.71094,-8.898445 10.785993,10.785993 0 0 0 -10.78516,-10.787109 z"
     id="path4404"
     inkscape:connector-curvature="0" />
  <path
     id="path4411"
     d="m 431.16036,83.364351 a 10.785993,10.785993 0 0 1 10.78711,10.787114 10.785993,10.785993 0 0 1 -10.78711,10.785165 10.785993,10.785993 0 0 1 -0.0254,0 l -4.24219,22.59179 -6.18359,-1.16211 4.37695,-23.3164 a 10.785993,10.785993 0 0 1 -4.71094,-8.898445 10.785993,10.785993 0 0 1 10.78516,-10.787114 z"
     style="opacity:1;fill:#98a2a6;fill-opacity:1;fill-rule:nonzero;stroke:none;stroke-width:4;stroke-miterlimit:4;stroke-dasharray:none;stroke-opacity:1"
     inkscape:connector-curvature="0" />
  <rect
     style="opacity:1;fill:#d6e3ec;fill-opacity:1;fill-rule:nonzero;stroke:none;stroke-width:4;stroke-miterlimit:4;stroke-dasharray:none;stroke-opacity:1"
     id="rect4331"
     width="171.60408"
     height="135.37656"
     x="262.57217"
     y="125.84254" />
  <rect
     style="opacity:1;fill:#becfd7;fill-opacity:1;fill-rule:nonzero;stroke:none;stroke-width:4;stroke-miterlimit:4;stroke-dasharray:none;stroke-opacity:1"
     id="rect4333"
     width="76.904053"
     height="68.006065"
     x="343.60742"
     y="178.9127" />
  <path
     style="opacity:1;fill:#becfd7;fill-opacity:1;fill-rule:nonzero;stroke:none;stroke-width:4;stroke-miterlimit:4;stroke-dasharray:none;stroke-opacity:1"
     d="m 270.19856,137.91934 0,6.03711 14.61914,0 0,-6.03711 -14.61914,0 z m 0,10.64453 0,6.03906 14.61914,0 0,-6.03906 -14.61914,0 z m 0,10.64649 0,6.03711 14.61914,0 0,-6.03711 -14.61914,0 z m 0,10.64453 0,6.03906 14.61914,0 0,-6.03906 -14.61914,0 z m 0,10.64648 0,6.03906 14.61914,0 0,-6.03906 -14.61914,0 z"
     id="rect4335"
     inkscape:connector-curvature="0" />
  <circle
     style="opacity:1;fill:#eeefef;fill-opacity:1;fill-rule:nonzero;stroke:none;stroke-width:4;stroke-miterlimit:4;stroke-dasharray:none;stroke-opacity:1"
     id="path4358"
     cx="370.56561"
     cy="154.59891"
     r="11.758058" />
  <path
     inkscape:connector-curvature="0"
     style="opacity:1;fill:#becfd7;fill-opacity:1;fill-rule:evenodd;stroke:none;stroke-width:1px;stroke-linecap:butt;stroke-linejoin:miter;stroke-opacity:1"
     d="m 358.80844,154.59854 a 11.758058,11.758058 0 0 0 11.75781,11.75781 11.758058,11.758058 0 0 0 11.75782,-11.75781 l -23.51563,0 z"
     id="path4360" />
  <path
     style="opacity:1;fill:#2b2200;fill-opacity:1;fill-rule:nonzero;stroke:none;stroke-width:4;stroke-miterlimit:4;stroke-dasharray:none;stroke-opacity:1"
     d="m 377.30049,148.18428 c -0.1731,-0.0153 -0.3536,0.0367 -0.49805,0.15821 l -5.8457,4.91992 a 1.5729572,1.5729572 0 0 0 -0.66992,-0.1543 1.5729572,1.5729572 0 0 0 -1.57422,1.57227 1.5729572,1.5729572 0 0 0 1.57422,1.57422 1.5729572,1.5729572 0 0 0 1.57226,-1.57422 1.5729572,1.5729572 0 0 0 -0.043,-0.36133 l 5.85938,-4.92969 c 0.28889,-0.24311 0.3276,-0.6728 0.0859,-0.96289 -0.12084,-0.14505 -0.28784,-0.22685 -0.46094,-0.24219 z"
     id="path4367"
     inkscape:connector-curvature="0" />
  <circle
     r="11.758058"
     cy="154.59891"
     cx="402.92358"
     id="circle4379"
     style="opacity:1;fill:#eeefef;fill-opacity:1;fill-rule:nonzero;stroke:none;stroke-width:4;stroke-miterlimit:4;stroke-dasharray:none;stroke-opacity:1" />
  <path
     id="path4381"
     d="m 391.16641,154.59854 a 11.758058,11.758058 0 0 0 11.75781,11.75781 11.758058,11.758058 0 0 0 11.75782,-11.75781 l -23.51563,0 z"
     style="opacity:1;fill:#becfd7;fill-opacity:1;fill-rule:evenodd;stroke:none;stroke-width:1px;stroke-linecap:butt;stroke-linejoin:miter;stroke-opacity:1"
     inkscape:connector-curvature="0" />
  <path
     inkscape:connector-curvature="0"
     id="path4383"
     d="m 406.21987,145.76594 c -0.16157,0.064 -0.29958,0.19138 -0.37415,0.36481 l -3.01749,7.01945 a 1.5729572,1.5729572 0 0 0 -0.66796,0.16262 1.5729572,1.5729572 0 0 0 -0.70161,2.11138 1.5729572,1.5729572 0 0 0 2.11313,0.70078 1.5729572,1.5729572 0 0 0 0.69895,-2.11227 1.5729572,1.5729572 0 0 0 -0.20053,-0.30364 l 3.0253,-7.03433 c 0.14946,-0.34674 -0.009,-0.74826 -0.35518,-0.8991 -0.17305,-0.0755 -0.35901,-0.0736 -0.5206,-0.01 z"
     style="opacity:1;fill:#2b2200;fill-opacity:1;fill-rule:nonzero;stroke:none;stroke-width:4;stroke-miterlimit:4;stroke-dasharray:none;stroke-opacity:1"
     inkscape:transform-center-y="-3.5715412"
     inkscape:transform-center-x="-1.2975687" />
  <path
     style="opacity:1;fill:#becfd7;fill-opacity:1;fill-rule:nonzero;stroke:none;stroke-width:4;stroke-miterlimit:4;stroke-dasharray:none;stroke-opacity:1"
     d="m 237.63663,147.40762 c -0.37757,0 -0.68164,0.30407 -0.68164,0.68164 l 0,4.72071 13.52344,103.80468 11.41211,0 c 0.37757,0 0.68164,-0.30407 0.68164,-0.68164 l 0,-107.84375 c 0,-0.37757 -0.30407,-0.68164 -0.68164,-0.68164 l -24.25391,0 z"
     id="rect4393"
     inkscape:connector-curvature="0" />
  <path
     id="path4398"
     d="m 459.11182,147.40762 c 0.37757,0 0.68164,0.30407 0.68164,0.68164 l 0,4.72071 -13.52344,103.80468 -11.41211,0 c -0.37757,0 -0.68164,-0.30407 -0.68164,-0.68164 l 0,-107.84375 c 0,-0.37757 0.30407,-0.68164 0.68164,-0.68164 l 24.25391,0 z"
     style="opacity:1;fill:#becfd7;fill-opacity:1;fill-rule:nonzero;stroke:none;stroke-width:4;stroke-miterlimit:4;stroke-dasharray:none;stroke-opacity:1"
     inkscape:connector-curvature="0" />
  <rect
     style="opacity:1;fill:none;fill-opacity:0.47058824;fill-rule:nonzero;stroke:none;stroke-width:3.0079999;stroke-miterlimit:4;stroke-dasharray:none;stroke-opacity:0.47058824"
     id="rect4422"
     width="95.971176"
     height="29.554037"
     x="268.92789"
     y="95.335152" />
  <rect
     style="opacity:1;fill:#97a6ab;fill-opacity:1;fill-rule:nonzero;stroke:none;stroke-width:3.0079999;stroke-miterlimit:4;stroke-dasharray:none;stroke-opacity:0.47058824"
     id="rect4424"
     width="96.606743"
     height="30.189608"
     x="269.24567"
     y="95.652931" />
  <g
     id="g4436"
     style="opacity:1;fill:#657986;fill-opacity:1"
     transform="translate(2.3059782,-8.7369145)">
    <rect
       ry="0"
       y="115.51233"
       x="274.88431"
       height="19.067122"
       width="6.9912777"
       id="rect4426"
       style="opacity:1;fill:#657986;fill-opacity:1;fill-rule:nonzero;stroke:none;stroke-width:3.0079999;stroke-miterlimit:4;stroke-dasharray:none;stroke-opacity:0.47058824" />
    <rect
       style="opacity:1;fill:#657986;fill-opacity:1;fill-rule:nonzero;stroke:none;stroke-width:3.0079999;stroke-miterlimit:4;stroke-dasharray:none;stroke-opacity:0.47058824"
       id="rect4428"
       width="6.9912777"
       height="19.067122"
       x="328.51059"
       y="115.51233"
       ry="0" />
    <rect
       ry="0"
       y="115.51233"
       x="346.38602"
       height="19.067122"
       width="6.9912777"
       id="rect4430"
       style="opacity:1;fill:#657986;fill-opacity:1;fill-rule:nonzero;stroke:none;stroke-width:3.0079999;stroke-miterlimit:4;stroke-dasharray:none;stroke-opacity:0.47058824" />
    <rect
       ry="0"
       y="115.51233"
       x="310.63516"
       height="19.067122"
       width="6.9912777"
       id="rect4432"
       style="opacity:1;fill:#657986;fill-opacity:1;fill-rule:nonzero;stroke:none;stroke-width:3.0079999;stroke-miterlimit:4;stroke-dasharray:none;stroke-opacity:0.47058824" />
  </g>
  <g
     id="g4400"
     style="opacity:1;fill:#717d82;fill-opacity:1;fill-rule:nonzero"
     transform="translate(2.3059782,-8.7369145)">
    <path
       inkscape:connector-curvature="0"
       id="rect4346"
       d="m 292.16992,48.548128 c -0.48528,1.147981 -0.76172,2.417894 -0.76172,3.760102 l 0,147.41825 c 0,5.1044 3.89878,9.21493 8.74024,9.21493 4.84146,0 8.73828,-4.11053 8.73828,-9.21493 l 0,-141.036783 -16.7168,-10.141569 z"
       style="opacity:1;fill:#717d82;fill-opacity:1;fill-rule:nonzero;stroke:none;stroke-width:4;stroke-miterlimit:4;stroke-dasharray:none;stroke-opacity:1" />
    <path
       inkscape:connector-curvature="0"
       id="rect4348"
       d="m 313.24219,65.593974 c -0.14178,0.534772 -0.22461,1.09587 -0.22461,1.67874 l 0,109.651956 c 0,3.47652 2.69405,6.2765 6.03906,6.2765 3.345,0 6.03711,-2.79998 6.03711,-6.2765 l 0,-106.302596 -11.85156,-5.0281 z"
       style="opacity:1;fill:#717d82;fill-opacity:1;fill-rule:nonzero;stroke:none;stroke-width:4;stroke-miterlimit:4;stroke-dasharray:none;stroke-opacity:1" />
  </g>
  <ellipse
     style="opacity:1;fill:#d5e3eb;fill-opacity:1;fill-rule:nonzero;stroke:none;stroke-width:7;stroke-miterlimit:4;stroke-dasharray:none;stroke-opacity:1"
     id="path4701"
     cx="348.37421"
     cy="316.72418"
     rx="332.56808"
     ry="18.426069" />
  <rect
     style="opacity:1;fill:#99a6ab;fill-opacity:1;fill-rule:nonzero;stroke:none;stroke-width:3.0079999;stroke-miterlimit:4;stroke-dasharray:none;stroke-opacity:0.47058824"
     id="rect4442"
     width="18.749334"
     height="55.612434"
     x="273.05908"
     y="261.21909" />
  <rect
     y="261.21909"
     x="406.52893"
     height="55.612434"
     width="18.749334"
     id="rect4444"
     style="opacity:1;fill:#99a6ab;fill-opacity:1;fill-rule:nonzero;stroke:none;stroke-width:3.0079999;stroke-miterlimit:4;stroke-dasharray:none;stroke-opacity:0.47058824" />
  <g
     id="g4565"
     transform="translate(-166.75289,-270.38805)">
    <rect
       ry="0"
       y="462.32996"
       x="524.02509"
       height="41.947666"
       width="8.2624187"
       id="rect4553"
       style="opacity:1;fill:#657986;fill-opacity:1;fill-rule:nonzero;stroke:none;stroke-width:3.0079999;stroke-miterlimit:4;stroke-dasharray:none;stroke-opacity:0.47058824" />
    <circle
       r="8.2624187"
       cy="489.02399"
       cx="528.15631"
       id="path4555"
       style="opacity:1;fill:#7595a6;fill-opacity:1;fill-rule:nonzero;stroke:none;stroke-width:3.0079999;stroke-miterlimit:4;stroke-dasharray:none;stroke-opacity:0.47058824" />
    <rect
       style="opacity:1;fill:#657986;fill-opacity:1;fill-rule:nonzero;stroke:none;stroke-width:3.0079999;stroke-miterlimit:4;stroke-dasharray:none;stroke-opacity:0.47058824"
       id="rect4557"
       width="8.2624187"
       height="41.947666"
       x="545.31671"
       y="462.32996"
       ry="0" />
    <circle
       style="opacity:1;fill:#7595a6;fill-opacity:1;fill-rule:nonzero;stroke:none;stroke-width:3.0079999;stroke-miterlimit:4;stroke-dasharray:none;stroke-opacity:0.47058824"
       id="circle4559"
       cx="549.44794"
       cy="474.70618"
       r="8.2624187" />
    <rect
       ry="0"
       y="462.32996"
       x="565.33716"
       height="41.947666"
       width="8.2624187"
       id="rect4561"
       style="opacity:1;fill:#657986;fill-opacity:1;fill-rule:nonzero;stroke:none;stroke-width:3.0079999;stroke-miterlimit:4;stroke-dasharray:none;stroke-opacity:0.47058824" />
    <circle
       r="8.2624187"
       cy="490.38837"
       cx="569.46838"
       id="circle4563"
       style="opacity:1;fill:#7595a6;fill-opacity:1;fill-rule:nonzero;stroke:none;stroke-width:3.0079999;stroke-miterlimit:4;stroke-dasharray:none;stroke-opacity:0.47058824" />
  </g>
  <path
     style="opacity:1;fill:#d5e3eb;fill-opacity:1;fill-rule:nonzero;stroke:none;stroke-width:7;stroke-miterlimit:4;stroke-dasharray:none;stroke-opacity:1"
     d="m 312.71662,27.712685 a 4.3212221,4.3212221 0 0 0 -4.27942,3.758272 4.3212221,4.3212221 0 0 0 -3.75828,4.279417 4.3212221,4.3212221 0 0 0 3.75828,4.279417 4.3212221,4.3212221 0 0 0 4.27942,3.759278 4.3212221,4.3212221 0 0 0 4.27942,-3.759278 4.3212221,4.3212221 0 0 0 3.75927,-4.279417 4.3212221,4.3212221 0 0 0 -3.75927,-4.279417 4.3212221,4.3212221 0 0 0 -4.27942,-3.758272 z"
     id="path4658"
     inkscape:connector-curvature="0" />
  <path
     style="opacity:1;fill:#d5e3eb;fill-opacity:1;fill-rule:nonzero;stroke:none;stroke-width:7;stroke-miterlimit:4;stroke-dasharray:none;stroke-opacity:1"
     d="m 336.93407,0 a 5.8948829,5.8948829 0 0 0 -5.45627,3.6716795 5.8948829,5.8948829 0 0 0 -6.45312,1.26081 5.8948829,5.8948829 0 0 0 -1.26186,6.4551975 5.8948829,5.8948829 0 0 0 -3.67063,5.454208 5.8948829,5.8948829 0 0 0 3.67167,5.457308 5.8948829,5.8948829 0 0 0 1.26082,6.452092 5.8948829,5.8948829 0 0 0 6.45415,1.262882 5.8948829,5.8948829 0 0 0 5.45524,3.670641 5.8948829,5.8948829 0 0 0 5.45627,-3.671675 5.8948829,5.8948829 0 0 0 6.45314,-1.261848 5.8948829,5.8948829 0 0 0 1.26184,-6.453125 5.8948829,5.8948829 0 0 0 3.67168,-5.456275 5.8948829,5.8948829 0 0 0 -3.67168,-5.456275 5.8948829,5.8948829 0 0 0 -1.26184,-6.4531305 5.8948829,5.8948829 0 0 0 -6.45416,-1.26081 A 5.8948829,5.8948829 0 0 0 336.93407,0 Z"
     id="path4670"
     inkscape:connector-curvature="0" />
  <g
     id="g2776"
     style="fill:#f15e16;fill-opacity:1;stroke:none"
     transform="matrix(0.40952831,0,0,0.40952831,472.48328,131.03188)">
    <path
       style="fill:#f15e16;fill-opacity:1;fill-rule:evenodd;stroke:none;stroke-width:3.75;stroke-linecap:butt;stroke-linejoin:round;stroke-miterlimit:4;stroke-opacity:1"
       d="M 83.03125,0.20413788 C 77.453404,8.0735698 62.43852,10.768022 53.167969,17.100622 44.01126,22.70393 32.00712,26.053708 27.666016,36.862341 18.785751,54.89606 10.555505,72.102155 5.78125,91.672888 c 3.1057775,9.337052 16.7465,10.859172 25.064453,14.626952 2.798036,0.73475 8.589358,2.36957 12.269531,1.51172 0.467379,-0.41658 0.878647,-0.90195 1.251954,-1.44726 0.576399,-0.57641 1.025029,-1.57026 1.392578,-2.80469 1.073613,-2.91994 1.754096,-6.951152 2.673828,-12.408206 4.078639,17.298026 -5.397428,65.860456 -6.619141,93.041016 7.617885,6.33163 22.638521,4.25178 33.748047,5.52344 27.84207,0.90749 59.9626,-0.49785 85.75,-1.48438 -1.16401,-9.31579 -2.52718,-21.27613 -2.32031,-31.09179 -1.80222,-17.84133 -4.87677,-34.96082 -5.78321,-52.87696 -0.58065,-1.20296 -0.40772,-8.045652 -0.79687,-11.447264 1.60223,3.356262 2.80618,7.086192 3.4707,9.615234 0.0124,0.0795 0.0352,0.2121 0.0469,0.28711 0.008,0.002 0.0189,0.003 0.0273,0.006 0.30896,1.21084 0.49517,2.13568 0.50586,2.50195 5.42313,-0.95387 23.34932,-3.25637 28.27344,-4.27148 5.22691,-0.2986 10.085,-0.94933 12.8457,-3.072272 -0.0965,-2.480084 -1.57647,-7.146278 -2.5918,-14.761714 C 188.80965,64.370263 182.7365,45.289309 173,28.047888 163.89311,20.274657 150.6261,18.627678 140.02734,13.198279 130.68897,10.559437 127.49662,5.6877098 121.09766,1.9092159 109.31323,5.1824204 96.838625,6.4986598 83.03125,0.20413788 Z M 98.771484,54.096716 c 2.904796,-0.0063 4.613046,2.375371 5.109376,3.041016 0.45837,0.614737 11.63231,18.395254 15.49219,25.960937 0.55778,1.093304 0.88867,1.954222 0.88867,2.628907 0,0.674682 -0.33089,1.535606 -0.88867,2.628906 -3.85988,7.565686 -15.03382,25.346198 -15.49219,25.960938 -0.49633,0.66565 -2.20458,3.04802 -5.109376,3.04102 l -13.414062,-0.0293 c -1.174661,-0.003 -2.729972,-1.11774 -2.119141,-2.12109 L 98.996094,89.325232 c 0,0 1.205076,-2.882554 1.205076,-3.597656 0,-0.715098 -1.205076,-3.597657 -1.205076,-3.597657 L 83.238281,56.247107 c -0.610831,-1.003351 0.94448,-2.118494 2.119141,-2.121094 l 13.414062,-0.0293 z"
       id="path2773"
       inkscape:connector-curvature="0" />
    <path
       inkscape:connector-curvature="0"
       id="path4772"
       d="M 83.03125,0.20413788 C 77.453404,8.0735698 62.43852,10.768022 53.167969,17.100622 44.01126,22.70393 32.00712,26.053708 27.666016,36.862341 18.785751,54.89606 10.555505,72.102155 5.78125,91.672888 c 3.1057775,9.337052 16.7465,10.859172 25.064453,14.626952 2.798036,0.73475 8.589358,2.36957 12.269531,1.51172 0.467379,-0.41658 0.878647,-0.90195 1.251954,-1.44726 0.576399,-0.57641 1.025029,-1.57026 1.392578,-2.80469 1.073613,-2.91994 1.754096,-6.951152 2.673828,-12.408206 4.078639,17.298026 -5.397428,65.860456 -6.619141,93.041016 7.617885,6.33163 22.638521,4.25178 33.748047,5.52344 27.84207,0.90749 59.9626,-0.49785 85.75,-1.48438 -1.16401,-9.31579 -2.52718,-21.27613 -2.32031,-31.09179 -1.80222,-17.84133 -4.87677,-34.96082 -5.78321,-52.87696 -0.58065,-1.20296 -0.40772,-8.045652 -0.79687,-11.447264 1.60223,3.356262 2.80618,7.086192 3.4707,9.615234 0.0124,0.0795 0.0352,0.2121 0.0469,0.28711 0.008,0.002 0.0189,0.003 0.0273,0.006 0.30896,1.21084 0.49517,2.13568 0.50586,2.50195 5.42313,-0.95387 23.34932,-3.25637 28.27344,-4.27148 5.22691,-0.2986 10.085,-0.94933 12.8457,-3.072272 -0.0965,-2.480084 -1.57647,-7.146278 -2.5918,-14.761714 C 188.80965,64.370263 182.7365,45.289309 173,28.047888 163.89311,20.274657 150.6261,18.627678 140.02734,13.198279 130.68897,10.559437 127.49662,5.6877098 121.09766,1.9092159 109.31323,5.1824204 96.838625,6.4986598 83.03125,0.20413788 Z M 98.771484,54.096716 c 2.904796,-0.0063 4.613046,2.375371 5.109376,3.041016 0.45837,0.614737 11.63231,18.395254 15.49219,25.960937 0.55778,1.093304 0.88867,1.954222 0.88867,2.628907 0,0.674682 -0.33089,1.535606 -0.88867,2.628906 -3.85988,7.565686 -15.03382,25.346198 -15.49219,25.960938 -0.49633,0.66565 -2.20458,3.04802 -5.109376,3.04102 l -13.414062,-0.0293 c -1.174661,-0.003 -2.729972,-1.11774 -2.119141,-2.12109 L 98.996094,89.325232 c 0,0 1.205076,-2.882554 1.205076,-3.597656 0,-0.715098 -1.205076,-3.597657 -1.205076,-3.597657 L 83.238281,56.247107 c -0.610831,-1.003351 0.94448,-2.118494 2.119141,-2.121094 l 13.414062,-0.0293 z"
       style="fill:#f15e16;fill-opacity:1;fill-rule:evenodd;stroke:none;stroke-width:3.75;stroke-linecap:butt;stroke-linejoin:round;stroke-miterlimit:4;stroke-opacity:1" />
    <path
       inkscape:connector-curvature="0"
       id="path4772-0"
       d="m -674.78688,28.973211 c 7.39428,-0.0153 11.74256,6.04659 13.00591,7.741 1.16688,1.56484 29.6107,46.82581 39.43597,66.084519 1.4199,2.78304 2.26221,4.97454 2.26221,6.69199 0,1.71742 -0.84231,3.90893 -2.26221,6.69196 -9.82527,19.25875 -38.26909,64.51969 -39.43597,66.08453 -1.26335,1.69443 -5.61163,7.75884 -13.00591,7.74103 l -34.14608,-0.0746 c -2.99024,-0.008 -6.94931,-2.84525 -5.39425,-5.39931 l 40.11206,-65.88567 c 0,0 3.06763,-7.33764 3.06763,-9.15798 0,-1.82028 -3.06763,-9.15795 -3.06763,-9.15795 l -40.11206,-65.885639 c -1.55506,-2.55406 2.40401,-5.39271 5.39425,-5.39933 z"
       style="fill:#1c6cae;fill-opacity:1;fill-rule:evenodd;stroke:none;stroke-width:3.75;stroke-linecap:butt;stroke-linejoin:round;stroke-miterlimit:4;stroke-opacity:1"
       sodipodi:nodetypes="cccsccccccscccc" />
    <path
       sodipodi:nodetypes="cccsccccccscccc"
       style="fill:#1c6cae;fill-opacity:1;fill-rule:evenodd;stroke:none;stroke-width:3.75;stroke-linecap:butt;stroke-linejoin:round;stroke-miterlimit:4;stroke-opacity:1"
       d="m -852.24065,28.973211 c 7.39428,-0.0153 11.74256,6.04659 13.00591,7.741 1.16688,1.56484 29.6107,46.82581 39.43597,66.084519 1.4199,2.78304 2.26221,4.97454 2.26221,6.69199 0,1.71742 -0.84231,3.90893 -2.26221,6.69196 -9.82527,19.25875 -38.26909,64.51969 -39.43597,66.08453 -1.26335,1.69443 -5.61163,7.75884 -13.00591,7.74103 l -34.14608,-0.0746 c -2.99024,-0.008 -6.94931,-2.84525 -5.39425,-5.39931 l 40.11206,-65.88567 c 0,0 3.06763,-7.33764 3.06763,-9.15798 0,-1.82028 -3.06763,-9.15795 -3.06763,-9.15795 l -40.11206,-65.885639 c -1.55506,-2.55406 2.40401,-5.39271 5.39425,-5.39933 z"
       id="path4789"
       inkscape:connector-curvature="0" />
    <path
       inkscape:connector-curvature="0"
       id="path4791"
       d="m -1029.6945,28.973214 c 7.3943,-0.01527 11.7426,6.046592 13.006,7.741003 1.1668,1.564843 29.61066,46.825806 39.43593,66.084523 1.4199,2.78303 2.26221,4.97454 2.26221,6.69198 0,1.71743 -0.84231,3.90893 -2.26221,6.69196 -9.82527,19.25875 -38.26913,64.51969 -39.43593,66.08453 -1.2634,1.69443 -5.6117,7.75884 -13.006,7.74103 l -34.146,-0.0746 c -2.9903,-0.008 -6.9493,-2.84525 -5.3943,-5.39931 l 40.1121,-65.88567 c 0,0 3.0676,-7.33763 3.0676,-9.15797 0,-1.82029 -3.0676,-9.15795 -3.0676,-9.15795 l -40.1121,-65.885639 c -1.555,-2.554064 2.404,-5.392719 5.3943,-5.399338 z"
       style="fill:#1c6cae;fill-opacity:1;fill-rule:evenodd;stroke:none;stroke-width:3.75;stroke-linecap:butt;stroke-linejoin:round;stroke-miterlimit:4;stroke-opacity:1"
       sodipodi:nodetypes="cccsccccccscccc" />
  </g>
  <g
     transform="matrix(0.40952831,0,0,0.40952831,563.26538,129.23421)"
     style="fill:#f15e16;fill-opacity:1;stroke:none"
     id="g4697">
    <path
       inkscape:connector-curvature="0"
       id="path4699"
       d="M 83.03125,4.59375 C 77.453404,12.463182 62.43852,15.157634 53.167969,21.490234 44.01126,27.093542 32.00712,30.44332 27.666016,41.251953 18.785751,59.285672 10.555505,76.491767 5.78125,96.0625 c 3.1057775,9.33705 16.7465,10.85917 25.064453,14.62695 2.798036,0.73475 8.589358,2.36957 12.269531,1.51172 0.467379,-0.41658 0.878647,-0.90195 1.251954,-1.44726 0.576399,-0.57641 1.025029,-1.57026 1.392578,-2.80469 1.073613,-2.91994 1.754096,-6.95115 2.673828,-12.408204 4.078639,17.298024 -5.397428,65.860454 -6.619141,93.041014 7.617885,6.33163 22.638521,4.25178 33.748047,5.52344 27.84207,0.90749 59.9626,-0.49785 85.75,-1.48438 -1.16401,-9.31579 -2.52718,-21.27613 -2.32031,-31.09179 -1.80222,-17.84133 -4.87677,-34.96082 -5.78321,-52.87696 -0.58065,-1.20296 -0.40772,-8.04565 -0.79687,-11.447262 1.60223,3.356262 2.80618,7.086192 3.4707,9.615232 0.0124,0.0795 0.0352,0.2121 0.0469,0.28711 0.008,0.002 0.0189,0.003 0.0273,0.006 0.30896,1.21084 0.49517,2.13568 0.50586,2.50195 5.42313,-0.95387 23.34932,-3.25637 28.27344,-4.27148 5.22691,-0.2986 10.085,-0.94933 12.8457,-3.07227 -0.0965,-2.480084 -1.57647,-7.146278 -2.5918,-14.761714 C 188.80965,68.759875 182.7365,49.678921 173,32.4375 163.89311,24.664269 150.6261,23.01729 140.02734,17.587891 130.68897,14.949049 127.49662,10.077322 121.09766,6.2988281 109.31323,9.5720326 96.838625,10.888272 83.03125,4.59375 Z m 15.740234,53.892578 c 2.904796,-0.0063 4.613046,2.375371 5.109376,3.041016 0.45837,0.614737 11.63231,18.395254 15.49219,25.960937 0.55778,1.093304 0.88867,1.954222 0.88867,2.628907 0,0.674682 -0.33089,1.535606 -0.88867,2.628906 -3.85988,7.565686 -15.03382,25.346196 -15.49219,25.960936 -0.49633,0.66565 -2.20458,3.04802 -5.109376,3.04102 l -13.414062,-0.0293 c -1.174661,-0.003 -2.729972,-1.11774 -2.119141,-2.12109 L 98.996094,93.714844 c 0,0 1.205076,-2.882554 1.205076,-3.597656 0,-0.715098 -1.205076,-3.597657 -1.205076,-3.597657 L 83.238281,60.636719 c -0.610831,-1.003351 0.94448,-2.118494 2.119141,-2.121094 l 13.414062,-0.0293 z"
       style="fill:#f15e16;fill-opacity:1;fill-rule:evenodd;stroke:none;stroke-width:3.75;stroke-linecap:butt;stroke-linejoin:round;stroke-miterlimit:4;stroke-opacity:1" />
  </g>
</svg>
