<?xml version="1.0" encoding="UTF-8" standalone="no"?>
<svg
   xmlns:dc="http://purl.org/dc/elements/1.1/"
   xmlns:cc="http://creativecommons.org/ns#"
   xmlns:rdf="http://www.w3.org/1999/02/22-rdf-syntax-ns#"
   xmlns:svg="http://www.w3.org/2000/svg"
   xmlns="http://www.w3.org/2000/svg"
   xmlns:sodipodi="http://sodipodi.sourceforge.net/DTD/sodipodi-0.dtd"
   xmlns:inkscape="http://www.inkscape.org/namespaces/inkscape"
   version="1.1"
   width="1000"
   height="500"
   id="svg2"
   inkscape:version="0.91 r13725"
   sodipodi:docname="truck.svg">
  <metadata
     id="metadata16">
    <rdf:RDF>
      <cc:Work
         rdf:about="">
        <dc:format>image/svg+xml</dc:format>
        <dc:type
           rdf:resource="http://purl.org/dc/dcmitype/StillImage" />
      </cc:Work>
    </rdf:RDF>
  </metadata>
  <defs
     id="defs14" />
  <sodipodi:namedview
     pagecolor="#ffffff"
     bordercolor="#666666"
     borderopacity="1"
     objecttolerance="10"
     gridtolerance="10"
     guidetolerance="10"
     inkscape:pageopacity="0"
     inkscape:pageshadow="2"
     inkscape:window-width="1656"
     inkscape:window-height="890"
     id="namedview12"
     showgrid="false"
     inkscape:zoom="0.417193"
     inkscape:cx="458.55762"
     inkscape:cy="144.65467"
     inkscape:window-x="0"
     inkscape:window-y="23"
     inkscape:window-maximized="0"
     inkscape:current-layer="svg2" />
  <!-- Created by MarianSigler, mariansigler@gmail.com -->
  <path
     style="fill:#000000;fill-rule:evenodd;stroke:none;fill-opacity:1"
     d="m 705.11002,86.816926 0,248.265594 -391.93206,0.32058 c 22.99976,18.79086 37.35891,44.69108 37.17122,78.68503 l 389.0657,-0.23146 c 3.72695,-131.88316 190.83671,-131.43444 194.90247,-0.76233 28.10286,-0.20968 32.00104,-6.59235 32.27199,-32.47965 l 0,-99 c 0.35285,-44.24216 5.87806,-15.03738 -26.87215,-98.93472 C 906.01915,93.246445 915.3091,101.51291 884.82941,99.204795 L 705.11002,86.816926 Z m 77.84554,146.382734 -1.55116,-105.4792 100.05012,6.20466 c 18.23966,1.22192 18.39146,1.33642 24.81864,22.49189 l 25.59422,68.25124 c 8.59824,20.93425 7.2297,27.1029 -16.28723,24.04306 L 782.95556,233.19966 Z m -748.696292,102.39108 -0.19058,55.77718 64.6075,22.86991 56.726622,-0.0363 c -0.2309,-32.34253 13.21004,-59.54445 37.04159,-78.65263 l -158.185132,0.0418 z"
     id="path4"
     inkscape:connector-curvature="0" />
  <path
     style="fill:#918170;stroke:none;fill-opacity:1"
     d="M 33.742188 12.158203 L 33.742188 313.85938 L 665.06641 313.85938 L 665.06641 12.158203 L 33.742188 12.158203 z M 274.73242 44.130859 L 325.14844 44.240234 C 329.5632 44.250065 335.40711 48.441964 333.11133 52.212891 L 273.88867 149.48828 C 273.88867 149.48828 269.35938 160.32213 269.35938 163.00977 C 269.35938 165.69733 273.88867 176.53125 273.88867 176.53125 L 333.11133 273.80664 C 335.40711 277.57755 329.5632 281.7686 325.14844 281.7793 L 274.73242 281.88867 C 263.81523 281.91503 257.3966 272.9607 255.53125 270.45898 C 253.8086 268.14861 211.8114 201.32489 197.30469 172.89062 C 195.20835 168.78161 193.96484 165.54544 193.96484 163.00977 C 193.96484 160.47411 195.20835 157.23793 197.30469 153.12891 C 211.8114 124.69463 253.8086 57.870916 255.53125 55.560547 C 257.3966 53.058859 263.81523 44.103249 274.73242 44.130859 z M 424.07617 44.130859 C 434.99336 44.103249 441.41395 53.058859 443.2793 55.560547 C 445.00195 57.870916 486.9972 124.69463 501.50391 153.12891 C 503.60025 157.23793 504.84375 160.47411 504.84375 163.00977 C 504.84375 165.54544 503.60025 168.78161 501.50391 172.89062 C 486.9972 201.32489 445.00195 268.14861 443.2793 270.45898 C 441.41395 272.9607 434.99336 281.91503 424.07617 281.88867 L 373.66211 281.7793 C 369.24735 281.7686 363.40149 277.57755 365.69727 273.80664 L 424.92188 176.53125 C 424.92188 176.53125 429.44922 165.69733 429.44922 163.00977 C 429.44922 160.32213 424.92188 149.48828 424.92188 149.48828 L 365.69727 52.212891 C 363.40149 48.441964 369.24735 44.250065 373.66211 44.240234 L 424.07617 44.130859 z "
     id="rect6" />
  <circle
     r="77"
     cx="-836.89423"
     cy="412"
     style="fill:#000000;stroke:none;fill-opacity:1"
     id="circle8"
     transform="scale(-1,1)" />
  <circle
     r="77"
     cx="-252.89421"
     cy="412"
     style="fill:#000000;stroke:none;fill-opacity:1"
     id="circle10"
     transform="scale(-1,1)" />
  <g
     id="g4144"
     transform="translate(18.847234,0)"
     style="fill:#ffffff;fill-opacity:1" />
</svg>
