<?xml version="1.0" encoding="UTF-8" standalone="no"?>
<!-- Created with Inkscape (http://www.inkscape.org/) -->

<svg
   xmlns:dc="http://purl.org/dc/elements/1.1/"
   xmlns:cc="http://creativecommons.org/ns#"
   xmlns:rdf="http://www.w3.org/1999/02/22-rdf-syntax-ns#"
   xmlns:svg="http://www.w3.org/2000/svg"
   xmlns="http://www.w3.org/2000/svg"
   xmlns:sodipodi="http://sodipodi.sourceforge.net/DTD/sodipodi-0.dtd"
   xmlns:inkscape="http://www.inkscape.org/namespaces/inkscape"
   id="svg3390"
   version="1.1"
   inkscape:version="0.91 r13725"
   width="107.74745"
   height="213.12216"
   viewBox="0 0 107.74745 213.12216"
   sodipodi:docname="worker.svg">
  <metadata
     id="metadata3396">
    <rdf:RDF>
      <cc:Work
         rdf:about="">
        <dc:format>image/svg+xml</dc:format>
        <dc:type
           rdf:resource="http://purl.org/dc/dcmitype/StillImage" />
        <dc:title></dc:title>
      </cc:Work>
    </rdf:RDF>
  </metadata>
  <defs
     id="defs3394" />
  <sodipodi:namedview
     pagecolor="#ffffff"
     bordercolor="#666666"
     borderopacity="1"
     objecttolerance="10"
     gridtolerance="10"
     guidetolerance="10"
     inkscape:pageopacity="0"
     inkscape:pageshadow="2"
     inkscape:window-width="1680"
     inkscape:window-height="1006"
     id="namedview3392"
     showgrid="false"
     inkscape:zoom="2.2251082"
     inkscape:cx="164.57361"
     inkscape:cy="83.350144"
     inkscape:window-x="0"
     inkscape:window-y="0"
     inkscape:window-maximized="0"
     inkscape:current-layer="svg3390"
     inkscape:snap-midpoints="true"
     fit-margin-top="0"
     fit-margin-left="0"
     fit-margin-right="0"
     fit-margin-bottom="0" />
  <path
     style="fill:#6fb7a0;fill-opacity:1;fill-rule:evenodd;stroke:none;stroke-width:1px;stroke-linecap:butt;stroke-linejoin:miter;stroke-opacity:1"
     d="m 22.644103,95.859376 64.03375,-0.79446 -0.1589,4.44899 c 0,0 6.03793,-0.87391 10.9636,3.416194 4.925667,4.29011 8.897987,8.34187 8.818537,9.37467 -0.0794,1.0328 -2.14505,4.52844 -6.355697,5.32291 -4.21066,0.79446 -6.6735,-0.1589 -6.6735,-0.1589 0,0 -0.31778,-2.22449 -3.49564,-6.5146 -3.17785,-4.2901 -4.68733,-1.27114 -4.68733,-1.27114 l 1.11225,21.68885 -64.58987,0.1589 -0.0795,-24.39003 c 0,0 -3.01896,0.95336 -5.08456,4.68733 -2.06561,3.73398 -2.70118,7.15017 -2.70118,7.15017 0,0 -4.1312097,-0.0794 -6.8323797,-1.66837 -2.70118,-1.58893 -6.59404995,-2.86007 -6.59404995,-2.86007 0,0 0.95335995,-5.87903 6.91182995,-9.93079 5.9584797,-4.05176 12.1552897,-4.925674 13.3469897,-4.846234 1.19169,0.0794 1.58892,0 1.58892,0 z"
     id="path3341"
     inkscape:connector-curvature="0" />
  <path
     style="fill:#ead2a9;fill-opacity:1;fill-rule:evenodd;stroke:none;stroke-width:1px;stroke-linecap:butt;stroke-linejoin:miter;stroke-opacity:1"
     d="m 22.663273,31.459144 0,64.491242 14.38132,-0.22471 16.85312,19.324914 18.20136,-19.999034 14.38132,0.22471 -0.67412,-34.15564 c 0,0 7.86478,1.12354 8.08949,-4.94358 0.22471,-6.06712 -8.08949,-6.96596 -8.08949,-6.96596 l -2.02238,-24.268479 z"
     id="path3477"
     inkscape:connector-curvature="0" />
  <path
     style="fill:#6c460f;fill-opacity:1;fill-rule:evenodd;stroke:none;stroke-width:1px;stroke-linecap:butt;stroke-linejoin:miter;stroke-opacity:1"
     d="m 23.112693,48.986386 c 0,0 -1.57296,-5.61771 -0.89884,-10.11187 0.67413,-4.49417 1.79767,-3.82004 1.79767,-3.82004 0,0 2.02237,3.82004 12.58366,3.82004 10.56128,0 23.59436,-11.460119 33.48151,-11.460119 9.88716,0 12.58366,21.796689 12.58366,21.796689 l 7.86479,0 c 0,0 3.37062,-9.21303 3.59533,-17.527234 0.22471,-8.314202 -5.61771,-13.48249 -8.3142,-13.48249 -2.6965,0 -5.61771,3.370622 -8.53891,3.370622 -5.16829,0 -2.70381,-12.663004 -19.77432,-13.707198 -8.31081,-0.508368 -17.52724,9.88716 -26.51557,2.022373 C 24.638663,4.3407 32.101013,0 32.101013,0 c 0,0 -10.78599,1.123541 -10.56128,9.213035 0.22471,8.089494 -3.37062,-3.370623 -3.37062,-3.370623 0,0 -5.393,5.392996 -5.393,12.808366 0,7.41537 6.29183,13.707199 6.29183,13.707199 0,0 -0.89883,13.482489 4.04475,16.628409 z"
     id="path3475"
     inkscape:connector-curvature="0"
     sodipodi:nodetypes="cscssccssssscscscc" />
  <path
     style="fill:#6c460f;fill-opacity:1;fill-rule:evenodd;stroke:none;stroke-width:1px;stroke-linecap:butt;stroke-linejoin:miter;stroke-opacity:1"
     d="m 27.382143,76.400776 c 0,0 5.16283,4.61801 7.83988,1.20692 3.68735,-4.69842 5.23112,-5.83508 12.60857,-5.70108 9.67041,0.17564 11.10934,5.62926 15.41123,6.39152 5.87731,1.0414 10.2055,-2.34677 10.2055,-2.34677 0,0 -2.24708,7.64007 -12.58366,7.86478 -10.33658,0.22471 -14.60603,-3.14591 -14.60603,-3.14591 0,0 -3.14592,3.59533 -9.43774,3.14591 -6.29183,-0.44941 -9.43775,-7.41537 -9.43775,-7.41537 z"
     id="path3479"
     inkscape:connector-curvature="0"
     sodipodi:nodetypes="cssscscsc" />
  <path
     style="fill:none;fill-rule:evenodd;stroke:#000000;stroke-width:1px;stroke-linecap:butt;stroke-linejoin:miter;stroke-opacity:1"
     d="m 42.108463,54.070606 -0.63558,14.77701 11.59917,0.47668 c 0,0 1.90671,0.1589 1.82727,-2.22449 -0.0795,-2.38339 -2.06561,-2.62173 -2.06561,-2.62173 l 0,0 0,-0.0794"
     id="path3483"
     inkscape:connector-curvature="0" />
  <path
     style="fill:#6c460f;fill-opacity:1;fill-rule:evenodd;stroke:none;stroke-width:1px;stroke-linecap:butt;stroke-linejoin:miter;stroke-opacity:1"
     d="m 44.094613,86.484706 7.38851,0.15889 -4.05176,5.95848 z"
     id="path3481"
     inkscape:connector-curvature="0" />
  <path
     style="fill:#000000;fill-opacity:1;fill-rule:evenodd;stroke:none;stroke-width:1px;stroke-linecap:butt;stroke-linejoin:miter;stroke-opacity:1"
     d="m 13.031103,44.854826 1.43003,0.0794 c 0,0 2.06561,-2.62173 12.23474,-2.38339 10.16913,0.23834 13.18809,2.30394 13.18809,2.30394 0,0 1.66837,1.1917 5.24346,0.95336 3.57508,-0.23834 6.03792,-0.71502 6.03792,-0.71502 0,0 2.38339,-3.17785 13.66477,-3.01896 11.28138,0.15889 13.26754,1.90671 13.26754,1.90671 l 3.97231,-0.47668 0.39723,6.59405 -2.22449,0 c 0,0 0.79446,13.34699 -15.17425,13.0292 -15.96872,-0.31778 -16.52485,-13.74422 -16.52485,-13.74422 0,0 -2.06559,-0.47668 -3.25729,-0.39723 -1.19169,0.0794 -2.78063,0.39723 -2.78063,0.39723 0,0 -1.25601,12.23092 -14.45923,11.9964 -13.62498,-0.24202 -12.75577,-10.11925 -13.18809,-10.40747 l -1.66837,-0.15889 z"
     id="path3485"
     inkscape:connector-curvature="0"
     sodipodi:nodetypes="ccscscsccccscccsccc" />
  <path
     style="fill:#b0e4fe;fill-opacity:1;fill-rule:evenodd;stroke:none;stroke-width:1px;stroke-linecap:butt;stroke-linejoin:miter;stroke-opacity:1"
     d="m 15.989893,47.172396 c 0,0 0.53685,-3.9065 11.10321,-3.35037 10.56636,0.55612 13.58532,2.86007 13.58532,4.60789 0,2.75901 -1.90437,12.07584 -13.10864,11.59916 -12.55022,-0.53394 -11.65934,-10.1555 -11.57989,-12.85668 z"
     id="path3489"
     inkscape:connector-curvature="0"
     sodipodi:nodetypes="csssc" />
  <path
     style="fill:#b0e4fe;fill-opacity:1;fill-rule:evenodd;stroke:none;stroke-width:1px;stroke-linecap:butt;stroke-linejoin:miter;stroke-opacity:1"
     d="m 50.861183,49.115336 c -0.11235,-4.02217 3.64108,-5.54284 13.88948,-5.37276 9.57446,0.1589 12.79086,0.47668 13.90311,4.05177 1.11225,3.57508 -0.15889,14.69757 -13.58532,13.82366 -13.42643,-0.87391 -14.09491,-8.48051 -14.20727,-12.50267 z"
     id="path3491"
     inkscape:connector-curvature="0"
     sodipodi:nodetypes="zsssz" />
  <path
     style="fill:#ffffff;fill-opacity:1;fill-rule:evenodd;stroke:none;stroke-width:1px;stroke-linecap:butt;stroke-linejoin:miter;stroke-opacity:1"
     d="m 32.892683,95.859376 0.23834,35.591964 4.13121,0 -0.0795,-35.671414 z"
     id="path3343"
     inkscape:connector-curvature="0" />
  <path
     style="fill:#ffffff;fill-opacity:1;fill-rule:evenodd;stroke:none;stroke-width:1px;stroke-linecap:butt;stroke-linejoin:miter;stroke-opacity:1"
     d="m 71.344703,95.303256 -0.23833,35.989194 4.44899,0 -0.0794,-36.148094 z"
     id="path3345"
     inkscape:connector-curvature="0" />
  <path
     style="fill:#c45543;fill-opacity:1;fill-rule:evenodd;stroke:none;stroke-width:1px;stroke-linecap:butt;stroke-linejoin:miter;stroke-opacity:1"
     d="m 21.764443,131.45429 5.39299,66.28891 12.13424,0 -0.2247,-45.16635 c 0,0 4.49416,-2.47179 14.83073,-2.24708 10.33658,0.22471 15.95428,2.24708 15.95428,2.24708 l -0.89883,44.26751 13.03308,0 4.26945,-65.39007 z"
     id="path3347"
     inkscape:connector-curvature="0" />
  <path
     style="fill:#c1ac98;fill-opacity:1;fill-rule:evenodd;stroke:none;stroke-width:1px;stroke-linecap:butt;stroke-linejoin:miter;stroke-opacity:1"
     d="m 25.584483,197.51849 0,6.96595 14.38132,0.44942 0.44941,-7.64008 z"
     id="path3349"
     inkscape:connector-curvature="0" />
  <path
     style="fill:#c1ac98;fill-opacity:1;fill-rule:evenodd;stroke:none;stroke-width:1px;stroke-linecap:butt;stroke-linejoin:miter;stroke-opacity:1"
     d="m 67.829613,197.06907 0.44942,7.19066 15.28015,-0.22471 -0.22471,-7.64007 z"
     id="path3351"
     inkscape:connector-curvature="0" />
  <path
     style="fill:#835003;fill-opacity:1;fill-rule:evenodd;stroke:none;stroke-width:1px;stroke-linecap:butt;stroke-linejoin:miter;stroke-opacity:1"
     d="m 27.251993,207.48148 -13.42643,5.32291 26.85286,-0.47668 0.23834,-3.97232 -2.06561,-0.79446 z"
     id="path3357"
     inkscape:connector-curvature="0" />
  <path
     style="fill:#ead2a9;fill-opacity:1;fill-rule:evenodd;stroke:none;stroke-width:1px;stroke-linecap:butt;stroke-linejoin:miter;stroke-opacity:1"
     d="m 27.728673,204.62141 -0.0795,3.65453 c 0,0 -0.0795,1.1917 6.19681,1.27115 6.27627,0.0794 4.92568,-1.98616 4.92568,-1.98616 l 0,-2.70118 z"
     id="path3353"
     inkscape:connector-curvature="0" />
  <path
     style="fill:#835003;fill-opacity:1;fill-rule:evenodd;stroke:none;stroke-width:1px;stroke-linecap:butt;stroke-linejoin:miter;stroke-opacity:1"
     d="m 69.517443,207.0048 c 0,0 -1.98616,1.58893 -1.98616,3.4162 0,1.82726 2.2245,2.22449 2.2245,2.22449 l 24.31058,0.47668 -12.71142,-6.19681 -1.90671,-0.1589 z"
     id="path3359"
     inkscape:connector-curvature="0" />
  <path
     style="fill:#ead2a9;fill-opacity:1;fill-rule:evenodd;stroke:none;stroke-width:1px;stroke-linecap:butt;stroke-linejoin:miter;stroke-opacity:1"
     d="m 69.517443,204.30363 -0.0795,2.62173 c 0,0 -0.23834,2.30394 5.40235,2.38339 5.64069,0.0794 4.449,-2.14505 4.36955,-2.54229 -0.0794,-0.39723 0.15889,-2.86006 0.15889,-2.86006 z"
     id="path3355"
     inkscape:connector-curvature="0" />
  <path
     style="fill:#ead2a9;fill-opacity:1;fill-rule:evenodd;stroke:none;stroke-width:1px;stroke-linecap:butt;stroke-linejoin:miter;stroke-opacity:1"
     d="m 28.364243,132.32525 c 0,0 0.71501,1.35059 2.86007,2.62173 2.14505,1.27114 3.97231,0.79446 3.97231,0.79446 0,0 2.2245,-0.15889 2.06561,2.14505 -0.1589,2.30395 -3.4162,1.66837 -4.60789,0.71502 -1.1917,-0.95336 -0.15889,3.17785 -0.15889,3.17785 0,0 0.25592,1.20887 -1.37825,2.83444 -1.63417,1.62558 -3.62687,2.56791 -3.62687,2.56791 0,0 -1.35059,0.0795 -2.30395,-2.14505 -0.95335,-2.2245 -2.46283,-2.78062 -5.40235,-2.46283 -2.93951,0.31778 -9.42518,-3.88169 -11.7580597,-6.35571 -2.69478,-2.85781 -4.21593,-6.57415 -4.60879,-7.52578 0,0 -3.19051995,-0.57563 -3.40493995,-3.01292 -0.21858,-2.48461 2.56195995,-2.93525 2.56195995,-2.93525 0.47925,-1.85178 -0.65917,-5.04093 -0.10947,-6.78487 0.38881,-1.23349 1.49913,-3.45764 5.43057,-2.53703 3.9680897,0.92919 3.4815497,4.80071 3.0701897,4.76153 0,0 -2.5422797,6.67349 1.35059,11.91695 3.89287,5.24346 11.75806,6.99128 11.75806,6.99128 z"
     id="path3361"
     inkscape:connector-curvature="0"
     sodipodi:nodetypes="cscssczcsssssssscscc" />
  <path
     style="fill:#ead2a9;fill-opacity:1;fill-rule:evenodd;stroke:none;stroke-width:1px;stroke-linecap:butt;stroke-linejoin:miter;stroke-opacity:1"
     d="m 95.178613,116.51543 c 0,0 5.243447,6.19681 0.47667,12.94975 -4.76678,6.75294 -11.91695,7.15017 -11.91695,7.15017 0,0 -2.62173,-3.49564 -4.84622,-3.2573 -2.2245,0.23834 -4.36955,1.98616 -5.4818,2.30394 -1.11225,0.31779 -3.73398,0.47668 -3.73398,0.47668 0,0 -1.27114,1.1917 -0.47668,2.93952 0.79447,1.74782 5.64069,-0.55613 5.64069,-0.55613 0,0 0.79447,0.79447 -0.31778,1.98616 -1.11225,1.1917 2.38642,6.00644 6.67349,6.43515 0.79447,0.0795 3.2573,-3.65453 3.2573,-3.65453 2.86931,-2.5319 12.8703,-3.57509 16.207047,-8.02408 1.50987,-2.01315 2.88111,-4.72213 3.63945,-7.83009 0.17772,-0.72835 3.33034,0.27547 3.44503,-2.0086 0.10198,-2.03107 -2.86534,-1.61443 -2.83963,-2.32113 0.0951,-2.61304 -0.29491,-5.384 -1.38478,-8.17844 0,0 -2.21953,-3.04736 -4.612487,-2.31312 -4.69218,1.43971 -3.72937,3.90205 -3.72937,3.90205 z"
     id="path3363"
     inkscape:connector-curvature="0"
     sodipodi:nodetypes="cscsscscsssssssssc" />
  <circle
     style="fill:#000000;fill-opacity:1;stroke:none;stroke-opacity:1"
     id="path4165"
     cx="30.190996"
     cy="-52.019955"
     r="1.1235409"
     transform="scale(1,-1)" />
  <ellipse
     style="fill:#000000;fill-opacity:1;stroke:none;stroke-opacity:1"
     id="path4249"
     cx="61.762497"
     cy="52.413174"
     rx="1.2920719"
     ry="1.1797179" />
</svg>
