<svg xmlns="http://www.w3.org/2000/svg" id="Layer_2" width="800" height="800" viewBox="0 0 800 800"><g id="surface1" transform="translate(225.315 314.02) scale(1.33333)" class="moz"><path d="M87.473 10.504C75.926 18.164 57.82 34.016 49.168 43.25c2.133.297 4.39-1.371 6.797-1.691l16.64-4.575c-6.91 5.95-21.457 16.438-25.668 24.7 5.196-1.875 16.098-8.168 21.516-8.684-4.734 4.355-14.61 12.613-17.703 17.871.375.176.113.637.172.957 4.07-2.34 13.96-8.469 18.45-8.883-4.618 4.993-13.114 14.61-14.974 21.051 4.008-2.742 14.098-8.3 18.512-9.988-1.004 2.543-3.234 4.43-4.683 6.972-2.004 3.516-6.739 7.516-6.915 11.696 3.516-3.406 7.88-6.414 12.258-8.813-1.953 4.223-5.547 7.715-6.523 12.742 2.871-2.894 8.312-4.402 12.012-5.738l-.446.445c-.316.274-4.484 3.344-7.324 6.774 2.523-.164.645-.48 3.871.258l-.058.16c-.223 19.34 36.472 26.41 58.957 25.43 4.742-9.2 2.183-24.059 14.43-30.45 8.241-4.394 9.175-6.796 18.69-5.004 5.141.97 16.391 4.864 21.778 3.633 5.023-2.914 7.469-4.195 11.918-7.695 4.305-6.555-34.309-27.8-3.098-.246 7.489 1.605 9.422 1.367 11.641-1.973.992-2.695 3.36-9.855 5.523-14.523l.149-2.52c-2.094-6.328-1.586-17.148-2.649-18.707-6.921-9.62-31.949-11.129-43.27-23.785 1.93-6.285-2.12-11.46-6.245-15.39-6.2-4.567-14.75-2.47-21.348-.57-7.516-1.575-14.469-4.278-21.785-6.423-16.277-1.699-32.32 10.223-32.32 10.223zm0 0" id="path5377"/><path d="M135.176 15.855l-5.395 2.063c-.648-1.293.969-2.52 1.61-3.723.46-.883 1.785-1.379 2.097-2.445-6.976-1.125-13.57-4.555-21.008-3.371-7.957 1.258-12.59 4.305-17.168 7.937-2.312 1.27-3.43 3.07-5.675 4.586-2.746 2.48-3.942 7.418-4.625 8.36 3.984-1.727 7.992-1.469 10.695-2.383-10.176 6.375-11.953 18.824-9.137 29.207l-.168.23c-3.418-2.05-4.41-5.828-5.355-9.132-.672 2.171-.77 4.93-1.227 7.355-1.093-1.023-1.695-2.484-2.304-3.789-1.145 10.988 4.203 19.938 10.754 28.613 4.39 5.817-4.18 9.664-2.16 16.965l10.304-.578c1.328-.496.914-.32.914-.32-2.582 5.18-16.254 9.101-18.879 12.062.735.61 12.754-3.101 17.153-3.847l-12.938 7.324c1.285.398-.043 4.746 2.781 4.336 17.89 5.32 38.043 12.703 41.18 4.996 2.621-4.899 6.496-13.2 5.898-17.899l2.778-4.226c-3.707.922-7.438 2.422-10.301 5.48-.86-1.8.488-3.96 1.156-5.664 1.922-3.453 5.758-5.281 8.797-7.246l-6.383-2.832c-3.218-5.535-9.332-10.098-9.496-16.605l1.512.515c5.82 6.625 14.094 11.996 22.379 12.383-5.64-.484 23.558-3.934 21.84-6.41 3.105 4.473 12.484 6.351 19.34 8.703 3.148-1.137 4.523-.813 6.886-2.95-1.008-1.093-2.566-1.991-4.066-2.558-9.004-2.492-30.266-6.875-34.848-15.746-.863 3.777 2.625 6.895 6.531 10.117l-8.402-1.183c-14.773-6.852-12.988-18.606-9.742-29.778l1.121 9.325 2.898 5.086c5.504-9.985 2.625-8.743-8.437-22.208l8.344 3.192c3.808 3.07 10.07 8.379 15.617 12.066 14.95 9.809 22.348 16.309 41.32 17.64l5.852 1.302c4.144-10.875-3.887-20.918-1.461-5.715-3.094-3.774-6.125-7.262-5.492-9.23-1.086-1.645 4.492-5.75 4.02-7.622-5.481-5.582-29.165-8.578-42.024-21.367-.375 2.14 5.949 7.676 7.043 9.578-12.758.13-20.274-3.797-21.637-7.941-.281-.688.066-3.758 1.43-4.746 1.84-.965 3.632-2.426 5.75-2.621-3.317-2.711-7.512.918-10.446 2.558-2.28 3.926 1.27 8.297 1.72 11.485-3.11-.786-7.31-6.274-7.825-9.72-4.727.52-9.067-.093-12.7-2.827 3.208-.707 6.52-1.907 9.876-2.516 8.789-1.922 18.015-10.973 26.89-3.898l-4.129-5.262c-8.285-.875-15.484 2.98-23.058 4.894zm0 0" id="path5379" fill="#fa0c0a"/><path d="M106.195 19.84c-2.36 2.758-4.722 5.515-5.273 9.226l.527.622c1.578-1.903 3.938-3.493 6.113-4.598.005 3.906 2.52 7.738 5.88 9.62l.566.04c-.711-4.125-.238-9.168 1.37-12.895 2.567-2.16 5.938-3.02 8.11-5.289-5.433-1.273-10.601-.195-15.246 1.575zm0 0" id="path5381"/><path d="M160.723 31.32c-2.23-3.09-5.403-5.57-9.43-5.218.043 3.816 5.23 6.039 9.43 5.218zm0 0" id="path5383" fill="#fff"/><path d="M128.508 31.813c-3.496.269-6.774.894-10.07 1.753 1.453 1.344 3.292 1.797 4.671 3.055-4.316 1.629-8.832 2.668-12.605 6l.781.465c6.977-1.457 15.223-1.332 22.5.227l.422-.305-4.215-7.68 6.48-1.406c-3.437-3.223-7.374-6.395-11.902-7.774.692 1.88 2.598 3.75 3.938 5.668zm0 0" id="path5385"/><path d="M153.836 39.516c3.441.636 7.246.722 10.523.105-5.414-2.77-12.332-2.223-16.644-7.086.812 2.55 2.578 6.664 6.12 6.98zm0 0" id="path5387"/><path d="M102.355 59.063c1.348 4.332-3.195 9.609.442 13.593 3.098 3.614 6.879 6.61 10.52 9.262l-.32-1.352c-3.243-3.793-6.224-7.98-7.72-12.492 3.797 1.332 7.813 3.176 12.153 3.793-4.887-7.312-13.844-14.308-10.47-24.32.185-1.652 2.368-2.926 1.817-4.461-5.105 3.91-7.242 9.68-6.422 15.976zm0 0" id="path5389"/><path d="M169.352 64.71c-.477.845-.305 2.08-.454 3.118 1.059-.543 1.809-1.719 2.864-2.176-.305-.629-1.664-.629-2.41-.941zm0 0" id="path5391" fill="#fff"/><path d="M175.54 71.18l2.17-2.13c-.483-.382-1.124-.945-1.995-.741zm0 0" id="path5393" fill="#fff"/><path d="M180.656 73.48c.512.036 1.68-2.355 2.192-2.32l-1.723-1.02c-.594-.038-.27 2.915-.469 3.34zm0 0" id="path5395" fill="#fff"/><path d="M185.941 74.563l-.55 1.359c1.199-.094 1.808-2.41 2.527-3.063-1.988-.398-2.063-.949-1.977 1.704zm0 0" id="path5397" fill="#fff"/><path d="M191.613 77.703l2.14-3.683-1.991-.457zm0 0" id="path5399" fill="#fff"/><path d="M197.082 77.066l2.453-1.879c-2.469-.972-2.61-1.335-2.453 1.88zm0 0" id="path5401" fill="#fff"/><path d="M203 75.574c.36 1.07.027 2.36-.047 3.492.578-1.097 1.906-1.882 2.07-3.183-.566-.477-1.343-.262-2.023-.309zm0 0" id="path5403" fill="#fff"/><path d="M129.29 116.664c.78 1.477.815 3.274 1.597 4.754 1.855-4.004 1.644-8.813-.762-12.414-4.18-1.844-8.219-3.762-11.82-6.691 1.496 5.117 6.394 10.757 10.984 14.351zm0 0" id="path5405"/><path d="M155.016 31.758c-1.368-.356-2.164-1.887-1.79-3.43.38-1.547 1.79-2.508 3.157-2.152 1.363.351 2.16 1.887 1.789 3.43-.383 1.539-1.797 2.503-3.156 2.152zm0 0" id="path5407"/><path d="M127.797 126.898l4.055-3.312c-3.946-2.566-10.622-7.172-14.235-10.586 2.836 5.91 2.926 12.453 10.18 13.898zm0 0" id="path5409"/><path d="M69.875 100.469c16.52 21.75 38.992 30.37 66.379 28.008l-2.328-5.079c-24.36.907-44.64-5.144-58.461-25.203zm0 0" id="path5411" fill-rule="evenodd"/></g><g id="g5191" class="pokeball" transform="translate(51.997 51.997)" clip-rule="evenodd" fill-rule="evenodd"><circle id="circle5169" r="348.003" cy="348.003" cx="348.003"/><g transform="translate(-99.175 -99.636)" id="g5175" fill="#fff"><path id="path5171" d="M573.713 473.543c-11.995 58.904-64.089 103.231-126.535 103.231-62.447 0-114.54-44.327-126.535-103.231H141.169c13.155 157.485 145.125 281.202 306.008 281.202 160.884 0 292.855-123.717 306.011-281.202z"/><path id="path5173" d="M447.178 357.277c-49.904 0-90.36 40.456-90.36 90.362 0 49.904 40.456 90.361 90.36 90.361 49.906 0 90.361-40.457 90.361-90.361 0-49.906-40.455-90.362-90.361-90.362zm.001 134.941c-24.621 0-44.579-19.958-44.579-44.578 0-24.621 19.958-44.579 44.579-44.579 24.62 0 44.578 19.958 44.578 44.579 0 24.62-19.958 44.578-44.578 44.578z"/></g><path id="path5177" d="M348.003 218.868c62.446 0 114.54 44.327 126.535 103.232h179.475C640.858 164.615 508.886 40.897 348.002 40.897 187.12 40.897 55.15 164.615 41.994 322.1h179.474c11.995-58.905 64.087-103.232 126.535-103.232z" fill="#ed1c24"/></g></svg>