<svg xmlns="http://www.w3.org/2000/svg" id="Layer_2" width="800" height="800" viewBox="0 0 800 800"><g id="g6562" class="moz" stroke-width="1.333"><path d="M341.946 328.025c-15.396 10.214-39.537 31.35-51.073 43.662 2.844.396 5.853-1.828 9.063-2.255l22.186-6.1c-9.213 7.933-28.609 21.917-34.223 32.933 6.927-2.5 21.463-10.89 28.687-11.579-6.312 5.807-19.48 16.818-23.604 23.828.5.235.151.85.23 1.276 5.426-3.12 18.613-11.292 24.6-11.844-6.158 6.658-17.486 19.48-19.966 28.068 5.344-3.656 18.798-11.066 24.683-13.317-1.339 3.39-4.312 5.907-6.244 9.296-2.672 4.688-8.985 10.021-9.22 15.595 4.688-4.542 10.507-8.552 16.344-11.751-2.604 5.63-7.396 10.287-8.697 16.99 3.828-3.86 11.082-5.87 16.016-7.651l-.595.593c-.421.365-5.979 4.459-9.765 9.032 3.364-.219.86-.64 5.161.344l-.077.213c-.298 25.787 48.629 35.214 78.609 33.907 6.323-12.267 2.91-32.079 19.24-40.6 10.988-5.859 12.233-9.061 24.92-6.672 6.854 1.293 21.854 6.485 29.037 4.844 6.697-3.885 9.959-5.593 15.89-10.26 5.74-8.74-45.745-37.067-4.13-.328 9.985 2.14 12.563 1.823 15.521-2.63 1.323-3.594 4.48-13.14 7.364-19.365l.199-3.36c-2.792-8.437-2.115-22.863-3.532-24.942-9.228-12.827-42.599-14.839-57.693-31.713 2.573-8.38-2.827-15.28-8.327-20.52-8.266-6.09-19.666-3.294-28.464-.76-10.021-2.1-19.292-5.704-29.046-8.564-21.703-2.266-43.094 13.63-43.094 13.63zm0 0" id="path5377"/><path d="M405.55 335.16l-7.193 2.75c-.864-1.723 1.292-3.36 2.147-4.963.613-1.178 2.38-1.839 2.796-3.26-9.302-1.5-18.094-6.074-28.011-4.495-10.61 1.677-16.787 5.74-22.89 10.583-3.083 1.693-4.574 4.093-7.567 6.114-3.662 3.307-5.256 9.89-6.167 11.147 5.312-2.303 10.656-1.959 14.26-3.177-13.568 8.5-15.937 25.098-12.183 38.942l-.224.307c-4.557-2.734-5.88-7.77-7.14-12.176-.896 2.894-1.026 6.573-1.636 9.806-1.457-1.364-2.26-3.312-3.072-5.052-1.526 14.651 5.604 26.584 14.339 38.151 5.853 7.756-5.573 12.885-2.88 22.62l13.739-.77c1.77-.662 1.218-.427 1.218-.427-3.442 6.906-21.672 12.134-25.172 16.082.98.814 17.006-4.134 22.871-5.129l-17.25 9.765c1.713.531-.058 6.328 3.707 5.782 23.854 7.093 50.724 16.937 54.907 6.66 3.495-6.531 8.661-17.599 7.864-23.864l3.704-5.635c-4.943 1.23-9.917 3.23-13.735 7.307-1.146-2.4.65-5.28 1.542-7.552 2.562-4.604 7.677-7.042 11.729-9.662l-8.51-3.776c-4.291-7.38-12.443-13.464-12.662-22.14l2.016.687c7.76 8.833 18.792 15.995 29.839 16.51-7.52-.645 31.41-5.245 29.12-8.546 4.14 5.964 16.645 8.468 25.786 11.604 4.197-1.516 6.03-1.084 9.181-3.933-1.344-1.458-3.421-2.655-5.421-3.41-12.005-3.324-40.355-9.168-46.464-20.996-1.15 5.036 3.5 9.194 8.708 13.49l-11.202-1.578c-19.698-9.136-17.318-24.808-12.99-39.703l1.495 12.433 3.864 6.781c7.339-13.313 3.5-11.657-11.25-29.61l11.126 4.256c5.077 4.093 13.426 11.172 20.822 16.087 19.934 13.08 29.798 21.746 55.094 23.52l7.802 1.736c5.526-14.5-5.182-27.89-1.948-7.62-4.125-5.032-8.166-9.682-7.322-12.306-1.448-2.194 5.989-7.667 5.36-10.163-7.308-7.442-38.887-11.437-56.032-28.49-.5 2.854 7.932 10.236 9.39 12.772-17.01.173-27.031-5.063-28.849-10.588-.374-.918.088-5.011 1.907-6.328 2.453-1.287 4.842-3.235 7.666-3.495-4.422-3.615-10.015 1.224-13.927 3.41-3.04 5.235 1.693 11.063 2.293 15.314-4.147-1.048-9.747-8.365-10.433-12.96-6.303.693-12.09-.124-16.934-3.77 4.278-.942 8.694-2.542 13.168-3.354 11.719-2.563 24.02-14.63 35.853-5.197l-5.505-7.016c-11.046-1.167-20.645 3.973-30.744 6.525zm0 0" id="path5379" fill="#fa0c0a"/><path d="M366.909 340.473c-3.147 3.678-6.296 7.354-7.03 12.302l.702.829c2.104-2.537 5.25-4.657 8.15-6.13.008 5.207 3.36 10.317 7.84 12.826l.755.053c-.948-5.5-.317-12.224 1.827-17.193 3.423-2.88 7.917-4.027 10.813-7.052-7.244-1.697-14.134-.26-20.328 2.1zm0 0" id="path5381"/><path d="M439.613 355.78c-2.974-4.12-7.204-7.427-12.574-6.957.058 5.088 6.974 8.052 12.574 6.957zm0 0" id="path5383" fill="#fff"/><path d="M396.66 356.437c-4.662.359-9.032 1.192-13.427 2.338 1.937 1.792 4.39 2.396 6.228 4.073-5.755 2.172-11.776 3.557-16.807 8l1.042.62c9.302-1.943 20.297-1.776 30 .303l.562-.407-5.62-10.24 8.64-1.875c-4.582-4.297-9.832-8.526-15.87-10.365.924 2.507 3.465 5 5.252 7.557zm0 0" id="path5385"/><path d="M430.43 366.708c4.588.848 9.661.963 14.03.14-7.218-3.693-16.442-2.964-22.191-9.448 1.083 3.4 3.437 8.885 8.16 9.307zm0 0" id="path5387"/><path d="M361.789 392.77c1.797 5.776-4.26 12.812.59 18.124 4.13 4.82 9.171 8.814 14.026 12.35l-.427-1.803c-4.324-5.057-8.298-10.64-10.293-16.656 5.063 1.776 10.417 4.235 16.204 5.057-6.516-9.749-18.459-19.077-13.96-32.426.247-2.203 3.157-3.901 2.423-5.948-6.807 5.213-9.656 12.906-8.563 21.301zm0 0" id="path5389"/><path d="M451.118 400.3c-.636 1.126-.407 2.773-.605 4.157 1.412-.724 2.412-2.292 3.818-2.901-.406-.839-2.218-.839-3.213-1.255zm0 0" id="path5391" fill="#fff"/><path d="M459.369 408.926l2.893-2.84c-.644-.509-1.499-1.26-2.66-.988zm0 0" id="path5393" fill="#fff"/><path d="M466.19 411.993c.683.048 2.24-3.14 2.923-3.093l-2.298-1.36c-.792-.05-.36 3.886-.625 4.453zm0 0" id="path5395" fill="#fff"/><path d="M473.237 413.437l-.734 1.812c1.599-.125 2.411-3.213 3.37-4.084-2.651-.53-2.751-1.265-2.636 2.272zm0 0" id="path5397" fill="#fff"/><path d="M480.8 417.624l2.853-4.91-2.655-.61zm0 0" id="path5399" fill="#fff"/><path d="M488.091 416.774l3.271-2.505c-3.292-1.296-3.48-1.78-3.27 2.507zm0 0" id="path5401" fill="#fff"/><path d="M495.982 414.785c.48 1.427.036 3.147-.063 4.656.771-1.463 2.542-2.51 2.76-4.244-.754-.636-1.79-.35-2.697-.412zm0 0" id="path5403" fill="#fff"/><path d="M397.702 469.572c1.04 1.969 1.087 4.365 2.13 6.338 2.473-5.338 2.192-11.75-1.016-16.552-5.574-2.458-10.96-5.016-15.76-8.921 1.994 6.823 8.525 14.343 14.645 19.135zm0 0" id="path5405"/><path d="M432.003 356.364c-1.824-.475-2.885-2.516-2.386-4.573.506-2.063 2.386-3.344 4.21-2.87 1.816.468 2.88 2.516 2.384 4.574-.51 2.052-2.396 3.337-4.208 2.869zm0 0" id="path5407"/><path d="M395.712 483.217l5.406-4.416c-5.261-3.421-14.162-9.563-18.98-14.115 3.782 7.88 3.902 16.604 13.574 18.53zm0 0" id="path5409"/><path d="M318.482 447.978c22.027 29 51.99 40.494 88.506 37.344l-3.104-6.772c-32.48 1.21-59.52-6.858-77.948-33.604zm0 0" id="path5411" fill-rule="evenodd"/></g><g id="g5191" class="pokeball" transform="translate(51.997 51.997)" clip-rule="evenodd" fill-rule="evenodd"><circle id="circle5169" r="348.003" cy="348.003" cx="348.003"/><g transform="translate(-99.175 -99.636)" id="g5175" fill="#fff"><path id="path5171" d="M573.713 473.543c-11.995 58.904-64.089 103.231-126.535 103.231-62.447 0-114.54-44.327-126.535-103.231H141.169c13.155 157.485 145.125 281.202 306.008 281.202 160.884 0 292.855-123.717 306.011-281.202z"/><path id="path5173" d="M447.178 357.277c-49.904 0-90.36 40.456-90.36 90.362 0 49.904 40.456 90.361 90.36 90.361 49.906 0 90.361-40.457 90.361-90.361 0-49.906-40.455-90.362-90.361-90.362zm.001 134.941c-24.621 0-44.579-19.958-44.579-44.578 0-24.621 19.958-44.579 44.579-44.579 24.62 0 44.578 19.958 44.578 44.579 0 24.62-19.958 44.578-44.578 44.578z"/></g><path id="path5177" d="M348.003 218.868c62.446 0 114.54 44.327 126.535 103.232h179.475C640.858 164.615 508.886 40.897 348.002 40.897 187.12 40.897 55.15 164.615 41.994 322.1h179.474c11.995-58.905 64.087-103.232 126.535-103.232z" fill="#ed1c24"/></g></svg>