<svg xmlns="http://www.w3.org/2000/svg" xmlns:xlink="http://www.w3.org/1999/xlink" id="svg8" viewBox="0 0 508.00001 285.74999" height="1080" width="1920"><defs id="defs6984"><linearGradient id="stream-5"><stop offset="0" id="stop7557" stop-color="#f60"/><stop stop-color="#ff954f" id="stop8730" offset=".312"/><stop offset=".32" id="stop8732" stop-color="#ffb98a"/><stop stop-color="#ffb686" id="stop8734" offset=".528"/><stop offset=".536" id="stop8736" stop-color="#ffd6ba"/><stop stop-color="#ffd7bc" id="stop8738" offset=".742"/><stop offset=".747" id="stop8740" stop-color="#fff"/><stop offset="1" id="stop7559" stop-color="#fff"/></linearGradient><linearGradient xlink:href="#stream-5" id="linearGradient7563" x1="69.364" y1="119.063" x2="420.541" y2="119.063" gradientUnits="userSpaceOnUse" gradientTransform="translate(0 -33.91)"/><linearGradient xlink:href="#hey-7" id="linearGradient5912" gradientUnits="userSpaceOnUse" x1="186.763" y1="637.383" x2="553.446" y2="2.269"/><linearGradient xlink:href="#linearGradient5829" id="linearGradient5914" gradientUnits="userSpaceOnUse" x1="534.386" y1="527.969" x2="631.412" y2="359.915"/></defs><path d="M116.19 107.001l12.505-7.22v38.33c0 .45.361.81.81.81h248.99c.448 0 .81-.36.81-.81v-38.107l12.119 6.997m0-43.212l-12.119 6.997V32.195c0-.45-.362-.81-.81-.81h-248.99c-.449 0-.81.36-.81.81V71.01l-12.506-7.22" id="rect5021" stroke-width="5.292" stroke="#edaf1f" fill="none"/><text style="line-height:6.61458302px" x="229.61" y="109.572" id="text4853" font-weight="400" font-size="10.583" letter-spacing="0" word-spacing="0" font-family="sans-serif" fill="#fff" stroke-width=".265"><tspan id="tspan4851" x="229.61" y="109.572">DataFlow</tspan></text><text style="line-height:6.61458302px" x="241.895" y="47.765" id="text5025" font-weight="400" font-size="10.583" letter-spacing="0" word-spacing="0" font-family="sans-serif" fill="#fff" stroke-width=".265"><tspan id="tspan5023" x="241.895" y="47.765" font-size="12.7">App</tspan></text><path d="M187.908 64.431h-.59c-.482 0-.887-.416-.887-.91a.85.85 0 0 1 .292-.64l.38-.374a.955.955 0 0 0 0-1.356l-.866-.86a.974.974 0 0 0-.68-.27.981.981 0 0 0-.68.271l-.366.365a.878.878 0 0 1-.66.3c-.498 0-.914-.405-.914-.883v-.595c0-.524-.423-.975-.952-.975h-1.181c-.529 0-.949.447-.949.975v.591c0 .478-.416.882-.913.882a.869.869 0 0 1-.645-.287l-.377-.373a.958.958 0 0 0-.68-.272.981.981 0 0 0-.68.272l-.875.855a.957.957 0 0 0 0 1.352l.365.366a.88.88 0 0 1 .303.657c0 .497-.404.91-.886.91h-.59c-.533 0-.98.415-.98.943v1.181c0 .526.447.945.98.945h.59c.482 0 .886.416.886.91a.88.88 0 0 1-.303.657l-.365.361a.957.957 0 0 0 0 1.353l.867.862a.958.958 0 0 0 .68.273.981.981 0 0 0 .68-.273l.377-.373a.863.863 0 0 1 .645-.287c.498 0 .913.404.913.882v.59c0 .525.42.976.953.976h1.181c.529 0 .949-.447.949-.975v-.59c0-.479.415-.883.913-.883.249 0 .482.11.66.3l.366.364a.981.981 0 0 0 .68.272.981.981 0 0 0 .68-.272l.867-.862a.962.962 0 0 0 0-1.357l-.381-.373a.857.857 0 0 1-.291-.64c0-.499.404-.91.886-.91h.59c.529 0 .906-.417.906-.945v-1.185c.008-.53-.37-.945-.898-.945zm-3.408 1.535a3.11 3.11 0 1 1-6.219 0 3.11 3.11 0 1 1 6.219 0z" class="function" id="path6074" fill="#fff" stroke="#d9d20d" stroke-width=".129"/><path d="M262.26 64.431h-.59c-.482 0-.886-.416-.886-.91a.85.85 0 0 1 .292-.64l.38-.374a.955.955 0 0 0 0-1.356l-.866-.86a.974.974 0 0 0-.68-.27.981.981 0 0 0-.68.271l-.366.365a.878.878 0 0 1-.66.3c-.498 0-.914-.405-.914-.883v-.595c0-.524-.424-.975-.952-.975h-1.182c-.528 0-.948.447-.948.975v.591c0 .478-.416.882-.913.882a.869.869 0 0 1-.646-.287l-.377-.373a.958.958 0 0 0-.68-.272.981.981 0 0 0-.68.272l-.874.855a.957.957 0 0 0 0 1.352l.365.366a.88.88 0 0 1 .303.657c0 .497-.404.91-.886.91h-.59c-.533 0-.98.415-.98.943v1.181c0 .526.447.945.98.945h.59c.482 0 .886.416.886.91a.88.88 0 0 1-.303.657l-.365.361a.957.957 0 0 0 0 1.353l.866.862a.958.958 0 0 0 .68.273.981.981 0 0 0 .68-.273l.378-.373a.863.863 0 0 1 .645-.287c.497 0 .913.404.913.882v.59c0 .525.42.976.952.976h1.182c.529 0 .948-.447.948-.975v-.59c0-.479.416-.883.914-.883.248 0 .482.11.66.3l.366.364a.981.981 0 0 0 .68.272.981.981 0 0 0 .68-.272l.867-.862a.962.962 0 0 0 0-1.357l-.381-.373a.857.857 0 0 1-.292-.64c0-.499.404-.91.886-.91h.591c.529 0 .906-.417.906-.945v-1.185c.008-.53-.37-.945-.898-.945zm-3.408 1.535a3.109 3.109 0 1 1-6.218 0 3.109 3.109 0 1 1 6.218 0z" class="function" id="path6076" fill="#fff" stroke="#d9d20d" stroke-width=".129"/><path id="path5035" class="function" d="M336.614 64.431h-.591c-.482 0-.886-.416-.886-.91a.85.85 0 0 1 .291-.64l.381-.374a.955.955 0 0 0 0-1.356l-.867-.86a.974.974 0 0 0-.68-.27.981.981 0 0 0-.68.271l-.365.365a.878.878 0 0 1-.66.3c-.498 0-.914-.405-.914-.883v-.595c0-.524-.424-.975-.952-.975h-1.182c-.529 0-.948.447-.948.975v.591c0 .478-.416.882-.914.882a.869.869 0 0 1-.645-.287l-.377-.373a.958.958 0 0 0-.68-.272.981.981 0 0 0-.68.272l-.875.855a.957.957 0 0 0 0 1.352l.366.366a.88.88 0 0 1 .303.657c0 .497-.404.91-.886.91h-.591c-.532 0-.98.415-.98.943v1.181c0 .526.448.945.98.945h.59c.483 0 .887.416.887.91a.88.88 0 0 1-.303.657l-.366.361a.957.957 0 0 0 0 1.353l.867.862a.958.958 0 0 0 .68.273.981.981 0 0 0 .68-.273l.377-.373a.863.863 0 0 1 .646-.287c.497 0 .913.404.913.882v.59c0 .525.42.976.952.976h1.182c.528 0 .948-.447.948-.975v-.59c0-.479.416-.883.913-.883.25 0 .482.11.661.3l.365.364a.981.981 0 0 0 .68.272.981.981 0 0 0 .68-.272l.867-.862a.962.962 0 0 0 0-1.357l-.38-.373a.857.857 0 0 1-.292-.64c0-.499.404-.91.886-.91h.59c.53 0 .906-.417.906-.945v-1.185c.008-.53-.369-.945-.897-.945zm-3.409 1.535a3.109 3.109 0 1 1-6.218 0 3.109 3.109 0 1 1 6.218 0z" fill="#fff" stroke="#d9d20d" stroke-width=".129"/><path d="M131.698 94.865h244.897l.001-19.424H131.698z" id="rect7706" fill="#a3caff" stroke-width="1.323" stroke-linecap="round" stroke-linejoin="round" paint-order="stroke fill markers"/><path d="M234.378 191.68H67.82V85.153l263.917.235 91.81.082v106.21H274.722" id="path7555" class="stream" fill="none" fill-rule="evenodd" stroke="url(#linearGradient7563)" stroke-width="2.646"/><g id="g4657" transform="translate(235.117 173.193) scale(.05901)"><linearGradient y2="2.269" x2="553.446" y1="637.383" x1="186.763" gradientUnits="userSpaceOnUse" id="hey-7"><stop id="stop5818" offset=".415" stop-color="#51d3d9"/><stop id="stop5820" offset="1" stop-color="#c8ff8c"/></linearGradient><path id="path4648" d="M639.9 495.8c-.3 6.5-2.1 12.9-5.4 18.7l-60.6 105c-7.3 12.7-20.8 20.5-35.4 20.5H202.2c-14.6 0-28.1-7.8-35.4-20.4L5.5 340.5C1.8 334.1 0 327.1 0 320s1.4-14.5 5.7-21.7L166.9 20.4C174.2 7.8 187.7 0 202.2 0h336.3c14.6 0 28.1 7.8 35.4 20.4 0 0 58.3 95.5 62.5 102.3 4.2 6.8 3.5 15.4 3.5 22.4 0 6-1.7 14.2-3.3 20.7-1.6 6.5-50.4 204.3-50.4 204.3L479.7 143.6H261.4L159.2 320l102.2 176.4h218.2z" fill="url(#linearGradient5912)"/><linearGradient y2="359.915" x2="631.412" y1="527.969" x1="534.386" gradientUnits="userSpaceOnUse" id="linearGradient5829"><stop id="stop5825" offset=".415" stop-color="#51d3d9"/><stop id="stop5827" offset="1" stop-color="#5a919b"/></linearGradient><path id="path4655" d="M562.1 319.9l74 156.9c5.7 12.1 5.1 26.2-1.6 37.8l-154.8-18.1z" fill="url(#linearGradient5914)"/></g><path class="time-min" d="M256.556 192.727l9.602-10.656" id="path4501-3" fill="none" stroke="#fff" stroke-width="3.657" stroke-linecap="round"/><path class="time-hour" d="M256.556 192.727l-7.318-6.307" id="path4503-6" fill="none" stroke="#fff" stroke-width="3.657" stroke-linecap="round"/></svg>