<svg xmlns="http://www.w3.org/2000/svg" xmlns:xlink="http://www.w3.org/1999/xlink" width="2500" height="500" viewBox="0 0 661.45833 132.29168" id="svg8"><defs id="defs2"><linearGradient id="linearGradient5473"><stop offset="0" id="stop5469" stop-color="#655488"/><stop offset="1" id="stop5471" stop-color="#655488" stop-opacity="0"/></linearGradient><linearGradient id="linearGradient5465"><stop offset="0" id="stop5461" stop-color="#72c0d7"/><stop offset="1" id="stop5463" stop-color="#72c0d7" stop-opacity="0"/></linearGradient><linearGradient id="linearGradient5457"><stop offset="0" id="stop5453" stop-color="#83c730"/><stop offset="1" id="stop5455" stop-color="#83c730" stop-opacity="0"/></linearGradient><linearGradient id="linearGradient5449"><stop offset="0" id="stop5445" stop-color="#fdfb24"/><stop offset="1" id="stop5447" stop-color="#fdfb24" stop-opacity="0"/></linearGradient><linearGradient id="linearGradient5441"><stop offset="0" id="stop5437" stop-color="#e88717"/><stop offset="1" id="stop5439" stop-color="#e88717" stop-opacity="0"/></linearGradient><linearGradient id="linearGradient5433"><stop offset="0" id="stop5429" stop-color="#cb1328"/><stop offset="1" id="stop5431" stop-color="#cb1328" stop-opacity="0"/></linearGradient><linearGradient id="linearGradient5425"><stop offset="0" id="stop5421" stop-color="#fff" stop-opacity="0"/><stop offset="1" id="stop5423" stop-color="#fff"/></linearGradient><linearGradient xlink:href="#linearGradient5425" id="linearGradient5427" x1="39.65" y1="167.11" x2="232.815" y2="167.11" gradientUnits="userSpaceOnUse" gradientTransform="translate(110.393 -10.956)"/><linearGradient xlink:href="#linearGradient5433" id="linearGradient5435" x1="266.576" y1="147.761" x2="459.742" y2="147.761" gradientUnits="userSpaceOnUse" gradientTransform="translate(110.393 -10.956)"/><linearGradient xlink:href="#linearGradient5441" id="linearGradient5443" x1="270.318" y1="154.603" x2="463.484" y2="154.603" gradientUnits="userSpaceOnUse" gradientTransform="translate(110.393 -10.956)"/><linearGradient xlink:href="#linearGradient5449" id="linearGradient5451" x1="275.129" y1="161.445" x2="468.295" y2="161.445" gradientUnits="userSpaceOnUse" gradientTransform="translate(110.393 -10.956)"/><linearGradient xlink:href="#linearGradient5457" id="linearGradient5459" x1="278.336" y1="168.286" x2="471.502" y2="168.286" gradientUnits="userSpaceOnUse" gradientTransform="translate(110.393 -10.956)"/><linearGradient xlink:href="#linearGradient5465" id="linearGradient5467" x1="282.078" y1="175.128" x2="475.244" y2="175.128" gradientUnits="userSpaceOnUse" gradientTransform="translate(110.393 -10.956)"/><linearGradient xlink:href="#linearGradient5473" id="linearGradient5475" x1="287.156" y1="181.97" x2="480.322" y2="181.97" gradientUnits="userSpaceOnUse" gradientTransform="translate(110.393 -10.956)"/><linearGradient xlink:href="#final-3" id="linearGradient4697" gradientUnits="userSpaceOnUse" x1="186.763" y1="637.383" x2="553.446" y2="2.269"/><linearGradient y2="2.269" x2="553.446" y1="637.383" x1="186.763" gradientUnits="userSpaceOnUse" id="final-3"><stop id="stop4643" offset=".415" stop-color="#51d3d9"/><stop id="stop4645" offset="1" stop-color="#c8ff8c"/></linearGradient><linearGradient xlink:href="#final-4-6" id="linearGradient4699" gradientUnits="userSpaceOnUse" x1="534.386" y1="527.969" x2="631.412" y2="359.915"/><linearGradient y2="359.915" x2="631.412" y1="527.969" x1="534.386" gradientUnits="userSpaceOnUse" id="final-4-6"><stop id="stop4650" offset=".415" stop-color="#51d3d9"/><stop id="stop4652" offset="1" stop-color="#5a919b"/></linearGradient></defs><g id="layer1" transform="translate(-39.65 -77.024)"><path d="M150.077 182.025l193.097-51.74" id="path4511" class="stream" fill="none" fill-rule="evenodd" stroke="url(#linearGradient5427)" stroke-width=".265"/><path id="path4513" d="M388.763 131.46l193.098 51.741" class="stream" fill="none" fill-rule="evenodd" stroke="url(#linearGradient5459)" stroke-width=".265"/><path class="stream" d="M385.556 124.619l193.097 51.74" id="path4556" fill="none" fill-rule="evenodd" stroke="url(#linearGradient5451)" stroke-width=".265"/><path class="stream" d="M392.505 138.303l193.097 51.74" id="path4558" fill="none" fill-rule="evenodd" stroke="url(#linearGradient5467)" stroke-width=".265"/><path id="path4560" d="M397.583 145.144l193.098 51.74" class="stream" fill="none" fill-rule="evenodd" stroke="url(#linearGradient5475)" stroke-width=".265"/><path id="path4562" d="M380.745 117.777l193.098 51.74" class="stream" fill="none" fill-rule="evenodd" stroke="url(#linearGradient5443)" stroke-width=".265"/><path class="stream" d="M377.004 110.935l193.097 51.74" id="path4564" fill="none" fill-rule="evenodd" stroke="url(#linearGradient5435)" stroke-width=".265"/><path id="path4493" d="M427.358 197.698H301.429l31.482-54.529 31.482-54.528 31.482 54.528z" fill="#0a0a0a" stroke="#fff" stroke-width="2.646" stroke-linecap="round" paint-order="stroke fill markers"/><g id="g4657" transform="translate(241.525 118.584) scale(.04113)"><linearGradient y2="2.269" x2="553.446" y1="637.383" x1="186.763" gradientUnits="userSpaceOnUse" id="linearGradient5212"><stop id="stop5208" offset=".415" stop-color="#51d3d9"/><stop id="stop5210" offset="1" stop-color="#c8ff8c"/></linearGradient><path id="path4648" d="M639.9 495.8c-.3 6.5-2.1 12.9-5.4 18.7l-60.6 105c-7.3 12.7-20.8 20.5-35.4 20.5H202.2c-14.6 0-28.1-7.8-35.4-20.4L5.5 340.5C1.8 334.1 0 327.1 0 320s1.4-14.5 5.7-21.7L166.9 20.4C174.2 7.8 187.7 0 202.2 0h336.3c14.6 0 28.1 7.8 35.4 20.4 0 0 58.3 95.5 62.5 102.3 4.2 6.8 3.5 15.4 3.5 22.4 0 6-1.7 14.2-3.3 20.7-1.6 6.5-50.4 204.3-50.4 204.3L479.7 143.6H261.4L159.2 320l102.2 176.4h218.2z" fill="url(#linearGradient4697)"/><linearGradient y2="359.915" x2="631.412" y1="527.969" x1="534.386" gradientUnits="userSpaceOnUse" id="linearGradient5219"><stop id="stop5215" offset=".415" stop-color="#51d3d9"/><stop id="stop5217" offset="1" stop-color="#5a919b"/></linearGradient><path id="path4655" d="M562.1 319.9l74 156.9c5.7 12.1 5.1 26.2-1.6 37.8l-154.8-18.1z" fill="url(#linearGradient4699)"/></g><path class="time-min" d="M256.467 132.198l6.692-7.427" id="path4501" fill="none" stroke="#fff" stroke-width="2.549" stroke-linecap="round"/><path class="time-hour" d="M256.467 132.198l-5.1-4.396" id="path4503" fill="none" stroke="#fff" stroke-width="2.549" stroke-linecap="round"/></g></svg>