<svg xmlns="http://www.w3.org/2000/svg" xmlns:xlink="http://www.w3.org/1999/xlink" width="412.901" height="871.727" viewBox="0 0 109.24666 230.64434" id="svg4511"><defs id="defs4493"><linearGradient id="linearGradient4521"><stop offset="0" id="stop4517" stop-color="#e83d08"/><stop offset="1" id="stop4519" stop-color="#fff"/></linearGradient><linearGradient xlink:href="#linearGradient4521" id="linearGradient4523" x1="233.703" y1="92.108" x2="232.732" y2="229.222" gradientUnits="userSpaceOnUse"/></defs><g transform="translate(-170.273 -44.13)" id="g4509"><path style="line-height:normal;font-variant-ligatures:normal;font-variant-position:normal;font-variant-caps:normal;font-variant-numeric:normal;font-variant-alternates:normal;font-feature-settings:normal;text-indent:0;text-align:start;text-decoration-line:none;text-decoration-style:solid;text-decoration-color:#000;text-transform:none;text-orientation:mixed;shape-padding:0;isolation:auto;mix-blend-mode:normal" d="M218.28 98.547v124.219h13.231V98.546z" font-weight="400" overflow="visible" id="path4501" color="#000" font-family="sans-serif" white-space="normal" fill="#a3caff" fill-rule="evenodd" stroke-width="13.229"/><path d="M207.767 86.112l7.137 12.362h-43.696a.933.933 0 0 0-.935.935V221.49c0 .518.417.935.935.935h43.973l-7.414 12.842m34.259 0l-7.414-12.842h43.973a.933.933 0 0 0 .935-.935V99.41a.933.933 0 0 0-.935-.935H234.89l7.137-12.362" id="rect4495" fill="none" stroke="#edaf1f" stroke-width="5.292"/><text style="line-height:6.61458302px" x="214.561" y="51.845" font-weight="400" font-size="10.583" font-family="sans-serif" letter-spacing="0" word-spacing="0" stroke-width=".265" id="text4499"><tspan x="214.561" y="51.845" id="tspan4497">RAF</tspan></text><path d="M225.085 56.002l-.378 206.98" class="stream raf-stream" stroke-miterlimit="10" id="path4503" fill="none" fill-rule="evenodd" stroke="url(#linearGradient4523)" stroke-width="2.646" stroke-linecap="round" stroke-dasharray="2.64583204,5.29166407000000039"/><text y="274.624" x="212.09" style="line-height:6.61458302px" font-weight="400" font-size="10.583" font-family="sans-serif" letter-spacing="0" word-spacing="0" stroke-width=".265" id="text4507"><tspan y="274.624" x="212.09" id="tspan4505">DOM</tspan></text></g></svg>