<svg xmlns="http://www.w3.org/2000/svg" xmlns:xlink="http://www.w3.org/1999/xlink" width="412.901" height="866.254" viewBox="0 0 109.24666 229.19635" id="svg4766"><defs id="defs4738"><linearGradient id="gradpause1"><stop offset="0" stop-color="#ef3b00" id="stop4730"/><stop offset=".034" stop-color="#e83d08" id="stop4732"/><stop offset="1" stop-color="#fff" id="stop4734"/></linearGradient><linearGradient xlink:href="#gradpause1" id="gpause1" x1="213.302" y1="98.318" x2="212.616" y2="231.089" gradientUnits="userSpaceOnUse"/></defs><g transform="translate(-170.273 -50.64)" id="g4764"><text y="58.494" x="188.102" style="line-height:6.61458349px" font-weight="400" font-size="10.583" font-family="sans-serif" letter-spacing="0" word-spacing="0" stroke-width=".265" id="text4744"><tspan y="58.494" x="188.102" id="tspan4742">RAF</tspan></text><text style="line-height:6.61458349px" x="212.09" y="279.686" font-weight="400" font-size="10.583" font-family="sans-serif" letter-spacing="0" word-spacing="0" stroke-width=".265" id="text4748"><tspan x="212.09" y="279.686" id="tspan4746">DOM</tspan></text><path d="M255.996 65.826l-.068 33.036" class="stream lf dom-stream" fill="none" fill-rule="evenodd" stroke="#ef3b00" stroke-width=".265" stroke-linecap="round" stroke-miterlimit="10" id="path4752"/><path d="M198.249 105.477v54.503l26.193 26.194v38.63" id="path4754" fill="none" fill-rule="evenodd" stroke="#a3caff" stroke-width="10.583"/><path d="M198.317 65.826l-.068 37.534v57.15l26.647 26.724-.19 80.81" class="stream raf-stream" fill="none" fill-rule="evenodd" stroke="url(#gpause1)" stroke-width=".265" stroke-linecap="round" stroke-miterlimit="10" id="path4758"/><text style="line-height:6.61458349px" x="243.157" y="58.494" font-weight="400" font-size="10.583" font-family="sans-serif" letter-spacing="0" word-spacing="0" stroke-width=".265" id="text4762"><tspan x="243.157" y="58.494" id="tspan4760">DOM</tspan></text><path id="path4507" d="M256.746 105.49v54.504" fill="none" fill-rule="evenodd" stroke="#a3caff" stroke-width="10.583"/></g><path id="path11347" d="M76.54 52.797l-7.076-11.084m-57.37-.285l6.079 11.304H.935a.933.933 0 0 0-.935.934V175.75c0 .518.417.935.935.935H43.85l-6.885 11.254m33.73.53l-6.356-11.784h43.973a.933.933 0 0 0 .935-.935V53.666a.933.933 0 0 0-.935-.934l-12.011-.392 5.613-10.627m-32.45 0l7.076 11.084-38.383-.065 6.079-11.304" fill="none" stroke="#edaf1f" stroke-width="5.5" paint-order="stroke fill markers"/></svg>