<svg xmlns="http://www.w3.org/2000/svg" width="1920" height="1080" viewBox="0 0 508.00001 285.74999" id="svg8"><defs id="defs15462"><marker orient="auto" id="marker11503" overflow="visible"><path id="path11501" d="M-5.231-2.42L1.324-.01-5.23 2.401c1.047-1.423 1.041-3.37 0-4.821z" fill="#fff" fill-rule="evenodd" stroke="#fff" stroke-width=".375" stroke-linejoin="round"/></marker><marker id="marker17553" orient="auto" overflow="visible"><path d="M-5.231-2.42L1.324-.01-5.23 2.401c1.047-1.423 1.041-3.37 0-4.821z" id="path17551" fill="#fff" fill-rule="evenodd" stroke="#fff" stroke-width=".375" stroke-linejoin="round"/></marker><marker id="marker17553-3" orient="auto" overflow="visible"><path d="M-5.231-2.42L1.324-.01-5.23 2.401c1.047-1.423 1.041-3.37 0-4.821z" id="path17551-6" fill="#fff" fill-rule="evenodd" stroke="#fff" stroke-width=".375" stroke-linejoin="round"/></marker></defs><g transform="translate(0 -11.25)" id="layer1"><path d="M351.458 107.384l-16.021 9.25v-69.69c0-.72-.58-1.298-1.298-1.298H151.527c-.719 0-1.298.579-1.298 1.298v169.383c0 .719.58 1.298 1.298 1.298H334.14c.719 0 1.298-.579 1.298-1.298v-69.69l16.021 9.25" id="rect4666" fill="none" stroke="#edaf1f" stroke-width="5.292" stroke-linejoin="bevel" stroke-linecap="round"/><text style="line-height:6.61458302px" x="230.728" y="58.019" id="text4915" font-weight="400" font-size="10.583" letter-spacing="0" word-spacing="0" font-family="sans-serif" stroke-width=".265"><tspan id="tspan4913" x="230.728" y="58.019" font-size="12.7" fill="#fff">App</tspan></text><g transform="matrix(.513 0 0 .513 111.938 58.843)" id="g4505" stroke="#fff" stroke-width="3.969" stroke-linecap="round"><circle r="21.694" cy="139.316" cx="139.935" id="circle4499" fill="none" paint-order="stroke fill markers"/><path class="time-min" d="M139.935 139.316l10.419-11.564" id="path4501" fill="none"/><path class="time-hour" d="M140.269 139.316l-7.941-6.844" id="path4503" fill="none"/></g><path d="M183.403 145.048l.281 6.932 40.346.426v.32" id="path6348" class="stream" fill="none" fill-rule="evenodd" stroke="#fff" stroke-width=".265"/><path d="M184.043 114.338v-9.645h77.415" id="path6350" class="stream" fill="none" fill-rule="evenodd" stroke="#fff" stroke-width=".265"/><g transform="translate(-8.27 -10.257)" id="g6320"><rect ry="1.325" y="150.792" x="216.259" height="23.382" width="53.111" id="rect6314" fill="#a3caff" stroke="#287df2" stroke-width=".256" stroke-linecap="round" stroke-linejoin="round" paint-order="stroke fill markers"/><text id="text6318" y="164.367" x="222.211" style="line-height:6.61458302px" font-weight="400" font-size="7.056" letter-spacing="0" word-spacing="0" font-family="sans-serif" stroke-width=".265"><tspan y="164.367" x="222.211" id="tspan6316" fill="#1a1a1a">Component</tspan></text></g><g id="g6328" transform="translate(55.39 -10.257)"><rect id="rect6322" width="53.111" height="23.382" x="216.259" y="150.792" ry="1.325" fill="#a3caff" stroke="#287df2" stroke-width=".256" stroke-linecap="round" stroke-linejoin="round" paint-order="stroke fill markers"/><text style="line-height:6.61458302px" x="222.211" y="164.367" id="text6326" font-weight="400" font-size="7.056" letter-spacing="0" word-spacing="0" font-family="sans-serif" stroke-width=".265"><tspan id="tspan6324" x="222.211" y="164.367" fill="#1a1a1a">Component</tspan></text></g><g id="g6304" transform="translate(24.619 -57.258)"><rect id="rect6298" width="53.111" height="23.382" x="216.259" y="150.792" ry="1.325" fill="#a3caff" stroke="#287df2" stroke-width=".256" stroke-linecap="round" stroke-linejoin="round" paint-order="stroke fill markers"/><text style="line-height:6.61458302px" x="222.211" y="164.367" id="text6302" font-weight="400" font-size="7.056" letter-spacing="0" word-spacing="0" font-family="sans-serif" stroke-width=".265"><tspan id="tspan6300" x="222.211" y="164.367" fill="#1a1a1a">Component</tspan></text></g><path d="M264.924 115.937l-27.192 25.912" id="path6431" fill="none" fill-rule="evenodd" stroke="#a3caff" stroke-width="1.323"/><path d="M270.362 114.977l24.312 29.431" id="path6433" fill="none" fill-rule="evenodd" stroke="#a3caff" stroke-width="1.323"/><rect y="105.275" x="388.474" height="52.917" width="84.667" id="rect5875" ry=".399" class="appland" stroke-width=".375"/><text word-spacing="0" letter-spacing="0" font-size="10.583" font-weight="400" id="text5879" y="136.468" x="395.327" style="line-height:6.61458302px" font-family="sans-serif" stroke-width=".265"><tspan font-size="12.7" y="136.468" x="395.327" id="tspan5877" fill="#fff">React Land</tspan></text><g id="g8073" class="hidden output" transform="translate(1.058)"><rect ry="1.02" y="123.135" x="292.608" height="18.006" width="43.211" id="rect6752" fill="#a3caff" stroke="#287df2" stroke-width=".203" stroke-linecap="round" stroke-linejoin="round" paint-order="stroke fill markers"/><text word-spacing="0" letter-spacing="0" font-size="5.585" font-weight="400" id="text6756" y="139.479" x="290.552" style="line-height:5.23580313px" transform="scale(1.02786 .9729)" font-family="sans-serif" stroke-width=".21"><tspan y="139.479" x="290.552" id="tspan6754" font-size="10.053" fill="#1a1a1a">VDOM</tspan></text></g></g><style id="style4585"/></svg>